%FSLAX43Y43*%
%MOMM*%
G71*
G01*
G75*
G04 Layer_Color=16711935*
%ADD10O,0.800X0.400*%
%ADD11R,0.205X0.282*%
%ADD12R,0.600X0.900*%
%ADD13C,0.800*%
%ADD14R,0.650X0.800*%
%ADD15R,0.800X0.650*%
%ADD16R,0.600X0.550*%
%ADD17R,0.550X0.600*%
%ADD18R,0.500X0.650*%
%ADD19R,1.200X1.200*%
%ADD20R,1.000X2.250*%
%ADD21R,0.900X0.600*%
%ADD22R,0.500X0.600*%
%ADD23R,0.650X0.500*%
%ADD24R,0.700X0.700*%
%ADD25R,0.305X0.584*%
%ADD26R,0.350X0.700*%
%ADD27R,1.100X0.600*%
%ADD28R,1.100X1.000*%
%ADD29R,1.200X1.200*%
%ADD30R,1.300X1.400*%
%ADD31R,0.850X0.300*%
%ADD32O,0.280X0.800*%
%ADD33O,0.800X0.280*%
%ADD34R,7.650X7.650*%
%ADD35R,1.300X1.600*%
%ADD36R,1.100X1.300*%
%ADD37R,2.300X1.900*%
%ADD38R,0.400X1.400*%
%ADD39R,1.775X1.900*%
%ADD40R,0.600X1.000*%
G04:AMPARAMS|DCode=41|XSize=0.205mm|YSize=0.282mm|CornerRadius=0mm|HoleSize=0mm|Usage=FLASHONLY|Rotation=225.000|XOffset=0mm|YOffset=0mm|HoleType=Round|Shape=Rectangle|*
%AMROTATEDRECTD41*
4,1,4,-0.027,0.172,0.172,-0.027,0.027,-0.172,-0.172,0.027,-0.027,0.172,0.0*
%
%ADD41ROTATEDRECTD41*%

G04:AMPARAMS|DCode=42|XSize=0.205mm|YSize=0.282mm|CornerRadius=0mm|HoleSize=0mm|Usage=FLASHONLY|Rotation=135.000|XOffset=0mm|YOffset=0mm|HoleType=Round|Shape=Rectangle|*
%AMROTATEDRECTD42*
4,1,4,0.172,0.027,-0.027,-0.172,-0.172,-0.027,0.027,0.172,0.172,0.027,0.0*
%
%ADD42ROTATEDRECTD42*%

%ADD43R,0.282X0.205*%
%ADD44C,0.216*%
%ADD45C,0.150*%
%ADD46C,0.125*%
%ADD47C,0.160*%
%ADD48C,0.300*%
%ADD49C,0.200*%
%ADD50C,0.180*%
%ADD51C,0.254*%
%ADD52R,0.216X2.303*%
%ADD53R,2.386X0.197*%
%ADD54R,0.598X0.716*%
%ADD55R,0.600X0.670*%
%ADD56R,0.763X0.125*%
%ADD57R,0.601X0.571*%
%ADD58R,1.650X0.550*%
%ADD59R,2.025X0.450*%
%ADD60R,0.350X3.200*%
%ADD61R,0.450X2.959*%
%ADD62C,3.600*%
%ADD63R,1.700X1.700*%
%ADD64C,1.700*%
%ADD65R,1.700X1.700*%
%ADD66C,1.270*%
%ADD67C,2.400*%
%ADD68C,0.550*%
%ADD69C,0.350*%
%ADD70C,0.380*%
%ADD71C,0.500*%
G04:AMPARAMS|DCode=72|XSize=4.224mm|YSize=4.224mm|CornerRadius=0mm|HoleSize=0mm|Usage=FLASHONLY|Rotation=0.000|XOffset=0mm|YOffset=0mm|HoleType=Round|Shape=Relief|Width=0.254mm|Gap=0.254mm|Entries=4|*
%AMTHD72*
7,0,0,4.224,3.716,0.254,45*
%
%ADD72THD72*%
%ADD73C,1.400*%
G04:AMPARAMS|DCode=74|XSize=2.524mm|YSize=2.524mm|CornerRadius=0mm|HoleSize=0mm|Usage=FLASHONLY|Rotation=0.000|XOffset=0mm|YOffset=0mm|HoleType=Round|Shape=Relief|Width=0.254mm|Gap=0.254mm|Entries=4|*
%AMTHD74*
7,0,0,2.524,2.016,0.254,45*
%
%ADD74THD74*%
%ADD75C,1.600*%
G04:AMPARAMS|DCode=76|XSize=2.724mm|YSize=2.724mm|CornerRadius=0mm|HoleSize=0mm|Usage=FLASHONLY|Rotation=0.000|XOffset=0mm|YOffset=0mm|HoleType=Round|Shape=Relief|Width=0.254mm|Gap=0.254mm|Entries=4|*
%AMTHD76*
7,0,0,2.724,2.216,0.254,45*
%
%ADD76THD76*%
%ADD77C,1.900*%
G04:AMPARAMS|DCode=78|XSize=3.124mm|YSize=3.124mm|CornerRadius=0mm|HoleSize=0mm|Usage=FLASHONLY|Rotation=0.000|XOffset=0mm|YOffset=0mm|HoleType=Round|Shape=Relief|Width=0.254mm|Gap=0.254mm|Entries=4|*
%AMTHD78*
7,0,0,3.124,2.616,0.254,45*
%
%ADD78THD78*%
%ADD79C,0.650*%
%ADD80C,3.100*%
%ADD81C,2.000*%
%ADD82R,1.300X0.600*%
%ADD83R,0.950X1.750*%
%ADD84R,0.762X0.762*%
%ADD85R,0.350X0.850*%
%ADD86C,0.280*%
%ADD87R,0.900X0.650*%
%ADD88R,1.300X1.600*%
%ADD89C,0.400*%
%ADD90C,0.250*%
%ADD91C,1.000*%
%ADD92C,0.102*%
%ADD93C,0.100*%
%ADD94C,0.112*%
%ADD95R,0.800X1.000*%
%ADD96R,0.875X0.550*%
%ADD97R,2.100X2.100*%
%ADD98R,2.100X2.100*%
%ADD99R,1.750X1.750*%
%ADD100R,1.800X1.800*%
%ADD101R,1.800X2.000*%
%ADD102R,2.000X1.800*%
%ADD103R,1.700X1.700*%
%ADD104R,0.300X0.400*%
%ADD105O,0.220X0.740*%
%ADD106O,0.740X0.220*%
%ADD107R,2.050X2.050*%
%ADD108R,1.800X0.700*%
%ADD109O,0.900X0.500*%
%ADD110R,0.332X0.408*%
%ADD111R,0.700X1.000*%
%ADD112C,0.900*%
%ADD113R,0.750X0.900*%
%ADD114R,0.900X0.750*%
%ADD115R,0.700X0.650*%
%ADD116R,0.650X0.700*%
%ADD117R,0.600X0.750*%
%ADD118R,1.300X1.300*%
%ADD119R,1.100X2.350*%
%ADD120R,1.000X0.700*%
%ADD121R,0.600X0.700*%
%ADD122R,0.750X0.600*%
%ADD123R,0.800X0.800*%
%ADD124R,0.405X0.684*%
%ADD125R,0.450X0.800*%
%ADD126R,1.200X0.700*%
%ADD127R,1.200X1.100*%
%ADD128R,1.300X1.300*%
%ADD129R,1.400X1.500*%
%ADD130R,0.950X0.400*%
%ADD131R,1.400X1.700*%
%ADD132R,1.200X1.400*%
%ADD133R,2.400X2.000*%
%ADD134R,0.500X1.500*%
%ADD135R,1.875X2.000*%
%ADD136R,0.700X1.100*%
G04:AMPARAMS|DCode=137|XSize=0.332mm|YSize=0.408mm|CornerRadius=0mm|HoleSize=0mm|Usage=FLASHONLY|Rotation=225.000|XOffset=0mm|YOffset=0mm|HoleType=Round|Shape=Rectangle|*
%AMROTATEDRECTD137*
4,1,4,-0.027,0.261,0.261,-0.027,0.027,-0.261,-0.261,0.027,-0.027,0.261,0.0*
%
%ADD137ROTATEDRECTD137*%

G04:AMPARAMS|DCode=138|XSize=0.332mm|YSize=0.408mm|CornerRadius=0mm|HoleSize=0mm|Usage=FLASHONLY|Rotation=135.000|XOffset=0mm|YOffset=0mm|HoleType=Round|Shape=Rectangle|*
%AMROTATEDRECTD138*
4,1,4,0.261,0.027,-0.027,-0.261,-0.261,-0.027,0.027,0.261,0.261,0.027,0.0*
%
%ADD138ROTATEDRECTD138*%

%ADD139R,0.408X0.332*%
%ADD140C,3.700*%
%ADD141R,1.800X1.800*%
%ADD142C,1.800*%
%ADD143R,1.800X1.800*%
%ADD144C,1.370*%
%ADD145C,2.500*%
%ADD146R,1.400X0.700*%
%ADD147R,1.050X1.850*%
%ADD148R,0.862X0.862*%
%ADD149R,0.450X0.950*%
%ADD150R,1.080X0.830*%
%ADD151R,1.400X1.700*%
G36*
X-18282Y-29375D02*
X-18278Y-29374D01*
X-18272Y-29377D01*
X-18265Y-29378D01*
X-18263Y-29380D01*
X-18259Y-29381D01*
X-18254Y-29385D01*
X-18249Y-29389D01*
X-18247Y-29392D01*
X-18244Y-29394D01*
X-18242Y-29400D01*
X-18238Y-29405D01*
X-18237Y-29409D01*
X-18236Y-29412D01*
X-18235Y-29418D01*
X-18234Y-29425D01*
X-18235Y-29428D01*
X-18234Y-29432D01*
X-18261Y-29635D01*
X-18263Y-29642D01*
X-18265Y-29648D01*
X-18343Y-29838D01*
X-18347Y-29843D01*
X-18350Y-29849D01*
X-18475Y-30012D01*
X-18480Y-30017D01*
X-18484Y-30022D01*
X-18647Y-30147D01*
X-18653Y-30150D01*
X-18659Y-30153D01*
X-18848Y-30232D01*
X-18855Y-30233D01*
X-18861Y-30235D01*
X-19065Y-30262D01*
X-19068Y-30262D01*
X-19072Y-30263D01*
X-19075Y-30262D01*
X-19078Y-30262D01*
X-19282Y-30235D01*
X-19288Y-30233D01*
X-19295Y-30232D01*
X-19485Y-30153D01*
X-19490Y-30150D01*
X-19496Y-30147D01*
X-19659Y-30022D01*
X-19663Y-30017D01*
X-19668Y-30012D01*
X-19793Y-29849D01*
X-19796Y-29843D01*
X-19800Y-29838D01*
X-19879Y-29648D01*
X-19880Y-29642D01*
X-19882Y-29635D01*
X-19909Y-29432D01*
X-19909Y-29428D01*
X-19909Y-29425D01*
X-19908Y-29418D01*
X-19908Y-29412D01*
X-19906Y-29409D01*
X-19905Y-29405D01*
X-19902Y-29400D01*
X-19899Y-29394D01*
X-19896Y-29392D01*
X-19894Y-29389D01*
X-19889Y-29385D01*
X-19884Y-29381D01*
X-19881Y-29380D01*
X-19878Y-29378D01*
X-19871Y-29377D01*
X-19865Y-29374D01*
X-19862Y-29375D01*
X-19858Y-29374D01*
X-18285D01*
X-18282Y-29375D01*
D02*
G37*
G36*
X-16207D02*
X-16203Y-29374D01*
X-16197Y-29377D01*
X-16190Y-29378D01*
X-16188Y-29380D01*
X-16184Y-29381D01*
X-16179Y-29385D01*
X-16174Y-29389D01*
X-16172Y-29392D01*
X-16169Y-29394D01*
X-16167Y-29400D01*
X-16163Y-29405D01*
X-16162Y-29409D01*
X-16161Y-29412D01*
X-16160Y-29418D01*
X-16159Y-29425D01*
X-16160Y-29428D01*
X-16159Y-29432D01*
X-16186Y-29635D01*
X-16188Y-29642D01*
X-16190Y-29648D01*
X-16268Y-29838D01*
X-16272Y-29843D01*
X-16275Y-29849D01*
X-16400Y-30012D01*
X-16405Y-30017D01*
X-16409Y-30022D01*
X-16572Y-30147D01*
X-16578Y-30150D01*
X-16584Y-30153D01*
X-16774Y-30232D01*
X-16780Y-30233D01*
X-16786Y-30235D01*
X-16990Y-30262D01*
X-16993Y-30262D01*
X-16997Y-30263D01*
X-17000Y-30262D01*
X-17003Y-30262D01*
X-17207Y-30235D01*
X-17213Y-30233D01*
X-17220Y-30232D01*
X-17410Y-30153D01*
X-17415Y-30150D01*
X-17421Y-30147D01*
X-17584Y-30022D01*
X-17588Y-30017D01*
X-17593Y-30012D01*
X-17718Y-29849D01*
X-17721Y-29843D01*
X-17725Y-29838D01*
X-17804Y-29648D01*
X-17805Y-29642D01*
X-17807Y-29635D01*
X-17834Y-29432D01*
X-17834Y-29428D01*
X-17834Y-29425D01*
X-17833Y-29418D01*
X-17833Y-29412D01*
X-17831Y-29409D01*
X-17830Y-29405D01*
X-17827Y-29400D01*
X-17824Y-29394D01*
X-17821Y-29392D01*
X-17819Y-29389D01*
X-17814Y-29385D01*
X-17809Y-29381D01*
X-17806Y-29380D01*
X-17803Y-29378D01*
X-17796Y-29377D01*
X-17790Y-29374D01*
X-17787Y-29375D01*
X-17783Y-29374D01*
X-16210D01*
X-16207Y-29375D01*
D02*
G37*
G36*
X-28657D02*
X-28653Y-29374D01*
X-28647Y-29377D01*
X-28640Y-29378D01*
X-28638Y-29380D01*
X-28634Y-29381D01*
X-28629Y-29385D01*
X-28624Y-29389D01*
X-28622Y-29392D01*
X-28619Y-29394D01*
X-28617Y-29400D01*
X-28613Y-29405D01*
X-28612Y-29409D01*
X-28611Y-29412D01*
X-28610Y-29418D01*
X-28609Y-29425D01*
X-28610Y-29428D01*
X-28609Y-29432D01*
X-28636Y-29635D01*
X-28638Y-29642D01*
X-28640Y-29648D01*
X-28718Y-29838D01*
X-28722Y-29843D01*
X-28725Y-29849D01*
X-28850Y-30012D01*
X-28855Y-30017D01*
X-28859Y-30022D01*
X-29022Y-30147D01*
X-29028Y-30150D01*
X-29034Y-30153D01*
X-29224Y-30232D01*
X-29230Y-30233D01*
X-29236Y-30235D01*
X-29440Y-30262D01*
X-29443Y-30262D01*
X-29447Y-30263D01*
X-29450Y-30262D01*
X-29453Y-30262D01*
X-29657Y-30235D01*
X-29663Y-30233D01*
X-29670Y-30232D01*
X-29860Y-30153D01*
X-29865Y-30150D01*
X-29871Y-30147D01*
X-30034Y-30022D01*
X-30038Y-30017D01*
X-30043Y-30012D01*
X-30168Y-29849D01*
X-30171Y-29843D01*
X-30175Y-29838D01*
X-30254Y-29648D01*
X-30255Y-29642D01*
X-30257Y-29635D01*
X-30284Y-29432D01*
X-30284Y-29428D01*
X-30284Y-29425D01*
X-30283Y-29418D01*
X-30283Y-29412D01*
X-30281Y-29409D01*
X-30280Y-29405D01*
X-30277Y-29400D01*
X-30274Y-29394D01*
X-30271Y-29392D01*
X-30269Y-29389D01*
X-30264Y-29385D01*
X-30259Y-29381D01*
X-30256Y-29380D01*
X-30253Y-29378D01*
X-30246Y-29377D01*
X-30240Y-29374D01*
X-30237Y-29375D01*
X-30233Y-29374D01*
X-28660D01*
X-28657Y-29375D01*
D02*
G37*
G36*
X-20357D02*
X-20353Y-29374D01*
X-20347Y-29377D01*
X-20340Y-29378D01*
X-20338Y-29380D01*
X-20334Y-29381D01*
X-20329Y-29385D01*
X-20324Y-29389D01*
X-20322Y-29392D01*
X-20319Y-29394D01*
X-20317Y-29400D01*
X-20313Y-29405D01*
X-20312Y-29409D01*
X-20311Y-29412D01*
X-20310Y-29418D01*
X-20309Y-29425D01*
X-20310Y-29428D01*
X-20309Y-29432D01*
X-20336Y-29635D01*
X-20338Y-29642D01*
X-20340Y-29648D01*
X-20418Y-29838D01*
X-20422Y-29843D01*
X-20425Y-29849D01*
X-20550Y-30012D01*
X-20555Y-30017D01*
X-20559Y-30022D01*
X-20722Y-30147D01*
X-20728Y-30150D01*
X-20734Y-30153D01*
X-20924Y-30232D01*
X-20930Y-30233D01*
X-20936Y-30235D01*
X-21140Y-30262D01*
X-21143Y-30262D01*
X-21147Y-30263D01*
X-21150Y-30262D01*
X-21153Y-30262D01*
X-21357Y-30235D01*
X-21363Y-30233D01*
X-21370Y-30232D01*
X-21560Y-30153D01*
X-21565Y-30150D01*
X-21571Y-30147D01*
X-21734Y-30022D01*
X-21738Y-30017D01*
X-21743Y-30012D01*
X-21868Y-29849D01*
X-21871Y-29843D01*
X-21875Y-29838D01*
X-21954Y-29648D01*
X-21955Y-29642D01*
X-21957Y-29635D01*
X-21984Y-29432D01*
X-21984Y-29428D01*
X-21984Y-29425D01*
X-21983Y-29418D01*
X-21983Y-29412D01*
X-21981Y-29409D01*
X-21980Y-29405D01*
X-21977Y-29400D01*
X-21974Y-29394D01*
X-21971Y-29392D01*
X-21969Y-29389D01*
X-21964Y-29385D01*
X-21959Y-29381D01*
X-21956Y-29380D01*
X-21953Y-29378D01*
X-21946Y-29377D01*
X-21940Y-29374D01*
X-21937Y-29375D01*
X-21933Y-29374D01*
X-20360D01*
X-20357Y-29375D01*
D02*
G37*
G36*
X-49478Y-29375D02*
X-49475Y-29374D01*
X-49469Y-29377D01*
X-49462Y-29378D01*
X-49459Y-29380D01*
X-49456Y-29381D01*
X-49451Y-29385D01*
X-49446Y-29389D01*
X-49444Y-29392D01*
X-49441Y-29394D01*
X-49438Y-29400D01*
X-49435Y-29405D01*
X-49434Y-29409D01*
X-49432Y-29412D01*
X-49432Y-29418D01*
X-49431Y-29425D01*
X-49431Y-29428D01*
X-49431Y-29432D01*
X-49458Y-29635D01*
X-49460Y-29642D01*
X-49461Y-29648D01*
X-49540Y-29838D01*
X-49544Y-29843D01*
X-49547Y-29849D01*
X-49672Y-30012D01*
X-49677Y-30017D01*
X-49681Y-30022D01*
X-49844Y-30147D01*
X-49850Y-30150D01*
X-49856Y-30153D01*
X-50045Y-30232D01*
X-50052Y-30233D01*
X-50058Y-30235D01*
X-50262Y-30262D01*
X-50265Y-30262D01*
X-50268Y-30263D01*
X-50272Y-30262D01*
X-50275Y-30262D01*
X-50479Y-30235D01*
X-50485Y-30233D01*
X-50492Y-30232D01*
X-50681Y-30153D01*
X-50687Y-30150D01*
X-50693Y-30147D01*
X-50856Y-30022D01*
X-50860Y-30017D01*
X-50865Y-30012D01*
X-50990Y-29849D01*
X-50993Y-29843D01*
X-50997Y-29838D01*
X-51075Y-29648D01*
X-51077Y-29642D01*
X-51079Y-29635D01*
X-51106Y-29432D01*
X-51105Y-29428D01*
X-51106Y-29425D01*
X-51105Y-29418D01*
X-51104Y-29412D01*
X-51103Y-29409D01*
X-51102Y-29405D01*
X-51099Y-29400D01*
X-51096Y-29394D01*
X-51093Y-29392D01*
X-51091Y-29389D01*
X-51086Y-29385D01*
X-51081Y-29381D01*
X-51077Y-29380D01*
X-51075Y-29378D01*
X-51068Y-29377D01*
X-51062Y-29374D01*
X-51058Y-29375D01*
X-51055Y-29374D01*
X-49482D01*
X-49478Y-29375D01*
D02*
G37*
G36*
X-43216D02*
X-43212Y-29374D01*
X-43206Y-29377D01*
X-43200Y-29378D01*
X-43197Y-29380D01*
X-43194Y-29381D01*
X-43189Y-29385D01*
X-43183Y-29389D01*
X-43181Y-29392D01*
X-43179Y-29394D01*
X-43176Y-29400D01*
X-43172Y-29405D01*
X-43171Y-29409D01*
X-43170Y-29412D01*
X-43169Y-29418D01*
X-43168Y-29425D01*
X-43169Y-29428D01*
X-43169Y-29432D01*
X-43195Y-29635D01*
X-43198Y-29642D01*
X-43199Y-29648D01*
X-43277Y-29838D01*
X-43281Y-29843D01*
X-43284Y-29849D01*
X-43409Y-30012D01*
X-43414Y-30017D01*
X-43419Y-30022D01*
X-43581Y-30147D01*
X-43587Y-30150D01*
X-43593Y-30153D01*
X-43783Y-30232D01*
X-43789Y-30233D01*
X-43796Y-30235D01*
X-43999Y-30262D01*
X-44003Y-30262D01*
X-44006Y-30263D01*
X-44009Y-30262D01*
X-44013Y-30262D01*
X-44216Y-30235D01*
X-44222Y-30233D01*
X-44229Y-30232D01*
X-44419Y-30153D01*
X-44424Y-30150D01*
X-44430Y-30147D01*
X-44593Y-30022D01*
X-44598Y-30017D01*
X-44603Y-30012D01*
X-44728Y-29849D01*
X-44731Y-29843D01*
X-44734Y-29838D01*
X-44813Y-29648D01*
X-44814Y-29642D01*
X-44816Y-29635D01*
X-44843Y-29432D01*
X-44843Y-29428D01*
X-44844Y-29425D01*
X-44842Y-29418D01*
X-44842Y-29412D01*
X-44840Y-29409D01*
X-44840Y-29405D01*
X-44836Y-29400D01*
X-44833Y-29394D01*
X-44831Y-29392D01*
X-44829Y-29389D01*
X-44823Y-29385D01*
X-44818Y-29381D01*
X-44815Y-29380D01*
X-44812Y-29378D01*
X-44806Y-29377D01*
X-44799Y-29374D01*
X-44796Y-29375D01*
X-44793Y-29374D01*
X-43219D01*
X-43216Y-29375D01*
D02*
G37*
G36*
X-41128D02*
X-41125Y-29374D01*
X-41119Y-29377D01*
X-41112Y-29378D01*
X-41109Y-29380D01*
X-41106Y-29381D01*
X-41101Y-29385D01*
X-41096Y-29389D01*
X-41094Y-29392D01*
X-41091Y-29394D01*
X-41088Y-29400D01*
X-41085Y-29405D01*
X-41084Y-29409D01*
X-41082Y-29412D01*
X-41082Y-29418D01*
X-41081Y-29425D01*
X-41081Y-29428D01*
X-41081Y-29432D01*
X-41108Y-29635D01*
X-41110Y-29642D01*
X-41111Y-29648D01*
X-41190Y-29838D01*
X-41194Y-29843D01*
X-41197Y-29849D01*
X-41322Y-30012D01*
X-41327Y-30017D01*
X-41331Y-30022D01*
X-41494Y-30147D01*
X-41500Y-30150D01*
X-41506Y-30153D01*
X-41695Y-30232D01*
X-41702Y-30233D01*
X-41708Y-30235D01*
X-41912Y-30262D01*
X-41915Y-30262D01*
X-41918Y-30263D01*
X-41922Y-30262D01*
X-41925Y-30262D01*
X-42129Y-30235D01*
X-42135Y-30233D01*
X-42141Y-30232D01*
X-42331Y-30153D01*
X-42337Y-30150D01*
X-42343Y-30147D01*
X-42506Y-30022D01*
X-42510Y-30017D01*
X-42515Y-30012D01*
X-42640Y-29849D01*
X-42643Y-29843D01*
X-42647Y-29838D01*
X-42725Y-29648D01*
X-42727Y-29642D01*
X-42729Y-29635D01*
X-42756Y-29432D01*
X-42755Y-29428D01*
X-42756Y-29425D01*
X-42755Y-29418D01*
X-42754Y-29412D01*
X-42753Y-29409D01*
X-42752Y-29405D01*
X-42749Y-29400D01*
X-42746Y-29394D01*
X-42743Y-29392D01*
X-42741Y-29389D01*
X-42736Y-29385D01*
X-42731Y-29381D01*
X-42727Y-29380D01*
X-42725Y-29378D01*
X-42718Y-29377D01*
X-42712Y-29374D01*
X-42708Y-29375D01*
X-42705Y-29374D01*
X-41132D01*
X-41128Y-29375D01*
D02*
G37*
G36*
X-47391D02*
X-47388Y-29374D01*
X-47381Y-29377D01*
X-47375Y-29378D01*
X-47372Y-29380D01*
X-47369Y-29381D01*
X-47364Y-29385D01*
X-47358Y-29389D01*
X-47356Y-29392D01*
X-47354Y-29394D01*
X-47351Y-29400D01*
X-47347Y-29405D01*
X-47346Y-29409D01*
X-47345Y-29412D01*
X-47344Y-29418D01*
X-47343Y-29425D01*
X-47344Y-29428D01*
X-47344Y-29432D01*
X-47370Y-29635D01*
X-47373Y-29642D01*
X-47374Y-29648D01*
X-47452Y-29838D01*
X-47456Y-29843D01*
X-47459Y-29849D01*
X-47584Y-30012D01*
X-47589Y-30017D01*
X-47594Y-30022D01*
X-47757Y-30147D01*
X-47762Y-30150D01*
X-47768Y-30153D01*
X-47958Y-30232D01*
X-47964Y-30233D01*
X-47971Y-30235D01*
X-48174Y-30262D01*
X-48178Y-30262D01*
X-48181Y-30263D01*
X-48184Y-30262D01*
X-48188Y-30262D01*
X-48391Y-30235D01*
X-48397Y-30233D01*
X-48404Y-30232D01*
X-48594Y-30153D01*
X-48599Y-30150D01*
X-48605Y-30147D01*
X-48768Y-30022D01*
X-48773Y-30017D01*
X-48778Y-30012D01*
X-48903Y-29849D01*
X-48906Y-29843D01*
X-48909Y-29838D01*
X-48988Y-29648D01*
X-48989Y-29642D01*
X-48991Y-29635D01*
X-49018Y-29432D01*
X-49018Y-29428D01*
X-49019Y-29425D01*
X-49017Y-29418D01*
X-49017Y-29412D01*
X-49015Y-29409D01*
X-49015Y-29405D01*
X-49011Y-29400D01*
X-49008Y-29394D01*
X-49006Y-29392D01*
X-49004Y-29389D01*
X-48998Y-29385D01*
X-48993Y-29381D01*
X-48990Y-29380D01*
X-48987Y-29378D01*
X-48981Y-29377D01*
X-48974Y-29374D01*
X-48971Y-29375D01*
X-48968Y-29374D01*
X-47394D01*
X-47391Y-29375D01*
D02*
G37*
G36*
X-45303D02*
X-45300Y-29374D01*
X-45294Y-29377D01*
X-45287Y-29378D01*
X-45284Y-29380D01*
X-45281Y-29381D01*
X-45276Y-29385D01*
X-45271Y-29389D01*
X-45269Y-29392D01*
X-45266Y-29394D01*
X-45263Y-29400D01*
X-45260Y-29405D01*
X-45259Y-29409D01*
X-45257Y-29412D01*
X-45257Y-29418D01*
X-45256Y-29425D01*
X-45256Y-29428D01*
X-45256Y-29432D01*
X-45283Y-29635D01*
X-45285Y-29642D01*
X-45286Y-29648D01*
X-45365Y-29838D01*
X-45369Y-29843D01*
X-45372Y-29849D01*
X-45497Y-30012D01*
X-45502Y-30017D01*
X-45506Y-30022D01*
X-45669Y-30147D01*
X-45675Y-30150D01*
X-45681Y-30153D01*
X-45870Y-30232D01*
X-45877Y-30233D01*
X-45883Y-30235D01*
X-46087Y-30262D01*
X-46090Y-30262D01*
X-46093Y-30263D01*
X-46097Y-30262D01*
X-46100Y-30262D01*
X-46304Y-30235D01*
X-46310Y-30233D01*
X-46317Y-30232D01*
X-46506Y-30153D01*
X-46512Y-30150D01*
X-46518Y-30147D01*
X-46681Y-30022D01*
X-46685Y-30017D01*
X-46690Y-30012D01*
X-46815Y-29849D01*
X-46818Y-29843D01*
X-46822Y-29838D01*
X-46900Y-29648D01*
X-46902Y-29642D01*
X-46904Y-29635D01*
X-46931Y-29432D01*
X-46930Y-29428D01*
X-46931Y-29425D01*
X-46930Y-29418D01*
X-46929Y-29412D01*
X-46928Y-29409D01*
X-46927Y-29405D01*
X-46924Y-29400D01*
X-46921Y-29394D01*
X-46918Y-29392D01*
X-46916Y-29389D01*
X-46911Y-29385D01*
X-46906Y-29381D01*
X-46902Y-29380D01*
X-46900Y-29378D01*
X-46893Y-29377D01*
X-46887Y-29374D01*
X-46883Y-29375D01*
X-46880Y-29374D01*
X-45307D01*
X-45303Y-29375D01*
D02*
G37*
G36*
X-30732Y-29375D02*
X-30728Y-29374D01*
X-30722Y-29377D01*
X-30715Y-29378D01*
X-30713Y-29380D01*
X-30709Y-29381D01*
X-30704Y-29385D01*
X-30699Y-29389D01*
X-30697Y-29392D01*
X-30694Y-29394D01*
X-30692Y-29400D01*
X-30688Y-29405D01*
X-30687Y-29409D01*
X-30686Y-29412D01*
X-30685Y-29418D01*
X-30684Y-29425D01*
X-30685Y-29428D01*
X-30684Y-29432D01*
X-30711Y-29635D01*
X-30713Y-29642D01*
X-30715Y-29648D01*
X-30793Y-29838D01*
X-30797Y-29843D01*
X-30800Y-29849D01*
X-30925Y-30012D01*
X-30930Y-30017D01*
X-30934Y-30022D01*
X-31097Y-30147D01*
X-31103Y-30150D01*
X-31109Y-30153D01*
X-31299Y-30232D01*
X-31305Y-30233D01*
X-31311Y-30235D01*
X-31515Y-30262D01*
X-31518Y-30262D01*
X-31522Y-30263D01*
X-31525Y-30262D01*
X-31528Y-30262D01*
X-31732Y-30235D01*
X-31738Y-30233D01*
X-31745Y-30232D01*
X-31935Y-30153D01*
X-31940Y-30150D01*
X-31946Y-30147D01*
X-32109Y-30022D01*
X-32113Y-30017D01*
X-32118Y-30012D01*
X-32243Y-29849D01*
X-32246Y-29843D01*
X-32250Y-29838D01*
X-32329Y-29648D01*
X-32330Y-29642D01*
X-32332Y-29635D01*
X-32359Y-29432D01*
X-32359Y-29428D01*
X-32359Y-29425D01*
X-32358Y-29418D01*
X-32358Y-29412D01*
X-32356Y-29409D01*
X-32355Y-29405D01*
X-32352Y-29400D01*
X-32349Y-29394D01*
X-32346Y-29392D01*
X-32344Y-29389D01*
X-32339Y-29385D01*
X-32334Y-29381D01*
X-32331Y-29380D01*
X-32328Y-29378D01*
X-32321Y-29377D01*
X-32315Y-29374D01*
X-32312Y-29375D01*
X-32308Y-29374D01*
X-30735D01*
X-30732Y-29375D01*
D02*
G37*
G36*
X-13197Y-55935D02*
X-13193Y-55934D01*
X-12990Y-55961D01*
X-12983Y-55963D01*
X-12977Y-55965D01*
X-12787Y-56043D01*
X-12782Y-56047D01*
X-12776Y-56050D01*
X-12613Y-56175D01*
X-12608Y-56180D01*
X-12603Y-56184D01*
X-12478Y-56347D01*
X-12475Y-56353D01*
X-12472Y-56359D01*
X-12393Y-56549D01*
X-12392Y-56555D01*
X-12390Y-56561D01*
X-12363Y-56765D01*
X-12363Y-56768D01*
X-12362Y-56772D01*
X-12363Y-56775D01*
X-12363Y-56778D01*
X-12390Y-56982D01*
X-12392Y-56988D01*
X-12393Y-56995D01*
X-12472Y-57185D01*
X-12475Y-57190D01*
X-12478Y-57196D01*
X-12603Y-57359D01*
X-12608Y-57363D01*
X-12613Y-57368D01*
X-12776Y-57493D01*
X-12782Y-57496D01*
X-12787Y-57500D01*
X-12977Y-57579D01*
X-12983Y-57580D01*
X-12990Y-57582D01*
X-13193Y-57609D01*
X-13197Y-57609D01*
X-13200Y-57609D01*
X-13207Y-57608D01*
X-13213Y-57608D01*
X-13216Y-57606D01*
X-13220Y-57605D01*
X-13225Y-57602D01*
X-13231Y-57599D01*
X-13233Y-57596D01*
X-13236Y-57594D01*
X-13240Y-57589D01*
X-13244Y-57584D01*
X-13245Y-57581D01*
X-13247Y-57578D01*
X-13248Y-57571D01*
X-13251Y-57565D01*
X-13250Y-57562D01*
X-13251Y-57558D01*
Y-55992D01*
Y-55985D01*
X-13250Y-55982D01*
X-13251Y-55978D01*
X-13248Y-55972D01*
X-13247Y-55965D01*
X-13245Y-55963D01*
X-13244Y-55959D01*
X-13240Y-55954D01*
X-13236Y-55949D01*
X-13233Y-55947D01*
X-13231Y-55944D01*
X-13225Y-55942D01*
X-13220Y-55938D01*
X-13216Y-55937D01*
X-13213Y-55936D01*
X-13207Y-55935D01*
X-13200Y-55934D01*
X-13197Y-55935D01*
D02*
G37*
G36*
X-13393Y-55935D02*
X-13387Y-55936D01*
X-13384Y-55937D01*
X-13380Y-55938D01*
X-13375Y-55942D01*
X-13369Y-55944D01*
X-13367Y-55947D01*
X-13364Y-55949D01*
X-13360Y-55954D01*
X-13356Y-55959D01*
X-13355Y-55963D01*
X-13353Y-55965D01*
X-13352Y-55972D01*
X-13349Y-55978D01*
X-13350Y-55982D01*
X-13349Y-55985D01*
Y-55992D01*
Y-57558D01*
X-13350Y-57562D01*
X-13349Y-57565D01*
X-13352Y-57571D01*
X-13353Y-57578D01*
X-13355Y-57581D01*
X-13356Y-57584D01*
X-13360Y-57589D01*
X-13364Y-57594D01*
X-13367Y-57596D01*
X-13369Y-57599D01*
X-13375Y-57602D01*
X-13380Y-57605D01*
X-13384Y-57606D01*
X-13387Y-57608D01*
X-13393Y-57608D01*
X-13400Y-57609D01*
X-13403Y-57609D01*
X-13407Y-57609D01*
X-13610Y-57582D01*
X-13617Y-57580D01*
X-13623Y-57579D01*
X-13813Y-57500D01*
X-13818Y-57496D01*
X-13824Y-57493D01*
X-13987Y-57368D01*
X-13992Y-57363D01*
X-13997Y-57359D01*
X-14122Y-57196D01*
X-14125Y-57190D01*
X-14128Y-57185D01*
X-14207Y-56995D01*
X-14208Y-56988D01*
X-14210Y-56982D01*
X-14237Y-56778D01*
X-14237Y-56775D01*
X-14238Y-56772D01*
X-14237Y-56768D01*
X-14237Y-56765D01*
X-14210Y-56561D01*
X-14208Y-56555D01*
X-14207Y-56549D01*
X-14128Y-56359D01*
X-14125Y-56353D01*
X-14122Y-56347D01*
X-13997Y-56184D01*
X-13992Y-56180D01*
X-13987Y-56175D01*
X-13824Y-56050D01*
X-13818Y-56047D01*
X-13813Y-56043D01*
X-13623Y-55965D01*
X-13617Y-55963D01*
X-13610Y-55961D01*
X-13407Y-55934D01*
X-13403Y-55935D01*
X-13400Y-55934D01*
X-13393Y-55935D01*
D02*
G37*
G36*
X-13197Y-58010D02*
X-13193Y-58009D01*
X-12990Y-58036D01*
X-12983Y-58038D01*
X-12977Y-58040D01*
X-12787Y-58118D01*
X-12782Y-58122D01*
X-12776Y-58125D01*
X-12613Y-58250D01*
X-12608Y-58255D01*
X-12603Y-58259D01*
X-12478Y-58422D01*
X-12475Y-58428D01*
X-12472Y-58434D01*
X-12393Y-58624D01*
X-12392Y-58630D01*
X-12390Y-58636D01*
X-12363Y-58840D01*
X-12363Y-58843D01*
X-12362Y-58847D01*
X-12363Y-58850D01*
X-12363Y-58853D01*
X-12390Y-59057D01*
X-12392Y-59063D01*
X-12393Y-59070D01*
X-12472Y-59260D01*
X-12475Y-59265D01*
X-12478Y-59271D01*
X-12603Y-59434D01*
X-12608Y-59438D01*
X-12613Y-59443D01*
X-12776Y-59568D01*
X-12782Y-59571D01*
X-12787Y-59575D01*
X-12977Y-59654D01*
X-12983Y-59655D01*
X-12990Y-59657D01*
X-13193Y-59684D01*
X-13197Y-59684D01*
X-13200Y-59684D01*
X-13207Y-59683D01*
X-13213Y-59683D01*
X-13216Y-59681D01*
X-13220Y-59680D01*
X-13225Y-59677D01*
X-13231Y-59674D01*
X-13233Y-59671D01*
X-13236Y-59669D01*
X-13240Y-59664D01*
X-13244Y-59659D01*
X-13245Y-59656D01*
X-13247Y-59653D01*
X-13248Y-59646D01*
X-13251Y-59640D01*
X-13250Y-59637D01*
X-13251Y-59633D01*
Y-58067D01*
Y-58060D01*
X-13250Y-58057D01*
X-13251Y-58053D01*
X-13248Y-58047D01*
X-13247Y-58040D01*
X-13245Y-58038D01*
X-13244Y-58034D01*
X-13240Y-58029D01*
X-13236Y-58024D01*
X-13233Y-58022D01*
X-13231Y-58019D01*
X-13225Y-58017D01*
X-13220Y-58013D01*
X-13216Y-58012D01*
X-13213Y-58011D01*
X-13207Y-58010D01*
X-13200Y-58009D01*
X-13197Y-58010D01*
D02*
G37*
G36*
X-13393Y-58010D02*
X-13387Y-58011D01*
X-13384Y-58012D01*
X-13380Y-58013D01*
X-13375Y-58017D01*
X-13369Y-58019D01*
X-13367Y-58022D01*
X-13364Y-58024D01*
X-13360Y-58029D01*
X-13356Y-58034D01*
X-13355Y-58038D01*
X-13353Y-58040D01*
X-13352Y-58047D01*
X-13349Y-58053D01*
X-13350Y-58057D01*
X-13349Y-58060D01*
Y-58067D01*
Y-59633D01*
X-13350Y-59637D01*
X-13349Y-59640D01*
X-13352Y-59646D01*
X-13353Y-59653D01*
X-13355Y-59656D01*
X-13356Y-59659D01*
X-13360Y-59664D01*
X-13364Y-59669D01*
X-13367Y-59671D01*
X-13369Y-59674D01*
X-13375Y-59677D01*
X-13380Y-59680D01*
X-13384Y-59681D01*
X-13387Y-59683D01*
X-13393Y-59683D01*
X-13400Y-59684D01*
X-13403Y-59684D01*
X-13407Y-59684D01*
X-13610Y-59657D01*
X-13617Y-59655D01*
X-13623Y-59654D01*
X-13813Y-59575D01*
X-13818Y-59571D01*
X-13824Y-59568D01*
X-13987Y-59443D01*
X-13992Y-59438D01*
X-13997Y-59434D01*
X-14122Y-59271D01*
X-14125Y-59265D01*
X-14128Y-59260D01*
X-14207Y-59070D01*
X-14208Y-59063D01*
X-14210Y-59057D01*
X-14237Y-58853D01*
X-14237Y-58850D01*
X-14238Y-58847D01*
X-14237Y-58843D01*
X-14237Y-58840D01*
X-14210Y-58636D01*
X-14208Y-58630D01*
X-14207Y-58624D01*
X-14128Y-58434D01*
X-14125Y-58428D01*
X-14122Y-58422D01*
X-13997Y-58259D01*
X-13992Y-58255D01*
X-13987Y-58250D01*
X-13824Y-58125D01*
X-13818Y-58122D01*
X-13813Y-58118D01*
X-13623Y-58040D01*
X-13617Y-58038D01*
X-13610Y-58036D01*
X-13407Y-58009D01*
X-13403Y-58010D01*
X-13400Y-58009D01*
X-13393Y-58010D01*
D02*
G37*
G36*
X-26581Y-29376D02*
X-26577Y-29376D01*
X-26571Y-29378D01*
X-26564Y-29379D01*
X-26562Y-29381D01*
X-26558Y-29382D01*
X-26553Y-29387D01*
X-26548Y-29390D01*
X-26546Y-29393D01*
X-26543Y-29395D01*
X-26541Y-29401D01*
X-26537Y-29407D01*
X-26536Y-29410D01*
X-26535Y-29413D01*
X-26534Y-29420D01*
X-26533Y-29427D01*
X-26534Y-29430D01*
X-26533Y-29433D01*
X-26560Y-29637D01*
X-26562Y-29643D01*
X-26564Y-29650D01*
X-26642Y-29839D01*
X-26646Y-29845D01*
X-26649Y-29851D01*
X-26774Y-30014D01*
X-26779Y-30018D01*
X-26783Y-30023D01*
X-26946Y-30148D01*
X-26952Y-30151D01*
X-26958Y-30155D01*
X-27147Y-30234D01*
X-27154Y-30235D01*
X-27160Y-30237D01*
X-27364Y-30264D01*
X-27367Y-30264D01*
X-27371Y-30264D01*
X-27374Y-30264D01*
X-27377Y-30264D01*
X-27581Y-30237D01*
X-27587Y-30235D01*
X-27594Y-30234D01*
X-27784Y-30155D01*
X-27789Y-30151D01*
X-27795Y-30148D01*
X-27958Y-30023D01*
X-27962Y-30018D01*
X-27967Y-30014D01*
X-28092Y-29851D01*
X-28095Y-29845D01*
X-28099Y-29839D01*
X-28178Y-29650D01*
X-28179Y-29643D01*
X-28181Y-29637D01*
X-28208Y-29433D01*
X-28208Y-29430D01*
X-28208Y-29427D01*
X-28207Y-29420D01*
X-28207Y-29413D01*
X-28205Y-29410D01*
X-28204Y-29407D01*
X-28201Y-29401D01*
X-28198Y-29395D01*
X-28195Y-29393D01*
X-28193Y-29390D01*
X-28188Y-29387D01*
X-28183Y-29382D01*
X-28180Y-29381D01*
X-28177Y-29379D01*
X-28170Y-29378D01*
X-28164Y-29376D01*
X-28161Y-29376D01*
X-28157Y-29376D01*
X-26584D01*
X-26581Y-29376D01*
D02*
G37*
G36*
X-39057Y-29375D02*
X-39053Y-29374D01*
X-39047Y-29377D01*
X-39040Y-29378D01*
X-39038Y-29380D01*
X-39034Y-29381D01*
X-39029Y-29385D01*
X-39024Y-29389D01*
X-39022Y-29392D01*
X-39019Y-29394D01*
X-39017Y-29400D01*
X-39013Y-29405D01*
X-39012Y-29409D01*
X-39011Y-29412D01*
X-39010Y-29418D01*
X-39009Y-29425D01*
X-39010Y-29428D01*
X-39009Y-29432D01*
X-39036Y-29635D01*
X-39038Y-29642D01*
X-39040Y-29648D01*
X-39118Y-29838D01*
X-39122Y-29843D01*
X-39125Y-29849D01*
X-39250Y-30012D01*
X-39255Y-30017D01*
X-39259Y-30022D01*
X-39422Y-30147D01*
X-39428Y-30150D01*
X-39434Y-30153D01*
X-39624Y-30232D01*
X-39630Y-30233D01*
X-39636Y-30235D01*
X-39840Y-30262D01*
X-39843Y-30262D01*
X-39847Y-30263D01*
X-39850Y-30262D01*
X-39853Y-30262D01*
X-40057Y-30235D01*
X-40063Y-30233D01*
X-40070Y-30232D01*
X-40260Y-30153D01*
X-40265Y-30150D01*
X-40271Y-30147D01*
X-40434Y-30022D01*
X-40438Y-30017D01*
X-40443Y-30012D01*
X-40568Y-29849D01*
X-40571Y-29843D01*
X-40575Y-29838D01*
X-40654Y-29648D01*
X-40655Y-29642D01*
X-40657Y-29635D01*
X-40684Y-29432D01*
X-40684Y-29428D01*
X-40684Y-29425D01*
X-40683Y-29418D01*
X-40683Y-29412D01*
X-40681Y-29409D01*
X-40680Y-29405D01*
X-40677Y-29400D01*
X-40674Y-29394D01*
X-40671Y-29392D01*
X-40669Y-29389D01*
X-40664Y-29385D01*
X-40659Y-29381D01*
X-40656Y-29380D01*
X-40653Y-29378D01*
X-40646Y-29377D01*
X-40640Y-29374D01*
X-40637Y-29375D01*
X-40633Y-29374D01*
X-39060D01*
X-39057Y-29375D01*
D02*
G37*
G36*
X-36982D02*
X-36978Y-29374D01*
X-36972Y-29377D01*
X-36965Y-29378D01*
X-36963Y-29380D01*
X-36959Y-29381D01*
X-36954Y-29385D01*
X-36949Y-29389D01*
X-36947Y-29392D01*
X-36944Y-29394D01*
X-36942Y-29400D01*
X-36938Y-29405D01*
X-36937Y-29409D01*
X-36936Y-29412D01*
X-36935Y-29418D01*
X-36934Y-29425D01*
X-36935Y-29428D01*
X-36934Y-29432D01*
X-36961Y-29635D01*
X-36963Y-29642D01*
X-36965Y-29648D01*
X-37043Y-29838D01*
X-37047Y-29843D01*
X-37050Y-29849D01*
X-37175Y-30012D01*
X-37180Y-30017D01*
X-37184Y-30022D01*
X-37347Y-30147D01*
X-37353Y-30150D01*
X-37359Y-30153D01*
X-37549Y-30232D01*
X-37555Y-30233D01*
X-37561Y-30235D01*
X-37765Y-30262D01*
X-37768Y-30262D01*
X-37772Y-30263D01*
X-37775Y-30262D01*
X-37778Y-30262D01*
X-37982Y-30235D01*
X-37988Y-30233D01*
X-37995Y-30232D01*
X-38185Y-30153D01*
X-38190Y-30150D01*
X-38196Y-30147D01*
X-38359Y-30022D01*
X-38363Y-30017D01*
X-38368Y-30012D01*
X-38493Y-29849D01*
X-38496Y-29843D01*
X-38500Y-29838D01*
X-38579Y-29648D01*
X-38580Y-29642D01*
X-38582Y-29635D01*
X-38609Y-29432D01*
X-38609Y-29428D01*
X-38609Y-29425D01*
X-38608Y-29418D01*
X-38608Y-29412D01*
X-38606Y-29409D01*
X-38605Y-29405D01*
X-38602Y-29400D01*
X-38599Y-29394D01*
X-38596Y-29392D01*
X-38594Y-29389D01*
X-38589Y-29385D01*
X-38584Y-29381D01*
X-38581Y-29380D01*
X-38578Y-29378D01*
X-38571Y-29377D01*
X-38565Y-29374D01*
X-38562Y-29375D01*
X-38558Y-29374D01*
X-36985D01*
X-36982Y-29375D01*
D02*
G37*
G36*
X-24508Y-29376D02*
X-24504Y-29376D01*
X-24498Y-29378D01*
X-24492Y-29379D01*
X-24489Y-29381D01*
X-24486Y-29382D01*
X-24481Y-29387D01*
X-24475Y-29390D01*
X-24473Y-29393D01*
X-24471Y-29395D01*
X-24468Y-29401D01*
X-24464Y-29407D01*
X-24463Y-29410D01*
X-24462Y-29413D01*
X-24461Y-29420D01*
X-24460Y-29427D01*
X-24461Y-29430D01*
X-24461Y-29433D01*
X-24487Y-29637D01*
X-24490Y-29643D01*
X-24491Y-29650D01*
X-24569Y-29839D01*
X-24573Y-29845D01*
X-24576Y-29851D01*
X-24701Y-30014D01*
X-24706Y-30018D01*
X-24711Y-30023D01*
X-24873Y-30148D01*
X-24879Y-30151D01*
X-24885Y-30155D01*
X-25075Y-30234D01*
X-25081Y-30235D01*
X-25088Y-30237D01*
X-25291Y-30264D01*
X-25295Y-30264D01*
X-25298Y-30264D01*
X-25301Y-30264D01*
X-25305Y-30264D01*
X-25508Y-30237D01*
X-25514Y-30235D01*
X-25521Y-30234D01*
X-25711Y-30155D01*
X-25716Y-30151D01*
X-25722Y-30148D01*
X-25885Y-30023D01*
X-25890Y-30018D01*
X-25895Y-30014D01*
X-26020Y-29851D01*
X-26023Y-29845D01*
X-26026Y-29839D01*
X-26105Y-29650D01*
X-26106Y-29643D01*
X-26108Y-29637D01*
X-26135Y-29433D01*
X-26135Y-29430D01*
X-26136Y-29427D01*
X-26134Y-29420D01*
X-26134Y-29413D01*
X-26132Y-29410D01*
X-26132Y-29407D01*
X-26128Y-29401D01*
X-26125Y-29395D01*
X-26123Y-29393D01*
X-26121Y-29390D01*
X-26115Y-29387D01*
X-26110Y-29382D01*
X-26107Y-29381D01*
X-26104Y-29379D01*
X-26098Y-29378D01*
X-26091Y-29376D01*
X-26088Y-29376D01*
X-26085Y-29376D01*
X-24511D01*
X-24508Y-29376D01*
D02*
G37*
G36*
X-22431D02*
X-22427Y-29376D01*
X-22421Y-29378D01*
X-22414Y-29379D01*
X-22412Y-29381D01*
X-22408Y-29382D01*
X-22403Y-29387D01*
X-22398Y-29390D01*
X-22396Y-29393D01*
X-22393Y-29395D01*
X-22390Y-29401D01*
X-22387Y-29407D01*
X-22386Y-29410D01*
X-22385Y-29413D01*
X-22384Y-29420D01*
X-22383Y-29427D01*
X-22384Y-29430D01*
X-22383Y-29433D01*
X-22410Y-29637D01*
X-22412Y-29643D01*
X-22414Y-29650D01*
X-22492Y-29839D01*
X-22496Y-29845D01*
X-22499Y-29851D01*
X-22624Y-30014D01*
X-22629Y-30018D01*
X-22633Y-30023D01*
X-22796Y-30148D01*
X-22802Y-30151D01*
X-22808Y-30155D01*
X-22997Y-30234D01*
X-23004Y-30235D01*
X-23010Y-30237D01*
X-23214Y-30264D01*
X-23217Y-30264D01*
X-23221Y-30264D01*
X-23224Y-30264D01*
X-23227Y-30264D01*
X-23431Y-30237D01*
X-23437Y-30235D01*
X-23444Y-30234D01*
X-23633Y-30155D01*
X-23639Y-30151D01*
X-23645Y-30148D01*
X-23808Y-30023D01*
X-23812Y-30018D01*
X-23817Y-30014D01*
X-23942Y-29851D01*
X-23945Y-29845D01*
X-23949Y-29839D01*
X-24028Y-29650D01*
X-24029Y-29643D01*
X-24031Y-29637D01*
X-24058Y-29433D01*
X-24058Y-29430D01*
X-24058Y-29427D01*
X-24057Y-29420D01*
X-24057Y-29413D01*
X-24055Y-29410D01*
X-24054Y-29407D01*
X-24051Y-29401D01*
X-24048Y-29395D01*
X-24045Y-29393D01*
X-24043Y-29390D01*
X-24038Y-29387D01*
X-24033Y-29382D01*
X-24030Y-29381D01*
X-24027Y-29379D01*
X-24020Y-29378D01*
X-24014Y-29376D01*
X-24011Y-29376D01*
X-24007Y-29376D01*
X-22434D01*
X-22431Y-29376D01*
D02*
G37*
G36*
X-50265Y-28388D02*
X-50262Y-28388D01*
X-50058Y-28415D01*
X-50052Y-28417D01*
X-50045Y-28418D01*
X-49856Y-28497D01*
X-49850Y-28500D01*
X-49844Y-28503D01*
X-49681Y-28628D01*
X-49677Y-28633D01*
X-49672Y-28638D01*
X-49547Y-28801D01*
X-49544Y-28807D01*
X-49540Y-28812D01*
X-49461Y-29002D01*
X-49460Y-29008D01*
X-49458Y-29015D01*
X-49431Y-29218D01*
X-49431Y-29222D01*
X-49431Y-29225D01*
X-49432Y-29232D01*
X-49432Y-29238D01*
X-49434Y-29241D01*
X-49435Y-29245D01*
X-49438Y-29250D01*
X-49441Y-29256D01*
X-49444Y-29258D01*
X-49446Y-29261D01*
X-49451Y-29265D01*
X-49456Y-29269D01*
X-49459Y-29270D01*
X-49462Y-29272D01*
X-49469Y-29273D01*
X-49475Y-29276D01*
X-49478Y-29275D01*
X-49482Y-29276D01*
X-51055D01*
X-51058Y-29275D01*
X-51062Y-29276D01*
X-51068Y-29273D01*
X-51075Y-29272D01*
X-51077Y-29270D01*
X-51081Y-29269D01*
X-51086Y-29265D01*
X-51091Y-29261D01*
X-51093Y-29258D01*
X-51096Y-29256D01*
X-51099Y-29250D01*
X-51102Y-29245D01*
X-51103Y-29241D01*
X-51104Y-29238D01*
X-51105Y-29232D01*
X-51106Y-29225D01*
X-51105Y-29222D01*
X-51106Y-29218D01*
X-51079Y-29015D01*
X-51077Y-29008D01*
X-51075Y-29002D01*
X-50997Y-28812D01*
X-50993Y-28807D01*
X-50990Y-28801D01*
X-50865Y-28638D01*
X-50860Y-28633D01*
X-50856Y-28628D01*
X-50693Y-28503D01*
X-50687Y-28500D01*
X-50681Y-28497D01*
X-50492Y-28418D01*
X-50485Y-28417D01*
X-50479Y-28415D01*
X-50275Y-28388D01*
X-50272Y-28388D01*
X-50268Y-28387D01*
X-50265Y-28388D01*
D02*
G37*
G36*
X-48178D02*
X-48174Y-28388D01*
X-47971Y-28415D01*
X-47964Y-28417D01*
X-47958Y-28418D01*
X-47768Y-28497D01*
X-47762Y-28500D01*
X-47757Y-28503D01*
X-47594Y-28628D01*
X-47589Y-28633D01*
X-47584Y-28638D01*
X-47459Y-28801D01*
X-47456Y-28807D01*
X-47452Y-28812D01*
X-47374Y-29002D01*
X-47373Y-29008D01*
X-47370Y-29015D01*
X-47344Y-29218D01*
X-47344Y-29222D01*
X-47343Y-29225D01*
X-47344Y-29232D01*
X-47345Y-29238D01*
X-47346Y-29241D01*
X-47347Y-29245D01*
X-47351Y-29250D01*
X-47354Y-29256D01*
X-47356Y-29258D01*
X-47358Y-29261D01*
X-47364Y-29265D01*
X-47369Y-29269D01*
X-47372Y-29270D01*
X-47375Y-29272D01*
X-47381Y-29273D01*
X-47388Y-29276D01*
X-47391Y-29275D01*
X-47394Y-29276D01*
X-48968D01*
X-48971Y-29275D01*
X-48974Y-29276D01*
X-48981Y-29273D01*
X-48987Y-29272D01*
X-48990Y-29270D01*
X-48993Y-29269D01*
X-48998Y-29265D01*
X-49004Y-29261D01*
X-49006Y-29258D01*
X-49008Y-29256D01*
X-49011Y-29250D01*
X-49015Y-29245D01*
X-49015Y-29241D01*
X-49017Y-29238D01*
X-49017Y-29232D01*
X-49019Y-29225D01*
X-49018Y-29222D01*
X-49018Y-29218D01*
X-48991Y-29015D01*
X-48989Y-29008D01*
X-48988Y-29002D01*
X-48909Y-28812D01*
X-48906Y-28807D01*
X-48903Y-28801D01*
X-48778Y-28638D01*
X-48773Y-28633D01*
X-48768Y-28628D01*
X-48605Y-28503D01*
X-48599Y-28500D01*
X-48594Y-28497D01*
X-48404Y-28418D01*
X-48397Y-28417D01*
X-48391Y-28415D01*
X-48188Y-28388D01*
X-48184Y-28388D01*
X-48181Y-28387D01*
X-48178Y-28388D01*
D02*
G37*
G36*
X-19068Y-28388D02*
X-19065Y-28388D01*
X-18861Y-28415D01*
X-18855Y-28417D01*
X-18848Y-28418D01*
X-18659Y-28497D01*
X-18653Y-28500D01*
X-18647Y-28503D01*
X-18484Y-28628D01*
X-18480Y-28633D01*
X-18475Y-28638D01*
X-18350Y-28801D01*
X-18347Y-28807D01*
X-18343Y-28812D01*
X-18265Y-29002D01*
X-18263Y-29008D01*
X-18261Y-29015D01*
X-18234Y-29218D01*
X-18235Y-29222D01*
X-18234Y-29225D01*
X-18235Y-29232D01*
X-18236Y-29238D01*
X-18237Y-29241D01*
X-18238Y-29245D01*
X-18242Y-29250D01*
X-18244Y-29256D01*
X-18247Y-29258D01*
X-18249Y-29261D01*
X-18254Y-29265D01*
X-18259Y-29269D01*
X-18263Y-29270D01*
X-18265Y-29272D01*
X-18272Y-29273D01*
X-18278Y-29276D01*
X-18282Y-29275D01*
X-18285Y-29276D01*
X-19858D01*
X-19862Y-29275D01*
X-19865Y-29276D01*
X-19871Y-29273D01*
X-19878Y-29272D01*
X-19881Y-29270D01*
X-19884Y-29269D01*
X-19889Y-29265D01*
X-19894Y-29261D01*
X-19896Y-29258D01*
X-19899Y-29256D01*
X-19902Y-29250D01*
X-19905Y-29245D01*
X-19906Y-29241D01*
X-19908Y-29238D01*
X-19908Y-29232D01*
X-19909Y-29225D01*
X-19909Y-29222D01*
X-19909Y-29218D01*
X-19882Y-29015D01*
X-19880Y-29008D01*
X-19879Y-29002D01*
X-19800Y-28812D01*
X-19796Y-28807D01*
X-19793Y-28801D01*
X-19668Y-28638D01*
X-19663Y-28633D01*
X-19659Y-28628D01*
X-19496Y-28503D01*
X-19490Y-28500D01*
X-19485Y-28497D01*
X-19295Y-28418D01*
X-19288Y-28417D01*
X-19282Y-28415D01*
X-19078Y-28388D01*
X-19075Y-28388D01*
X-19072Y-28387D01*
X-19068Y-28388D01*
D02*
G37*
G36*
X-16993D02*
X-16990Y-28388D01*
X-16786Y-28415D01*
X-16780Y-28417D01*
X-16774Y-28418D01*
X-16584Y-28497D01*
X-16578Y-28500D01*
X-16572Y-28503D01*
X-16409Y-28628D01*
X-16405Y-28633D01*
X-16400Y-28638D01*
X-16275Y-28801D01*
X-16272Y-28807D01*
X-16268Y-28812D01*
X-16190Y-29002D01*
X-16188Y-29008D01*
X-16186Y-29015D01*
X-16159Y-29218D01*
X-16160Y-29222D01*
X-16159Y-29225D01*
X-16160Y-29232D01*
X-16161Y-29238D01*
X-16162Y-29241D01*
X-16163Y-29245D01*
X-16167Y-29250D01*
X-16169Y-29256D01*
X-16172Y-29258D01*
X-16174Y-29261D01*
X-16179Y-29265D01*
X-16184Y-29269D01*
X-16188Y-29270D01*
X-16190Y-29272D01*
X-16197Y-29273D01*
X-16203Y-29276D01*
X-16207Y-29275D01*
X-16210Y-29276D01*
X-17783D01*
X-17787Y-29275D01*
X-17790Y-29276D01*
X-17796Y-29273D01*
X-17803Y-29272D01*
X-17806Y-29270D01*
X-17809Y-29269D01*
X-17814Y-29265D01*
X-17819Y-29261D01*
X-17821Y-29258D01*
X-17824Y-29256D01*
X-17827Y-29250D01*
X-17830Y-29245D01*
X-17831Y-29241D01*
X-17833Y-29238D01*
X-17833Y-29232D01*
X-17834Y-29225D01*
X-17834Y-29222D01*
X-17834Y-29218D01*
X-17807Y-29015D01*
X-17805Y-29008D01*
X-17804Y-29002D01*
X-17725Y-28812D01*
X-17721Y-28807D01*
X-17718Y-28801D01*
X-17593Y-28638D01*
X-17588Y-28633D01*
X-17584Y-28628D01*
X-17421Y-28503D01*
X-17415Y-28500D01*
X-17410Y-28497D01*
X-17220Y-28418D01*
X-17213Y-28417D01*
X-17207Y-28415D01*
X-17003Y-28388D01*
X-17000Y-28388D01*
X-16997Y-28387D01*
X-16993Y-28388D01*
D02*
G37*
G36*
X-46090Y-28388D02*
X-46087Y-28388D01*
X-45883Y-28415D01*
X-45877Y-28417D01*
X-45870Y-28418D01*
X-45681Y-28497D01*
X-45675Y-28500D01*
X-45669Y-28503D01*
X-45506Y-28628D01*
X-45502Y-28633D01*
X-45497Y-28638D01*
X-45372Y-28801D01*
X-45369Y-28807D01*
X-45365Y-28812D01*
X-45286Y-29002D01*
X-45285Y-29008D01*
X-45283Y-29015D01*
X-45256Y-29218D01*
X-45256Y-29222D01*
X-45256Y-29225D01*
X-45257Y-29232D01*
X-45257Y-29238D01*
X-45259Y-29241D01*
X-45260Y-29245D01*
X-45263Y-29250D01*
X-45266Y-29256D01*
X-45269Y-29258D01*
X-45271Y-29261D01*
X-45276Y-29265D01*
X-45281Y-29269D01*
X-45284Y-29270D01*
X-45287Y-29272D01*
X-45294Y-29273D01*
X-45300Y-29276D01*
X-45303Y-29275D01*
X-45307Y-29276D01*
X-46880D01*
X-46883Y-29275D01*
X-46887Y-29276D01*
X-46893Y-29273D01*
X-46900Y-29272D01*
X-46902Y-29270D01*
X-46906Y-29269D01*
X-46911Y-29265D01*
X-46916Y-29261D01*
X-46918Y-29258D01*
X-46921Y-29256D01*
X-46924Y-29250D01*
X-46927Y-29245D01*
X-46928Y-29241D01*
X-46929Y-29238D01*
X-46930Y-29232D01*
X-46931Y-29225D01*
X-46930Y-29222D01*
X-46931Y-29218D01*
X-46904Y-29015D01*
X-46902Y-29008D01*
X-46900Y-29002D01*
X-46822Y-28812D01*
X-46818Y-28807D01*
X-46815Y-28801D01*
X-46690Y-28638D01*
X-46685Y-28633D01*
X-46681Y-28628D01*
X-46518Y-28503D01*
X-46512Y-28500D01*
X-46506Y-28497D01*
X-46317Y-28418D01*
X-46310Y-28417D01*
X-46304Y-28415D01*
X-46100Y-28388D01*
X-46097Y-28388D01*
X-46093Y-28387D01*
X-46090Y-28388D01*
D02*
G37*
G36*
X-35675D02*
X-35672Y-28388D01*
X-35468Y-28415D01*
X-35462Y-28417D01*
X-35455Y-28418D01*
X-35266Y-28497D01*
X-35260Y-28500D01*
X-35254Y-28503D01*
X-35091Y-28628D01*
X-35087Y-28633D01*
X-35082Y-28638D01*
X-34957Y-28801D01*
X-34954Y-28807D01*
X-34950Y-28812D01*
X-34872Y-29002D01*
X-34870Y-29008D01*
X-34868Y-29015D01*
X-34841Y-29218D01*
X-34842Y-29222D01*
X-34841Y-29225D01*
X-34842Y-29232D01*
X-34843Y-29238D01*
X-34844Y-29241D01*
X-34845Y-29245D01*
X-34848Y-29250D01*
X-34851Y-29256D01*
X-34854Y-29258D01*
X-34856Y-29261D01*
X-34861Y-29265D01*
X-34866Y-29269D01*
X-34870Y-29270D01*
X-34872Y-29272D01*
X-34879Y-29273D01*
X-34885Y-29276D01*
X-34889Y-29275D01*
X-34892Y-29276D01*
X-36465D01*
X-36469Y-29275D01*
X-36472Y-29276D01*
X-36478Y-29273D01*
X-36485Y-29272D01*
X-36488Y-29270D01*
X-36491Y-29269D01*
X-36496Y-29265D01*
X-36501Y-29261D01*
X-36503Y-29258D01*
X-36506Y-29256D01*
X-36509Y-29250D01*
X-36512Y-29245D01*
X-36513Y-29241D01*
X-36515Y-29238D01*
X-36515Y-29232D01*
X-36516Y-29225D01*
X-36516Y-29222D01*
X-36516Y-29218D01*
X-36489Y-29015D01*
X-36487Y-29008D01*
X-36486Y-29002D01*
X-36407Y-28812D01*
X-36403Y-28807D01*
X-36400Y-28801D01*
X-36275Y-28638D01*
X-36270Y-28633D01*
X-36266Y-28628D01*
X-36103Y-28503D01*
X-36097Y-28500D01*
X-36091Y-28497D01*
X-35902Y-28418D01*
X-35895Y-28417D01*
X-35889Y-28415D01*
X-35685Y-28388D01*
X-35682Y-28388D01*
X-35679Y-28387D01*
X-35675Y-28388D01*
D02*
G37*
G36*
X-33601D02*
X-33598Y-28388D01*
X-33394Y-28415D01*
X-33388Y-28417D01*
X-33381Y-28418D01*
X-33191Y-28497D01*
X-33186Y-28500D01*
X-33180Y-28503D01*
X-33017Y-28628D01*
X-33013Y-28633D01*
X-33008Y-28638D01*
X-32883Y-28801D01*
X-32880Y-28807D01*
X-32876Y-28812D01*
X-32797Y-29002D01*
X-32796Y-29008D01*
X-32794Y-29015D01*
X-32767Y-29218D01*
X-32767Y-29222D01*
X-32767Y-29225D01*
X-32768Y-29232D01*
X-32768Y-29238D01*
X-32770Y-29241D01*
X-32770Y-29245D01*
X-32774Y-29250D01*
X-32777Y-29256D01*
X-32780Y-29258D01*
X-32782Y-29261D01*
X-32787Y-29265D01*
X-32792Y-29269D01*
X-32795Y-29270D01*
X-32798Y-29272D01*
X-32805Y-29273D01*
X-32811Y-29276D01*
X-32814Y-29275D01*
X-32818Y-29276D01*
X-34391D01*
X-34394Y-29275D01*
X-34398Y-29276D01*
X-34404Y-29273D01*
X-34411Y-29272D01*
X-34413Y-29270D01*
X-34417Y-29269D01*
X-34422Y-29265D01*
X-34427Y-29261D01*
X-34429Y-29258D01*
X-34431Y-29256D01*
X-34434Y-29250D01*
X-34438Y-29245D01*
X-34439Y-29241D01*
X-34440Y-29238D01*
X-34441Y-29232D01*
X-34442Y-29225D01*
X-34441Y-29222D01*
X-34442Y-29218D01*
X-34415Y-29015D01*
X-34413Y-29008D01*
X-34411Y-29002D01*
X-34333Y-28812D01*
X-34329Y-28807D01*
X-34326Y-28801D01*
X-34201Y-28638D01*
X-34196Y-28633D01*
X-34192Y-28628D01*
X-34029Y-28503D01*
X-34023Y-28500D01*
X-34017Y-28497D01*
X-33827Y-28418D01*
X-33821Y-28417D01*
X-33815Y-28415D01*
X-33611Y-28388D01*
X-33608Y-28388D01*
X-33604Y-28387D01*
X-33601Y-28388D01*
D02*
G37*
G36*
X-44003D02*
X-43999Y-28388D01*
X-43796Y-28415D01*
X-43789Y-28417D01*
X-43783Y-28418D01*
X-43593Y-28497D01*
X-43587Y-28500D01*
X-43581Y-28503D01*
X-43419Y-28628D01*
X-43414Y-28633D01*
X-43409Y-28638D01*
X-43284Y-28801D01*
X-43281Y-28807D01*
X-43277Y-28812D01*
X-43199Y-29002D01*
X-43198Y-29008D01*
X-43195Y-29015D01*
X-43169Y-29218D01*
X-43169Y-29222D01*
X-43168Y-29225D01*
X-43169Y-29232D01*
X-43170Y-29238D01*
X-43171Y-29241D01*
X-43172Y-29245D01*
X-43176Y-29250D01*
X-43179Y-29256D01*
X-43181Y-29258D01*
X-43183Y-29261D01*
X-43189Y-29265D01*
X-43194Y-29269D01*
X-43197Y-29270D01*
X-43200Y-29272D01*
X-43206Y-29273D01*
X-43212Y-29276D01*
X-43216Y-29275D01*
X-43219Y-29276D01*
X-44793D01*
X-44796Y-29275D01*
X-44799Y-29276D01*
X-44806Y-29273D01*
X-44812Y-29272D01*
X-44815Y-29270D01*
X-44818Y-29269D01*
X-44823Y-29265D01*
X-44829Y-29261D01*
X-44831Y-29258D01*
X-44833Y-29256D01*
X-44836Y-29250D01*
X-44840Y-29245D01*
X-44840Y-29241D01*
X-44842Y-29238D01*
X-44842Y-29232D01*
X-44844Y-29225D01*
X-44843Y-29222D01*
X-44843Y-29218D01*
X-44816Y-29015D01*
X-44814Y-29008D01*
X-44813Y-29002D01*
X-44734Y-28812D01*
X-44731Y-28807D01*
X-44728Y-28801D01*
X-44603Y-28638D01*
X-44598Y-28633D01*
X-44593Y-28628D01*
X-44430Y-28503D01*
X-44424Y-28500D01*
X-44419Y-28497D01*
X-44229Y-28418D01*
X-44222Y-28417D01*
X-44216Y-28415D01*
X-44013Y-28388D01*
X-44009Y-28388D01*
X-44006Y-28387D01*
X-44003Y-28388D01*
D02*
G37*
G36*
X-41915D02*
X-41912Y-28388D01*
X-41708Y-28415D01*
X-41702Y-28417D01*
X-41695Y-28418D01*
X-41506Y-28497D01*
X-41500Y-28500D01*
X-41494Y-28503D01*
X-41331Y-28628D01*
X-41327Y-28633D01*
X-41322Y-28638D01*
X-41197Y-28801D01*
X-41194Y-28807D01*
X-41190Y-28812D01*
X-41111Y-29002D01*
X-41110Y-29008D01*
X-41108Y-29015D01*
X-41081Y-29218D01*
X-41081Y-29222D01*
X-41081Y-29225D01*
X-41082Y-29232D01*
X-41082Y-29238D01*
X-41084Y-29241D01*
X-41085Y-29245D01*
X-41088Y-29250D01*
X-41091Y-29256D01*
X-41094Y-29258D01*
X-41096Y-29261D01*
X-41101Y-29265D01*
X-41106Y-29269D01*
X-41109Y-29270D01*
X-41112Y-29272D01*
X-41119Y-29273D01*
X-41125Y-29276D01*
X-41128Y-29275D01*
X-41132Y-29276D01*
X-42705D01*
X-42708Y-29275D01*
X-42712Y-29276D01*
X-42718Y-29273D01*
X-42725Y-29272D01*
X-42727Y-29270D01*
X-42731Y-29269D01*
X-42736Y-29265D01*
X-42741Y-29261D01*
X-42743Y-29258D01*
X-42746Y-29256D01*
X-42749Y-29250D01*
X-42752Y-29245D01*
X-42753Y-29241D01*
X-42754Y-29238D01*
X-42755Y-29232D01*
X-42756Y-29225D01*
X-42755Y-29222D01*
X-42756Y-29218D01*
X-42729Y-29015D01*
X-42727Y-29008D01*
X-42725Y-29002D01*
X-42647Y-28812D01*
X-42643Y-28807D01*
X-42640Y-28801D01*
X-42515Y-28638D01*
X-42510Y-28633D01*
X-42506Y-28628D01*
X-42343Y-28503D01*
X-42337Y-28500D01*
X-42331Y-28497D01*
X-42141Y-28418D01*
X-42135Y-28417D01*
X-42129Y-28415D01*
X-41925Y-28388D01*
X-41922Y-28388D01*
X-41918Y-28387D01*
X-41915Y-28388D01*
D02*
G37*
G36*
X-21143Y-28388D02*
X-21140Y-28388D01*
X-20936Y-28415D01*
X-20930Y-28417D01*
X-20924Y-28418D01*
X-20734Y-28497D01*
X-20728Y-28500D01*
X-20722Y-28503D01*
X-20559Y-28628D01*
X-20555Y-28633D01*
X-20550Y-28638D01*
X-20425Y-28801D01*
X-20422Y-28807D01*
X-20418Y-28812D01*
X-20340Y-29002D01*
X-20338Y-29008D01*
X-20336Y-29015D01*
X-20309Y-29218D01*
X-20310Y-29222D01*
X-20309Y-29225D01*
X-20310Y-29232D01*
X-20311Y-29238D01*
X-20312Y-29241D01*
X-20313Y-29245D01*
X-20317Y-29250D01*
X-20319Y-29256D01*
X-20322Y-29258D01*
X-20324Y-29261D01*
X-20329Y-29265D01*
X-20334Y-29269D01*
X-20338Y-29270D01*
X-20340Y-29272D01*
X-20347Y-29273D01*
X-20353Y-29276D01*
X-20357Y-29275D01*
X-20360Y-29276D01*
X-21933D01*
X-21937Y-29275D01*
X-21940Y-29276D01*
X-21946Y-29273D01*
X-21953Y-29272D01*
X-21956Y-29270D01*
X-21959Y-29269D01*
X-21964Y-29265D01*
X-21969Y-29261D01*
X-21971Y-29258D01*
X-21974Y-29256D01*
X-21977Y-29250D01*
X-21980Y-29245D01*
X-21981Y-29241D01*
X-21983Y-29238D01*
X-21983Y-29232D01*
X-21984Y-29225D01*
X-21984Y-29222D01*
X-21984Y-29218D01*
X-21957Y-29015D01*
X-21955Y-29008D01*
X-21954Y-29002D01*
X-21875Y-28812D01*
X-21871Y-28807D01*
X-21868Y-28801D01*
X-21743Y-28638D01*
X-21738Y-28633D01*
X-21734Y-28628D01*
X-21571Y-28503D01*
X-21565Y-28500D01*
X-21560Y-28497D01*
X-21370Y-28418D01*
X-21363Y-28417D01*
X-21357Y-28415D01*
X-21153Y-28388D01*
X-21150Y-28388D01*
X-21147Y-28387D01*
X-21143Y-28388D01*
D02*
G37*
G36*
X-27367Y-28389D02*
X-27364Y-28389D01*
X-27160Y-28416D01*
X-27154Y-28418D01*
X-27147Y-28419D01*
X-26958Y-28498D01*
X-26952Y-28502D01*
X-26946Y-28505D01*
X-26783Y-28630D01*
X-26779Y-28635D01*
X-26774Y-28639D01*
X-26649Y-28802D01*
X-26646Y-28808D01*
X-26642Y-28814D01*
X-26564Y-29003D01*
X-26562Y-29010D01*
X-26560Y-29016D01*
X-26533Y-29220D01*
X-26534Y-29223D01*
X-26533Y-29227D01*
X-26534Y-29233D01*
X-26535Y-29240D01*
X-26536Y-29243D01*
X-26537Y-29246D01*
X-26541Y-29252D01*
X-26543Y-29258D01*
X-26546Y-29260D01*
X-26548Y-29263D01*
X-26553Y-29266D01*
X-26558Y-29271D01*
X-26562Y-29272D01*
X-26564Y-29274D01*
X-26571Y-29275D01*
X-26577Y-29277D01*
X-26581Y-29277D01*
X-26584Y-29277D01*
X-28157D01*
X-28161Y-29277D01*
X-28164Y-29277D01*
X-28170Y-29275D01*
X-28177Y-29274D01*
X-28180Y-29272D01*
X-28183Y-29271D01*
X-28188Y-29266D01*
X-28193Y-29263D01*
X-28195Y-29260D01*
X-28198Y-29258D01*
X-28201Y-29252D01*
X-28204Y-29246D01*
X-28205Y-29243D01*
X-28207Y-29240D01*
X-28207Y-29233D01*
X-28208Y-29227D01*
X-28208Y-29223D01*
X-28208Y-29220D01*
X-28181Y-29016D01*
X-28179Y-29010D01*
X-28178Y-29003D01*
X-28099Y-28814D01*
X-28095Y-28808D01*
X-28092Y-28802D01*
X-27967Y-28639D01*
X-27962Y-28635D01*
X-27958Y-28630D01*
X-27795Y-28505D01*
X-27789Y-28502D01*
X-27784Y-28498D01*
X-27594Y-28419D01*
X-27587Y-28418D01*
X-27581Y-28416D01*
X-27377Y-28389D01*
X-27374Y-28389D01*
X-27371Y-28389D01*
X-27367Y-28389D01*
D02*
G37*
G36*
X-25295D02*
X-25291Y-28389D01*
X-25088Y-28416D01*
X-25081Y-28418D01*
X-25075Y-28419D01*
X-24885Y-28498D01*
X-24879Y-28502D01*
X-24873Y-28505D01*
X-24711Y-28630D01*
X-24706Y-28635D01*
X-24701Y-28639D01*
X-24576Y-28802D01*
X-24573Y-28808D01*
X-24569Y-28814D01*
X-24491Y-29003D01*
X-24490Y-29010D01*
X-24487Y-29016D01*
X-24461Y-29220D01*
X-24461Y-29223D01*
X-24460Y-29227D01*
X-24461Y-29233D01*
X-24462Y-29240D01*
X-24463Y-29243D01*
X-24464Y-29246D01*
X-24468Y-29252D01*
X-24471Y-29258D01*
X-24473Y-29260D01*
X-24475Y-29263D01*
X-24481Y-29266D01*
X-24486Y-29271D01*
X-24489Y-29272D01*
X-24492Y-29274D01*
X-24498Y-29275D01*
X-24504Y-29277D01*
X-24508Y-29277D01*
X-24511Y-29277D01*
X-26085D01*
X-26088Y-29277D01*
X-26091Y-29277D01*
X-26098Y-29275D01*
X-26104Y-29274D01*
X-26107Y-29272D01*
X-26110Y-29271D01*
X-26115Y-29266D01*
X-26121Y-29263D01*
X-26123Y-29260D01*
X-26125Y-29258D01*
X-26128Y-29252D01*
X-26132Y-29246D01*
X-26132Y-29243D01*
X-26134Y-29240D01*
X-26134Y-29233D01*
X-26136Y-29227D01*
X-26135Y-29223D01*
X-26135Y-29220D01*
X-26108Y-29016D01*
X-26106Y-29010D01*
X-26105Y-29003D01*
X-26026Y-28814D01*
X-26023Y-28808D01*
X-26020Y-28802D01*
X-25895Y-28639D01*
X-25890Y-28635D01*
X-25885Y-28630D01*
X-25722Y-28505D01*
X-25716Y-28502D01*
X-25711Y-28498D01*
X-25521Y-28419D01*
X-25514Y-28418D01*
X-25508Y-28416D01*
X-25305Y-28389D01*
X-25301Y-28389D01*
X-25298Y-28389D01*
X-25295Y-28389D01*
D02*
G37*
G36*
X-34889Y-29375D02*
X-34885Y-29374D01*
X-34879Y-29377D01*
X-34872Y-29378D01*
X-34870Y-29380D01*
X-34866Y-29381D01*
X-34861Y-29385D01*
X-34856Y-29389D01*
X-34854Y-29392D01*
X-34851Y-29394D01*
X-34848Y-29400D01*
X-34845Y-29405D01*
X-34844Y-29409D01*
X-34843Y-29412D01*
X-34842Y-29418D01*
X-34841Y-29425D01*
X-34842Y-29428D01*
X-34841Y-29432D01*
X-34868Y-29635D01*
X-34870Y-29642D01*
X-34872Y-29648D01*
X-34950Y-29838D01*
X-34954Y-29843D01*
X-34957Y-29849D01*
X-35082Y-30012D01*
X-35087Y-30017D01*
X-35091Y-30022D01*
X-35254Y-30147D01*
X-35260Y-30150D01*
X-35266Y-30153D01*
X-35455Y-30232D01*
X-35462Y-30233D01*
X-35468Y-30235D01*
X-35672Y-30262D01*
X-35675Y-30262D01*
X-35679Y-30263D01*
X-35682Y-30262D01*
X-35685Y-30262D01*
X-35889Y-30235D01*
X-35895Y-30233D01*
X-35902Y-30232D01*
X-36091Y-30153D01*
X-36097Y-30150D01*
X-36103Y-30147D01*
X-36266Y-30022D01*
X-36270Y-30017D01*
X-36275Y-30012D01*
X-36400Y-29849D01*
X-36403Y-29843D01*
X-36407Y-29838D01*
X-36486Y-29648D01*
X-36487Y-29642D01*
X-36489Y-29635D01*
X-36516Y-29432D01*
X-36516Y-29428D01*
X-36516Y-29425D01*
X-36515Y-29418D01*
X-36515Y-29412D01*
X-36513Y-29409D01*
X-36512Y-29405D01*
X-36509Y-29400D01*
X-36506Y-29394D01*
X-36503Y-29392D01*
X-36501Y-29389D01*
X-36496Y-29385D01*
X-36491Y-29381D01*
X-36488Y-29380D01*
X-36485Y-29378D01*
X-36478Y-29377D01*
X-36472Y-29374D01*
X-36469Y-29375D01*
X-36465Y-29374D01*
X-34892D01*
X-34889Y-29375D01*
D02*
G37*
G36*
X-32814D02*
X-32811Y-29374D01*
X-32805Y-29377D01*
X-32798Y-29378D01*
X-32795Y-29380D01*
X-32792Y-29381D01*
X-32787Y-29385D01*
X-32782Y-29389D01*
X-32780Y-29392D01*
X-32777Y-29394D01*
X-32774Y-29400D01*
X-32770Y-29405D01*
X-32770Y-29409D01*
X-32768Y-29412D01*
X-32768Y-29418D01*
X-32767Y-29425D01*
X-32767Y-29428D01*
X-32767Y-29432D01*
X-32794Y-29635D01*
X-32796Y-29642D01*
X-32797Y-29648D01*
X-32876Y-29838D01*
X-32880Y-29843D01*
X-32883Y-29849D01*
X-33008Y-30012D01*
X-33013Y-30017D01*
X-33017Y-30022D01*
X-33180Y-30147D01*
X-33186Y-30150D01*
X-33191Y-30153D01*
X-33381Y-30232D01*
X-33388Y-30233D01*
X-33394Y-30235D01*
X-33598Y-30262D01*
X-33601Y-30262D01*
X-33604Y-30263D01*
X-33608Y-30262D01*
X-33611Y-30262D01*
X-33815Y-30235D01*
X-33821Y-30233D01*
X-33827Y-30232D01*
X-34017Y-30153D01*
X-34023Y-30150D01*
X-34029Y-30147D01*
X-34192Y-30022D01*
X-34196Y-30017D01*
X-34201Y-30012D01*
X-34326Y-29849D01*
X-34329Y-29843D01*
X-34333Y-29838D01*
X-34411Y-29648D01*
X-34413Y-29642D01*
X-34415Y-29635D01*
X-34442Y-29432D01*
X-34441Y-29428D01*
X-34442Y-29425D01*
X-34441Y-29418D01*
X-34440Y-29412D01*
X-34439Y-29409D01*
X-34438Y-29405D01*
X-34434Y-29400D01*
X-34431Y-29394D01*
X-34429Y-29392D01*
X-34427Y-29389D01*
X-34422Y-29385D01*
X-34417Y-29381D01*
X-34413Y-29380D01*
X-34411Y-29378D01*
X-34404Y-29377D01*
X-34398Y-29374D01*
X-34394Y-29375D01*
X-34391Y-29374D01*
X-32818D01*
X-32814Y-29375D01*
D02*
G37*
G36*
X-23217Y-28389D02*
X-23214Y-28389D01*
X-23010Y-28416D01*
X-23004Y-28418D01*
X-22997Y-28419D01*
X-22808Y-28498D01*
X-22802Y-28502D01*
X-22796Y-28505D01*
X-22633Y-28630D01*
X-22629Y-28635D01*
X-22624Y-28639D01*
X-22499Y-28802D01*
X-22496Y-28808D01*
X-22492Y-28814D01*
X-22414Y-29003D01*
X-22412Y-29010D01*
X-22410Y-29016D01*
X-22383Y-29220D01*
X-22384Y-29223D01*
X-22383Y-29227D01*
X-22384Y-29233D01*
X-22385Y-29240D01*
X-22386Y-29243D01*
X-22387Y-29246D01*
X-22390Y-29252D01*
X-22393Y-29258D01*
X-22396Y-29260D01*
X-22398Y-29263D01*
X-22403Y-29266D01*
X-22408Y-29271D01*
X-22412Y-29272D01*
X-22414Y-29274D01*
X-22421Y-29275D01*
X-22427Y-29277D01*
X-22431Y-29277D01*
X-22434Y-29277D01*
X-24007D01*
X-24011Y-29277D01*
X-24014Y-29277D01*
X-24020Y-29275D01*
X-24027Y-29274D01*
X-24030Y-29272D01*
X-24033Y-29271D01*
X-24038Y-29266D01*
X-24043Y-29263D01*
X-24045Y-29260D01*
X-24048Y-29258D01*
X-24051Y-29252D01*
X-24054Y-29246D01*
X-24055Y-29243D01*
X-24057Y-29240D01*
X-24057Y-29233D01*
X-24058Y-29227D01*
X-24058Y-29223D01*
X-24058Y-29220D01*
X-24031Y-29016D01*
X-24029Y-29010D01*
X-24028Y-29003D01*
X-23949Y-28814D01*
X-23945Y-28808D01*
X-23942Y-28802D01*
X-23817Y-28639D01*
X-23812Y-28635D01*
X-23808Y-28630D01*
X-23645Y-28505D01*
X-23639Y-28502D01*
X-23633Y-28498D01*
X-23444Y-28419D01*
X-23437Y-28418D01*
X-23431Y-28416D01*
X-23227Y-28389D01*
X-23224Y-28389D01*
X-23221Y-28389D01*
X-23217Y-28389D01*
D02*
G37*
G36*
X-31518Y-28388D02*
X-31515Y-28388D01*
X-31311Y-28415D01*
X-31305Y-28417D01*
X-31299Y-28418D01*
X-31109Y-28497D01*
X-31103Y-28500D01*
X-31097Y-28503D01*
X-30934Y-28628D01*
X-30930Y-28633D01*
X-30925Y-28638D01*
X-30800Y-28801D01*
X-30797Y-28807D01*
X-30793Y-28812D01*
X-30715Y-29002D01*
X-30713Y-29008D01*
X-30711Y-29015D01*
X-30684Y-29218D01*
X-30685Y-29222D01*
X-30684Y-29225D01*
X-30685Y-29232D01*
X-30686Y-29238D01*
X-30687Y-29241D01*
X-30688Y-29245D01*
X-30692Y-29250D01*
X-30694Y-29256D01*
X-30697Y-29258D01*
X-30699Y-29261D01*
X-30704Y-29265D01*
X-30709Y-29269D01*
X-30713Y-29270D01*
X-30715Y-29272D01*
X-30722Y-29273D01*
X-30728Y-29276D01*
X-30732Y-29275D01*
X-30735Y-29276D01*
X-32308D01*
X-32312Y-29275D01*
X-32315Y-29276D01*
X-32321Y-29273D01*
X-32328Y-29272D01*
X-32331Y-29270D01*
X-32334Y-29269D01*
X-32339Y-29265D01*
X-32344Y-29261D01*
X-32346Y-29258D01*
X-32349Y-29256D01*
X-32352Y-29250D01*
X-32355Y-29245D01*
X-32356Y-29241D01*
X-32358Y-29238D01*
X-32358Y-29232D01*
X-32359Y-29225D01*
X-32359Y-29222D01*
X-32359Y-29218D01*
X-32332Y-29015D01*
X-32330Y-29008D01*
X-32329Y-29002D01*
X-32250Y-28812D01*
X-32246Y-28807D01*
X-32243Y-28801D01*
X-32118Y-28638D01*
X-32113Y-28633D01*
X-32109Y-28628D01*
X-31946Y-28503D01*
X-31940Y-28500D01*
X-31935Y-28497D01*
X-31745Y-28418D01*
X-31738Y-28417D01*
X-31732Y-28415D01*
X-31528Y-28388D01*
X-31525Y-28388D01*
X-31522Y-28387D01*
X-31518Y-28388D01*
D02*
G37*
G36*
X-29443D02*
X-29440Y-28388D01*
X-29236Y-28415D01*
X-29230Y-28417D01*
X-29224Y-28418D01*
X-29034Y-28497D01*
X-29028Y-28500D01*
X-29022Y-28503D01*
X-28859Y-28628D01*
X-28855Y-28633D01*
X-28850Y-28638D01*
X-28725Y-28801D01*
X-28722Y-28807D01*
X-28718Y-28812D01*
X-28640Y-29002D01*
X-28638Y-29008D01*
X-28636Y-29015D01*
X-28609Y-29218D01*
X-28610Y-29222D01*
X-28609Y-29225D01*
X-28610Y-29232D01*
X-28611Y-29238D01*
X-28612Y-29241D01*
X-28613Y-29245D01*
X-28617Y-29250D01*
X-28619Y-29256D01*
X-28622Y-29258D01*
X-28624Y-29261D01*
X-28629Y-29265D01*
X-28634Y-29269D01*
X-28638Y-29270D01*
X-28640Y-29272D01*
X-28647Y-29273D01*
X-28653Y-29276D01*
X-28657Y-29275D01*
X-28660Y-29276D01*
X-30233D01*
X-30237Y-29275D01*
X-30240Y-29276D01*
X-30246Y-29273D01*
X-30253Y-29272D01*
X-30256Y-29270D01*
X-30259Y-29269D01*
X-30264Y-29265D01*
X-30269Y-29261D01*
X-30271Y-29258D01*
X-30274Y-29256D01*
X-30277Y-29250D01*
X-30280Y-29245D01*
X-30281Y-29241D01*
X-30283Y-29238D01*
X-30283Y-29232D01*
X-30284Y-29225D01*
X-30284Y-29222D01*
X-30284Y-29218D01*
X-30257Y-29015D01*
X-30255Y-29008D01*
X-30254Y-29002D01*
X-30175Y-28812D01*
X-30171Y-28807D01*
X-30168Y-28801D01*
X-30043Y-28638D01*
X-30038Y-28633D01*
X-30034Y-28628D01*
X-29871Y-28503D01*
X-29865Y-28500D01*
X-29860Y-28497D01*
X-29670Y-28418D01*
X-29663Y-28417D01*
X-29657Y-28415D01*
X-29453Y-28388D01*
X-29450Y-28388D01*
X-29447Y-28387D01*
X-29443Y-28388D01*
D02*
G37*
G36*
X-39843D02*
X-39840Y-28388D01*
X-39636Y-28415D01*
X-39630Y-28417D01*
X-39624Y-28418D01*
X-39434Y-28497D01*
X-39428Y-28500D01*
X-39422Y-28503D01*
X-39259Y-28628D01*
X-39255Y-28633D01*
X-39250Y-28638D01*
X-39125Y-28801D01*
X-39122Y-28807D01*
X-39118Y-28812D01*
X-39040Y-29002D01*
X-39038Y-29008D01*
X-39036Y-29015D01*
X-39009Y-29218D01*
X-39010Y-29222D01*
X-39009Y-29225D01*
X-39010Y-29232D01*
X-39011Y-29238D01*
X-39012Y-29241D01*
X-39013Y-29245D01*
X-39017Y-29250D01*
X-39019Y-29256D01*
X-39022Y-29258D01*
X-39024Y-29261D01*
X-39029Y-29265D01*
X-39034Y-29269D01*
X-39038Y-29270D01*
X-39040Y-29272D01*
X-39047Y-29273D01*
X-39053Y-29276D01*
X-39057Y-29275D01*
X-39060Y-29276D01*
X-40633D01*
X-40637Y-29275D01*
X-40640Y-29276D01*
X-40646Y-29273D01*
X-40653Y-29272D01*
X-40656Y-29270D01*
X-40659Y-29269D01*
X-40664Y-29265D01*
X-40669Y-29261D01*
X-40671Y-29258D01*
X-40674Y-29256D01*
X-40677Y-29250D01*
X-40680Y-29245D01*
X-40681Y-29241D01*
X-40683Y-29238D01*
X-40683Y-29232D01*
X-40684Y-29225D01*
X-40684Y-29222D01*
X-40684Y-29218D01*
X-40657Y-29015D01*
X-40655Y-29008D01*
X-40654Y-29002D01*
X-40575Y-28812D01*
X-40571Y-28807D01*
X-40568Y-28801D01*
X-40443Y-28638D01*
X-40438Y-28633D01*
X-40434Y-28628D01*
X-40271Y-28503D01*
X-40265Y-28500D01*
X-40260Y-28497D01*
X-40070Y-28418D01*
X-40063Y-28417D01*
X-40057Y-28415D01*
X-39853Y-28388D01*
X-39850Y-28388D01*
X-39847Y-28387D01*
X-39843Y-28388D01*
D02*
G37*
G36*
X-37768D02*
X-37765Y-28388D01*
X-37561Y-28415D01*
X-37555Y-28417D01*
X-37549Y-28418D01*
X-37359Y-28497D01*
X-37353Y-28500D01*
X-37347Y-28503D01*
X-37184Y-28628D01*
X-37180Y-28633D01*
X-37175Y-28638D01*
X-37050Y-28801D01*
X-37047Y-28807D01*
X-37043Y-28812D01*
X-36965Y-29002D01*
X-36963Y-29008D01*
X-36961Y-29015D01*
X-36934Y-29218D01*
X-36935Y-29222D01*
X-36934Y-29225D01*
X-36935Y-29232D01*
X-36936Y-29238D01*
X-36937Y-29241D01*
X-36938Y-29245D01*
X-36942Y-29250D01*
X-36944Y-29256D01*
X-36947Y-29258D01*
X-36949Y-29261D01*
X-36954Y-29265D01*
X-36959Y-29269D01*
X-36963Y-29270D01*
X-36965Y-29272D01*
X-36972Y-29273D01*
X-36978Y-29276D01*
X-36982Y-29275D01*
X-36985Y-29276D01*
X-38558D01*
X-38562Y-29275D01*
X-38565Y-29276D01*
X-38571Y-29273D01*
X-38578Y-29272D01*
X-38581Y-29270D01*
X-38584Y-29269D01*
X-38589Y-29265D01*
X-38594Y-29261D01*
X-38596Y-29258D01*
X-38599Y-29256D01*
X-38602Y-29250D01*
X-38605Y-29245D01*
X-38606Y-29241D01*
X-38608Y-29238D01*
X-38608Y-29232D01*
X-38609Y-29225D01*
X-38609Y-29222D01*
X-38609Y-29218D01*
X-38582Y-29015D01*
X-38580Y-29008D01*
X-38579Y-29002D01*
X-38500Y-28812D01*
X-38496Y-28807D01*
X-38493Y-28801D01*
X-38368Y-28638D01*
X-38363Y-28633D01*
X-38359Y-28628D01*
X-38196Y-28503D01*
X-38190Y-28500D01*
X-38185Y-28497D01*
X-37995Y-28418D01*
X-37988Y-28417D01*
X-37982Y-28415D01*
X-37778Y-28388D01*
X-37775Y-28388D01*
X-37772Y-28387D01*
X-37768Y-28388D01*
D02*
G37*
D70*
X-27950Y-17850D02*
D03*
X-27300D02*
D03*
X-26650D02*
D03*
X-26000D02*
D03*
X-25350D02*
D03*
X-24700D02*
D03*
X-24050D02*
D03*
X-23400D02*
D03*
X-22750D02*
D03*
X-22100D02*
D03*
X-27950Y-18500D02*
D03*
X-27300D02*
D03*
X-26650D02*
D03*
X-26000D02*
D03*
X-25350D02*
D03*
X-24700D02*
D03*
X-24050D02*
D03*
X-23400D02*
D03*
X-22750D02*
D03*
X-22100D02*
D03*
X-27950Y-19150D02*
D03*
X-27300D02*
D03*
X-26650D02*
D03*
X-26000D02*
D03*
X-25350D02*
D03*
X-24700D02*
D03*
X-24050D02*
D03*
X-23400D02*
D03*
X-22750D02*
D03*
X-27950Y-19800D02*
D03*
X-27300D02*
D03*
X-26650D02*
D03*
X-26000D02*
D03*
X-25350D02*
D03*
X-24700D02*
D03*
X-24050D02*
D03*
X-23400D02*
D03*
X-22750D02*
D03*
X-27950Y-20450D02*
D03*
X-27300D02*
D03*
X-26650D02*
D03*
X-26000D02*
D03*
X-25350D02*
D03*
X-24700D02*
D03*
X-24050D02*
D03*
X-23400D02*
D03*
X-22750D02*
D03*
X-27950Y-21750D02*
D03*
X-27300D02*
D03*
X-26650D02*
D03*
X-26000D02*
D03*
X-25350D02*
D03*
X-24700D02*
D03*
X-24050D02*
D03*
X-23400D02*
D03*
X-22750D02*
D03*
X-27950Y-22400D02*
D03*
X-27300D02*
D03*
X-26650D02*
D03*
X-26000D02*
D03*
X-25350D02*
D03*
X-24700D02*
D03*
X-24050D02*
D03*
X-23400D02*
D03*
X-22750D02*
D03*
X-27950Y-23050D02*
D03*
X-27300D02*
D03*
X-26650D02*
D03*
X-26000D02*
D03*
X-25350D02*
D03*
X-24700D02*
D03*
X-24050D02*
D03*
X-23400D02*
D03*
X-22750D02*
D03*
X-27950Y-23700D02*
D03*
X-27300D02*
D03*
X-26650D02*
D03*
X-26000D02*
D03*
X-25350D02*
D03*
X-24700D02*
D03*
X-24050D02*
D03*
X-23400D02*
D03*
X-22750D02*
D03*
X-27950Y-21100D02*
D03*
X-27300D02*
D03*
X-26650D02*
D03*
X-26000D02*
D03*
X-25350D02*
D03*
X-24700D02*
D03*
X-24050D02*
D03*
X-23400D02*
D03*
X-22750D02*
D03*
X-22100D02*
D03*
Y-19150D02*
D03*
Y-19800D02*
D03*
Y-20450D02*
D03*
Y-21750D02*
D03*
Y-22400D02*
D03*
Y-23050D02*
D03*
Y-23700D02*
D03*
D112*
X-28500Y-25700D02*
D03*
X-19075Y-4150D02*
D03*
X-21200Y-4200D02*
D03*
X-18325Y-12300D02*
D03*
X-11875Y-18350D02*
D03*
X-2575Y-6650D02*
D03*
X-31200Y-6425D02*
D03*
X-4100Y-12000D02*
D03*
X-25025Y-14200D02*
D03*
X-17800Y-16525D02*
D03*
X-11900Y-20200D02*
D03*
X-27000Y-9750D02*
D03*
X-32125Y-17675D02*
D03*
X-2800Y-12075D02*
D03*
X-49150Y-61450D02*
D03*
Y-55600D02*
D03*
X-18050Y-25125D02*
D03*
X-19325D02*
D03*
X-20600D02*
D03*
X-21875D02*
D03*
X-23150D02*
D03*
X-32400Y-60225D02*
D03*
X-41630Y-66220D02*
D03*
X-46725Y-64725D02*
D03*
X-41675Y-46125D02*
D03*
X-38025Y-49500D02*
D03*
X-4500Y-5500D02*
D03*
X-7600Y-8800D02*
D03*
X-24050Y-84050D02*
D03*
Y-81950D02*
D03*
Y-79875D02*
D03*
X-6200Y-8800D02*
D03*
X-42650Y-44250D02*
D03*
X-47450D02*
D03*
X-13300Y-7500D02*
D03*
X-33125Y-12695D02*
D03*
X-16750Y-3825D02*
D03*
X-37300Y-33250D02*
D03*
X-38450Y-34300D02*
D03*
D113*
X-29750Y-25725D02*
D03*
Y-26925D02*
D03*
X-18050Y-27300D02*
D03*
Y-26100D02*
D03*
X-19325Y-27300D02*
D03*
Y-26100D02*
D03*
X-20600Y-27300D02*
D03*
Y-26100D02*
D03*
X-21875Y-27300D02*
D03*
Y-26100D02*
D03*
X-23150Y-27300D02*
D03*
Y-26100D02*
D03*
X-17100Y-11100D02*
D03*
Y-12300D02*
D03*
X-11800Y-14900D02*
D03*
Y-16100D02*
D03*
X-1200Y-8600D02*
D03*
Y-9800D02*
D03*
X-5200Y-9800D02*
D03*
Y-8600D02*
D03*
D114*
X-36100Y-16000D02*
D03*
X-34900D02*
D03*
X-14600Y-25250D02*
D03*
X-13400D02*
D03*
X-14600Y-26500D02*
D03*
X-13400D02*
D03*
X-28400Y-8850D02*
D03*
X-29600D02*
D03*
X-25800D02*
D03*
X-27000D02*
D03*
X-15150Y-8500D02*
D03*
X-16350D02*
D03*
X-32400Y-5200D02*
D03*
X-31200D02*
D03*
X-5800Y-23925D02*
D03*
X-7000D02*
D03*
X-5800Y-25200D02*
D03*
X-7000D02*
D03*
X-5800Y-26500D02*
D03*
X-7000D02*
D03*
X-5300Y-11100D02*
D03*
X-4100D02*
D03*
X-2800D02*
D03*
X-1600D02*
D03*
X-31200Y-7700D02*
D03*
X-32400D02*
D03*
X-34900Y-14850D02*
D03*
X-36100D02*
D03*
D116*
X-16900Y-18400D02*
D03*
Y-17400D02*
D03*
X-20300Y-18200D02*
D03*
Y-19200D02*
D03*
Y-17200D02*
D03*
Y-16200D02*
D03*
D117*
X-30875Y-22375D02*
D03*
Y-21425D02*
D03*
X-30000Y-22375D02*
D03*
Y-21425D02*
D03*
X-17800Y-18375D02*
D03*
Y-17425D02*
D03*
X-16900Y-20275D02*
D03*
Y-19325D02*
D03*
Y-21225D02*
D03*
Y-22175D02*
D03*
D122*
X-24900Y-26400D02*
D03*
X-25850D02*
D03*
X-24900Y-25500D02*
D03*
X-25850D02*
D03*
X-19325Y-21300D02*
D03*
X-20275D02*
D03*
X-22925Y-16000D02*
D03*
X-23875D02*
D03*
X-22925Y-15100D02*
D03*
X-23875D02*
D03*
X-25025Y-16000D02*
D03*
X-25975D02*
D03*
Y-15100D02*
D03*
X-25025D02*
D03*
X-32150Y-18900D02*
D03*
X-31200D02*
D03*
D123*
X-31375Y-20000D02*
D03*
X-32775D02*
D03*
D140*
X-2350Y-2350D02*
D03*
X-57650D02*
D03*
X-2350Y-97650D02*
D03*
X-57650D02*
D03*
D141*
X-18570Y-93030D02*
D03*
D142*
X-41430Y-95570D02*
D03*
X-31270Y-93030D02*
D03*
Y-95570D02*
D03*
X-33810D02*
D03*
Y-93030D02*
D03*
X-36350Y-95570D02*
D03*
Y-93030D02*
D03*
X-38890Y-95570D02*
D03*
Y-93030D02*
D03*
X-41430D02*
D03*
X-28730D02*
D03*
X-26190D02*
D03*
Y-95570D02*
D03*
X-23650Y-93030D02*
D03*
Y-95570D02*
D03*
X-21110Y-93030D02*
D03*
Y-95570D02*
D03*
X-18570D02*
D03*
X-28730D02*
D03*
X-4430Y-87150D02*
D03*
X-6970Y-76990D02*
D03*
X-4430D02*
D03*
Y-79530D02*
D03*
X-6970D02*
D03*
X-4430Y-82070D02*
D03*
X-6970D02*
D03*
X-4430Y-84610D02*
D03*
X-6970D02*
D03*
Y-87150D02*
D03*
Y-74450D02*
D03*
Y-71910D02*
D03*
X-4430D02*
D03*
X-6970Y-69370D02*
D03*
X-4430D02*
D03*
X-6970Y-66830D02*
D03*
X-4430D02*
D03*
Y-64290D02*
D03*
Y-74450D02*
D03*
X-14590D02*
D03*
X-12050D02*
D03*
X-14590Y-71910D02*
D03*
X-12050D02*
D03*
X-14590Y-69370D02*
D03*
X-12050D02*
D03*
X-14590Y-66830D02*
D03*
X-12050D02*
D03*
Y-64290D02*
D03*
Y-76990D02*
D03*
Y-79530D02*
D03*
X-14590D02*
D03*
X-12050Y-82070D02*
D03*
X-14590D02*
D03*
X-12050Y-84610D02*
D03*
X-14590D02*
D03*
X-12050Y-87150D02*
D03*
X-14590D02*
D03*
Y-76990D02*
D03*
X-45275Y-32450D02*
D03*
X-42735D02*
D03*
X-40195D02*
D03*
X-47815D02*
D03*
X-50355D02*
D03*
X-31145Y-69500D02*
D03*
X-28605D02*
D03*
X-33685D02*
D03*
X-36225D02*
D03*
X-26065D02*
D03*
X-23525D02*
D03*
X-38730Y-10950D02*
D03*
X-41270D02*
D03*
X-4430Y-51590D02*
D03*
X-6970Y-41430D02*
D03*
X-4430D02*
D03*
Y-43970D02*
D03*
X-6970D02*
D03*
X-4430Y-46510D02*
D03*
X-6970D02*
D03*
X-4430Y-49050D02*
D03*
X-6970D02*
D03*
Y-51590D02*
D03*
Y-38890D02*
D03*
Y-36350D02*
D03*
X-4430D02*
D03*
X-6970Y-33810D02*
D03*
X-4430D02*
D03*
X-6970Y-31270D02*
D03*
X-4430D02*
D03*
Y-28730D02*
D03*
Y-38890D02*
D03*
X-14590Y-38890D02*
D03*
X-12050D02*
D03*
X-14590Y-36350D02*
D03*
X-12050D02*
D03*
X-14590Y-33810D02*
D03*
X-12050D02*
D03*
X-14590Y-31270D02*
D03*
X-12050D02*
D03*
Y-28730D02*
D03*
Y-41430D02*
D03*
Y-43970D02*
D03*
X-14590D02*
D03*
X-12050Y-46510D02*
D03*
X-14590D02*
D03*
X-12050Y-49050D02*
D03*
X-14590D02*
D03*
X-12050Y-51590D02*
D03*
X-14590D02*
D03*
Y-41430D02*
D03*
X-6970Y-16030D02*
D03*
X-4430D02*
D03*
Y-13490D02*
D03*
D143*
X-6970Y-64290D02*
D03*
X-14590D02*
D03*
X-6970Y-28730D02*
D03*
X-14590Y-28730D02*
D03*
X-6970Y-13490D02*
D03*
D144*
X-26000Y-1500D02*
D03*
X-41600D02*
D03*
X-38600D02*
D03*
X-41600Y-3500D02*
D03*
Y-5500D02*
D03*
X-38600D02*
D03*
X-41600Y-7500D02*
D03*
X-38600Y-3500D02*
D03*
Y-7500D02*
D03*
X-33000Y-1500D02*
D03*
X-29750Y-84625D02*
D03*
D145*
X-55245Y-71280D02*
D03*
X-52705Y-68740D02*
D03*
X-57785Y-73820D02*
D03*
X-52705D02*
D03*
X-57785Y-68740D02*
D03*
D146*
X-11450Y-13350D02*
D03*
Y-11450D02*
D03*
X-9350Y-12400D02*
D03*
X-15550Y-12400D02*
D03*
Y-10500D02*
D03*
X-13450Y-11450D02*
D03*
Y-14050D02*
D03*
Y-15950D02*
D03*
X-15550Y-15000D02*
D03*
X-21175Y-6325D02*
D03*
X-19075Y-7275D02*
D03*
Y-5375D02*
D03*
D147*
X-28775Y-3450D02*
D03*
X-25825D02*
D03*
D148*
X-24900Y-7098D02*
D03*
Y-5701D02*
D03*
D149*
X-3875Y-7875D02*
D03*
X-3225D02*
D03*
X-2575D02*
D03*
Y-9725D02*
D03*
X-3225D02*
D03*
X-3875D02*
D03*
D150*
X-26500Y-5550D02*
D03*
Y-6500D02*
D03*
Y-7450D02*
D03*
X-28900D02*
D03*
Y-5550D02*
D03*
D151*
X-13100Y-22150D02*
D03*
Y-18350D02*
D03*
X-15400D02*
D03*
Y-22150D02*
D03*
M02*
