%FSLAX43Y43*%
%MOMM*%
G71*
G01*
G75*
G04 Layer_Physical_Order=4*
G04 Layer_Color=16711680*
%ADD10O,0.800X0.400*%
%ADD11R,0.205X0.282*%
%ADD12R,0.600X0.900*%
%ADD13C,0.800*%
%ADD14R,0.650X0.800*%
%ADD15R,0.800X0.650*%
%ADD16R,0.600X0.550*%
%ADD17R,0.550X0.600*%
%ADD18R,0.500X0.650*%
%ADD19R,1.200X1.200*%
%ADD20R,1.000X2.250*%
%ADD21R,0.900X0.600*%
%ADD22R,0.500X0.600*%
%ADD23R,0.650X0.500*%
%ADD24R,0.700X0.700*%
%ADD25R,0.305X0.584*%
%ADD26R,0.350X0.700*%
%ADD27R,1.100X0.600*%
%ADD28R,1.100X1.000*%
%ADD29R,1.200X1.200*%
%ADD30R,1.300X1.400*%
%ADD31R,0.850X0.300*%
%ADD32O,0.280X0.800*%
%ADD33O,0.800X0.280*%
%ADD34R,7.650X7.650*%
%ADD35R,1.300X1.600*%
%ADD36R,1.100X1.300*%
%ADD37R,2.300X1.900*%
%ADD38R,0.400X1.400*%
%ADD39R,1.775X1.900*%
%ADD40R,0.600X1.000*%
G04:AMPARAMS|DCode=41|XSize=0.205mm|YSize=0.282mm|CornerRadius=0mm|HoleSize=0mm|Usage=FLASHONLY|Rotation=225.000|XOffset=0mm|YOffset=0mm|HoleType=Round|Shape=Rectangle|*
%AMROTATEDRECTD41*
4,1,4,-0.027,0.172,0.172,-0.027,0.027,-0.172,-0.172,0.027,-0.027,0.172,0.0*
%
%ADD41ROTATEDRECTD41*%

G04:AMPARAMS|DCode=42|XSize=0.205mm|YSize=0.282mm|CornerRadius=0mm|HoleSize=0mm|Usage=FLASHONLY|Rotation=135.000|XOffset=0mm|YOffset=0mm|HoleType=Round|Shape=Rectangle|*
%AMROTATEDRECTD42*
4,1,4,0.172,0.027,-0.027,-0.172,-0.172,-0.027,0.027,0.172,0.172,0.027,0.0*
%
%ADD42ROTATEDRECTD42*%

%ADD43R,0.282X0.205*%
%ADD44C,0.216*%
%ADD45C,0.150*%
%ADD46C,0.125*%
%ADD47C,0.160*%
%ADD48C,0.300*%
%ADD49C,0.200*%
%ADD50C,0.180*%
%ADD51C,0.254*%
%ADD52R,0.216X2.303*%
%ADD53R,2.386X0.197*%
%ADD54R,0.598X0.716*%
%ADD55R,0.600X0.670*%
%ADD56R,0.763X0.125*%
%ADD57R,0.601X0.571*%
%ADD58R,1.650X0.550*%
%ADD59R,2.025X0.450*%
%ADD60R,0.350X3.200*%
%ADD61R,0.450X2.959*%
%ADD62C,3.600*%
%ADD63R,1.700X1.700*%
%ADD64C,1.700*%
%ADD65R,1.700X1.700*%
%ADD66C,1.270*%
%ADD67C,2.400*%
%ADD68C,0.550*%
%ADD69C,0.350*%
%ADD70C,0.380*%
%ADD71C,0.500*%
G04:AMPARAMS|DCode=72|XSize=4.224mm|YSize=4.224mm|CornerRadius=0mm|HoleSize=0mm|Usage=FLASHONLY|Rotation=0.000|XOffset=0mm|YOffset=0mm|HoleType=Round|Shape=Relief|Width=0.254mm|Gap=0.254mm|Entries=4|*
%AMTHD72*
7,0,0,4.224,3.716,0.254,45*
%
%ADD72THD72*%
%ADD73C,1.400*%
G04:AMPARAMS|DCode=74|XSize=2.524mm|YSize=2.524mm|CornerRadius=0mm|HoleSize=0mm|Usage=FLASHONLY|Rotation=0.000|XOffset=0mm|YOffset=0mm|HoleType=Round|Shape=Relief|Width=0.254mm|Gap=0.254mm|Entries=4|*
%AMTHD74*
7,0,0,2.524,2.016,0.254,45*
%
%ADD74THD74*%
%ADD75C,1.600*%
G04:AMPARAMS|DCode=76|XSize=2.724mm|YSize=2.724mm|CornerRadius=0mm|HoleSize=0mm|Usage=FLASHONLY|Rotation=0.000|XOffset=0mm|YOffset=0mm|HoleType=Round|Shape=Relief|Width=0.254mm|Gap=0.254mm|Entries=4|*
%AMTHD76*
7,0,0,2.724,2.216,0.254,45*
%
%ADD76THD76*%
%ADD77C,1.900*%
G04:AMPARAMS|DCode=78|XSize=3.124mm|YSize=3.124mm|CornerRadius=0mm|HoleSize=0mm|Usage=FLASHONLY|Rotation=0.000|XOffset=0mm|YOffset=0mm|HoleType=Round|Shape=Relief|Width=0.254mm|Gap=0.254mm|Entries=4|*
%AMTHD78*
7,0,0,3.124,2.616,0.254,45*
%
%ADD78THD78*%
%ADD79C,0.650*%
%ADD80C,3.100*%
%ADD81C,2.000*%
%ADD82R,1.300X0.600*%
%ADD83R,0.950X1.750*%
%ADD84R,0.762X0.762*%
%ADD85R,0.350X0.850*%
%ADD86C,0.280*%
%ADD87R,0.900X0.650*%
%ADD88R,1.300X1.600*%
%ADD89C,0.400*%
G36*
X-462Y-99588D02*
X-59588D01*
Y-45590D01*
X-59498Y-45500D01*
X-53550Y-45500D01*
Y-41500D01*
X-59588D01*
Y-462D01*
X-21442D01*
X-21198Y-650D01*
X-20909Y-769D01*
X-20607Y-809D01*
X-20600Y-812D01*
X-10600D01*
X-10593Y-809D01*
X-10291Y-769D01*
X-10002Y-650D01*
X-9758Y-462D01*
X-462D01*
Y-99588D01*
D02*
G37*
%LPC*%
G36*
X-55245Y-69672D02*
X-55559Y-69703D01*
X-55860Y-69795D01*
X-56138Y-69943D01*
X-56382Y-70143D01*
X-56582Y-70387D01*
X-56730Y-70665D01*
X-56822Y-70966D01*
X-56853Y-71280D01*
X-56822Y-71594D01*
X-56730Y-71895D01*
X-56582Y-72173D01*
X-56382Y-72417D01*
X-56138Y-72617D01*
X-55860Y-72765D01*
X-55559Y-72857D01*
X-55245Y-72888D01*
X-54931Y-72857D01*
X-54630Y-72765D01*
X-54352Y-72617D01*
X-54108Y-72417D01*
X-53908Y-72173D01*
X-53760Y-71895D01*
X-53668Y-71594D01*
X-53637Y-71280D01*
X-53668Y-70966D01*
X-53760Y-70665D01*
X-53908Y-70387D01*
X-54108Y-70143D01*
X-54352Y-69943D01*
X-54630Y-69795D01*
X-54931Y-69703D01*
X-55245Y-69672D01*
D02*
G37*
G36*
X-52643Y-72492D02*
Y-73757D01*
X-51377D01*
X-51414Y-73474D01*
X-51548Y-73152D01*
X-51760Y-72875D01*
X-52037Y-72663D01*
X-52359Y-72529D01*
X-52643Y-72492D01*
D02*
G37*
G36*
X-11075Y-28792D02*
X-11988D01*
Y-29705D01*
X-11795Y-29680D01*
X-11558Y-29582D01*
X-11355Y-29425D01*
X-11198Y-29222D01*
X-11100Y-28985D01*
X-11075Y-28792D01*
D02*
G37*
G36*
X-14590Y-70952D02*
X-14838Y-70984D01*
X-15069Y-71080D01*
X-15268Y-71232D01*
X-15420Y-71431D01*
X-15516Y-71662D01*
X-15548Y-71910D01*
X-15516Y-72158D01*
X-15420Y-72389D01*
X-15268Y-72588D01*
X-15069Y-72740D01*
X-14838Y-72836D01*
X-14590Y-72868D01*
X-14342Y-72836D01*
X-14111Y-72740D01*
X-13912Y-72588D01*
X-13760Y-72389D01*
X-13664Y-72158D01*
X-13632Y-71910D01*
X-13664Y-71662D01*
X-13760Y-71431D01*
X-13912Y-71232D01*
X-14111Y-71080D01*
X-14342Y-70984D01*
X-14590Y-70952D01*
D02*
G37*
G36*
X-52768Y-72492D02*
X-53051Y-72529D01*
X-53373Y-72663D01*
X-53650Y-72875D01*
X-53862Y-73152D01*
X-53996Y-73474D01*
X-54033Y-73757D01*
X-52768D01*
Y-72492D01*
D02*
G37*
G36*
X-51377Y-73882D02*
X-52643D01*
Y-75148D01*
X-52359Y-75111D01*
X-52037Y-74977D01*
X-51760Y-74765D01*
X-51548Y-74488D01*
X-51414Y-74166D01*
X-51377Y-73882D01*
D02*
G37*
G36*
X-52768D02*
X-54033D01*
X-53996Y-74166D01*
X-53862Y-74488D01*
X-53650Y-74765D01*
X-53373Y-74977D01*
X-53051Y-75111D01*
X-52768Y-75148D01*
Y-73882D01*
D02*
G37*
G36*
X-57722Y-72492D02*
Y-73757D01*
X-56457D01*
X-56494Y-73474D01*
X-56628Y-73152D01*
X-56840Y-72875D01*
X-57117Y-72663D01*
X-57439Y-72529D01*
X-57722Y-72492D01*
D02*
G37*
G36*
X-57847D02*
X-58131Y-72529D01*
X-58453Y-72663D01*
X-58730Y-72875D01*
X-58942Y-73152D01*
X-59076Y-73474D01*
X-59113Y-73757D01*
X-57847D01*
Y-72492D01*
D02*
G37*
G36*
X-4430Y-68412D02*
X-4678Y-68444D01*
X-4909Y-68540D01*
X-5108Y-68692D01*
X-5260Y-68891D01*
X-5356Y-69122D01*
X-5388Y-69370D01*
X-5356Y-69618D01*
X-5260Y-69849D01*
X-5108Y-70048D01*
X-4909Y-70200D01*
X-4678Y-70296D01*
X-4430Y-70328D01*
X-4182Y-70296D01*
X-3951Y-70200D01*
X-3752Y-70048D01*
X-3600Y-69849D01*
X-3504Y-69618D01*
X-3472Y-69370D01*
X-3504Y-69122D01*
X-3600Y-68891D01*
X-3752Y-68692D01*
X-3951Y-68540D01*
X-4182Y-68444D01*
X-4430Y-68412D01*
D02*
G37*
G36*
X-6970D02*
X-7218Y-68444D01*
X-7449Y-68540D01*
X-7648Y-68692D01*
X-7800Y-68891D01*
X-7896Y-69122D01*
X-7928Y-69370D01*
X-7896Y-69618D01*
X-7800Y-69849D01*
X-7648Y-70048D01*
X-7449Y-70200D01*
X-7218Y-70296D01*
X-6970Y-70328D01*
X-6722Y-70296D01*
X-6491Y-70200D01*
X-6292Y-70048D01*
X-6140Y-69849D01*
X-6044Y-69618D01*
X-6012Y-69370D01*
X-6044Y-69122D01*
X-6140Y-68891D01*
X-6292Y-68692D01*
X-6491Y-68540D01*
X-6722Y-68444D01*
X-6970Y-68412D01*
D02*
G37*
G36*
X-56457Y-68802D02*
X-57722D01*
Y-70068D01*
X-57439Y-70031D01*
X-57117Y-69897D01*
X-56840Y-69685D01*
X-56628Y-69408D01*
X-56494Y-69086D01*
X-56457Y-68802D01*
D02*
G37*
G36*
X-57847D02*
X-59113D01*
X-59076Y-69086D01*
X-58942Y-69408D01*
X-58730Y-69685D01*
X-58453Y-69897D01*
X-58131Y-70031D01*
X-57847Y-70068D01*
Y-68802D01*
D02*
G37*
G36*
X-14590Y-68412D02*
X-14838Y-68444D01*
X-15069Y-68540D01*
X-15268Y-68692D01*
X-15420Y-68891D01*
X-15516Y-69122D01*
X-15548Y-69370D01*
X-15516Y-69618D01*
X-15420Y-69849D01*
X-15268Y-70048D01*
X-15069Y-70200D01*
X-14838Y-70296D01*
X-14590Y-70328D01*
X-14342Y-70296D01*
X-14111Y-70200D01*
X-13912Y-70048D01*
X-13760Y-69849D01*
X-13664Y-69618D01*
X-13632Y-69370D01*
X-13664Y-69122D01*
X-13760Y-68891D01*
X-13912Y-68692D01*
X-14111Y-68540D01*
X-14342Y-68444D01*
X-14590Y-68412D01*
D02*
G37*
G36*
X-6970Y-70952D02*
X-7218Y-70984D01*
X-7449Y-71080D01*
X-7648Y-71232D01*
X-7800Y-71431D01*
X-7896Y-71662D01*
X-7928Y-71910D01*
X-7896Y-72158D01*
X-7800Y-72389D01*
X-7648Y-72588D01*
X-7449Y-72740D01*
X-7218Y-72836D01*
X-6970Y-72868D01*
X-6722Y-72836D01*
X-6491Y-72740D01*
X-6292Y-72588D01*
X-6140Y-72389D01*
X-6044Y-72158D01*
X-6012Y-71910D01*
X-6044Y-71662D01*
X-6140Y-71431D01*
X-6292Y-71232D01*
X-6491Y-71080D01*
X-6722Y-70984D01*
X-6970Y-70952D01*
D02*
G37*
G36*
X-12113Y-28792D02*
X-13025D01*
X-13000Y-28985D01*
X-12902Y-29222D01*
X-12745Y-29425D01*
X-12542Y-29582D01*
X-12305Y-29680D01*
X-12113Y-29705D01*
Y-28792D01*
D02*
G37*
G36*
X-22550Y-69562D02*
X-23462D01*
Y-70475D01*
X-23270Y-70450D01*
X-23033Y-70352D01*
X-22830Y-70195D01*
X-22673Y-69992D01*
X-22575Y-69755D01*
X-22550Y-69562D01*
D02*
G37*
G36*
X-4430Y-70952D02*
X-4678Y-70984D01*
X-4909Y-71080D01*
X-5108Y-71232D01*
X-5260Y-71431D01*
X-5356Y-71662D01*
X-5388Y-71910D01*
X-5356Y-72158D01*
X-5260Y-72389D01*
X-5108Y-72588D01*
X-4909Y-72740D01*
X-4678Y-72836D01*
X-4430Y-72868D01*
X-4182Y-72836D01*
X-3951Y-72740D01*
X-3752Y-72588D01*
X-3600Y-72389D01*
X-3504Y-72158D01*
X-3472Y-71910D01*
X-3504Y-71662D01*
X-3600Y-71431D01*
X-3752Y-71232D01*
X-3951Y-71080D01*
X-4182Y-70984D01*
X-4430Y-70952D01*
D02*
G37*
G36*
X-56457Y-73882D02*
X-57722D01*
Y-75148D01*
X-57439Y-75111D01*
X-57117Y-74977D01*
X-56840Y-74765D01*
X-56628Y-74488D01*
X-56494Y-74166D01*
X-56457Y-73882D01*
D02*
G37*
G36*
X-11988Y-27755D02*
Y-28667D01*
X-11075D01*
X-11100Y-28475D01*
X-11198Y-28238D01*
X-11355Y-28035D01*
X-11558Y-27878D01*
X-11795Y-27780D01*
X-11988Y-27755D01*
D02*
G37*
G36*
X-22175Y-83770D02*
X-22282Y-83791D01*
X-22373Y-83852D01*
X-22434Y-83943D01*
X-22455Y-84050D01*
X-22434Y-84157D01*
X-22373Y-84248D01*
X-22282Y-84309D01*
X-22175Y-84330D01*
X-22068Y-84309D01*
X-21977Y-84248D01*
X-21916Y-84157D01*
X-21895Y-84050D01*
X-21916Y-83943D01*
X-21977Y-83852D01*
X-22068Y-83791D01*
X-22175Y-83770D01*
D02*
G37*
G36*
X-4430Y-81112D02*
X-4678Y-81144D01*
X-4909Y-81240D01*
X-5108Y-81392D01*
X-5260Y-81591D01*
X-5356Y-81822D01*
X-5388Y-82070D01*
X-5356Y-82318D01*
X-5260Y-82549D01*
X-5108Y-82748D01*
X-4909Y-82900D01*
X-4678Y-82996D01*
X-4430Y-83028D01*
X-4182Y-82996D01*
X-3951Y-82900D01*
X-3752Y-82748D01*
X-3600Y-82549D01*
X-3504Y-82318D01*
X-3472Y-82070D01*
X-3504Y-81822D01*
X-3600Y-81591D01*
X-3752Y-81392D01*
X-3951Y-81240D01*
X-4182Y-81144D01*
X-4430Y-81112D01*
D02*
G37*
G36*
X-12113Y-27755D02*
X-12305Y-27780D01*
X-12542Y-27878D01*
X-12745Y-28035D01*
X-12902Y-28238D01*
X-13000Y-28475D01*
X-13025Y-28667D01*
X-12113D01*
Y-27755D01*
D02*
G37*
G36*
X-12275Y-21175D02*
X-13925D01*
Y-23125D01*
X-12275D01*
Y-21175D01*
D02*
G37*
G36*
X-32250Y-19475D02*
X-33300D01*
Y-20525D01*
X-33096D01*
X-33055Y-20575D01*
X-33034Y-20682D01*
X-32973Y-20773D01*
X-32882Y-20834D01*
X-32775Y-20855D01*
X-32668Y-20834D01*
X-32577Y-20773D01*
X-32516Y-20682D01*
X-32495Y-20575D01*
X-32454Y-20525D01*
X-32250D01*
Y-19475D01*
D02*
G37*
G36*
X-14653Y-86175D02*
X-14845Y-86200D01*
X-15082Y-86298D01*
X-15285Y-86455D01*
X-15442Y-86658D01*
X-15540Y-86895D01*
X-15565Y-87088D01*
X-14653D01*
Y-86175D01*
D02*
G37*
G36*
X-14590Y-83652D02*
X-14838Y-83684D01*
X-15069Y-83780D01*
X-15268Y-83932D01*
X-15420Y-84131D01*
X-15516Y-84362D01*
X-15548Y-84610D01*
X-15516Y-84858D01*
X-15420Y-85089D01*
X-15268Y-85288D01*
X-15069Y-85440D01*
X-14838Y-85536D01*
X-14590Y-85568D01*
X-14342Y-85536D01*
X-14111Y-85440D01*
X-13912Y-85288D01*
X-13760Y-85089D01*
X-13664Y-84858D01*
X-13632Y-84610D01*
X-13664Y-84362D01*
X-13760Y-84131D01*
X-13912Y-83932D01*
X-14111Y-83780D01*
X-14342Y-83684D01*
X-14590Y-83652D01*
D02*
G37*
G36*
X-14528Y-86175D02*
Y-87088D01*
X-13615D01*
X-13640Y-86895D01*
X-13738Y-86658D01*
X-13895Y-86455D01*
X-14098Y-86298D01*
X-14335Y-86200D01*
X-14528Y-86175D01*
D02*
G37*
G36*
X-6970Y-73492D02*
X-7218Y-73524D01*
X-7449Y-73620D01*
X-7648Y-73772D01*
X-7800Y-73971D01*
X-7896Y-74202D01*
X-7928Y-74450D01*
X-7896Y-74698D01*
X-7800Y-74929D01*
X-7648Y-75128D01*
X-7449Y-75280D01*
X-7218Y-75376D01*
X-6970Y-75408D01*
X-6722Y-75376D01*
X-6491Y-75280D01*
X-6292Y-75128D01*
X-6140Y-74929D01*
X-6044Y-74698D01*
X-6012Y-74450D01*
X-6044Y-74202D01*
X-6140Y-73971D01*
X-6292Y-73772D01*
X-6491Y-73620D01*
X-6722Y-73524D01*
X-6970Y-73492D01*
D02*
G37*
G36*
X-4430Y-76032D02*
X-4678Y-76064D01*
X-4909Y-76160D01*
X-5108Y-76312D01*
X-5260Y-76511D01*
X-5356Y-76742D01*
X-5388Y-76990D01*
X-5356Y-77238D01*
X-5260Y-77469D01*
X-5108Y-77668D01*
X-4909Y-77820D01*
X-4678Y-77916D01*
X-4430Y-77948D01*
X-4182Y-77916D01*
X-3951Y-77820D01*
X-3752Y-77668D01*
X-3600Y-77469D01*
X-3504Y-77238D01*
X-3472Y-76990D01*
X-3504Y-76742D01*
X-3600Y-76511D01*
X-3752Y-76312D01*
X-3951Y-76160D01*
X-4182Y-76064D01*
X-4430Y-76032D01*
D02*
G37*
G36*
X-57847Y-73882D02*
X-59113D01*
X-59076Y-74166D01*
X-58942Y-74488D01*
X-58730Y-74765D01*
X-58453Y-74977D01*
X-58131Y-75111D01*
X-57847Y-75148D01*
Y-73882D01*
D02*
G37*
G36*
X-4430Y-73492D02*
X-4678Y-73524D01*
X-4909Y-73620D01*
X-5108Y-73772D01*
X-5260Y-73971D01*
X-5356Y-74202D01*
X-5388Y-74450D01*
X-5356Y-74698D01*
X-5260Y-74929D01*
X-5108Y-75128D01*
X-4909Y-75280D01*
X-4678Y-75376D01*
X-4430Y-75408D01*
X-4182Y-75376D01*
X-3951Y-75280D01*
X-3752Y-75128D01*
X-3600Y-74929D01*
X-3504Y-74698D01*
X-3472Y-74450D01*
X-3504Y-74202D01*
X-3600Y-73971D01*
X-3752Y-73772D01*
X-3951Y-73620D01*
X-4182Y-73524D01*
X-4430Y-73492D01*
D02*
G37*
G36*
X-6970Y-76032D02*
X-7218Y-76064D01*
X-7449Y-76160D01*
X-7648Y-76312D01*
X-7800Y-76511D01*
X-7896Y-76742D01*
X-7928Y-76990D01*
X-7896Y-77238D01*
X-7800Y-77469D01*
X-7648Y-77668D01*
X-7449Y-77820D01*
X-7218Y-77916D01*
X-6970Y-77948D01*
X-6722Y-77916D01*
X-6491Y-77820D01*
X-6292Y-77668D01*
X-6140Y-77469D01*
X-6044Y-77238D01*
X-6012Y-76990D01*
X-6044Y-76742D01*
X-6140Y-76511D01*
X-6292Y-76312D01*
X-6491Y-76160D01*
X-6722Y-76064D01*
X-6970Y-76032D01*
D02*
G37*
G36*
X-14590Y-78572D02*
X-14838Y-78604D01*
X-15069Y-78700D01*
X-15268Y-78852D01*
X-15420Y-79051D01*
X-15516Y-79282D01*
X-15548Y-79530D01*
X-15516Y-79778D01*
X-15420Y-80009D01*
X-15268Y-80208D01*
X-15069Y-80360D01*
X-14838Y-80456D01*
X-14590Y-80488D01*
X-14342Y-80456D01*
X-14111Y-80360D01*
X-13912Y-80208D01*
X-13760Y-80009D01*
X-13664Y-79778D01*
X-13632Y-79530D01*
X-13664Y-79282D01*
X-13760Y-79051D01*
X-13912Y-78852D01*
X-14111Y-78700D01*
X-14342Y-78604D01*
X-14590Y-78572D01*
D02*
G37*
G36*
X-34913Y-80257D02*
X-35020Y-80278D01*
X-35111Y-80339D01*
X-35172Y-80430D01*
X-35193Y-80537D01*
X-35172Y-80645D01*
X-35111Y-80736D01*
X-35020Y-80797D01*
X-34913Y-80818D01*
X-34805Y-80797D01*
X-34714Y-80736D01*
X-34653Y-80645D01*
X-34632Y-80537D01*
X-34653Y-80430D01*
X-34714Y-80339D01*
X-34805Y-80278D01*
X-34913Y-80257D01*
D02*
G37*
G36*
X-4430Y-78572D02*
X-4678Y-78604D01*
X-4909Y-78700D01*
X-5108Y-78852D01*
X-5260Y-79051D01*
X-5356Y-79282D01*
X-5388Y-79530D01*
X-5356Y-79778D01*
X-5260Y-80009D01*
X-5108Y-80208D01*
X-4909Y-80360D01*
X-4678Y-80456D01*
X-4430Y-80488D01*
X-4182Y-80456D01*
X-3951Y-80360D01*
X-3752Y-80208D01*
X-3600Y-80009D01*
X-3504Y-79778D01*
X-3472Y-79530D01*
X-3504Y-79282D01*
X-3600Y-79051D01*
X-3752Y-78852D01*
X-3951Y-78700D01*
X-4182Y-78604D01*
X-4430Y-78572D01*
D02*
G37*
G36*
X-6970D02*
X-7218Y-78604D01*
X-7449Y-78700D01*
X-7648Y-78852D01*
X-7800Y-79051D01*
X-7896Y-79282D01*
X-7928Y-79530D01*
X-7896Y-79778D01*
X-7800Y-80009D01*
X-7648Y-80208D01*
X-7449Y-80360D01*
X-7218Y-80456D01*
X-6970Y-80488D01*
X-6722Y-80456D01*
X-6491Y-80360D01*
X-6292Y-80208D01*
X-6140Y-80009D01*
X-6044Y-79778D01*
X-6012Y-79530D01*
X-6044Y-79282D01*
X-6140Y-79051D01*
X-6292Y-78852D01*
X-6491Y-78700D01*
X-6722Y-78604D01*
X-6970Y-78572D01*
D02*
G37*
G36*
Y-37932D02*
X-7218Y-37964D01*
X-7449Y-38060D01*
X-7648Y-38212D01*
X-7800Y-38411D01*
X-7896Y-38642D01*
X-7928Y-38890D01*
X-7896Y-39138D01*
X-7800Y-39369D01*
X-7648Y-39568D01*
X-7449Y-39720D01*
X-7218Y-39816D01*
X-6970Y-39848D01*
X-6722Y-39816D01*
X-6491Y-39720D01*
X-6292Y-39568D01*
X-6140Y-39369D01*
X-6044Y-39138D01*
X-6012Y-38890D01*
X-6044Y-38642D01*
X-6140Y-38411D01*
X-6292Y-38212D01*
X-6491Y-38060D01*
X-6722Y-37964D01*
X-6970Y-37932D01*
D02*
G37*
G36*
X-4430D02*
X-4678Y-37964D01*
X-4909Y-38060D01*
X-5108Y-38212D01*
X-5260Y-38411D01*
X-5356Y-38642D01*
X-5388Y-38890D01*
X-5356Y-39138D01*
X-5260Y-39369D01*
X-5108Y-39568D01*
X-4909Y-39720D01*
X-4678Y-39816D01*
X-4430Y-39848D01*
X-4182Y-39816D01*
X-3951Y-39720D01*
X-3752Y-39568D01*
X-3600Y-39369D01*
X-3504Y-39138D01*
X-3472Y-38890D01*
X-3504Y-38642D01*
X-3600Y-38411D01*
X-3752Y-38212D01*
X-3951Y-38060D01*
X-4182Y-37964D01*
X-4430Y-37932D01*
D02*
G37*
G36*
X-47450Y-43740D02*
X-47645Y-43779D01*
X-47810Y-43890D01*
X-47921Y-44055D01*
X-47960Y-44250D01*
X-47921Y-44445D01*
X-47810Y-44610D01*
X-47645Y-44721D01*
X-47450Y-44760D01*
X-47255Y-44721D01*
X-47090Y-44610D01*
X-46979Y-44445D01*
X-46940Y-44250D01*
X-46979Y-44055D01*
X-47090Y-43890D01*
X-47255Y-43779D01*
X-47450Y-43740D01*
D02*
G37*
G36*
X-4492Y-63315D02*
X-4685Y-63340D01*
X-4922Y-63438D01*
X-5125Y-63595D01*
X-5282Y-63798D01*
X-5380Y-64035D01*
X-5405Y-64228D01*
X-4492D01*
Y-63315D01*
D02*
G37*
G36*
X-12113D02*
X-12305Y-63340D01*
X-12542Y-63438D01*
X-12745Y-63595D01*
X-12902Y-63798D01*
X-13000Y-64035D01*
X-13025Y-64228D01*
X-12113D01*
Y-63315D01*
D02*
G37*
G36*
X-3455Y-64353D02*
X-4367D01*
Y-65265D01*
X-4175Y-65240D01*
X-3938Y-65142D01*
X-3735Y-64985D01*
X-3578Y-64782D01*
X-3480Y-64545D01*
X-3455Y-64353D01*
D02*
G37*
G36*
X-6970Y-32852D02*
X-7218Y-32884D01*
X-7449Y-32980D01*
X-7648Y-33132D01*
X-7800Y-33331D01*
X-7896Y-33562D01*
X-7928Y-33810D01*
X-7896Y-34058D01*
X-7800Y-34289D01*
X-7648Y-34488D01*
X-7449Y-34640D01*
X-7218Y-34736D01*
X-6970Y-34768D01*
X-6722Y-34736D01*
X-6491Y-34640D01*
X-6292Y-34488D01*
X-6140Y-34289D01*
X-6044Y-34058D01*
X-6012Y-33810D01*
X-6044Y-33562D01*
X-6140Y-33331D01*
X-6292Y-33132D01*
X-6491Y-32980D01*
X-6722Y-32884D01*
X-6970Y-32852D01*
D02*
G37*
G36*
X-46725Y-64215D02*
X-46920Y-64254D01*
X-47085Y-64365D01*
X-47196Y-64530D01*
X-47235Y-64725D01*
X-47196Y-64920D01*
X-47085Y-65085D01*
X-46920Y-65196D01*
X-46725Y-65235D01*
X-46530Y-65196D01*
X-46365Y-65085D01*
X-46254Y-64920D01*
X-46215Y-64725D01*
X-46254Y-64530D01*
X-46365Y-64365D01*
X-46530Y-64254D01*
X-46725Y-64215D01*
D02*
G37*
G36*
X-13640Y-63340D02*
X-15540D01*
Y-65240D01*
X-13640D01*
Y-63340D01*
D02*
G37*
G36*
X-5995Y-51653D02*
X-6907D01*
Y-52565D01*
X-6715Y-52540D01*
X-6478Y-52442D01*
X-6275Y-52285D01*
X-6118Y-52082D01*
X-6020Y-51845D01*
X-5995Y-51653D01*
D02*
G37*
G36*
X-14653Y-51653D02*
X-15565D01*
X-15540Y-51845D01*
X-15442Y-52082D01*
X-15285Y-52285D01*
X-15082Y-52442D01*
X-14845Y-52540D01*
X-14653Y-52565D01*
Y-51653D01*
D02*
G37*
G36*
X-45200Y-53945D02*
X-45307Y-53966D01*
X-45333Y-53983D01*
X-47725D01*
X-47818Y-54001D01*
X-47896Y-54054D01*
X-48969Y-55126D01*
X-49150Y-55090D01*
X-49345Y-55129D01*
X-49510Y-55240D01*
X-49621Y-55405D01*
X-49660Y-55600D01*
X-49621Y-55795D01*
X-49510Y-55960D01*
X-49345Y-56071D01*
X-49150Y-56110D01*
X-48955Y-56071D01*
X-48790Y-55960D01*
X-48679Y-55795D01*
X-48640Y-55600D01*
X-48660Y-55502D01*
X-47625Y-54467D01*
X-45333D01*
X-45307Y-54484D01*
X-45200Y-54505D01*
X-45093Y-54484D01*
X-45002Y-54423D01*
X-44941Y-54332D01*
X-44920Y-54225D01*
X-44941Y-54118D01*
X-45002Y-54027D01*
X-45093Y-53966D01*
X-45200Y-53945D01*
D02*
G37*
G36*
X-7032Y-51653D02*
X-7945D01*
X-7920Y-51845D01*
X-7822Y-52082D01*
X-7665Y-52285D01*
X-7462Y-52442D01*
X-7225Y-52540D01*
X-7032Y-52565D01*
Y-51653D01*
D02*
G37*
G36*
X-13615Y-51653D02*
X-14528D01*
Y-52565D01*
X-14335Y-52540D01*
X-14098Y-52442D01*
X-13895Y-52285D01*
X-13738Y-52082D01*
X-13640Y-51845D01*
X-13615Y-51653D01*
D02*
G37*
G36*
X-4367Y-63315D02*
Y-64228D01*
X-3455D01*
X-3480Y-64035D01*
X-3578Y-63798D01*
X-3735Y-63595D01*
X-3938Y-63438D01*
X-4175Y-63340D01*
X-4367Y-63315D01*
D02*
G37*
G36*
X-4430Y-43012D02*
X-4678Y-43044D01*
X-4909Y-43140D01*
X-5108Y-43292D01*
X-5260Y-43491D01*
X-5356Y-43722D01*
X-5388Y-43970D01*
X-5356Y-44218D01*
X-5260Y-44449D01*
X-5108Y-44648D01*
X-4909Y-44800D01*
X-4678Y-44896D01*
X-4430Y-44928D01*
X-4182Y-44896D01*
X-3951Y-44800D01*
X-3752Y-44648D01*
X-3600Y-44449D01*
X-3504Y-44218D01*
X-3472Y-43970D01*
X-3504Y-43722D01*
X-3600Y-43491D01*
X-3752Y-43292D01*
X-3951Y-43140D01*
X-4182Y-43044D01*
X-4430Y-43012D01*
D02*
G37*
G36*
Y-50632D02*
X-4678Y-50664D01*
X-4909Y-50760D01*
X-5108Y-50912D01*
X-5260Y-51111D01*
X-5356Y-51342D01*
X-5388Y-51590D01*
X-5356Y-51838D01*
X-5260Y-52069D01*
X-5108Y-52268D01*
X-4909Y-52420D01*
X-4678Y-52516D01*
X-4430Y-52548D01*
X-4182Y-52516D01*
X-3951Y-52420D01*
X-3752Y-52268D01*
X-3600Y-52069D01*
X-3504Y-51838D01*
X-3472Y-51590D01*
X-3504Y-51342D01*
X-3600Y-51111D01*
X-3752Y-50912D01*
X-3951Y-50760D01*
X-4182Y-50664D01*
X-4430Y-50632D01*
D02*
G37*
G36*
X-12050Y-50632D02*
X-12298Y-50664D01*
X-12529Y-50760D01*
X-12728Y-50912D01*
X-12880Y-51111D01*
X-12976Y-51342D01*
X-13008Y-51590D01*
X-12976Y-51838D01*
X-12880Y-52069D01*
X-12728Y-52268D01*
X-12529Y-52420D01*
X-12298Y-52516D01*
X-12050Y-52548D01*
X-11802Y-52516D01*
X-11571Y-52420D01*
X-11372Y-52268D01*
X-11220Y-52069D01*
X-11124Y-51838D01*
X-11092Y-51590D01*
X-11124Y-51342D01*
X-11220Y-51111D01*
X-11372Y-50912D01*
X-11571Y-50760D01*
X-11802Y-50664D01*
X-12050Y-50632D01*
D02*
G37*
G36*
X-4430Y-32852D02*
X-4678Y-32884D01*
X-4909Y-32980D01*
X-5108Y-33132D01*
X-5260Y-33331D01*
X-5356Y-33562D01*
X-5388Y-33810D01*
X-5356Y-34058D01*
X-5260Y-34289D01*
X-5108Y-34488D01*
X-4909Y-34640D01*
X-4678Y-34736D01*
X-4430Y-34768D01*
X-4182Y-34736D01*
X-3951Y-34640D01*
X-3752Y-34488D01*
X-3600Y-34289D01*
X-3504Y-34058D01*
X-3472Y-33810D01*
X-3504Y-33562D01*
X-3600Y-33331D01*
X-3752Y-33132D01*
X-3951Y-32980D01*
X-4182Y-32884D01*
X-4430Y-32852D01*
D02*
G37*
G36*
X-52643Y-67412D02*
Y-68677D01*
X-51377D01*
X-51414Y-68394D01*
X-51548Y-68072D01*
X-51760Y-67795D01*
X-52037Y-67583D01*
X-52359Y-67449D01*
X-52643Y-67412D01*
D02*
G37*
G36*
X-52768D02*
X-53051Y-67449D01*
X-53373Y-67583D01*
X-53650Y-67795D01*
X-53862Y-68072D01*
X-53996Y-68394D01*
X-54033Y-68677D01*
X-52768D01*
Y-67412D01*
D02*
G37*
G36*
X-6970Y-65872D02*
X-7218Y-65904D01*
X-7449Y-66000D01*
X-7648Y-66152D01*
X-7800Y-66351D01*
X-7896Y-66582D01*
X-7928Y-66830D01*
X-7896Y-67078D01*
X-7800Y-67309D01*
X-7648Y-67508D01*
X-7449Y-67660D01*
X-7218Y-67756D01*
X-6970Y-67788D01*
X-6722Y-67756D01*
X-6491Y-67660D01*
X-6292Y-67508D01*
X-6140Y-67309D01*
X-6044Y-67078D01*
X-6012Y-66830D01*
X-6044Y-66582D01*
X-6140Y-66351D01*
X-6292Y-66152D01*
X-6491Y-66000D01*
X-6722Y-65904D01*
X-6970Y-65872D01*
D02*
G37*
G36*
X-14590D02*
X-14838Y-65904D01*
X-15069Y-66000D01*
X-15268Y-66152D01*
X-15420Y-66351D01*
X-15516Y-66582D01*
X-15548Y-66830D01*
X-15516Y-67078D01*
X-15420Y-67309D01*
X-15268Y-67508D01*
X-15069Y-67660D01*
X-14838Y-67756D01*
X-14590Y-67788D01*
X-14342Y-67756D01*
X-14111Y-67660D01*
X-13912Y-67508D01*
X-13760Y-67309D01*
X-13664Y-67078D01*
X-13632Y-66830D01*
X-13664Y-66582D01*
X-13760Y-66351D01*
X-13912Y-66152D01*
X-14111Y-66000D01*
X-14342Y-65904D01*
X-14590Y-65872D01*
D02*
G37*
G36*
X-57722Y-67412D02*
Y-68677D01*
X-56457D01*
X-56494Y-68394D01*
X-56628Y-68072D01*
X-56840Y-67795D01*
X-57117Y-67583D01*
X-57439Y-67449D01*
X-57722Y-67412D01*
D02*
G37*
G36*
X-51377Y-68802D02*
X-52643D01*
Y-70068D01*
X-52359Y-70031D01*
X-52037Y-69897D01*
X-51760Y-69685D01*
X-51548Y-69408D01*
X-51414Y-69086D01*
X-51377Y-68802D01*
D02*
G37*
G36*
X-52768D02*
X-54033D01*
X-53996Y-69086D01*
X-53862Y-69408D01*
X-53650Y-69685D01*
X-53373Y-69897D01*
X-53051Y-70031D01*
X-52768Y-70068D01*
Y-68802D01*
D02*
G37*
G36*
X-57847Y-67412D02*
X-58131Y-67449D01*
X-58453Y-67583D01*
X-58730Y-67795D01*
X-58942Y-68072D01*
X-59076Y-68394D01*
X-59113Y-68677D01*
X-57847D01*
Y-67412D01*
D02*
G37*
G36*
X-23462Y-68525D02*
Y-69438D01*
X-22550D01*
X-22575Y-69245D01*
X-22673Y-69008D01*
X-22830Y-68805D01*
X-23033Y-68648D01*
X-23270Y-68550D01*
X-23462Y-68525D01*
D02*
G37*
G36*
X-4492Y-64353D02*
X-5405D01*
X-5380Y-64545D01*
X-5282Y-64782D01*
X-5125Y-64985D01*
X-4922Y-65142D01*
X-4685Y-65240D01*
X-4492Y-65265D01*
Y-64353D01*
D02*
G37*
G36*
X-50355Y-31492D02*
X-50603Y-31524D01*
X-50834Y-31620D01*
X-51033Y-31772D01*
X-51185Y-31971D01*
X-51281Y-32202D01*
X-51313Y-32450D01*
X-51281Y-32698D01*
X-51185Y-32929D01*
X-51033Y-33128D01*
X-50834Y-33280D01*
X-50603Y-33376D01*
X-50355Y-33408D01*
X-50107Y-33376D01*
X-49876Y-33280D01*
X-49677Y-33128D01*
X-49525Y-32929D01*
X-49429Y-32698D01*
X-49397Y-32450D01*
X-49429Y-32202D01*
X-49525Y-31971D01*
X-49677Y-31772D01*
X-49876Y-31620D01*
X-50107Y-31524D01*
X-50355Y-31492D01*
D02*
G37*
G36*
X-14590Y-32852D02*
X-14838Y-32884D01*
X-15069Y-32980D01*
X-15268Y-33132D01*
X-15420Y-33331D01*
X-15516Y-33562D01*
X-15548Y-33810D01*
X-15516Y-34058D01*
X-15420Y-34289D01*
X-15268Y-34488D01*
X-15069Y-34640D01*
X-14838Y-34736D01*
X-14590Y-34768D01*
X-14342Y-34736D01*
X-14111Y-34640D01*
X-13912Y-34488D01*
X-13760Y-34289D01*
X-13664Y-34058D01*
X-13632Y-33810D01*
X-13664Y-33562D01*
X-13760Y-33331D01*
X-13912Y-33132D01*
X-14111Y-32980D01*
X-14342Y-32884D01*
X-14590Y-32852D01*
D02*
G37*
G36*
X-12050D02*
X-12298Y-32884D01*
X-12529Y-32980D01*
X-12728Y-33132D01*
X-12880Y-33331D01*
X-12976Y-33562D01*
X-13008Y-33810D01*
X-12976Y-34058D01*
X-12880Y-34289D01*
X-12728Y-34488D01*
X-12529Y-34640D01*
X-12298Y-34736D01*
X-12050Y-34768D01*
X-11802Y-34736D01*
X-11571Y-34640D01*
X-11372Y-34488D01*
X-11220Y-34289D01*
X-11124Y-34058D01*
X-11092Y-33810D01*
X-11124Y-33562D01*
X-11220Y-33331D01*
X-11372Y-33132D01*
X-11571Y-32980D01*
X-11802Y-32884D01*
X-12050Y-32852D01*
D02*
G37*
G36*
X-12113Y-64353D02*
X-13025D01*
X-13000Y-64545D01*
X-12902Y-64782D01*
X-12745Y-64985D01*
X-12542Y-65142D01*
X-12305Y-65240D01*
X-12113Y-65265D01*
Y-64353D01*
D02*
G37*
G36*
X-12050Y-30312D02*
X-12298Y-30344D01*
X-12529Y-30440D01*
X-12728Y-30592D01*
X-12880Y-30791D01*
X-12976Y-31022D01*
X-13008Y-31270D01*
X-12976Y-31518D01*
X-12880Y-31749D01*
X-12728Y-31948D01*
X-12529Y-32100D01*
X-12298Y-32196D01*
X-12050Y-32228D01*
X-11802Y-32196D01*
X-11571Y-32100D01*
X-11372Y-31948D01*
X-11220Y-31749D01*
X-11124Y-31518D01*
X-11092Y-31270D01*
X-11124Y-31022D01*
X-11220Y-30791D01*
X-11372Y-30592D01*
X-11571Y-30440D01*
X-11802Y-30344D01*
X-12050Y-30312D01*
D02*
G37*
G36*
X-4430Y-65872D02*
X-4678Y-65904D01*
X-4909Y-66000D01*
X-5108Y-66152D01*
X-5260Y-66351D01*
X-5356Y-66582D01*
X-5388Y-66830D01*
X-5356Y-67078D01*
X-5260Y-67309D01*
X-5108Y-67508D01*
X-4909Y-67660D01*
X-4678Y-67756D01*
X-4430Y-67788D01*
X-4182Y-67756D01*
X-3951Y-67660D01*
X-3752Y-67508D01*
X-3600Y-67309D01*
X-3504Y-67078D01*
X-3472Y-66830D01*
X-3504Y-66582D01*
X-3600Y-66351D01*
X-3752Y-66152D01*
X-3951Y-66000D01*
X-4182Y-65904D01*
X-4430Y-65872D01*
D02*
G37*
G36*
X-41630Y-65710D02*
X-41825Y-65749D01*
X-41990Y-65860D01*
X-42101Y-66025D01*
X-42140Y-66220D01*
X-42101Y-66415D01*
X-41990Y-66581D01*
X-41825Y-66691D01*
X-41630Y-66730D01*
X-41435Y-66691D01*
X-41269Y-66581D01*
X-41159Y-66415D01*
X-41120Y-66220D01*
X-41159Y-66025D01*
X-41269Y-65860D01*
X-41435Y-65749D01*
X-41630Y-65710D01*
D02*
G37*
G36*
X-14590Y-30312D02*
X-14838Y-30344D01*
X-15069Y-30440D01*
X-15268Y-30592D01*
X-15420Y-30791D01*
X-15516Y-31022D01*
X-15548Y-31270D01*
X-15516Y-31518D01*
X-15420Y-31749D01*
X-15268Y-31948D01*
X-15069Y-32100D01*
X-14838Y-32196D01*
X-14590Y-32228D01*
X-14342Y-32196D01*
X-14111Y-32100D01*
X-13912Y-31948D01*
X-13760Y-31749D01*
X-13664Y-31518D01*
X-13632Y-31270D01*
X-13664Y-31022D01*
X-13760Y-30791D01*
X-13912Y-30592D01*
X-14111Y-30440D01*
X-14342Y-30344D01*
X-14590Y-30312D01*
D02*
G37*
G36*
X-21110Y-92072D02*
X-21358Y-92104D01*
X-21589Y-92200D01*
X-21788Y-92352D01*
X-21940Y-92551D01*
X-22036Y-92782D01*
X-22068Y-93030D01*
X-22036Y-93278D01*
X-21940Y-93509D01*
X-21788Y-93708D01*
X-21589Y-93860D01*
X-21358Y-93956D01*
X-21110Y-93988D01*
X-20862Y-93956D01*
X-20631Y-93860D01*
X-20432Y-93708D01*
X-20280Y-93509D01*
X-20184Y-93278D01*
X-20152Y-93030D01*
X-20184Y-92782D01*
X-20280Y-92551D01*
X-20432Y-92352D01*
X-20631Y-92200D01*
X-20862Y-92104D01*
X-21110Y-92072D01*
D02*
G37*
G36*
X-23650D02*
X-23898Y-92104D01*
X-24129Y-92200D01*
X-24328Y-92352D01*
X-24480Y-92551D01*
X-24576Y-92782D01*
X-24608Y-93030D01*
X-24576Y-93278D01*
X-24480Y-93509D01*
X-24328Y-93708D01*
X-24129Y-93860D01*
X-23898Y-93956D01*
X-23650Y-93988D01*
X-23402Y-93956D01*
X-23171Y-93860D01*
X-22972Y-93708D01*
X-22820Y-93509D01*
X-22724Y-93278D01*
X-22692Y-93030D01*
X-22724Y-92782D01*
X-22820Y-92551D01*
X-22972Y-92352D01*
X-23171Y-92200D01*
X-23402Y-92104D01*
X-23650Y-92072D01*
D02*
G37*
G36*
X-24394Y-6593D02*
X-24837D01*
Y-7036D01*
X-24394D01*
Y-6593D01*
D02*
G37*
G36*
X-17620Y-92080D02*
X-19520D01*
Y-93980D01*
X-17620D01*
Y-92080D01*
D02*
G37*
G36*
X-26190Y-92072D02*
X-26438Y-92104D01*
X-26669Y-92200D01*
X-26868Y-92352D01*
X-27020Y-92551D01*
X-27116Y-92782D01*
X-27148Y-93030D01*
X-27116Y-93278D01*
X-27020Y-93509D01*
X-26868Y-93708D01*
X-26669Y-93860D01*
X-26438Y-93956D01*
X-26190Y-93988D01*
X-25942Y-93956D01*
X-25711Y-93860D01*
X-25512Y-93708D01*
X-25360Y-93509D01*
X-25264Y-93278D01*
X-25232Y-93030D01*
X-25264Y-92782D01*
X-25360Y-92551D01*
X-25512Y-92352D01*
X-25711Y-92200D01*
X-25942Y-92104D01*
X-26190Y-92072D01*
D02*
G37*
G36*
X-41493Y-93092D02*
X-42405D01*
X-42380Y-93285D01*
X-42282Y-93522D01*
X-42125Y-93725D01*
X-41922Y-93882D01*
X-41685Y-93980D01*
X-41493Y-94005D01*
Y-93092D01*
D02*
G37*
G36*
X-18507Y-94595D02*
Y-95507D01*
X-17595D01*
X-17620Y-95315D01*
X-17718Y-95078D01*
X-17875Y-94875D01*
X-18078Y-94718D01*
X-18315Y-94620D01*
X-18507Y-94595D01*
D02*
G37*
G36*
X-19075Y-3564D02*
X-19299Y-3608D01*
X-19490Y-3735D01*
X-19617Y-3926D01*
X-19661Y-4150D01*
X-19617Y-4374D01*
X-19490Y-4565D01*
X-19317Y-4680D01*
Y-4900D01*
X-19900D01*
Y-5850D01*
X-18250D01*
Y-5617D01*
X-17850D01*
X-17757Y-5599D01*
X-17679Y-5546D01*
X-17679Y-5546D01*
X-17679Y-5546D01*
X-17500Y-5367D01*
X-11450D01*
X-11065Y-5752D01*
X-11059Y-5782D01*
X-10998Y-5873D01*
X-10907Y-5934D01*
X-10800Y-5955D01*
X-10693Y-5934D01*
X-10602Y-5873D01*
X-10541Y-5782D01*
X-10520Y-5675D01*
X-10541Y-5568D01*
X-10602Y-5477D01*
X-10693Y-5416D01*
X-10723Y-5410D01*
X-11179Y-4954D01*
X-11257Y-4901D01*
X-11350Y-4883D01*
X-17600D01*
X-17600Y-4883D01*
X-17693Y-4901D01*
X-17719Y-4919D01*
X-17771Y-4954D01*
X-17771Y-4954D01*
X-17950Y-5133D01*
X-18250D01*
Y-4900D01*
X-18833D01*
Y-4680D01*
X-18660Y-4565D01*
X-18533Y-4374D01*
X-18489Y-4150D01*
X-18533Y-3926D01*
X-18660Y-3735D01*
X-18851Y-3608D01*
X-19075Y-3564D01*
D02*
G37*
G36*
X-40455Y-93092D02*
X-41368D01*
Y-94005D01*
X-41175Y-93980D01*
X-40938Y-93882D01*
X-40735Y-93725D01*
X-40578Y-93522D01*
X-40480Y-93285D01*
X-40455Y-93092D01*
D02*
G37*
G36*
X-24962Y-6593D02*
X-25406D01*
Y-7036D01*
X-24962D01*
Y-6593D01*
D02*
G37*
G36*
X-41368Y-92055D02*
Y-92967D01*
X-40455D01*
X-40480Y-92775D01*
X-40578Y-92538D01*
X-40735Y-92335D01*
X-40938Y-92178D01*
X-41175Y-92080D01*
X-41368Y-92055D01*
D02*
G37*
G36*
X-13300Y-6990D02*
X-13495Y-7029D01*
X-13660Y-7140D01*
X-13771Y-7305D01*
X-13810Y-7500D01*
X-13771Y-7695D01*
X-13660Y-7860D01*
X-13495Y-7971D01*
X-13300Y-8010D01*
X-13105Y-7971D01*
X-12940Y-7860D01*
X-12829Y-7695D01*
X-12790Y-7500D01*
X-12829Y-7305D01*
X-12940Y-7140D01*
X-13105Y-7029D01*
X-13300Y-6990D01*
D02*
G37*
G36*
X-25275Y-8400D02*
X-25737D01*
Y-8788D01*
X-25275D01*
Y-8400D01*
D02*
G37*
G36*
X-16413Y-8050D02*
X-16875D01*
Y-8438D01*
X-16413D01*
Y-8050D01*
D02*
G37*
G36*
X-3938Y-7325D02*
X-4175D01*
Y-7812D01*
X-3938D01*
Y-7325D01*
D02*
G37*
G36*
X-24394Y-7161D02*
X-24837D01*
Y-7604D01*
X-24394D01*
Y-7161D01*
D02*
G37*
G36*
X-21200Y-3614D02*
X-21424Y-3658D01*
X-21615Y-3785D01*
X-21742Y-3976D01*
X-21786Y-4200D01*
X-21742Y-4424D01*
X-21615Y-4615D01*
X-21436Y-4734D01*
X-21424Y-5760D01*
X-21513Y-5850D01*
X-22000D01*
Y-6800D01*
X-20350D01*
Y-6656D01*
X-14655D01*
Y-7644D01*
X-15010Y-8000D01*
X-15725D01*
Y-8050D01*
X-15825D01*
Y-8050D01*
X-16288D01*
Y-8500D01*
Y-8950D01*
X-15825D01*
Y-8950D01*
X-15775D01*
X-15725Y-9000D01*
Y-9000D01*
X-14575D01*
Y-8285D01*
X-14220Y-7930D01*
X-14165Y-7848D01*
X-14145Y-7750D01*
Y-6656D01*
X-11787D01*
X-11586Y-6858D01*
X-11578Y-6896D01*
X-11495Y-7020D01*
X-11371Y-7103D01*
X-11225Y-7132D01*
X-11079Y-7103D01*
X-10955Y-7020D01*
X-10872Y-6896D01*
X-10843Y-6750D01*
X-10872Y-6604D01*
X-10955Y-6480D01*
X-11079Y-6397D01*
X-11117Y-6389D01*
X-11416Y-6091D01*
X-11523Y-6019D01*
X-11650Y-5994D01*
X-20350D01*
Y-5850D01*
X-20938D01*
X-20952Y-4726D01*
X-20785Y-4615D01*
X-20658Y-4424D01*
X-20614Y-4200D01*
X-20658Y-3976D01*
X-20785Y-3785D01*
X-20976Y-3658D01*
X-21200Y-3614D01*
D02*
G37*
G36*
X-41493Y-92055D02*
X-41685Y-92080D01*
X-41922Y-92178D01*
X-42125Y-92335D01*
X-42282Y-92538D01*
X-42380Y-92775D01*
X-42405Y-92967D01*
X-41493D01*
Y-92055D01*
D02*
G37*
G36*
X-24962Y-7161D02*
X-25406D01*
Y-7604D01*
X-24962D01*
Y-7161D01*
D02*
G37*
G36*
X-33000Y-683D02*
X-33211Y-711D01*
X-33409Y-792D01*
X-33578Y-922D01*
X-33708Y-1092D01*
X-33789Y-1289D01*
X-33817Y-1500D01*
X-33789Y-1711D01*
X-33708Y-1908D01*
X-33578Y-2078D01*
X-33409Y-2208D01*
X-33211Y-2289D01*
X-33000Y-2317D01*
X-32789Y-2289D01*
X-32591Y-2208D01*
X-32422Y-2078D01*
X-32292Y-1908D01*
X-32239Y-1780D01*
X-31800D01*
X-31693Y-1759D01*
X-31602Y-1698D01*
X-31541Y-1607D01*
X-31520Y-1500D01*
X-31541Y-1393D01*
X-31602Y-1302D01*
X-31693Y-1241D01*
X-31800Y-1220D01*
X-32239D01*
X-32292Y-1092D01*
X-32422Y-922D01*
X-32591Y-792D01*
X-32789Y-711D01*
X-33000Y-683D01*
D02*
G37*
G36*
X-41662Y-1562D02*
X-42358D01*
X-42340Y-1698D01*
X-42264Y-1883D01*
X-42142Y-2042D01*
X-41983Y-2164D01*
X-41798Y-2240D01*
X-41662Y-2258D01*
Y-1562D01*
D02*
G37*
G36*
X-25888Y-2450D02*
X-26425D01*
Y-3388D01*
X-25888D01*
Y-2450D01*
D02*
G37*
G36*
X-25225D02*
X-25763D01*
Y-3388D01*
X-25225D01*
Y-2450D01*
D02*
G37*
G36*
X-40842Y-1562D02*
X-41537D01*
Y-2258D01*
X-41402Y-2240D01*
X-41217Y-2164D01*
X-41058Y-2042D01*
X-40936Y-1883D01*
X-40860Y-1698D01*
X-40842Y-1562D01*
D02*
G37*
G36*
X-41662Y-742D02*
X-41798Y-760D01*
X-41983Y-836D01*
X-42142Y-958D01*
X-42264Y-1117D01*
X-42340Y-1302D01*
X-42358Y-1438D01*
X-41662D01*
Y-742D01*
D02*
G37*
G36*
X-41537D02*
Y-1438D01*
X-40842D01*
X-40860Y-1302D01*
X-40936Y-1117D01*
X-41058Y-958D01*
X-41217Y-836D01*
X-41402Y-760D01*
X-41537Y-742D01*
D02*
G37*
G36*
X-7600Y-1238D02*
X-7707Y-1259D01*
X-7798Y-1320D01*
X-7859Y-1411D01*
X-7880Y-1518D01*
X-7859Y-1625D01*
X-7798Y-1716D01*
X-7707Y-1777D01*
X-7600Y-1798D01*
X-7493Y-1777D01*
X-7402Y-1716D01*
X-7341Y-1625D01*
X-7320Y-1518D01*
X-7341Y-1411D01*
X-7402Y-1320D01*
X-7493Y-1259D01*
X-7600Y-1238D01*
D02*
G37*
G36*
X-26000Y-683D02*
X-26211Y-711D01*
X-26408Y-792D01*
X-26578Y-922D01*
X-26708Y-1092D01*
X-26789Y-1289D01*
X-26817Y-1500D01*
X-26789Y-1711D01*
X-26708Y-1908D01*
X-26578Y-2078D01*
X-26408Y-2208D01*
X-26211Y-2289D01*
X-26000Y-2317D01*
X-25789Y-2289D01*
X-25591Y-2208D01*
X-25422Y-2078D01*
X-25292Y-1908D01*
X-25242Y-1787D01*
X-25121Y-1750D01*
X-25107Y-1759D01*
X-25000Y-1780D01*
X-24893Y-1759D01*
X-24802Y-1698D01*
X-24741Y-1607D01*
X-24720Y-1500D01*
X-24741Y-1393D01*
X-24802Y-1302D01*
X-24893Y-1241D01*
X-25000Y-1220D01*
X-25107Y-1241D01*
X-25121Y-1250D01*
X-25242Y-1213D01*
X-25292Y-1092D01*
X-25422Y-922D01*
X-25591Y-792D01*
X-25789Y-711D01*
X-26000Y-683D01*
D02*
G37*
G36*
X-41430Y-94612D02*
X-41678Y-94644D01*
X-41909Y-94740D01*
X-42108Y-94892D01*
X-42260Y-95091D01*
X-42356Y-95322D01*
X-42388Y-95570D01*
X-42356Y-95818D01*
X-42260Y-96049D01*
X-42108Y-96248D01*
X-41909Y-96400D01*
X-41678Y-96496D01*
X-41430Y-96528D01*
X-41182Y-96496D01*
X-40951Y-96400D01*
X-40752Y-96248D01*
X-40600Y-96049D01*
X-40504Y-95818D01*
X-40472Y-95570D01*
X-40504Y-95322D01*
X-40600Y-95091D01*
X-40752Y-94892D01*
X-40951Y-94740D01*
X-41182Y-94644D01*
X-41430Y-94612D01*
D02*
G37*
G36*
X-38600Y-683D02*
X-38811Y-711D01*
X-39008Y-792D01*
X-39178Y-922D01*
X-39308Y-1092D01*
X-39389Y-1289D01*
X-39417Y-1500D01*
X-39389Y-1711D01*
X-39308Y-1908D01*
X-39178Y-2078D01*
X-39008Y-2208D01*
X-38811Y-2289D01*
X-38600Y-2317D01*
X-38389Y-2289D01*
X-38222Y-2220D01*
X-37042Y-3400D01*
Y-4517D01*
X-37159Y-4566D01*
X-37870Y-3855D01*
X-37811Y-3711D01*
X-37783Y-3500D01*
X-37811Y-3289D01*
X-37892Y-3092D01*
X-38022Y-2922D01*
X-38192Y-2792D01*
X-38389Y-2711D01*
X-38600Y-2683D01*
X-38811Y-2711D01*
X-39008Y-2792D01*
X-39178Y-2922D01*
X-39308Y-3092D01*
X-39389Y-3289D01*
X-39417Y-3500D01*
X-39389Y-3711D01*
X-39308Y-3908D01*
X-39178Y-4078D01*
X-39100Y-4138D01*
X-39140Y-4258D01*
X-40500D01*
X-40880Y-3878D01*
X-40811Y-3711D01*
X-40783Y-3500D01*
X-40811Y-3289D01*
X-40892Y-3092D01*
X-41022Y-2922D01*
X-41192Y-2792D01*
X-41389Y-2711D01*
X-41600Y-2683D01*
X-41811Y-2711D01*
X-42008Y-2792D01*
X-42178Y-2922D01*
X-42308Y-3092D01*
X-42389Y-3289D01*
X-42417Y-3500D01*
X-42389Y-3711D01*
X-42308Y-3908D01*
X-42178Y-4078D01*
X-42008Y-4208D01*
X-41811Y-4289D01*
X-41600Y-4317D01*
X-41389Y-4289D01*
X-41222Y-4220D01*
X-40771Y-4671D01*
X-40771D01*
X-40771Y-4671D01*
X-40771Y-4671D01*
Y-4671D01*
X-40693Y-4724D01*
X-40600Y-4742D01*
X-39140D01*
X-39100Y-4862D01*
X-39178Y-4922D01*
X-39308Y-5091D01*
X-39389Y-5289D01*
X-39417Y-5500D01*
X-39389Y-5711D01*
X-39308Y-5908D01*
X-39204Y-6044D01*
X-39260Y-6158D01*
X-40600D01*
X-40880Y-5878D01*
X-40811Y-5711D01*
X-40783Y-5500D01*
X-40811Y-5289D01*
X-40892Y-5091D01*
X-41022Y-4922D01*
X-41192Y-4792D01*
X-41389Y-4711D01*
X-41600Y-4683D01*
X-41811Y-4711D01*
X-42008Y-4792D01*
X-42178Y-4922D01*
X-42308Y-5091D01*
X-42389Y-5289D01*
X-42417Y-5500D01*
X-42389Y-5711D01*
X-42308Y-5908D01*
X-42178Y-6078D01*
X-42008Y-6208D01*
X-41811Y-6289D01*
X-41600Y-6317D01*
X-41389Y-6289D01*
X-41222Y-6220D01*
X-40871Y-6571D01*
X-40793Y-6624D01*
X-40700Y-6642D01*
X-40700Y-6642D01*
X-38971D01*
X-38946Y-6767D01*
X-39008Y-6792D01*
X-39178Y-6922D01*
X-39308Y-7091D01*
X-39389Y-7289D01*
X-39417Y-7500D01*
X-39389Y-7711D01*
X-39308Y-7909D01*
X-39178Y-8078D01*
X-39008Y-8208D01*
X-38811Y-8289D01*
X-38600Y-8317D01*
X-38389Y-8289D01*
X-38192Y-8208D01*
X-38022Y-8078D01*
X-37892Y-7909D01*
X-37824Y-7742D01*
X-36600D01*
X-33865Y-10477D01*
X-33859Y-10507D01*
X-33798Y-10598D01*
X-33707Y-10659D01*
X-33600Y-10680D01*
X-33493Y-10659D01*
X-33402Y-10598D01*
X-33341Y-10507D01*
X-33320Y-10400D01*
X-33341Y-10293D01*
X-33402Y-10202D01*
X-33493Y-10141D01*
X-33523Y-10135D01*
X-36329Y-7329D01*
X-36407Y-7276D01*
X-36500Y-7258D01*
X-37824D01*
X-37892Y-7091D01*
X-38022Y-6922D01*
X-38192Y-6792D01*
X-38254Y-6767D01*
X-38229Y-6642D01*
X-36775D01*
X-31942Y-11475D01*
Y-14849D01*
X-32059Y-14898D01*
X-38129Y-8829D01*
X-38207Y-8776D01*
X-38300Y-8758D01*
X-40000D01*
X-40880Y-7878D01*
X-40811Y-7711D01*
X-40783Y-7500D01*
X-40811Y-7289D01*
X-40892Y-7091D01*
X-41022Y-6922D01*
X-41192Y-6792D01*
X-41389Y-6711D01*
X-41600Y-6683D01*
X-41811Y-6711D01*
X-42008Y-6792D01*
X-42178Y-6922D01*
X-42308Y-7091D01*
X-42389Y-7289D01*
X-42417Y-7500D01*
X-42389Y-7711D01*
X-42308Y-7909D01*
X-42178Y-8078D01*
X-42008Y-8208D01*
X-41811Y-8289D01*
X-41600Y-8317D01*
X-41389Y-8289D01*
X-41222Y-8220D01*
X-40271Y-9171D01*
X-40193Y-9224D01*
X-40100Y-9242D01*
X-38400D01*
X-32167Y-15475D01*
Y-16450D01*
X-32149Y-16543D01*
X-32096Y-16621D01*
X-32096Y-16621D01*
X-32096Y-16621D01*
X-29071Y-19646D01*
X-28993Y-19699D01*
X-28900Y-19717D01*
X-28352D01*
X-28313Y-19800D01*
X-28352Y-19883D01*
X-30850D01*
Y-19475D01*
X-31133D01*
Y-19325D01*
X-30700D01*
Y-18475D01*
X-31283D01*
X-31333Y-18425D01*
Y-18225D01*
X-31333Y-18225D01*
X-31351Y-18132D01*
X-31369Y-18106D01*
X-31404Y-18054D01*
X-31404Y-18054D01*
X-31579Y-17878D01*
X-31539Y-17675D01*
X-31583Y-17451D01*
X-31710Y-17260D01*
X-31901Y-17133D01*
X-32125Y-17089D01*
X-32349Y-17133D01*
X-32540Y-17260D01*
X-32667Y-17451D01*
X-32711Y-17675D01*
X-32667Y-17899D01*
X-32540Y-18090D01*
X-32349Y-18217D01*
X-32125Y-18261D01*
X-31922Y-18221D01*
X-31817Y-18325D01*
Y-18525D01*
X-32087D01*
Y-18900D01*
Y-19275D01*
X-31700D01*
Y-19325D01*
X-31617D01*
Y-19475D01*
X-31900D01*
Y-20525D01*
X-31401D01*
X-31353Y-20642D01*
X-31800Y-21089D01*
X-31855Y-21172D01*
X-31875Y-21270D01*
Y-24539D01*
X-33006Y-25670D01*
X-33658D01*
X-33739Y-25572D01*
X-33720Y-25475D01*
X-33741Y-25368D01*
X-33802Y-25277D01*
Y-25198D01*
X-33741Y-25107D01*
X-33720Y-25000D01*
X-33741Y-24893D01*
X-33802Y-24802D01*
Y-24723D01*
X-33741Y-24632D01*
X-33720Y-24525D01*
X-33741Y-24418D01*
X-33802Y-24327D01*
Y-24248D01*
X-33741Y-24157D01*
X-33720Y-24050D01*
X-33741Y-23943D01*
X-33802Y-23852D01*
Y-23773D01*
X-33741Y-23682D01*
X-33720Y-23575D01*
X-33741Y-23468D01*
X-33802Y-23377D01*
X-33893Y-23316D01*
X-34000Y-23295D01*
X-34107Y-23316D01*
X-34113Y-23320D01*
X-35675D01*
X-35756Y-23336D01*
X-35773Y-23340D01*
X-35855Y-23395D01*
X-38681Y-26220D01*
X-46975D01*
X-47073Y-26240D01*
X-47155Y-26295D01*
X-48681Y-27820D01*
X-50050D01*
X-50131Y-27836D01*
X-50148Y-27840D01*
X-50230Y-27895D01*
X-50452Y-28117D01*
X-50507Y-28199D01*
X-50527Y-28297D01*
Y-28298D01*
X-50540Y-28300D01*
X-50730Y-28379D01*
X-50749Y-28392D01*
X-50770Y-28402D01*
X-50833Y-28450D01*
X-51175D01*
Y-28909D01*
X-51193Y-28953D01*
X-51198Y-28976D01*
X-51205Y-28998D01*
X-51232Y-29202D01*
X-51231Y-29213D01*
X-51234Y-29225D01*
X-51229Y-29248D01*
X-51227Y-29271D01*
X-51222Y-29282D01*
X-51220Y-29293D01*
X-51207Y-29313D01*
X-51201Y-29325D01*
X-51207Y-29337D01*
X-51220Y-29357D01*
X-51222Y-29368D01*
X-51227Y-29379D01*
X-51229Y-29402D01*
X-51234Y-29425D01*
X-51231Y-29437D01*
X-51232Y-29448D01*
X-51205Y-29652D01*
X-51198Y-29674D01*
X-51193Y-29697D01*
X-51175Y-29741D01*
Y-30200D01*
X-50833D01*
X-50770Y-30248D01*
X-50749Y-30258D01*
X-50730Y-30271D01*
X-50540Y-30350D01*
X-50527Y-30352D01*
Y-30703D01*
X-50527Y-30703D01*
X-50527D01*
X-50507Y-30801D01*
X-50452Y-30883D01*
X-50055Y-31280D01*
X-49973Y-31335D01*
X-49875Y-31355D01*
X-49271D01*
X-48648Y-31978D01*
X-48741Y-32202D01*
X-48773Y-32450D01*
X-48741Y-32698D01*
X-48645Y-32929D01*
X-48493Y-33128D01*
X-48294Y-33280D01*
X-48063Y-33376D01*
X-47815Y-33408D01*
X-47567Y-33376D01*
X-47336Y-33280D01*
X-47137Y-33128D01*
X-46985Y-32929D01*
X-46904Y-32734D01*
X-46780Y-32759D01*
Y-33200D01*
X-46760Y-33298D01*
X-46705Y-33380D01*
X-46080Y-34005D01*
X-45998Y-34060D01*
X-45981Y-34064D01*
X-45900Y-34080D01*
X-44110D01*
X-44012Y-34060D01*
X-43930Y-34005D01*
X-43207Y-33283D01*
X-42983Y-33376D01*
X-42735Y-33408D01*
X-42487Y-33376D01*
X-42256Y-33280D01*
X-42057Y-33128D01*
X-41905Y-32929D01*
X-41809Y-32698D01*
X-41782Y-32487D01*
X-41782D01*
X-41782D01*
X-41748Y-32489D01*
Y-32489D01*
X-41661Y-32495D01*
D01*
X-41658Y-32495D01*
X-41655Y-32498D01*
Y-34736D01*
X-41659Y-34743D01*
X-41665Y-34773D01*
X-46396Y-39504D01*
X-46449Y-39582D01*
X-46467Y-39675D01*
Y-52005D01*
X-46449Y-52098D01*
X-46396Y-52176D01*
X-46396Y-52176D01*
X-46396Y-52176D01*
D01*
X-46396D01*
Y-52176D01*
D01*
X-43527Y-55046D01*
Y-59389D01*
X-43620Y-59483D01*
X-45049D01*
X-45074Y-59466D01*
X-45182Y-59445D01*
X-45289Y-59466D01*
X-45380Y-59527D01*
X-45441Y-59618D01*
X-45462Y-59725D01*
X-45441Y-59832D01*
X-45380Y-59923D01*
X-45289Y-59984D01*
X-45182Y-60005D01*
X-45074Y-59984D01*
X-45049Y-59967D01*
X-43520D01*
X-43427Y-59949D01*
X-43349Y-59896D01*
X-43113Y-59661D01*
X-43113Y-59661D01*
X-43113Y-59661D01*
X-43061Y-59582D01*
X-43042Y-59490D01*
Y-54945D01*
X-43061Y-54853D01*
X-43113Y-54774D01*
X-43113Y-54774D01*
X-45915Y-51973D01*
X-45896Y-51847D01*
X-45871Y-51833D01*
X-45832Y-51859D01*
X-45725Y-51880D01*
X-45618Y-51859D01*
X-45611Y-51855D01*
X-44418D01*
X-44358Y-51967D01*
X-44409Y-52043D01*
X-44430Y-52150D01*
X-44409Y-52257D01*
X-44348Y-52348D01*
X-44257Y-52409D01*
X-44227Y-52415D01*
X-42808Y-53834D01*
Y-59626D01*
X-43665Y-60483D01*
X-45067D01*
X-45093Y-60466D01*
X-45200Y-60445D01*
X-45307Y-60466D01*
X-45398Y-60527D01*
X-45459Y-60618D01*
X-45480Y-60725D01*
X-45459Y-60832D01*
X-45433Y-60871D01*
X-45493Y-60983D01*
X-45570D01*
X-45662Y-61001D01*
X-45741Y-61054D01*
X-45741Y-61054D01*
X-45895Y-61208D01*
X-48710D01*
X-48790Y-61090D01*
X-48955Y-60979D01*
X-49150Y-60940D01*
X-49345Y-60979D01*
X-49510Y-61090D01*
X-49621Y-61255D01*
X-49660Y-61450D01*
X-49621Y-61645D01*
X-49510Y-61810D01*
X-49345Y-61921D01*
X-49150Y-61960D01*
X-48955Y-61921D01*
X-48790Y-61810D01*
X-48710Y-61692D01*
X-45795D01*
X-45702Y-61674D01*
X-45623Y-61621D01*
X-45574Y-61572D01*
X-45462Y-61631D01*
X-45480Y-61725D01*
X-45459Y-61832D01*
X-45398Y-61923D01*
X-45307Y-61984D01*
X-45277Y-61990D01*
X-44032Y-63235D01*
Y-70560D01*
X-44014Y-70652D01*
X-43962Y-70731D01*
X-38375Y-76317D01*
Y-91209D01*
X-38357Y-91302D01*
X-38304Y-91380D01*
X-37160Y-92525D01*
X-37180Y-92551D01*
X-37276Y-92782D01*
X-37308Y-93030D01*
X-37276Y-93278D01*
X-37180Y-93509D01*
X-37028Y-93708D01*
X-36829Y-93860D01*
X-36598Y-93956D01*
X-36350Y-93988D01*
X-36102Y-93956D01*
X-35871Y-93860D01*
X-35672Y-93708D01*
X-35520Y-93509D01*
X-35424Y-93278D01*
X-35392Y-93030D01*
X-35424Y-92782D01*
X-35520Y-92551D01*
X-35672Y-92352D01*
X-35871Y-92200D01*
X-36102Y-92104D01*
X-36350Y-92072D01*
X-36598Y-92104D01*
X-36808Y-92191D01*
X-37891Y-91109D01*
Y-76223D01*
X-37863Y-76212D01*
X-37757Y-76191D01*
X-37635Y-76313D01*
Y-82533D01*
X-37616Y-82625D01*
X-37564Y-82704D01*
X-37564Y-82704D01*
X-37564Y-82704D01*
Y-82704D01*
X-37564Y-82704D01*
Y-82704D01*
D01*
X-30967Y-89301D01*
X-30930Y-89355D01*
X-30848Y-89410D01*
X-30750Y-89430D01*
X-22489D01*
X-22482Y-89434D01*
X-22375Y-89455D01*
X-22268Y-89434D01*
X-22177Y-89373D01*
X-22116Y-89282D01*
X-22095Y-89175D01*
X-22116Y-89068D01*
X-22177Y-88977D01*
X-22268Y-88916D01*
X-22375Y-88895D01*
X-22482Y-88916D01*
X-22489Y-88920D01*
X-30662D01*
X-37150Y-82432D01*
Y-76213D01*
X-37169Y-76120D01*
X-37221Y-76042D01*
X-43122Y-70141D01*
Y-63890D01*
X-43073Y-63840D01*
X-43043Y-63834D01*
X-42952Y-63773D01*
X-42891Y-63682D01*
X-42870Y-63575D01*
X-42891Y-63468D01*
X-42952Y-63377D01*
X-43043Y-63316D01*
X-43150Y-63295D01*
X-43257Y-63316D01*
X-43348Y-63377D01*
X-43409Y-63468D01*
Y-63468D01*
X-43431Y-63513D01*
X-43548Y-63465D01*
Y-63135D01*
X-43567Y-63042D01*
X-43619Y-62963D01*
X-44935Y-61647D01*
X-44941Y-61618D01*
X-45002Y-61527D01*
X-45002Y-61527D01*
Y-61423D01*
X-44941Y-61332D01*
X-44920Y-61225D01*
X-44941Y-61118D01*
X-44967Y-61079D01*
X-44907Y-60967D01*
X-43564D01*
X-43472Y-60949D01*
X-43393Y-60896D01*
X-43393Y-60896D01*
X-43393Y-60896D01*
X-42395Y-59898D01*
X-42395Y-59898D01*
X-42395Y-59898D01*
X-42342Y-59819D01*
X-42324Y-59726D01*
Y-54085D01*
X-42206Y-54036D01*
X-39950Y-56292D01*
Y-63429D01*
X-40049Y-63510D01*
X-40125Y-63495D01*
X-40232Y-63516D01*
X-40323Y-63577D01*
X-40384Y-63668D01*
X-40405Y-63775D01*
X-40384Y-63882D01*
X-40323Y-63973D01*
X-40232Y-64034D01*
X-40125Y-64055D01*
X-40049Y-64040D01*
X-39950Y-64121D01*
Y-66017D01*
X-39932Y-66109D01*
X-39879Y-66188D01*
X-37051Y-69016D01*
X-37055Y-69021D01*
X-37151Y-69252D01*
X-37183Y-69500D01*
X-37151Y-69748D01*
X-37055Y-69979D01*
X-36903Y-70178D01*
X-36704Y-70330D01*
X-36473Y-70426D01*
X-36225Y-70458D01*
X-35977Y-70426D01*
X-35746Y-70330D01*
X-35547Y-70178D01*
X-35395Y-69979D01*
X-35299Y-69748D01*
X-35267Y-69500D01*
X-35299Y-69252D01*
X-35395Y-69021D01*
X-35547Y-68822D01*
X-35746Y-68670D01*
X-35977Y-68574D01*
X-36225Y-68542D01*
X-36473Y-68574D01*
X-36704Y-68670D01*
X-36709Y-68674D01*
X-39466Y-65916D01*
Y-65042D01*
X-39349Y-64993D01*
X-37694Y-66648D01*
X-37611Y-66703D01*
X-37611Y-66703D01*
X-37611Y-66703D01*
D01*
X-37611Y-66703D01*
X-37611Y-66703D01*
X-37514Y-66723D01*
X-36389D01*
X-35135Y-67976D01*
Y-78898D01*
X-35115Y-78995D01*
X-35060Y-79078D01*
X-33777Y-80361D01*
Y-83180D01*
X-33857Y-83300D01*
X-33875Y-83315D01*
X-33975Y-83295D01*
X-34082Y-83316D01*
X-34173Y-83377D01*
X-34234Y-83468D01*
X-34255Y-83575D01*
X-34234Y-83682D01*
X-34173Y-83773D01*
X-34082Y-83834D01*
X-33975Y-83855D01*
X-33875Y-83835D01*
X-33857Y-83850D01*
X-33777Y-83970D01*
Y-85325D01*
X-33757Y-85422D01*
X-33702Y-85505D01*
X-30798Y-88409D01*
X-30743Y-88446D01*
X-30716Y-88464D01*
X-30618Y-88483D01*
X-21223D01*
X-21217Y-88488D01*
X-21110Y-88509D01*
X-21003Y-88488D01*
X-20912Y-88427D01*
X-20851Y-88336D01*
X-20830Y-88229D01*
X-20851Y-88121D01*
X-20912Y-88030D01*
X-21003Y-87969D01*
X-21110Y-87948D01*
X-21217Y-87969D01*
X-21223Y-87974D01*
X-23422D01*
X-23459Y-87852D01*
X-23432Y-87834D01*
X-23371Y-87743D01*
X-23350Y-87636D01*
X-23371Y-87529D01*
X-23432Y-87438D01*
X-23523Y-87377D01*
X-23530Y-87375D01*
X-24558Y-86347D01*
Y-84409D01*
X-24436Y-84372D01*
X-24410Y-84410D01*
X-24245Y-84521D01*
X-24050Y-84560D01*
X-23855Y-84521D01*
X-23690Y-84410D01*
X-23579Y-84245D01*
X-23540Y-84050D01*
X-23579Y-83855D01*
X-23690Y-83690D01*
X-23855Y-83579D01*
X-24050Y-83540D01*
X-24245Y-83579D01*
X-24410Y-83690D01*
X-24436Y-83728D01*
X-24558Y-83691D01*
Y-82309D01*
X-24436Y-82272D01*
X-24410Y-82310D01*
X-24245Y-82421D01*
X-24050Y-82460D01*
X-23855Y-82421D01*
X-23690Y-82310D01*
X-23579Y-82145D01*
X-23540Y-81950D01*
X-23579Y-81755D01*
X-23690Y-81590D01*
X-23855Y-81479D01*
X-24050Y-81440D01*
X-24245Y-81479D01*
X-24410Y-81590D01*
X-24436Y-81628D01*
X-24558Y-81591D01*
Y-80234D01*
X-24436Y-80197D01*
X-24410Y-80235D01*
X-24245Y-80346D01*
X-24050Y-80385D01*
X-23855Y-80346D01*
X-23690Y-80235D01*
X-23579Y-80070D01*
X-23540Y-79875D01*
X-23579Y-79680D01*
X-23690Y-79515D01*
X-23855Y-79404D01*
X-24050Y-79365D01*
X-24245Y-79404D01*
X-24410Y-79515D01*
X-24436Y-79553D01*
X-24558Y-79516D01*
Y-69880D01*
X-24433Y-69855D01*
X-24377Y-69992D01*
X-24220Y-70195D01*
X-24017Y-70352D01*
X-23780Y-70450D01*
X-23587Y-70475D01*
Y-69500D01*
Y-68525D01*
X-23780Y-68550D01*
X-24017Y-68648D01*
X-24220Y-68805D01*
X-24377Y-69008D01*
X-24433Y-69145D01*
X-24558Y-69120D01*
Y-66676D01*
X-24574Y-66595D01*
X-24577Y-66579D01*
X-24633Y-66496D01*
X-26524Y-64605D01*
Y-56849D01*
X-26520Y-56842D01*
X-26498Y-56735D01*
X-26520Y-56628D01*
X-26580Y-56537D01*
X-26671Y-56476D01*
X-26779Y-56455D01*
X-26886Y-56476D01*
X-26977Y-56537D01*
X-27038Y-56628D01*
X-27161Y-56603D01*
Y-48097D01*
X-15669Y-36605D01*
X-15513D01*
X-15420Y-36829D01*
X-15268Y-37028D01*
X-15069Y-37180D01*
X-14838Y-37276D01*
X-14590Y-37308D01*
X-14342Y-37276D01*
X-14111Y-37180D01*
X-13912Y-37028D01*
X-13885Y-37026D01*
X-13155Y-37755D01*
X-13073Y-37810D01*
X-12975Y-37830D01*
X-12247D01*
X-12239Y-37957D01*
X-12298Y-37964D01*
X-12529Y-38060D01*
X-12728Y-38212D01*
X-12880Y-38411D01*
X-12976Y-38642D01*
X-13008Y-38890D01*
X-12976Y-39138D01*
X-12880Y-39369D01*
X-12728Y-39568D01*
X-12529Y-39720D01*
X-12298Y-39816D01*
X-12050Y-39848D01*
X-11802Y-39816D01*
X-11583Y-39725D01*
X-11005Y-40304D01*
Y-41145D01*
X-11129Y-41170D01*
X-11220Y-40951D01*
X-11372Y-40752D01*
X-11571Y-40600D01*
X-11802Y-40504D01*
X-12050Y-40472D01*
X-12298Y-40504D01*
X-12528Y-40600D01*
X-13158Y-39970D01*
X-13240Y-39915D01*
X-13338Y-39895D01*
X-14209D01*
X-14233Y-39771D01*
X-14111Y-39720D01*
X-13912Y-39568D01*
X-13760Y-39369D01*
X-13664Y-39138D01*
X-13632Y-38890D01*
X-13664Y-38642D01*
X-13760Y-38411D01*
X-13912Y-38212D01*
X-14111Y-38060D01*
X-14342Y-37964D01*
X-14590Y-37932D01*
X-14838Y-37964D01*
X-15069Y-38060D01*
X-15268Y-38212D01*
X-15420Y-38411D01*
X-15516Y-38642D01*
X-15548Y-38890D01*
X-15516Y-39138D01*
X-15420Y-39369D01*
X-15268Y-39568D01*
X-15069Y-39720D01*
X-14947Y-39771D01*
X-14971Y-39895D01*
X-17450D01*
X-17548Y-39915D01*
X-17630Y-39970D01*
X-21875Y-44215D01*
X-21882Y-44216D01*
X-21973Y-44277D01*
X-22034Y-44368D01*
X-22055Y-44475D01*
X-22034Y-44582D01*
X-21973Y-44673D01*
X-21941Y-44695D01*
Y-44822D01*
X-21948Y-44827D01*
X-22009Y-44918D01*
X-22030Y-45025D01*
X-22009Y-45132D01*
X-21948Y-45223D01*
X-21857Y-45284D01*
X-21750Y-45305D01*
X-21643Y-45284D01*
X-21552Y-45223D01*
X-21491Y-45132D01*
X-21490Y-45125D01*
X-18049Y-41685D01*
X-15513D01*
X-15420Y-41909D01*
X-15268Y-42108D01*
X-15069Y-42260D01*
X-14838Y-42356D01*
X-14590Y-42388D01*
X-14342Y-42356D01*
X-14111Y-42260D01*
X-13912Y-42108D01*
X-13760Y-41909D01*
X-13664Y-41678D01*
X-13632Y-41430D01*
X-13664Y-41182D01*
X-13760Y-40951D01*
X-13912Y-40752D01*
X-14111Y-40600D01*
X-14282Y-40529D01*
X-14257Y-40405D01*
X-13444D01*
X-12885Y-40963D01*
X-12976Y-41182D01*
X-13008Y-41430D01*
X-12976Y-41678D01*
X-12880Y-41909D01*
X-12728Y-42108D01*
X-12529Y-42260D01*
X-12298Y-42356D01*
X-12050Y-42388D01*
X-11802Y-42356D01*
X-11571Y-42260D01*
X-11372Y-42108D01*
X-11220Y-41909D01*
X-11129Y-41690D01*
X-11005Y-41715D01*
Y-43685D01*
X-11129Y-43710D01*
X-11220Y-43491D01*
X-11372Y-43292D01*
X-11571Y-43140D01*
X-11802Y-43044D01*
X-12050Y-43012D01*
X-12298Y-43044D01*
X-12529Y-43140D01*
X-12728Y-43292D01*
X-12880Y-43491D01*
X-12976Y-43722D01*
X-13008Y-43970D01*
X-12976Y-44218D01*
X-12880Y-44449D01*
X-12728Y-44648D01*
X-12529Y-44800D01*
X-12419Y-44846D01*
X-12443Y-44970D01*
X-14197D01*
X-14221Y-44846D01*
X-14111Y-44800D01*
X-13912Y-44648D01*
X-13760Y-44449D01*
X-13664Y-44218D01*
X-13632Y-43970D01*
X-13664Y-43722D01*
X-13760Y-43491D01*
X-13912Y-43292D01*
X-14111Y-43140D01*
X-14342Y-43044D01*
X-14590Y-43012D01*
X-14838Y-43044D01*
X-15069Y-43140D01*
X-15268Y-43292D01*
X-15420Y-43491D01*
X-15516Y-43722D01*
X-15548Y-43970D01*
X-15516Y-44218D01*
X-15420Y-44449D01*
X-15268Y-44648D01*
X-15069Y-44800D01*
X-14959Y-44846D01*
X-14983Y-44970D01*
X-15750D01*
X-15848Y-44990D01*
X-15930Y-45045D01*
X-17141Y-46255D01*
X-21601D01*
X-21608Y-46251D01*
X-21715Y-46230D01*
X-21822Y-46251D01*
X-21913Y-46312D01*
X-21974Y-46403D01*
X-21995Y-46510D01*
X-21974Y-46617D01*
X-21913Y-46708D01*
X-21822Y-46769D01*
X-21715Y-46790D01*
X-21608Y-46769D01*
X-21601Y-46765D01*
X-17035D01*
X-16937Y-46745D01*
X-16855Y-46690D01*
X-15644Y-45480D01*
X-14911D01*
X-14886Y-45604D01*
X-15069Y-45680D01*
X-15268Y-45832D01*
X-15420Y-46031D01*
X-15516Y-46262D01*
X-15548Y-46510D01*
X-15516Y-46758D01*
X-15420Y-46989D01*
X-15268Y-47188D01*
X-15069Y-47340D01*
X-14874Y-47421D01*
X-14899Y-47545D01*
X-16425D01*
X-16523Y-47565D01*
X-16605Y-47620D01*
X-17306Y-48320D01*
X-21611D01*
X-21618Y-48316D01*
X-21725Y-48295D01*
X-21832Y-48316D01*
X-21923Y-48377D01*
X-21984Y-48468D01*
X-22005Y-48575D01*
X-21984Y-48682D01*
X-21923Y-48773D01*
Y-48852D01*
X-21923D01*
X-21984Y-48943D01*
X-22005Y-49050D01*
X-21984Y-49157D01*
X-21923Y-49248D01*
X-21923D01*
Y-49327D01*
X-21984Y-49418D01*
X-22005Y-49525D01*
X-21984Y-49632D01*
X-21923Y-49723D01*
X-21832Y-49784D01*
X-21725Y-49805D01*
X-21618Y-49784D01*
X-21611Y-49780D01*
X-16281D01*
X-15580Y-50480D01*
X-15525Y-50517D01*
X-15498Y-50535D01*
X-15400Y-50555D01*
X-14964D01*
X-14940Y-50679D01*
X-15082Y-50738D01*
X-15285Y-50895D01*
X-15442Y-51098D01*
X-15540Y-51335D01*
X-15565Y-51528D01*
X-13615D01*
X-13640Y-51335D01*
X-13738Y-51098D01*
X-13895Y-50895D01*
X-14098Y-50738D01*
X-14240Y-50679D01*
X-14216Y-50555D01*
X-13425D01*
X-13327Y-50535D01*
X-13245Y-50480D01*
X-12594Y-49830D01*
X-12529Y-49880D01*
X-12298Y-49976D01*
X-12050Y-50008D01*
X-11802Y-49976D01*
X-11571Y-49880D01*
X-11372Y-49728D01*
X-11220Y-49529D01*
X-11124Y-49298D01*
X-11092Y-49050D01*
X-11124Y-48802D01*
X-11220Y-48571D01*
X-11372Y-48372D01*
X-11571Y-48220D01*
X-11802Y-48124D01*
X-12050Y-48092D01*
X-12298Y-48124D01*
X-12529Y-48220D01*
X-12728Y-48372D01*
X-12880Y-48571D01*
X-12976Y-48802D01*
X-13008Y-49050D01*
X-12976Y-49298D01*
X-12919Y-49434D01*
X-13531Y-50045D01*
X-14184D01*
X-14209Y-49921D01*
X-14111Y-49880D01*
X-13912Y-49728D01*
X-13760Y-49529D01*
X-13664Y-49298D01*
X-13632Y-49050D01*
X-13664Y-48802D01*
X-13760Y-48571D01*
X-13912Y-48372D01*
X-14111Y-48220D01*
X-14209Y-48179D01*
X-14184Y-48055D01*
X-13348D01*
X-13250Y-48035D01*
X-13168Y-47980D01*
X-12528Y-47340D01*
X-12298Y-47436D01*
X-12050Y-47468D01*
X-11802Y-47436D01*
X-11571Y-47340D01*
X-11372Y-47188D01*
X-11220Y-46989D01*
X-11124Y-46758D01*
X-11092Y-46510D01*
X-11124Y-46262D01*
X-11220Y-46031D01*
X-11372Y-45832D01*
X-11571Y-45680D01*
X-11754Y-45604D01*
X-11729Y-45480D01*
X-10863D01*
X-10857Y-45484D01*
X-10750Y-45505D01*
X-10643Y-45484D01*
X-10552Y-45423D01*
X-10526Y-45385D01*
X-10405Y-45422D01*
Y-59319D01*
X-10522Y-59367D01*
X-11595Y-58294D01*
Y-57075D01*
X-11615Y-56977D01*
X-11670Y-56895D01*
X-11970Y-56595D01*
X-12052Y-56540D01*
X-12150Y-56520D01*
X-12271D01*
X-12275Y-56500D01*
X-12354Y-56310D01*
X-12367Y-56291D01*
X-12377Y-56270D01*
X-12502Y-56107D01*
X-12520Y-56091D01*
X-12535Y-56074D01*
X-12698Y-55949D01*
X-12719Y-55938D01*
X-12738Y-55925D01*
X-12928Y-55847D01*
X-12951Y-55842D01*
X-12973Y-55835D01*
X-13177Y-55808D01*
X-13188Y-55809D01*
X-13200Y-55806D01*
X-13223Y-55811D01*
X-13246Y-55813D01*
X-13257Y-55818D01*
X-13268Y-55820D01*
X-13288Y-55833D01*
X-13300Y-55839D01*
X-13312Y-55833D01*
X-13332Y-55820D01*
X-13343Y-55818D01*
X-13354Y-55813D01*
X-13377Y-55811D01*
X-13400Y-55806D01*
X-13412Y-55809D01*
X-13423Y-55808D01*
X-13627Y-55835D01*
X-13649Y-55842D01*
X-13672Y-55847D01*
X-13862Y-55925D01*
X-13881Y-55938D01*
X-13902Y-55949D01*
X-14065Y-56074D01*
X-14080Y-56091D01*
X-14098Y-56107D01*
X-14223Y-56270D01*
X-14233Y-56291D01*
X-14246Y-56310D01*
X-14320Y-56488D01*
X-14444Y-56513D01*
X-16412Y-54545D01*
X-16495Y-54489D01*
X-16593Y-54470D01*
X-17087D01*
X-17093Y-54466D01*
X-17200Y-54445D01*
X-17307Y-54466D01*
X-17398Y-54527D01*
X-17459Y-54618D01*
X-17480Y-54725D01*
X-17459Y-54832D01*
X-17398Y-54923D01*
X-17307Y-54984D01*
X-17200Y-55005D01*
X-17093Y-54984D01*
X-17019Y-55095D01*
X-17034Y-55118D01*
X-17055Y-55225D01*
X-17034Y-55332D01*
X-17030Y-55339D01*
Y-56519D01*
X-17030Y-56519D01*
X-17030D01*
X-17010Y-56617D01*
X-16955Y-56699D01*
X-14624Y-59030D01*
X-14542Y-59085D01*
X-14444Y-59105D01*
X-14327D01*
X-14325Y-59119D01*
X-14246Y-59308D01*
X-14233Y-59328D01*
X-14223Y-59349D01*
X-14098Y-59512D01*
X-14080Y-59527D01*
X-14065Y-59544D01*
X-13902Y-59670D01*
X-13881Y-59680D01*
X-13862Y-59693D01*
X-13672Y-59771D01*
X-13649Y-59776D01*
X-13627Y-59783D01*
X-13423Y-59810D01*
X-13412Y-59810D01*
X-13400Y-59812D01*
X-13377Y-59807D01*
X-13354Y-59806D01*
X-13343Y-59801D01*
X-13332Y-59798D01*
X-13312Y-59785D01*
X-13300Y-59779D01*
X-13288Y-59785D01*
X-13268Y-59798D01*
X-13257Y-59801D01*
X-13246Y-59806D01*
X-13223Y-59807D01*
X-13200Y-59812D01*
X-13188Y-59810D01*
X-13177Y-59810D01*
X-12973Y-59783D01*
X-12951Y-59776D01*
X-12928Y-59771D01*
X-12738Y-59693D01*
X-12719Y-59680D01*
X-12698Y-59670D01*
X-12535Y-59544D01*
X-12520Y-59527D01*
X-12502Y-59512D01*
X-12377Y-59349D01*
X-12367Y-59328D01*
X-12354Y-59308D01*
X-12275Y-59119D01*
X-12273Y-59105D01*
X-12006D01*
X-11155Y-59956D01*
Y-63657D01*
X-11275Y-63698D01*
X-11355Y-63595D01*
X-11558Y-63438D01*
X-11795Y-63340D01*
X-11988Y-63315D01*
Y-64290D01*
Y-65265D01*
X-11795Y-65240D01*
X-11558Y-65142D01*
X-11355Y-64985D01*
X-11275Y-64882D01*
X-11155Y-64923D01*
Y-66238D01*
X-11275Y-66279D01*
X-11372Y-66152D01*
X-11571Y-66000D01*
X-11802Y-65904D01*
X-12050Y-65872D01*
X-12298Y-65904D01*
X-12529Y-66000D01*
X-12728Y-66152D01*
X-12880Y-66351D01*
X-12976Y-66582D01*
X-13008Y-66830D01*
X-12976Y-67078D01*
X-12880Y-67309D01*
X-12728Y-67508D01*
X-12529Y-67660D01*
X-12298Y-67756D01*
X-12050Y-67788D01*
X-11802Y-67756D01*
X-11571Y-67660D01*
X-11372Y-67508D01*
X-11275Y-67381D01*
X-11155Y-67422D01*
Y-68778D01*
X-11275Y-68819D01*
X-11372Y-68692D01*
X-11571Y-68540D01*
X-11802Y-68444D01*
X-12050Y-68412D01*
X-12298Y-68444D01*
X-12529Y-68540D01*
X-12728Y-68692D01*
X-12880Y-68891D01*
X-12976Y-69122D01*
X-13008Y-69370D01*
X-12976Y-69618D01*
X-12880Y-69849D01*
X-12728Y-70048D01*
X-12529Y-70200D01*
X-12298Y-70296D01*
X-12050Y-70328D01*
X-11802Y-70296D01*
X-11571Y-70200D01*
X-11372Y-70048D01*
X-11275Y-69921D01*
X-11155Y-69962D01*
Y-71318D01*
X-11275Y-71359D01*
X-11372Y-71232D01*
X-11571Y-71080D01*
X-11802Y-70984D01*
X-12050Y-70952D01*
X-12298Y-70984D01*
X-12529Y-71080D01*
X-12728Y-71232D01*
X-12880Y-71431D01*
X-12976Y-71662D01*
X-13008Y-71910D01*
X-12976Y-72158D01*
X-12880Y-72389D01*
X-12728Y-72588D01*
X-12529Y-72740D01*
X-12298Y-72836D01*
X-12050Y-72868D01*
X-11802Y-72836D01*
X-11571Y-72740D01*
X-11372Y-72588D01*
X-11275Y-72461D01*
X-11155Y-72502D01*
Y-73858D01*
X-11275Y-73899D01*
X-11372Y-73772D01*
X-11571Y-73620D01*
X-11802Y-73524D01*
X-12050Y-73492D01*
X-12298Y-73524D01*
X-12529Y-73620D01*
X-12728Y-73772D01*
X-12880Y-73971D01*
X-12976Y-74202D01*
X-13008Y-74450D01*
X-12976Y-74698D01*
X-12885Y-74917D01*
X-13439Y-75470D01*
X-14245D01*
X-14270Y-75346D01*
X-14111Y-75280D01*
X-13912Y-75128D01*
X-13760Y-74929D01*
X-13664Y-74698D01*
X-13632Y-74450D01*
X-13664Y-74202D01*
X-13760Y-73971D01*
X-13912Y-73772D01*
X-14111Y-73620D01*
X-14342Y-73524D01*
X-14590Y-73492D01*
X-14838Y-73524D01*
X-15069Y-73620D01*
X-15268Y-73772D01*
X-15420Y-73971D01*
X-15516Y-74202D01*
X-15548Y-74450D01*
X-15516Y-74698D01*
X-15420Y-74929D01*
X-15268Y-75128D01*
X-15069Y-75280D01*
X-14910Y-75346D01*
X-14935Y-75470D01*
X-16212D01*
X-16218Y-75466D01*
X-16325Y-75445D01*
X-16432Y-75466D01*
X-16483Y-75500D01*
X-16595Y-75440D01*
Y-73114D01*
X-16591Y-73107D01*
X-16570Y-73000D01*
X-16591Y-72893D01*
X-16652Y-72802D01*
X-16743Y-72741D01*
X-16850Y-72720D01*
X-16957Y-72741D01*
X-17048Y-72802D01*
X-17109Y-72893D01*
X-17130Y-73000D01*
X-17109Y-73107D01*
X-17105Y-73114D01*
Y-79818D01*
X-17086Y-79916D01*
X-17030Y-79998D01*
X-15425Y-81603D01*
X-15516Y-81822D01*
X-15548Y-82070D01*
X-15516Y-82318D01*
X-15420Y-82549D01*
X-15268Y-82748D01*
X-15069Y-82900D01*
X-14838Y-82996D01*
X-14590Y-83028D01*
X-14342Y-82996D01*
X-14111Y-82900D01*
X-13912Y-82748D01*
X-13760Y-82549D01*
X-13664Y-82318D01*
X-13632Y-82070D01*
X-13664Y-81822D01*
X-13760Y-81591D01*
X-13912Y-81392D01*
X-14111Y-81240D01*
X-14342Y-81144D01*
X-14590Y-81112D01*
X-14838Y-81144D01*
X-15068Y-81240D01*
X-16595Y-79712D01*
Y-76010D01*
X-16483Y-75950D01*
X-16432Y-75984D01*
X-16325Y-76005D01*
X-16218Y-75984D01*
X-16212Y-75980D01*
X-14959D01*
X-14935Y-76104D01*
X-15069Y-76160D01*
X-15268Y-76312D01*
X-15420Y-76511D01*
X-15516Y-76742D01*
X-15548Y-76990D01*
X-15516Y-77238D01*
X-15420Y-77469D01*
X-15268Y-77668D01*
X-15069Y-77820D01*
X-14838Y-77916D01*
X-14590Y-77948D01*
X-14342Y-77916D01*
X-14111Y-77820D01*
X-13912Y-77668D01*
X-13760Y-77469D01*
X-13664Y-77238D01*
X-13632Y-76990D01*
X-13664Y-76742D01*
X-13760Y-76511D01*
X-13912Y-76312D01*
X-14111Y-76160D01*
X-14245Y-76104D01*
X-14221Y-75980D01*
X-13333D01*
X-13235Y-75960D01*
X-13153Y-75905D01*
X-12528Y-75280D01*
X-12298Y-75376D01*
X-12050Y-75408D01*
X-11802Y-75376D01*
X-11571Y-75280D01*
X-11372Y-75128D01*
X-11275Y-75001D01*
X-11155Y-75042D01*
Y-76398D01*
X-11275Y-76439D01*
X-11372Y-76312D01*
X-11571Y-76160D01*
X-11802Y-76064D01*
X-12050Y-76032D01*
X-12298Y-76064D01*
X-12529Y-76160D01*
X-12728Y-76312D01*
X-12880Y-76511D01*
X-12976Y-76742D01*
X-13008Y-76990D01*
X-12976Y-77238D01*
X-12880Y-77469D01*
X-12728Y-77668D01*
X-12529Y-77820D01*
X-12298Y-77916D01*
X-12050Y-77948D01*
X-11802Y-77916D01*
X-11571Y-77820D01*
X-11372Y-77668D01*
X-11275Y-77541D01*
X-11155Y-77582D01*
Y-78938D01*
X-11275Y-78979D01*
X-11372Y-78852D01*
X-11571Y-78700D01*
X-11802Y-78604D01*
X-12050Y-78572D01*
X-12298Y-78604D01*
X-12529Y-78700D01*
X-12728Y-78852D01*
X-12880Y-79051D01*
X-12976Y-79282D01*
X-13008Y-79530D01*
X-12976Y-79778D01*
X-12880Y-80009D01*
X-12728Y-80208D01*
X-12529Y-80360D01*
X-12298Y-80456D01*
X-12050Y-80488D01*
X-11802Y-80456D01*
X-11571Y-80360D01*
X-11372Y-80208D01*
X-11275Y-80081D01*
X-11155Y-80122D01*
Y-80462D01*
X-11159Y-80468D01*
X-11180Y-80575D01*
X-11159Y-80682D01*
X-11155Y-80688D01*
Y-81478D01*
X-11275Y-81519D01*
X-11372Y-81392D01*
X-11571Y-81240D01*
X-11802Y-81144D01*
X-12050Y-81112D01*
X-12298Y-81144D01*
X-12529Y-81240D01*
X-12728Y-81392D01*
X-12880Y-81591D01*
X-12976Y-81822D01*
X-13008Y-82070D01*
X-12976Y-82318D01*
X-12880Y-82549D01*
X-12728Y-82748D01*
X-12529Y-82900D01*
X-12298Y-82996D01*
X-12050Y-83028D01*
X-11802Y-82996D01*
X-11571Y-82900D01*
X-11372Y-82748D01*
X-11275Y-82621D01*
X-11155Y-82662D01*
Y-84018D01*
X-11275Y-84059D01*
X-11372Y-83932D01*
X-11571Y-83780D01*
X-11802Y-83684D01*
X-12050Y-83652D01*
X-12298Y-83684D01*
X-12529Y-83780D01*
X-12728Y-83932D01*
X-12880Y-84131D01*
X-12976Y-84362D01*
X-13008Y-84610D01*
X-12976Y-84858D01*
X-12880Y-85089D01*
X-12728Y-85288D01*
X-12529Y-85440D01*
X-12298Y-85536D01*
X-12050Y-85568D01*
X-11802Y-85536D01*
X-11571Y-85440D01*
X-11372Y-85288D01*
X-11275Y-85161D01*
X-11155Y-85202D01*
Y-86558D01*
X-11275Y-86599D01*
X-11372Y-86472D01*
X-11571Y-86320D01*
X-11802Y-86224D01*
X-12050Y-86192D01*
X-12298Y-86224D01*
X-12529Y-86320D01*
X-12728Y-86472D01*
X-12880Y-86671D01*
X-12976Y-86902D01*
X-13008Y-87150D01*
X-12976Y-87398D01*
X-12880Y-87629D01*
X-12728Y-87828D01*
X-12529Y-87980D01*
X-12298Y-88076D01*
X-12050Y-88108D01*
X-11802Y-88076D01*
X-11571Y-87980D01*
X-11372Y-87828D01*
X-11275Y-87701D01*
X-11155Y-87742D01*
Y-89650D01*
X-11475Y-89970D01*
X-31043D01*
X-31141Y-89990D01*
X-31168Y-90008D01*
X-31223Y-90045D01*
X-33365Y-92186D01*
X-33562Y-92104D01*
X-33810Y-92072D01*
X-34058Y-92104D01*
X-34289Y-92200D01*
X-34488Y-92352D01*
X-34640Y-92551D01*
X-34736Y-92782D01*
X-34768Y-93030D01*
X-34736Y-93278D01*
X-34640Y-93509D01*
X-34488Y-93708D01*
X-34289Y-93860D01*
X-34058Y-93956D01*
X-33810Y-93988D01*
X-33562Y-93956D01*
X-33331Y-93860D01*
X-33132Y-93708D01*
X-32980Y-93509D01*
X-32979Y-93507D01*
X-32855Y-93532D01*
Y-94216D01*
X-33365Y-94726D01*
X-33562Y-94644D01*
X-33810Y-94612D01*
X-34058Y-94644D01*
X-34289Y-94740D01*
X-34488Y-94892D01*
X-34640Y-95091D01*
X-34736Y-95322D01*
X-34768Y-95570D01*
X-34736Y-95818D01*
X-34640Y-96049D01*
X-34488Y-96248D01*
X-34289Y-96400D01*
X-34058Y-96496D01*
X-33810Y-96528D01*
X-33562Y-96496D01*
X-33331Y-96400D01*
X-33132Y-96248D01*
X-32980Y-96049D01*
X-32884Y-95818D01*
X-32852Y-95570D01*
X-32884Y-95322D01*
X-32980Y-95091D01*
X-32992Y-95075D01*
X-32420Y-94502D01*
X-32365Y-94420D01*
X-32361Y-94403D01*
X-32345Y-94322D01*
Y-93113D01*
X-32218Y-93105D01*
X-32196Y-93278D01*
X-32100Y-93509D01*
X-31948Y-93708D01*
X-31749Y-93860D01*
X-31518Y-93956D01*
X-31270Y-93988D01*
X-31022Y-93956D01*
X-30791Y-93860D01*
X-30592Y-93708D01*
X-30440Y-93509D01*
X-30379Y-93363D01*
X-30255Y-93387D01*
Y-94156D01*
X-30825Y-94726D01*
X-31022Y-94644D01*
X-31270Y-94612D01*
X-31518Y-94644D01*
X-31749Y-94740D01*
X-31948Y-94892D01*
X-32100Y-95091D01*
X-32196Y-95322D01*
X-32228Y-95570D01*
X-32196Y-95818D01*
X-32100Y-96049D01*
X-31948Y-96248D01*
X-31749Y-96400D01*
X-31518Y-96496D01*
X-31270Y-96528D01*
X-31022Y-96496D01*
X-30791Y-96400D01*
X-30592Y-96248D01*
X-30440Y-96049D01*
X-30344Y-95818D01*
X-30312Y-95570D01*
X-30344Y-95322D01*
X-30440Y-95091D01*
X-30452Y-95075D01*
X-29820Y-94442D01*
X-29765Y-94360D01*
X-29745Y-94262D01*
Y-93387D01*
X-29621Y-93363D01*
X-29560Y-93509D01*
X-29408Y-93708D01*
X-29209Y-93860D01*
X-28978Y-93956D01*
X-28730Y-93988D01*
X-28482Y-93956D01*
X-28251Y-93860D01*
X-28052Y-93708D01*
X-27900Y-93509D01*
X-27804Y-93278D01*
X-27772Y-93030D01*
X-27804Y-92782D01*
X-27900Y-92551D01*
X-28052Y-92352D01*
X-28251Y-92200D01*
X-28482Y-92104D01*
X-28730Y-92072D01*
X-28978Y-92104D01*
X-29209Y-92200D01*
X-29408Y-92352D01*
X-29560Y-92551D01*
X-29621Y-92698D01*
X-29745Y-92673D01*
Y-92406D01*
X-28644Y-91305D01*
X-15559D01*
X-15511Y-91422D01*
X-17080Y-92992D01*
X-17135Y-93075D01*
X-17155Y-93172D01*
Y-96169D01*
X-17656Y-96670D01*
X-18485D01*
X-18494Y-96543D01*
X-18315Y-96520D01*
X-18078Y-96422D01*
X-17875Y-96265D01*
X-17718Y-96062D01*
X-17620Y-95825D01*
X-17595Y-95632D01*
X-19545D01*
X-19520Y-95825D01*
X-19422Y-96062D01*
X-19265Y-96265D01*
X-19062Y-96422D01*
X-18825Y-96520D01*
X-18646Y-96543D01*
X-18655Y-96670D01*
X-34851D01*
X-35506Y-96015D01*
X-35424Y-95818D01*
X-35392Y-95570D01*
X-35424Y-95322D01*
X-35520Y-95091D01*
X-35672Y-94892D01*
X-35871Y-94740D01*
X-36102Y-94644D01*
X-36350Y-94612D01*
X-36598Y-94644D01*
X-36829Y-94740D01*
X-37028Y-94892D01*
X-37180Y-95091D01*
X-37276Y-95322D01*
X-37293Y-95457D01*
X-37420Y-95449D01*
Y-94207D01*
X-37440Y-94109D01*
X-37495Y-94027D01*
X-38046Y-93475D01*
X-37964Y-93278D01*
X-37932Y-93030D01*
X-37964Y-92782D01*
X-38060Y-92551D01*
X-38212Y-92352D01*
X-38411Y-92200D01*
X-38642Y-92104D01*
X-38890Y-92072D01*
X-39138Y-92104D01*
X-39369Y-92200D01*
X-39568Y-92352D01*
X-39720Y-92551D01*
X-39816Y-92782D01*
X-39848Y-93030D01*
X-39816Y-93278D01*
X-39720Y-93509D01*
X-39568Y-93708D01*
X-39369Y-93860D01*
X-39138Y-93956D01*
X-38890Y-93988D01*
X-38642Y-93956D01*
X-38411Y-93860D01*
X-38395Y-93848D01*
X-37930Y-94313D01*
Y-95080D01*
X-38054Y-95105D01*
X-38060Y-95091D01*
X-38212Y-94892D01*
X-38411Y-94740D01*
X-38642Y-94644D01*
X-38890Y-94612D01*
X-39138Y-94644D01*
X-39369Y-94740D01*
X-39568Y-94892D01*
X-39720Y-95091D01*
X-39816Y-95322D01*
X-39848Y-95570D01*
X-39816Y-95818D01*
X-39720Y-96049D01*
X-39568Y-96248D01*
X-39369Y-96400D01*
X-39138Y-96496D01*
X-38890Y-96528D01*
X-38642Y-96496D01*
X-38411Y-96400D01*
X-38395Y-96388D01*
X-37127Y-97655D01*
X-37045Y-97710D01*
X-37028Y-97714D01*
X-36947Y-97730D01*
X-17322D01*
X-17225Y-97710D01*
X-17142Y-97655D01*
X-16170Y-96683D01*
X-16133Y-96628D01*
X-16115Y-96600D01*
X-16095Y-96503D01*
Y-93506D01*
X-14819Y-92230D01*
X-9350D01*
X-9252Y-92210D01*
X-9170Y-92155D01*
X-5545Y-88530D01*
X-5490Y-88448D01*
X-5470Y-88350D01*
Y-87447D01*
X-5346Y-87422D01*
X-5260Y-87629D01*
X-5108Y-87828D01*
X-4909Y-87980D01*
X-4678Y-88076D01*
X-4430Y-88108D01*
X-4182Y-88076D01*
X-3951Y-87980D01*
X-3752Y-87828D01*
X-3600Y-87629D01*
X-3504Y-87398D01*
X-3472Y-87150D01*
X-3504Y-86902D01*
X-3600Y-86671D01*
X-3752Y-86472D01*
X-3951Y-86320D01*
X-4182Y-86224D01*
X-4430Y-86192D01*
X-4678Y-86224D01*
X-4909Y-86320D01*
X-5108Y-86472D01*
X-5260Y-86671D01*
X-5346Y-86878D01*
X-5470Y-86853D01*
Y-86003D01*
X-4908Y-85440D01*
X-4678Y-85536D01*
X-4430Y-85568D01*
X-4182Y-85536D01*
X-3951Y-85440D01*
X-3752Y-85288D01*
X-3600Y-85089D01*
X-3504Y-84858D01*
X-3472Y-84610D01*
X-3504Y-84362D01*
X-3600Y-84131D01*
X-3752Y-83932D01*
X-3951Y-83780D01*
X-4182Y-83684D01*
X-4430Y-83652D01*
X-4678Y-83684D01*
X-4908Y-83780D01*
X-5543Y-83145D01*
X-5625Y-83090D01*
X-5723Y-83070D01*
X-6577D01*
X-6601Y-82946D01*
X-6491Y-82900D01*
X-6292Y-82748D01*
X-6140Y-82549D01*
X-6044Y-82318D01*
X-6012Y-82070D01*
X-6044Y-81822D01*
X-6140Y-81591D01*
X-6292Y-81392D01*
X-6491Y-81240D01*
X-6722Y-81144D01*
X-6970Y-81112D01*
X-7218Y-81144D01*
X-7449Y-81240D01*
X-7648Y-81392D01*
X-7800Y-81591D01*
X-7896Y-81822D01*
X-7928Y-82070D01*
X-7896Y-82318D01*
X-7800Y-82549D01*
X-7648Y-82748D01*
X-7449Y-82900D01*
X-7339Y-82946D01*
X-7363Y-83070D01*
X-7619D01*
X-8395Y-82294D01*
Y-59841D01*
X-8391Y-59835D01*
X-8370Y-59728D01*
X-8391Y-59621D01*
X-8395Y-59614D01*
Y-51681D01*
X-8040Y-51325D01*
X-7926Y-51382D01*
X-7945Y-51528D01*
X-5995D01*
X-6020Y-51335D01*
X-6118Y-51098D01*
X-6275Y-50895D01*
X-6478Y-50738D01*
X-6620Y-50679D01*
X-6596Y-50555D01*
X-5688D01*
X-5590Y-50535D01*
X-5508Y-50480D01*
X-4908Y-49880D01*
X-4678Y-49976D01*
X-4430Y-50008D01*
X-4182Y-49976D01*
X-3951Y-49880D01*
X-3752Y-49728D01*
X-3600Y-49529D01*
X-3504Y-49298D01*
X-3472Y-49050D01*
X-3504Y-48802D01*
X-3600Y-48571D01*
X-3752Y-48372D01*
X-3951Y-48220D01*
X-4182Y-48124D01*
X-4430Y-48092D01*
X-4678Y-48124D01*
X-4909Y-48220D01*
X-5108Y-48372D01*
X-5260Y-48571D01*
X-5356Y-48802D01*
X-5388Y-49050D01*
X-5356Y-49298D01*
X-5265Y-49517D01*
X-5794Y-50045D01*
X-6564D01*
X-6589Y-49921D01*
X-6491Y-49880D01*
X-6292Y-49728D01*
X-6140Y-49529D01*
X-6044Y-49298D01*
X-6012Y-49050D01*
X-6044Y-48802D01*
X-6140Y-48571D01*
X-6292Y-48372D01*
X-6491Y-48220D01*
X-6529Y-48204D01*
X-6504Y-48080D01*
X-5753D01*
X-5655Y-48060D01*
X-5573Y-48005D01*
X-4908Y-47340D01*
X-4678Y-47436D01*
X-4430Y-47468D01*
X-4182Y-47436D01*
X-3951Y-47340D01*
X-3752Y-47188D01*
X-3600Y-46989D01*
X-3504Y-46758D01*
X-3472Y-46510D01*
X-3504Y-46262D01*
X-3600Y-46031D01*
X-3752Y-45832D01*
X-3951Y-45680D01*
X-4182Y-45584D01*
X-4430Y-45552D01*
X-4678Y-45584D01*
X-4909Y-45680D01*
X-5108Y-45832D01*
X-5260Y-46031D01*
X-5356Y-46262D01*
X-5388Y-46510D01*
X-5356Y-46758D01*
X-5265Y-46977D01*
X-5859Y-47570D01*
X-6773D01*
X-6781Y-47443D01*
X-6722Y-47436D01*
X-6491Y-47340D01*
X-6292Y-47188D01*
X-6140Y-46989D01*
X-6044Y-46758D01*
X-6012Y-46510D01*
X-6044Y-46262D01*
X-6140Y-46031D01*
X-6292Y-45832D01*
X-6491Y-45680D01*
X-6722Y-45584D01*
X-6970Y-45552D01*
X-7218Y-45584D01*
X-7449Y-45680D01*
X-7648Y-45832D01*
X-7800Y-46031D01*
X-7896Y-46262D01*
X-7928Y-46510D01*
X-7896Y-46758D01*
X-7800Y-46989D01*
X-7648Y-47188D01*
X-7449Y-47340D01*
X-7218Y-47436D01*
X-7159Y-47443D01*
X-7167Y-47570D01*
X-7350D01*
X-7448Y-47590D01*
X-7475Y-47608D01*
X-7530Y-47645D01*
X-9403Y-49517D01*
X-9520Y-49469D01*
Y-45156D01*
X-7991Y-43626D01*
X-7885Y-43697D01*
X-7896Y-43722D01*
X-7928Y-43970D01*
X-7896Y-44218D01*
X-7800Y-44449D01*
X-7648Y-44648D01*
X-7449Y-44800D01*
X-7218Y-44896D01*
X-6970Y-44928D01*
X-6722Y-44896D01*
X-6491Y-44800D01*
X-6292Y-44648D01*
X-6140Y-44449D01*
X-6044Y-44218D01*
X-6012Y-43970D01*
X-6044Y-43722D01*
X-6140Y-43491D01*
X-6292Y-43292D01*
X-6491Y-43140D01*
X-6722Y-43044D01*
X-6970Y-43012D01*
X-7218Y-43044D01*
X-7243Y-43055D01*
X-7285Y-42992D01*
X-7226Y-42880D01*
X-5633D01*
X-5535Y-42860D01*
X-5453Y-42805D01*
X-4908Y-42260D01*
X-4678Y-42356D01*
X-4430Y-42388D01*
X-4182Y-42356D01*
X-3951Y-42260D01*
X-3752Y-42108D01*
X-3600Y-41909D01*
X-3504Y-41678D01*
X-3472Y-41430D01*
X-3504Y-41182D01*
X-3600Y-40951D01*
X-3752Y-40752D01*
X-3951Y-40600D01*
X-4182Y-40504D01*
X-4430Y-40472D01*
X-4678Y-40504D01*
X-4909Y-40600D01*
X-5108Y-40752D01*
X-5260Y-40951D01*
X-5356Y-41182D01*
X-5388Y-41430D01*
X-5356Y-41678D01*
X-5265Y-41897D01*
X-5739Y-42370D01*
X-6437D01*
X-6478Y-42250D01*
X-6292Y-42108D01*
X-6140Y-41909D01*
X-6044Y-41678D01*
X-6012Y-41430D01*
X-6044Y-41182D01*
X-6140Y-40951D01*
X-6292Y-40752D01*
X-6491Y-40600D01*
X-6722Y-40504D01*
X-6970Y-40472D01*
X-7218Y-40504D01*
X-7449Y-40600D01*
X-7648Y-40752D01*
X-7800Y-40951D01*
X-7896Y-41182D01*
X-7928Y-41430D01*
X-7896Y-41678D01*
X-7805Y-41897D01*
X-10330Y-44422D01*
X-10374Y-44487D01*
X-10495Y-44450D01*
Y-40198D01*
X-10515Y-40100D01*
X-10570Y-40018D01*
X-11220Y-39368D01*
X-11124Y-39138D01*
X-11092Y-38890D01*
X-11124Y-38642D01*
X-11220Y-38411D01*
X-11372Y-38212D01*
X-11571Y-38060D01*
X-11802Y-37964D01*
X-11861Y-37957D01*
X-11853Y-37830D01*
X-10525D01*
X-10427Y-37810D01*
X-10345Y-37755D01*
X-9194Y-36605D01*
X-7893D01*
X-7800Y-36829D01*
X-7648Y-37028D01*
X-7449Y-37180D01*
X-7218Y-37276D01*
X-6970Y-37308D01*
X-6722Y-37276D01*
X-6491Y-37180D01*
X-6292Y-37028D01*
X-6140Y-36829D01*
X-6044Y-36598D01*
X-6012Y-36350D01*
X-6044Y-36102D01*
X-6140Y-35871D01*
X-6292Y-35672D01*
X-6354Y-35625D01*
X-6313Y-35505D01*
X-5636D01*
X-5263Y-35878D01*
X-5356Y-36102D01*
X-5388Y-36350D01*
X-5356Y-36598D01*
X-5260Y-36829D01*
X-5108Y-37028D01*
X-4909Y-37180D01*
X-4678Y-37276D01*
X-4430Y-37308D01*
X-4182Y-37276D01*
X-3951Y-37180D01*
X-3752Y-37028D01*
X-3600Y-36829D01*
X-3504Y-36598D01*
X-3472Y-36350D01*
X-3504Y-36102D01*
X-3600Y-35871D01*
X-3752Y-35672D01*
X-3951Y-35520D01*
X-4182Y-35424D01*
X-4430Y-35392D01*
X-4678Y-35424D01*
X-4902Y-35517D01*
X-5350Y-35070D01*
X-5432Y-35015D01*
X-5530Y-34995D01*
X-15250D01*
X-15348Y-35015D01*
X-15430Y-35070D01*
X-16628Y-36267D01*
X-16745Y-36219D01*
Y-30354D01*
X-16725Y-30350D01*
X-16535Y-30271D01*
X-16516Y-30258D01*
X-16495Y-30248D01*
X-16432Y-30200D01*
X-15950D01*
Y-28450D01*
X-16432D01*
X-16495Y-28402D01*
X-16516Y-28392D01*
X-16535Y-28379D01*
X-16725Y-28300D01*
X-16745Y-28296D01*
Y-27900D01*
X-16765Y-27802D01*
X-16820Y-27720D01*
X-17420Y-27120D01*
X-17502Y-27065D01*
X-17550Y-27055D01*
Y-26725D01*
D01*
Y-26725D01*
X-17550Y-26725D01*
Y-26675D01*
X-17550D01*
Y-25525D01*
X-17581D01*
X-17641Y-25413D01*
X-17579Y-25320D01*
X-17540Y-25125D01*
X-17579Y-24930D01*
X-17690Y-24765D01*
X-17728Y-24739D01*
X-17691Y-24617D01*
X-16825D01*
X-15175Y-26267D01*
Y-27000D01*
X-14842D01*
Y-27780D01*
X-15540D01*
Y-29680D01*
X-13640D01*
Y-27780D01*
X-14358D01*
Y-27000D01*
X-14025D01*
Y-27000D01*
X-14025D01*
X-14025Y-27000D01*
X-13975D01*
Y-27000D01*
X-12825D01*
Y-26742D01*
X-12633D01*
X-12607Y-26759D01*
X-12500Y-26780D01*
X-12393Y-26759D01*
X-12302Y-26698D01*
X-12244Y-26612D01*
X-12226Y-26610D01*
X-12078Y-26640D01*
X-8396Y-30321D01*
X-8396Y-30321D01*
X-8396D01*
X-8396Y-30321D01*
X-8396D01*
X-8396Y-30321D01*
Y-30321D01*
Y-30321D01*
D01*
D01*
X-8396D01*
Y-30321D01*
X-8318Y-30374D01*
X-8225Y-30392D01*
X-7584D01*
X-7543Y-30512D01*
X-7648Y-30592D01*
X-7800Y-30791D01*
X-7896Y-31022D01*
X-7928Y-31270D01*
X-7896Y-31518D01*
X-7800Y-31749D01*
X-7648Y-31948D01*
X-7449Y-32100D01*
X-7218Y-32196D01*
X-6970Y-32228D01*
X-6722Y-32196D01*
X-6491Y-32100D01*
X-6292Y-31948D01*
X-6140Y-31749D01*
X-6044Y-31518D01*
X-6012Y-31270D01*
X-6044Y-31022D01*
X-6140Y-30791D01*
X-6292Y-30592D01*
X-6397Y-30512D01*
X-6356Y-30392D01*
X-5044D01*
X-5003Y-30512D01*
X-5108Y-30592D01*
X-5260Y-30791D01*
X-5356Y-31022D01*
X-5388Y-31270D01*
X-5356Y-31518D01*
X-5260Y-31749D01*
X-5108Y-31948D01*
X-4909Y-32100D01*
X-4678Y-32196D01*
X-4430Y-32228D01*
X-4182Y-32196D01*
X-3951Y-32100D01*
X-3752Y-31948D01*
X-3600Y-31749D01*
X-3504Y-31518D01*
X-3472Y-31270D01*
X-3504Y-31022D01*
X-3600Y-30791D01*
X-3752Y-30592D01*
X-3857Y-30512D01*
X-3816Y-30392D01*
X-3225D01*
X-2730Y-30888D01*
Y-58194D01*
X-7100Y-62564D01*
X-7107Y-62566D01*
X-7198Y-62627D01*
X-7259Y-62718D01*
X-7280Y-62825D01*
X-7259Y-62932D01*
X-7198Y-63023D01*
X-7107Y-63084D01*
X-7000Y-63105D01*
X-6893Y-63084D01*
X-6802Y-63023D01*
X-6741Y-62932D01*
X-6740Y-62925D01*
X-2459Y-58645D01*
X-2342Y-58694D01*
Y-59312D01*
X-6370Y-63340D01*
X-7920D01*
Y-65240D01*
X-6020D01*
Y-63674D01*
X-2122Y-59777D01*
X-2005Y-59825D01*
Y-88169D01*
X-6573Y-92737D01*
X-14304D01*
X-14310Y-92733D01*
X-14417Y-92712D01*
X-14524Y-92733D01*
X-14615Y-92794D01*
X-14676Y-92885D01*
X-14697Y-92992D01*
X-14676Y-93099D01*
X-14615Y-93190D01*
X-14524Y-93251D01*
X-14417Y-93272D01*
X-14310Y-93251D01*
X-14304Y-93247D01*
X-6467D01*
X-6369Y-93227D01*
X-6287Y-93172D01*
X-1570Y-88455D01*
X-1515Y-88373D01*
X-1495Y-88275D01*
X-1495Y-88275D01*
X-1495Y-88275D01*
Y-88275D01*
Y-27625D01*
X-1511Y-27544D01*
X-1515Y-27527D01*
X-1570Y-27445D01*
X-4545Y-24470D01*
X-4627Y-24415D01*
X-4725Y-24395D01*
X-5225D01*
Y-24167D01*
X-5033D01*
X-5007Y-24184D01*
X-4900Y-24205D01*
X-4793Y-24184D01*
X-4702Y-24123D01*
X-4641Y-24032D01*
X-4620Y-23925D01*
X-4641Y-23818D01*
X-4702Y-23727D01*
X-4793Y-23666D01*
X-4900Y-23645D01*
X-5007Y-23666D01*
X-5033Y-23683D01*
X-5225D01*
Y-23425D01*
X-6375D01*
D01*
D01*
X-6375Y-23425D01*
X-6425D01*
Y-23425D01*
X-7158D01*
X-7204Y-23379D01*
X-7282Y-23326D01*
X-7375Y-23308D01*
X-16155D01*
X-16226Y-23202D01*
X-16194Y-23125D01*
X-14575D01*
Y-21175D01*
X-15049D01*
X-15097Y-21058D01*
X-14494Y-20455D01*
X-12421D01*
X-12315Y-20615D01*
X-12124Y-20742D01*
X-11900Y-20786D01*
X-11676Y-20742D01*
X-11485Y-20615D01*
X-11358Y-20424D01*
X-11314Y-20200D01*
X-11358Y-19976D01*
X-11485Y-19785D01*
X-11676Y-19658D01*
X-11900Y-19614D01*
X-12124Y-19658D01*
X-12315Y-19785D01*
X-12421Y-19945D01*
X-14600D01*
X-14698Y-19965D01*
X-14780Y-20020D01*
X-15580Y-20820D01*
X-15635Y-20902D01*
X-15655Y-21000D01*
Y-21175D01*
X-16225D01*
Y-21920D01*
X-16475D01*
Y-21675D01*
X-16525D01*
Y-21288D01*
X-16900D01*
Y-21163D01*
X-16525D01*
Y-20775D01*
D01*
Y-20775D01*
X-16525Y-20775D01*
Y-20725D01*
X-16525D01*
Y-20337D01*
X-16900D01*
Y-20212D01*
X-16525D01*
Y-19825D01*
X-16475D01*
Y-19730D01*
X-13975D01*
X-13877Y-19710D01*
X-13795Y-19655D01*
X-13465Y-19325D01*
X-12275D01*
Y-18909D01*
X-12163Y-18849D01*
X-12099Y-18892D01*
X-11875Y-18936D01*
X-11651Y-18892D01*
X-11460Y-18765D01*
X-11333Y-18574D01*
X-11289Y-18350D01*
X-11333Y-18126D01*
X-11460Y-17935D01*
X-11651Y-17808D01*
X-11875Y-17764D01*
X-12099Y-17808D01*
X-12163Y-17851D01*
X-12275Y-17791D01*
Y-17375D01*
X-13925D01*
Y-19065D01*
X-14081Y-19220D01*
X-14575D01*
Y-17375D01*
X-16225D01*
Y-19220D01*
X-16475D01*
Y-18825D01*
X-16500D01*
Y-18462D01*
X-16900D01*
Y-18337D01*
X-16500D01*
Y-17975D01*
X-16500D01*
Y-17925D01*
X-16450Y-17875D01*
X-16450D01*
Y-16925D01*
X-17241D01*
X-17301Y-16813D01*
X-17258Y-16749D01*
X-17214Y-16525D01*
X-17258Y-16301D01*
X-17385Y-16110D01*
X-17576Y-15983D01*
X-17650Y-15969D01*
X-17638Y-15842D01*
X-17100D01*
X-16347Y-16596D01*
X-16336Y-16651D01*
X-16272Y-16747D01*
X-16176Y-16811D01*
X-16062Y-16833D01*
X-15949Y-16811D01*
X-15853Y-16747D01*
X-15789Y-16651D01*
X-15767Y-16538D01*
X-15789Y-16424D01*
X-15853Y-16328D01*
X-15949Y-16264D01*
X-16004Y-16253D01*
X-16829Y-15429D01*
X-16907Y-15376D01*
X-17000Y-15358D01*
X-20875D01*
X-20968Y-15376D01*
X-21046Y-15429D01*
X-21921Y-16304D01*
X-21974Y-16382D01*
X-21992Y-16475D01*
Y-17400D01*
X-22127Y-17534D01*
X-22223Y-17553D01*
X-22327Y-17623D01*
X-22362Y-17675D01*
X-22548D01*
X-22559Y-17659D01*
X-22647Y-17600D01*
X-22750Y-17580D01*
X-22757Y-17581D01*
X-22855Y-17501D01*
Y-17360D01*
X-22838Y-17335D01*
X-22817Y-17228D01*
X-22838Y-17120D01*
X-22899Y-17029D01*
X-22990Y-16968D01*
X-23097Y-16947D01*
X-23205Y-16968D01*
X-23296Y-17029D01*
X-23297Y-17031D01*
X-23424D01*
X-23427Y-17027D01*
X-23518Y-16966D01*
X-23625Y-16945D01*
X-23710Y-16961D01*
X-23808Y-16881D01*
Y-16425D01*
X-23375D01*
Y-16375D01*
X-22987D01*
Y-16000D01*
Y-15625D01*
X-23375D01*
X-23375Y-15575D01*
D01*
Y-15525D01*
D01*
X-23375Y-15475D01*
X-22987D01*
Y-15100D01*
Y-14725D01*
X-23375D01*
Y-14675D01*
X-23524D01*
X-23605Y-14577D01*
X-23595Y-14525D01*
X-23616Y-14418D01*
X-23677Y-14327D01*
X-23768Y-14266D01*
X-23875Y-14245D01*
X-23982Y-14266D01*
X-24073Y-14327D01*
X-24134Y-14418D01*
X-24155Y-14525D01*
X-24145Y-14577D01*
X-24226Y-14675D01*
X-24375D01*
Y-15525D01*
X-24375Y-15525D01*
X-24375Y-15575D01*
X-24375D01*
Y-16165D01*
X-24423Y-16180D01*
X-24525Y-16104D01*
Y-15575D01*
D01*
Y-15575D01*
X-24525Y-15575D01*
Y-15525D01*
X-24525D01*
Y-14675D01*
X-24525D01*
X-24525Y-14487D01*
X-24483Y-14424D01*
X-24439Y-14200D01*
X-24483Y-13976D01*
X-24610Y-13785D01*
X-24801Y-13658D01*
X-25025Y-13614D01*
X-25249Y-13658D01*
X-25440Y-13785D01*
X-25567Y-13976D01*
X-25611Y-14200D01*
X-25567Y-14424D01*
X-25525Y-14487D01*
X-25525Y-14675D01*
X-25525D01*
X-25525Y-14725D01*
X-25913D01*
Y-15100D01*
Y-15475D01*
X-25525D01*
X-25525Y-15525D01*
X-25525D01*
X-25525Y-15575D01*
D01*
X-25525Y-15625D01*
X-25913D01*
Y-16000D01*
Y-16375D01*
X-25525D01*
Y-16425D01*
X-24942D01*
X-24942Y-16425D01*
Y-17645D01*
X-24962Y-17675D01*
X-25148D01*
X-25159Y-17659D01*
X-25247Y-17600D01*
X-25350Y-17580D01*
X-25453Y-17600D01*
X-25541Y-17659D01*
X-25552Y-17675D01*
X-25738D01*
X-25773Y-17623D01*
X-25877Y-17553D01*
X-26000Y-17529D01*
X-26123Y-17553D01*
X-26227Y-17623D01*
X-26261Y-17674D01*
X-26389D01*
X-26423Y-17623D01*
X-26527Y-17553D01*
X-26650Y-17529D01*
X-26773Y-17553D01*
X-26773Y-17553D01*
X-26773Y-17553D01*
X-26790Y-17550D01*
X-26804Y-17529D01*
X-26804Y-17529D01*
X-27029Y-17304D01*
X-27107Y-17251D01*
X-27200Y-17233D01*
X-28500D01*
X-30558Y-15175D01*
Y-10914D01*
X-30558Y-10914D01*
X-30576Y-10822D01*
X-30629Y-10743D01*
X-31887Y-9485D01*
X-31827Y-9373D01*
X-31800Y-9378D01*
X-30125D01*
X-30057Y-9365D01*
X-30035Y-9350D01*
X-29025D01*
Y-9350D01*
X-29025D01*
X-29025Y-9350D01*
X-28975D01*
Y-9350D01*
X-27825D01*
Y-9105D01*
X-27575D01*
Y-9350D01*
X-27559D01*
X-27499Y-9462D01*
X-27542Y-9526D01*
X-27586Y-9750D01*
X-27542Y-9974D01*
X-27415Y-10165D01*
X-27224Y-10292D01*
X-27000Y-10336D01*
X-26776Y-10292D01*
X-26585Y-10165D01*
X-26458Y-9974D01*
X-26414Y-9750D01*
X-26458Y-9526D01*
X-26501Y-9462D01*
X-26441Y-9350D01*
X-26425D01*
Y-9300D01*
X-26325D01*
Y-9300D01*
X-25862D01*
Y-8850D01*
Y-8400D01*
X-26325D01*
Y-8400D01*
X-26375D01*
D01*
X-26425Y-8350D01*
Y-8350D01*
X-27575D01*
X-27575Y-8350D01*
Y-8350D01*
X-27622Y-8350D01*
Y-7513D01*
X-27504Y-7464D01*
X-27284Y-7684D01*
X-27177Y-7756D01*
X-27125Y-7766D01*
Y-7950D01*
X-25875D01*
Y-6950D01*
X-25925D01*
Y-6562D01*
X-26500D01*
Y-6438D01*
X-25925D01*
Y-6050D01*
X-25875D01*
Y-5881D01*
X-25456D01*
Y-6258D01*
X-24344D01*
Y-6006D01*
X-23387D01*
X-23306Y-6087D01*
Y-9425D01*
X-23281Y-9552D01*
X-23209Y-9659D01*
X-22134Y-10734D01*
X-22027Y-10806D01*
X-21900Y-10831D01*
X-17600D01*
Y-11635D01*
X-17600Y-11635D01*
X-17600D01*
X-17600Y-11675D01*
Y-11700D01*
Y-11725D01*
X-17600Y-11765D01*
X-17600Y-11765D01*
X-17600D01*
Y-12058D01*
X-17795D01*
X-17910Y-11885D01*
X-18101Y-11758D01*
X-18325Y-11714D01*
X-18549Y-11758D01*
X-18740Y-11885D01*
X-18867Y-12076D01*
X-18911Y-12300D01*
X-18867Y-12524D01*
X-18740Y-12715D01*
X-18549Y-12842D01*
X-18325Y-12886D01*
X-18101Y-12842D01*
X-17910Y-12715D01*
X-17795Y-12542D01*
X-17600D01*
Y-12875D01*
X-16600D01*
Y-12580D01*
X-16375D01*
Y-12875D01*
X-15830D01*
Y-14525D01*
X-16375D01*
Y-15475D01*
X-14725D01*
Y-14525D01*
X-15270D01*
Y-12875D01*
X-14725D01*
Y-11925D01*
X-16375D01*
Y-12020D01*
X-16600D01*
Y-11765D01*
X-16600Y-11765D01*
D01*
D01*
X-16600Y-11725D01*
Y-11718D01*
Y-11700D01*
X-16600Y-11675D01*
D01*
X-16600Y-11635D01*
X-16600Y-11635D01*
X-16600D01*
Y-10831D01*
X-16375D01*
Y-10975D01*
X-14725D01*
Y-10831D01*
X-7737D01*
X-6146Y-12423D01*
X-6195Y-12540D01*
X-7387D01*
X-7798Y-12130D01*
X-7922Y-12047D01*
X-8068Y-12018D01*
X-8525D01*
Y-11925D01*
X-10175D01*
Y-12875D01*
X-8525D01*
Y-12782D01*
X-8226D01*
X-7920Y-13089D01*
Y-14440D01*
X-6031D01*
Y-14615D01*
X-6580Y-15163D01*
X-6722Y-15104D01*
X-6970Y-15072D01*
X-7218Y-15104D01*
X-7449Y-15200D01*
X-7648Y-15352D01*
X-7800Y-15551D01*
X-7896Y-15782D01*
X-7928Y-16030D01*
X-7896Y-16278D01*
X-7800Y-16509D01*
X-7648Y-16708D01*
X-7449Y-16860D01*
X-7218Y-16956D01*
X-6970Y-16988D01*
X-6722Y-16956D01*
X-6491Y-16860D01*
X-6292Y-16708D01*
X-6140Y-16509D01*
X-6044Y-16278D01*
X-6012Y-16030D01*
X-6044Y-15782D01*
X-6108Y-15629D01*
X-5466Y-14986D01*
X-5466Y-14986D01*
X-5466Y-14986D01*
X-5394Y-14879D01*
X-5369Y-14752D01*
Y-14066D01*
X-5248Y-14025D01*
X-5125Y-14185D01*
X-4922Y-14342D01*
X-4685Y-14440D01*
X-4492Y-14465D01*
Y-13490D01*
X-4430D01*
Y-13427D01*
X-3455D01*
X-3480Y-13235D01*
X-3578Y-12998D01*
X-3735Y-12795D01*
X-3842Y-12712D01*
X-3876Y-12542D01*
X-3685Y-12415D01*
X-3558Y-12224D01*
X-3514Y-12000D01*
X-3558Y-11776D01*
X-3601Y-11712D01*
X-3541Y-11600D01*
X-3525D01*
Y-10935D01*
X-3487Y-10910D01*
X-3375Y-10970D01*
Y-11600D01*
X-3237D01*
X-3160Y-11715D01*
X-3271Y-11880D01*
X-3310Y-12075D01*
X-3271Y-12270D01*
X-3160Y-12435D01*
X-2995Y-12546D01*
X-2800Y-12585D01*
X-2605Y-12546D01*
X-2440Y-12435D01*
X-2329Y-12270D01*
X-2290Y-12075D01*
X-2329Y-11880D01*
X-2440Y-11715D01*
X-2363Y-11600D01*
X-2225D01*
Y-11550D01*
X-2125D01*
Y-11550D01*
X-1663D01*
Y-11100D01*
Y-10650D01*
X-2125D01*
Y-10650D01*
X-2175D01*
X-2225Y-10600D01*
Y-10600D01*
X-2940D01*
X-2970Y-10569D01*
Y-10325D01*
X-2875D01*
Y-10275D01*
X-2638D01*
Y-9725D01*
X-2575D01*
Y-9663D01*
X-2275D01*
Y-9251D01*
X-2252Y-9242D01*
X-2252D01*
X-2158Y-9203D01*
X-1700Y-9660D01*
Y-10375D01*
X-700D01*
Y-9225D01*
D01*
Y-9225D01*
X-700Y-9225D01*
Y-9175D01*
X-700D01*
Y-8025D01*
X-1008D01*
Y-6350D01*
X-1026Y-6257D01*
X-1079Y-6179D01*
X-1929Y-5329D01*
X-2007Y-5276D01*
X-2100Y-5258D01*
X-4060D01*
X-4140Y-5140D01*
X-4305Y-5029D01*
X-4500Y-4990D01*
X-4695Y-5029D01*
X-4860Y-5140D01*
X-4971Y-5305D01*
X-5010Y-5500D01*
X-4971Y-5695D01*
X-4860Y-5860D01*
X-4695Y-5971D01*
X-4500Y-6010D01*
X-4305Y-5971D01*
X-4140Y-5860D01*
X-4060Y-5742D01*
X-2200D01*
X-1492Y-6450D01*
Y-8025D01*
X-1700D01*
Y-8774D01*
X-1817Y-8822D01*
X-2225Y-8415D01*
Y-7275D01*
X-2257D01*
X-2294Y-7153D01*
X-2160Y-7065D01*
X-2033Y-6874D01*
X-1989Y-6650D01*
X-2033Y-6426D01*
X-2160Y-6235D01*
X-2351Y-6108D01*
X-2575Y-6064D01*
X-2799Y-6108D01*
X-2990Y-6235D01*
X-3117Y-6426D01*
X-3161Y-6650D01*
X-3117Y-6874D01*
X-2990Y-7065D01*
X-2856Y-7153D01*
X-2893Y-7275D01*
X-3575D01*
Y-7325D01*
X-3575D01*
X-3575Y-7325D01*
X-3575Y-7325D01*
X-3812D01*
Y-7875D01*
X-3875D01*
Y-7938D01*
X-4175D01*
Y-8345D01*
X-4700D01*
Y-8025D01*
X-5700D01*
Y-8430D01*
X-5822Y-8466D01*
X-5840Y-8440D01*
X-6005Y-8329D01*
X-6200Y-8290D01*
X-6395Y-8329D01*
X-6560Y-8440D01*
X-6671Y-8605D01*
X-6710Y-8800D01*
X-6671Y-8995D01*
X-6560Y-9160D01*
X-6395Y-9271D01*
X-6200Y-9310D01*
X-6005Y-9271D01*
X-5840Y-9160D01*
X-5822Y-9134D01*
X-5700Y-9170D01*
Y-9175D01*
Y-9200D01*
Y-9225D01*
X-5700Y-9265D01*
X-5700Y-9265D01*
X-5700D01*
Y-10375D01*
X-4700D01*
Y-10080D01*
X-4550D01*
X-4443Y-10059D01*
X-4352Y-9998D01*
X-4352Y-9998D01*
X-4347Y-9990D01*
X-4225Y-10027D01*
Y-10325D01*
X-4130D01*
Y-10600D01*
X-4635D01*
X-4635Y-10600D01*
Y-10600D01*
X-4675Y-10600D01*
X-4700D01*
X-4725D01*
X-4765Y-10600D01*
X-4765Y-10600D01*
Y-10600D01*
X-5875D01*
Y-10617D01*
X-5992Y-10665D01*
X-7323Y-9334D01*
X-7311Y-9208D01*
X-7240Y-9160D01*
X-7129Y-8995D01*
X-7090Y-8800D01*
X-7129Y-8605D01*
X-7240Y-8440D01*
X-7405Y-8329D01*
X-7600Y-8290D01*
X-7795Y-8329D01*
X-7960Y-8440D01*
X-8071Y-8605D01*
X-8110Y-8800D01*
X-8071Y-8995D01*
X-7960Y-9160D01*
X-7842Y-9240D01*
Y-9400D01*
X-7824Y-9493D01*
X-7771Y-9571D01*
X-6071Y-11271D01*
X-6071Y-11271D01*
X-5993Y-11324D01*
X-5900Y-11342D01*
X-5875D01*
Y-11590D01*
Y-11590D01*
X-5887Y-11595D01*
Y-11595D01*
X-5953Y-11623D01*
D01*
X-5978Y-11633D01*
X-5995Y-11637D01*
X-7366Y-10266D01*
X-7473Y-10194D01*
X-7600Y-10169D01*
X-14725D01*
Y-10025D01*
X-16375D01*
Y-10169D01*
X-21763D01*
X-22644Y-9288D01*
Y-7606D01*
X-19900D01*
Y-7750D01*
X-18250D01*
Y-6800D01*
X-19900D01*
Y-6944D01*
X-22644D01*
Y-5950D01*
X-22669Y-5823D01*
X-22741Y-5716D01*
X-23016Y-5441D01*
X-23123Y-5369D01*
X-23250Y-5344D01*
X-23262Y-5346D01*
X-23274Y-5344D01*
X-24344D01*
Y-5146D01*
X-25456D01*
Y-5219D01*
X-25875D01*
Y-5050D01*
X-27125D01*
Y-5234D01*
X-27177Y-5244D01*
X-27284Y-5316D01*
X-27383Y-5414D01*
X-27504Y-5536D01*
X-27622Y-5487D01*
Y-2200D01*
X-27635Y-2132D01*
X-27674Y-2074D01*
X-27732Y-2035D01*
X-27800Y-2022D01*
X-31800D01*
X-31868Y-2035D01*
X-31926Y-2074D01*
X-31965Y-2132D01*
X-31978Y-2200D01*
Y-4237D01*
X-32100Y-4274D01*
X-32130Y-4230D01*
X-32254Y-4147D01*
X-32400Y-4118D01*
X-32546Y-4147D01*
X-32670Y-4230D01*
X-32753Y-4354D01*
X-32782Y-4500D01*
X-32762Y-4602D01*
X-32843Y-4700D01*
X-32975D01*
Y-4729D01*
X-33024Y-4803D01*
X-33073Y-4843D01*
X-33200Y-4818D01*
X-33346Y-4847D01*
X-33470Y-4930D01*
X-33553Y-5054D01*
X-33582Y-5200D01*
X-33553Y-5346D01*
X-33470Y-5470D01*
X-33346Y-5553D01*
X-33200Y-5582D01*
X-33073Y-5557D01*
X-33024Y-5597D01*
X-32975Y-5671D01*
Y-5700D01*
X-32843D01*
X-32762Y-5798D01*
X-32782Y-5900D01*
X-32753Y-6046D01*
X-32670Y-6170D01*
X-32546Y-6253D01*
X-32400Y-6282D01*
X-32254Y-6253D01*
X-32130Y-6170D01*
X-32122Y-6159D01*
X-31978Y-6159D01*
D01*
X-31978Y-6177D01*
Y-6177D01*
X-31970Y-6202D01*
X-31965Y-6228D01*
X-31960Y-6235D01*
X-31957Y-6243D01*
X-31941Y-6264D01*
X-31926Y-6285D01*
X-31919Y-6290D01*
X-31913Y-6297D01*
X-31890Y-6310D01*
X-31868Y-6324D01*
X-31860Y-6326D01*
X-31852Y-6330D01*
X-31772Y-6354D01*
X-31786Y-6425D01*
X-31772Y-6496D01*
X-31852Y-6520D01*
X-31860Y-6524D01*
X-31868Y-6526D01*
X-31890Y-6540D01*
X-31913Y-6553D01*
X-31919Y-6560D01*
X-31926Y-6565D01*
X-31941Y-6586D01*
X-31957Y-6607D01*
X-31960Y-6615D01*
X-31965Y-6622D01*
X-31970Y-6648D01*
X-31973Y-6658D01*
X-32045Y-6668D01*
X-32113Y-6655D01*
X-32130Y-6630D01*
X-32254Y-6547D01*
X-32400Y-6518D01*
X-32546Y-6547D01*
X-32670Y-6630D01*
X-32753Y-6754D01*
X-32782Y-6900D01*
X-32753Y-7046D01*
X-32731Y-7079D01*
Y-7200D01*
X-32975D01*
Y-7369D01*
X-33121D01*
X-33154Y-7347D01*
X-33300Y-7318D01*
X-33446Y-7347D01*
X-33570Y-7430D01*
X-33653Y-7554D01*
X-33654Y-7559D01*
X-33776Y-7596D01*
X-36558Y-4814D01*
Y-3300D01*
X-36576Y-3207D01*
X-36629Y-3129D01*
X-37880Y-1878D01*
X-37811Y-1711D01*
X-37783Y-1500D01*
X-37811Y-1289D01*
X-37892Y-1092D01*
X-38022Y-922D01*
X-38192Y-792D01*
X-38389Y-711D01*
X-38600Y-683D01*
D02*
G37*
G36*
X-23650Y-94612D02*
X-23898Y-94644D01*
X-24129Y-94740D01*
X-24328Y-94892D01*
X-24480Y-95091D01*
X-24576Y-95322D01*
X-24608Y-95570D01*
X-24576Y-95818D01*
X-24480Y-96049D01*
X-24328Y-96248D01*
X-24129Y-96400D01*
X-23898Y-96496D01*
X-23650Y-96528D01*
X-23402Y-96496D01*
X-23171Y-96400D01*
X-22972Y-96248D01*
X-22820Y-96049D01*
X-22724Y-95818D01*
X-22692Y-95570D01*
X-22724Y-95322D01*
X-22820Y-95091D01*
X-22972Y-94892D01*
X-23171Y-94740D01*
X-23402Y-94644D01*
X-23650Y-94612D01*
D02*
G37*
G36*
X-18632Y-94595D02*
X-18825Y-94620D01*
X-19062Y-94718D01*
X-19265Y-94875D01*
X-19422Y-95078D01*
X-19520Y-95315D01*
X-19545Y-95507D01*
X-18632D01*
Y-94595D01*
D02*
G37*
G36*
X-21110Y-94612D02*
X-21358Y-94644D01*
X-21589Y-94740D01*
X-21788Y-94892D01*
X-21940Y-95091D01*
X-22036Y-95322D01*
X-22068Y-95570D01*
X-22036Y-95818D01*
X-21940Y-96049D01*
X-21788Y-96248D01*
X-21589Y-96400D01*
X-21358Y-96496D01*
X-21110Y-96528D01*
X-20862Y-96496D01*
X-20631Y-96400D01*
X-20432Y-96248D01*
X-20280Y-96049D01*
X-20184Y-95818D01*
X-20152Y-95570D01*
X-20184Y-95322D01*
X-20280Y-95091D01*
X-20432Y-94892D01*
X-20631Y-94740D01*
X-20862Y-94644D01*
X-21110Y-94612D01*
D02*
G37*
G36*
X-26190D02*
X-26438Y-94644D01*
X-26669Y-94740D01*
X-26868Y-94892D01*
X-27020Y-95091D01*
X-27116Y-95322D01*
X-27148Y-95570D01*
X-27116Y-95818D01*
X-27020Y-96049D01*
X-26868Y-96248D01*
X-26669Y-96400D01*
X-26438Y-96496D01*
X-26190Y-96528D01*
X-25942Y-96496D01*
X-25711Y-96400D01*
X-25512Y-96248D01*
X-25360Y-96049D01*
X-25264Y-95818D01*
X-25232Y-95570D01*
X-25264Y-95322D01*
X-25360Y-95091D01*
X-25512Y-94892D01*
X-25711Y-94740D01*
X-25942Y-94644D01*
X-26190Y-94612D01*
D02*
G37*
G36*
X-16750Y-3315D02*
X-16945Y-3354D01*
X-17110Y-3465D01*
X-17221Y-3630D01*
X-17260Y-3825D01*
X-17221Y-4020D01*
X-17110Y-4185D01*
X-16945Y-4296D01*
X-16750Y-4335D01*
X-16555Y-4296D01*
X-16390Y-4185D01*
X-16279Y-4020D01*
X-16240Y-3825D01*
X-16279Y-3630D01*
X-16390Y-3465D01*
X-16555Y-3354D01*
X-16750Y-3315D01*
D02*
G37*
G36*
X-28730Y-94612D02*
X-28978Y-94644D01*
X-29209Y-94740D01*
X-29408Y-94892D01*
X-29560Y-95091D01*
X-29656Y-95322D01*
X-29688Y-95570D01*
X-29656Y-95818D01*
X-29560Y-96049D01*
X-29408Y-96248D01*
X-29209Y-96400D01*
X-28978Y-96496D01*
X-28730Y-96528D01*
X-28482Y-96496D01*
X-28251Y-96400D01*
X-28052Y-96248D01*
X-27900Y-96049D01*
X-27804Y-95818D01*
X-27772Y-95570D01*
X-27804Y-95322D01*
X-27900Y-95091D01*
X-28052Y-94892D01*
X-28251Y-94740D01*
X-28482Y-94644D01*
X-28730Y-94612D01*
D02*
G37*
G36*
X-25888Y-3513D02*
X-26425D01*
Y-4450D01*
X-25888D01*
Y-3513D01*
D02*
G37*
G36*
X-25225D02*
X-25763D01*
Y-4450D01*
X-25225D01*
Y-3513D01*
D02*
G37*
G36*
X-14653Y-87213D02*
X-15565D01*
X-15540Y-87405D01*
X-15442Y-87642D01*
X-15285Y-87845D01*
X-15082Y-88002D01*
X-14845Y-88100D01*
X-14653Y-88125D01*
Y-87213D01*
D02*
G37*
G36*
X-36162Y-15550D02*
X-36625D01*
Y-15938D01*
X-36162D01*
Y-15550D01*
D02*
G37*
G36*
X-26038Y-15625D02*
X-26425D01*
Y-15938D01*
X-26038D01*
Y-15625D01*
D02*
G37*
G36*
X-13512Y-16013D02*
X-14225D01*
Y-16375D01*
X-13512D01*
Y-16013D01*
D02*
G37*
G36*
X-12675D02*
X-13387D01*
Y-16375D01*
X-12675D01*
Y-16013D01*
D02*
G37*
G36*
X-22475Y-15625D02*
X-22862D01*
Y-15938D01*
X-22475D01*
Y-15625D01*
D02*
G37*
G36*
X-26038Y-15163D02*
X-26425D01*
Y-15475D01*
X-26038D01*
Y-15163D01*
D02*
G37*
G36*
X-22475D02*
X-22862D01*
Y-15475D01*
X-22475D01*
Y-15163D01*
D02*
G37*
G36*
X-13512Y-15525D02*
X-14225D01*
Y-15887D01*
X-13512D01*
Y-15525D01*
D02*
G37*
G36*
X-12675D02*
X-13387D01*
Y-15887D01*
X-12675D01*
Y-15525D01*
D02*
G37*
G36*
X-13615Y-87213D02*
X-14528D01*
Y-88125D01*
X-14335Y-88100D01*
X-14098Y-88002D01*
X-13895Y-87845D01*
X-13738Y-87642D01*
X-13640Y-87405D01*
X-13615Y-87213D01*
D02*
G37*
G36*
X-4430Y-15072D02*
X-4678Y-15104D01*
X-4909Y-15200D01*
X-5108Y-15352D01*
X-5260Y-15551D01*
X-5356Y-15782D01*
X-5388Y-16030D01*
X-5356Y-16278D01*
X-5260Y-16509D01*
X-5108Y-16708D01*
X-4909Y-16860D01*
X-4678Y-16956D01*
X-4430Y-16988D01*
X-4182Y-16956D01*
X-3951Y-16860D01*
X-3752Y-16708D01*
X-3600Y-16509D01*
X-3504Y-16278D01*
X-3472Y-16030D01*
X-3504Y-15782D01*
X-3600Y-15551D01*
X-3752Y-15352D01*
X-3951Y-15200D01*
X-4182Y-15104D01*
X-4430Y-15072D01*
D02*
G37*
G36*
X-32212Y-18962D02*
X-32600D01*
Y-19275D01*
X-32212D01*
Y-18962D01*
D02*
G37*
G36*
Y-18525D02*
X-32600D01*
Y-18837D01*
X-32212D01*
Y-18525D01*
D02*
G37*
G36*
X-11863Y-16163D02*
X-12250D01*
Y-16625D01*
X-11863D01*
Y-16163D01*
D02*
G37*
G36*
X-26038Y-16062D02*
X-26425D01*
Y-16375D01*
X-26038D01*
Y-16062D01*
D02*
G37*
G36*
X-22475D02*
X-22862D01*
Y-16375D01*
X-22475D01*
Y-16062D01*
D02*
G37*
G36*
X-11350Y-16163D02*
X-11738D01*
Y-16625D01*
X-11350D01*
Y-16163D01*
D02*
G37*
G36*
X-36162Y-16062D02*
X-36625D01*
Y-16450D01*
X-36162D01*
Y-16062D01*
D02*
G37*
G36*
X-26038Y-14725D02*
X-26425D01*
Y-15038D01*
X-26038D01*
Y-14725D01*
D02*
G37*
G36*
X-1075Y-11163D02*
X-1538D01*
Y-11550D01*
X-1075D01*
Y-11163D01*
D02*
G37*
G36*
X-10625Y-10975D02*
X-12275D01*
Y-11068D01*
X-12625D01*
Y-10975D01*
X-14275D01*
Y-11925D01*
X-13730D01*
Y-13575D01*
X-14275D01*
Y-14525D01*
X-13730D01*
Y-14700D01*
X-13709Y-14807D01*
X-13648Y-14898D01*
X-13448Y-15098D01*
X-13357Y-15159D01*
X-13250Y-15180D01*
X-12300D01*
Y-15475D01*
X-12250D01*
Y-15575D01*
X-12250D01*
Y-16038D01*
X-11350D01*
Y-15575D01*
X-11350D01*
Y-15525D01*
X-11300Y-15475D01*
X-11300D01*
Y-14325D01*
X-12300D01*
Y-14620D01*
X-12625D01*
Y-14525D01*
X-12625D01*
Y-13575D01*
X-13170D01*
Y-11925D01*
X-12625D01*
Y-11832D01*
X-12275D01*
Y-11925D01*
X-10625D01*
Y-11776D01*
X-10527Y-11695D01*
X-10475Y-11705D01*
X-10368Y-11684D01*
X-10277Y-11623D01*
X-10216Y-11532D01*
X-10195Y-11425D01*
X-10216Y-11318D01*
X-10277Y-11227D01*
X-10368Y-11166D01*
X-10475Y-11145D01*
X-10527Y-11155D01*
X-10625Y-11074D01*
Y-10975D01*
D02*
G37*
G36*
X-41270Y-9992D02*
X-41518Y-10024D01*
X-41749Y-10120D01*
X-41948Y-10272D01*
X-42100Y-10471D01*
X-42196Y-10702D01*
X-42228Y-10950D01*
X-42196Y-11198D01*
X-42100Y-11429D01*
X-41948Y-11628D01*
X-41749Y-11780D01*
X-41518Y-11876D01*
X-41270Y-11908D01*
X-41022Y-11876D01*
X-40791Y-11780D01*
X-40592Y-11628D01*
X-40440Y-11429D01*
X-40344Y-11198D01*
X-40312Y-10950D01*
X-40344Y-10702D01*
X-40440Y-10471D01*
X-40592Y-10272D01*
X-40791Y-10120D01*
X-41022Y-10024D01*
X-41270Y-9992D01*
D02*
G37*
G36*
X-38730D02*
X-38978Y-10024D01*
X-39209Y-10120D01*
X-39408Y-10272D01*
X-39560Y-10471D01*
X-39656Y-10702D01*
X-39688Y-10950D01*
X-39656Y-11198D01*
X-39560Y-11429D01*
X-39408Y-11628D01*
X-39209Y-11780D01*
X-38978Y-11876D01*
X-38730Y-11908D01*
X-38482Y-11876D01*
X-38251Y-11780D01*
X-38052Y-11628D01*
X-37900Y-11429D01*
X-37804Y-11198D01*
X-37772Y-10950D01*
X-37804Y-10702D01*
X-37900Y-10471D01*
X-38052Y-10272D01*
X-38251Y-10120D01*
X-38482Y-10024D01*
X-38730Y-9992D01*
D02*
G37*
G36*
X-25275Y-8913D02*
X-25737D01*
Y-9300D01*
X-25275D01*
Y-8913D01*
D02*
G37*
G36*
X-16413Y-8562D02*
X-16875D01*
Y-8950D01*
X-16413D01*
Y-8562D01*
D02*
G37*
G36*
X-1075Y-10650D02*
X-1538D01*
Y-11038D01*
X-1075D01*
Y-10650D01*
D02*
G37*
G36*
X-2275Y-9788D02*
X-2513D01*
Y-10275D01*
X-2275D01*
Y-9788D01*
D02*
G37*
G36*
X-35435Y-14350D02*
Y-14350D01*
X-35475Y-14350D01*
X-35500D01*
X-35525D01*
X-35565Y-14350D01*
X-35565Y-14350D01*
Y-14350D01*
X-36675D01*
Y-14570D01*
X-36925D01*
X-37032Y-14591D01*
X-37123Y-14652D01*
X-37184Y-14743D01*
X-37205Y-14850D01*
X-37184Y-14957D01*
X-37123Y-15048D01*
X-37032Y-15109D01*
X-36925Y-15130D01*
X-36675D01*
Y-15350D01*
X-35565D01*
X-35565Y-15350D01*
Y-15350D01*
X-35525Y-15350D01*
X-35500D01*
X-35475D01*
X-35435Y-15350D01*
X-35435Y-15350D01*
Y-15350D01*
X-35142D01*
Y-15500D01*
X-35475D01*
Y-15550D01*
X-35575D01*
Y-15550D01*
X-36037D01*
Y-16000D01*
Y-16450D01*
X-35575D01*
Y-16450D01*
X-35525D01*
X-35475Y-16500D01*
Y-16500D01*
X-34325D01*
Y-16242D01*
X-33183D01*
X-33157Y-16259D01*
X-33050Y-16280D01*
X-32943Y-16259D01*
X-32852Y-16198D01*
X-32791Y-16107D01*
X-32770Y-16000D01*
X-32791Y-15893D01*
X-32852Y-15802D01*
X-32943Y-15741D01*
X-33050Y-15720D01*
X-33157Y-15741D01*
X-33183Y-15758D01*
X-34325D01*
Y-15500D01*
X-34658D01*
Y-15350D01*
X-34325D01*
Y-14350D01*
X-35435D01*
X-35435Y-14350D01*
D02*
G37*
G36*
X-11512Y-13413D02*
X-12225D01*
Y-13775D01*
X-11512D01*
Y-13413D01*
D02*
G37*
G36*
X-22475Y-14725D02*
X-22862D01*
Y-15038D01*
X-22475D01*
Y-14725D01*
D02*
G37*
G36*
X-3455Y-13552D02*
X-4367D01*
Y-14465D01*
X-4175Y-14440D01*
X-3938Y-14342D01*
X-3735Y-14185D01*
X-3578Y-13982D01*
X-3480Y-13745D01*
X-3455Y-13552D01*
D02*
G37*
G36*
X-10675Y-13413D02*
X-11387D01*
Y-13775D01*
X-10675D01*
Y-13413D01*
D02*
G37*
G36*
X-11512Y-12925D02*
X-12225D01*
Y-13288D01*
X-11512D01*
Y-12925D01*
D02*
G37*
G36*
X-10675D02*
X-11387D01*
Y-13288D01*
X-10675D01*
Y-12925D01*
D02*
G37*
G36*
X-33125Y-12185D02*
X-33320Y-12224D01*
X-33485Y-12334D01*
X-33596Y-12500D01*
X-33635Y-12695D01*
X-33596Y-12890D01*
X-33485Y-13055D01*
X-33320Y-13166D01*
X-33125Y-13204D01*
X-32930Y-13166D01*
X-32765Y-13055D01*
X-32654Y-12890D01*
X-32615Y-12695D01*
X-32654Y-12500D01*
X-32765Y-12334D01*
X-32930Y-12224D01*
X-33125Y-12185D01*
D02*
G37*
%LPD*%
G36*
X-30142Y-69886D02*
Y-82482D01*
X-30123Y-82579D01*
X-30067Y-82662D01*
X-28985Y-83744D01*
Y-84203D01*
X-29108Y-84254D01*
X-29226Y-84101D01*
X-29379Y-83983D01*
X-29558Y-83909D01*
X-29750Y-83884D01*
X-29942Y-83909D01*
X-30121Y-83983D01*
X-30274Y-84101D01*
X-30392Y-84254D01*
X-30466Y-84433D01*
X-30491Y-84625D01*
X-30466Y-84817D01*
X-30392Y-84996D01*
X-30274Y-85149D01*
X-30121Y-85267D01*
X-29942Y-85341D01*
X-29750Y-85366D01*
X-29558Y-85341D01*
X-29379Y-85267D01*
X-29226Y-85149D01*
X-29108Y-84996D01*
X-28985Y-85047D01*
Y-87424D01*
X-29102Y-87502D01*
X-29193Y-87441D01*
X-29200Y-87439D01*
X-32146Y-84493D01*
Y-69891D01*
X-32022Y-69866D01*
X-31975Y-69979D01*
X-31823Y-70178D01*
X-31624Y-70330D01*
X-31393Y-70426D01*
X-31145Y-70458D01*
X-30897Y-70426D01*
X-30666Y-70330D01*
X-30467Y-70178D01*
X-30315Y-69979D01*
X-30267Y-69862D01*
X-30142Y-69886D01*
D02*
G37*
G36*
X-13400Y-55992D02*
Y-57558D01*
X-13604Y-57532D01*
X-13793Y-57453D01*
X-13956Y-57328D01*
X-14081Y-57165D01*
X-14160Y-56975D01*
X-14187Y-56772D01*
X-14160Y-56568D01*
X-14081Y-56378D01*
X-13956Y-56215D01*
X-13793Y-56090D01*
X-13604Y-56012D01*
X-13400Y-55985D01*
Y-55992D01*
D02*
G37*
G36*
Y-58067D02*
Y-59633D01*
X-13604Y-59607D01*
X-13793Y-59528D01*
X-13956Y-59403D01*
X-14081Y-59240D01*
X-14160Y-59050D01*
X-14187Y-58847D01*
X-14160Y-58643D01*
X-14081Y-58453D01*
X-13956Y-58290D01*
X-13793Y-58165D01*
X-13604Y-58087D01*
X-13400Y-58060D01*
Y-58067D01*
D02*
G37*
G36*
X-32826Y-62330D02*
X-32854Y-62469D01*
X-34068D01*
X-34093Y-62452D01*
X-34200Y-62431D01*
X-34307Y-62452D01*
X-34398Y-62513D01*
X-34459Y-62604D01*
X-34480Y-62711D01*
X-34459Y-62818D01*
X-34398Y-62909D01*
X-34307Y-62970D01*
X-34200Y-62991D01*
X-34093Y-62970D01*
X-34068Y-62953D01*
X-32954D01*
X-26891Y-69016D01*
X-26895Y-69021D01*
X-26991Y-69252D01*
X-27023Y-69500D01*
X-26991Y-69748D01*
X-26895Y-69979D01*
X-26743Y-70178D01*
X-26544Y-70330D01*
X-26313Y-70426D01*
X-26065Y-70458D01*
X-25817Y-70426D01*
X-25586Y-70330D01*
X-25387Y-70178D01*
X-25235Y-69979D01*
X-25192Y-69875D01*
X-25068Y-69900D01*
Y-86453D01*
X-25048Y-86551D01*
X-24993Y-86633D01*
X-23890Y-87736D01*
X-23889Y-87743D01*
X-23828Y-87834D01*
X-23801Y-87852D01*
X-23838Y-87974D01*
X-28447D01*
X-28507Y-87862D01*
X-28471Y-87807D01*
X-28450Y-87700D01*
X-28471Y-87593D01*
X-28475Y-87587D01*
Y-83639D01*
X-28495Y-83541D01*
X-28513Y-83514D01*
X-28550Y-83458D01*
X-29632Y-82376D01*
Y-69828D01*
X-29508Y-69803D01*
X-29435Y-69979D01*
X-29283Y-70178D01*
X-29084Y-70330D01*
X-28853Y-70426D01*
X-28605Y-70458D01*
X-28357Y-70426D01*
X-28126Y-70330D01*
X-27927Y-70178D01*
X-27775Y-69979D01*
X-27679Y-69748D01*
X-27647Y-69500D01*
X-27679Y-69252D01*
X-27775Y-69021D01*
X-27927Y-68822D01*
X-28126Y-68670D01*
X-28357Y-68574D01*
X-28605Y-68542D01*
X-28853Y-68574D01*
X-29084Y-68670D01*
X-29283Y-68822D01*
X-29435Y-69021D01*
X-29508Y-69197D01*
X-29632Y-69172D01*
Y-68063D01*
X-29648Y-67982D01*
X-29652Y-67965D01*
X-29707Y-67883D01*
X-37706Y-59884D01*
Y-57616D01*
X-37588Y-57568D01*
X-32826Y-62330D01*
D02*
G37*
G36*
X-12996Y-58087D02*
X-12807Y-58165D01*
X-12644Y-58290D01*
X-12519Y-58453D01*
X-12440Y-58643D01*
X-12413Y-58847D01*
X-12440Y-59050D01*
X-12519Y-59240D01*
X-12644Y-59403D01*
X-12807Y-59528D01*
X-12996Y-59607D01*
X-13200Y-59633D01*
Y-58067D01*
Y-58060D01*
X-12996Y-58087D01*
D02*
G37*
G36*
X-32656Y-69823D02*
Y-84599D01*
X-32636Y-84697D01*
X-32581Y-84779D01*
X-29560Y-87800D01*
X-29559Y-87807D01*
X-29523Y-87862D01*
X-29583Y-87974D01*
X-30513D01*
X-33267Y-85219D01*
Y-80256D01*
X-33286Y-80158D01*
X-33341Y-80076D01*
X-34625Y-78792D01*
Y-70033D01*
X-34505Y-69992D01*
X-34363Y-70178D01*
X-34164Y-70330D01*
X-33933Y-70426D01*
X-33685Y-70458D01*
X-33437Y-70426D01*
X-33206Y-70330D01*
X-33007Y-70178D01*
X-32855Y-69979D01*
X-32780Y-69799D01*
X-32656Y-69823D01*
D02*
G37*
G36*
X-5265Y-84143D02*
X-5356Y-84362D01*
X-5388Y-84610D01*
X-5356Y-84858D01*
X-5265Y-85077D01*
X-5905Y-85717D01*
X-5960Y-85799D01*
X-5980Y-85897D01*
Y-86667D01*
X-6104Y-86692D01*
X-6118Y-86658D01*
X-6275Y-86455D01*
X-6478Y-86298D01*
X-6715Y-86200D01*
X-6907Y-86175D01*
Y-87150D01*
Y-88125D01*
X-6715Y-88100D01*
X-6478Y-88002D01*
X-6275Y-87845D01*
X-6118Y-87642D01*
X-6104Y-87608D01*
X-5980Y-87633D01*
Y-88244D01*
X-9456Y-91720D01*
X-10394D01*
X-10442Y-91603D01*
X-8670Y-89830D01*
X-8633Y-89775D01*
X-8615Y-89748D01*
X-8595Y-89650D01*
Y-86588D01*
X-7448Y-85440D01*
X-7218Y-85536D01*
X-6970Y-85568D01*
X-6722Y-85536D01*
X-6491Y-85440D01*
X-6292Y-85288D01*
X-6140Y-85089D01*
X-6044Y-84858D01*
X-6012Y-84610D01*
X-6044Y-84362D01*
X-6140Y-84131D01*
X-6292Y-83932D01*
X-6491Y-83780D01*
X-6674Y-83704D01*
X-6649Y-83580D01*
X-5829D01*
X-5265Y-84143D01*
D02*
G37*
G36*
X-12996Y-56012D02*
X-12807Y-56090D01*
X-12644Y-56215D01*
X-12519Y-56378D01*
X-12440Y-56568D01*
X-12413Y-56772D01*
X-12440Y-56975D01*
X-12519Y-57165D01*
X-12644Y-57328D01*
X-12807Y-57453D01*
X-12996Y-57532D01*
X-13200Y-57558D01*
Y-55992D01*
Y-55985D01*
X-12996Y-56012D01*
D02*
G37*
G36*
X-37568Y-28465D02*
X-37378Y-28544D01*
X-37215Y-28669D01*
X-37090Y-28832D01*
X-37012Y-29021D01*
X-36985Y-29225D01*
X-38558D01*
X-38532Y-29021D01*
X-38453Y-28832D01*
X-38328Y-28669D01*
X-38165Y-28544D01*
X-37975Y-28465D01*
X-37772Y-28438D01*
X-37568Y-28465D01*
D02*
G37*
G36*
X-39643D02*
X-39453Y-28544D01*
X-39290Y-28669D01*
X-39165Y-28832D01*
X-39087Y-29021D01*
X-39060Y-29225D01*
X-40633D01*
X-40607Y-29021D01*
X-40528Y-28832D01*
X-40403Y-28669D01*
X-40240Y-28544D01*
X-40050Y-28465D01*
X-39847Y-28438D01*
X-39643Y-28465D01*
D02*
G37*
G36*
X-23017Y-28467D02*
X-22827Y-28545D01*
X-22664Y-28670D01*
X-22539Y-28833D01*
X-22461Y-29023D01*
X-22434Y-29227D01*
X-24007D01*
X-23981Y-29023D01*
X-23902Y-28833D01*
X-23777Y-28670D01*
X-23614Y-28545D01*
X-23424Y-28467D01*
X-23221Y-28440D01*
X-23017Y-28467D01*
D02*
G37*
G36*
X-20943Y-28465D02*
X-20753Y-28544D01*
X-20590Y-28669D01*
X-20465Y-28832D01*
X-20387Y-29021D01*
X-20360Y-29225D01*
X-21933D01*
X-21907Y-29021D01*
X-21828Y-28832D01*
X-21703Y-28669D01*
X-21540Y-28544D01*
X-21350Y-28465D01*
X-21147Y-28438D01*
X-20943Y-28465D01*
D02*
G37*
G36*
X-29243D02*
X-29053Y-28544D01*
X-28890Y-28669D01*
X-28765Y-28832D01*
X-28687Y-29021D01*
X-28660Y-29225D01*
X-30233D01*
X-30207Y-29021D01*
X-30128Y-28832D01*
X-30003Y-28669D01*
X-29840Y-28544D01*
X-29650Y-28465D01*
X-29447Y-28438D01*
X-29243Y-28465D01*
D02*
G37*
G36*
X-31318D02*
X-31128Y-28544D01*
X-30965Y-28669D01*
X-30840Y-28832D01*
X-30762Y-29021D01*
X-30735Y-29225D01*
X-32308D01*
X-32282Y-29021D01*
X-32203Y-28832D01*
X-32078Y-28669D01*
X-31915Y-28544D01*
X-31725Y-28465D01*
X-31522Y-28438D01*
X-31318Y-28465D01*
D02*
G37*
G36*
X-25094Y-28467D02*
X-24905Y-28545D01*
X-24742Y-28670D01*
X-24617Y-28833D01*
X-24538Y-29023D01*
X-24511Y-29227D01*
X-26085D01*
X-26058Y-29023D01*
X-25979Y-28833D01*
X-25854Y-28670D01*
X-25691Y-28545D01*
X-25502Y-28467D01*
X-25298Y-28440D01*
X-25094Y-28467D01*
D02*
G37*
G36*
X-41158Y-29629D02*
X-41237Y-29818D01*
X-41362Y-29981D01*
X-41525Y-30106D01*
X-41715Y-30185D01*
X-41918Y-30212D01*
X-42122Y-30185D01*
X-42312Y-30106D01*
X-42475Y-29981D01*
X-42600Y-29818D01*
X-42678Y-29629D01*
X-42705Y-29425D01*
X-41132D01*
X-41158Y-29629D01*
D02*
G37*
G36*
X-43246D02*
X-43325Y-29818D01*
X-43450Y-29981D01*
X-43613Y-30106D01*
X-43802Y-30185D01*
X-44006Y-30212D01*
X-44209Y-30185D01*
X-44399Y-30106D01*
X-44562Y-29981D01*
X-44687Y-29818D01*
X-44766Y-29629D01*
X-44793Y-29425D01*
X-43219D01*
X-43246Y-29629D01*
D02*
G37*
G36*
X-45333D02*
X-45412Y-29818D01*
X-45537Y-29981D01*
X-45700Y-30106D01*
X-45890Y-30185D01*
X-46093Y-30212D01*
X-46297Y-30185D01*
X-46487Y-30106D01*
X-46650Y-29981D01*
X-46775Y-29818D01*
X-46853Y-29629D01*
X-46880Y-29425D01*
X-45307D01*
X-45333Y-29629D01*
D02*
G37*
G36*
X-27167Y-28467D02*
X-26977Y-28545D01*
X-26814Y-28670D01*
X-26689Y-28833D01*
X-26611Y-29023D01*
X-26584Y-29227D01*
X-28157D01*
X-28131Y-29023D01*
X-28052Y-28833D01*
X-27927Y-28670D01*
X-27764Y-28545D01*
X-27574Y-28467D01*
X-27371Y-28440D01*
X-27167Y-28467D01*
D02*
G37*
G36*
X-32844Y-29629D02*
X-32923Y-29818D01*
X-33048Y-29981D01*
X-33211Y-30106D01*
X-33401Y-30185D01*
X-33604Y-30212D01*
X-33808Y-30185D01*
X-33998Y-30106D01*
X-34161Y-29981D01*
X-34286Y-29818D01*
X-34364Y-29629D01*
X-34391Y-29425D01*
X-32818D01*
X-32844Y-29629D01*
D02*
G37*
G36*
X-34919D02*
X-34997Y-29818D01*
X-35122Y-29981D01*
X-35285Y-30106D01*
X-35475Y-30185D01*
X-35679Y-30212D01*
X-35882Y-30185D01*
X-36072Y-30106D01*
X-36235Y-29981D01*
X-36360Y-29818D01*
X-36439Y-29629D01*
X-36465Y-29425D01*
X-34892D01*
X-34919Y-29629D01*
D02*
G37*
G36*
X-23472Y-24739D02*
X-23510Y-24765D01*
X-23621Y-24930D01*
X-23660Y-25125D01*
X-23621Y-25320D01*
X-23559Y-25413D01*
X-23619Y-25525D01*
X-23650D01*
Y-26675D01*
X-23650Y-26675D01*
X-23650Y-26725D01*
X-23650D01*
Y-27045D01*
X-24675D01*
X-24773Y-27065D01*
X-24855Y-27120D01*
X-25481Y-27746D01*
X-25537Y-27829D01*
X-25556Y-27926D01*
Y-28299D01*
X-25570Y-28302D01*
X-25760Y-28380D01*
X-25779Y-28393D01*
X-25800Y-28404D01*
X-25860Y-28450D01*
X-26808D01*
X-26869Y-28404D01*
X-26890Y-28393D01*
X-26909Y-28380D01*
X-27099Y-28302D01*
X-27119Y-28298D01*
Y-27987D01*
X-27115Y-27981D01*
X-27094Y-27874D01*
X-27115Y-27767D01*
X-27176Y-27676D01*
X-27267Y-27615D01*
X-27374Y-27594D01*
X-27481Y-27615D01*
X-27572Y-27676D01*
X-27633Y-27767D01*
X-27654Y-27874D01*
X-27633Y-27981D01*
X-27629Y-27987D01*
Y-28299D01*
X-27643Y-28302D01*
X-27832Y-28380D01*
X-27852Y-28393D01*
X-27873Y-28404D01*
X-27933Y-28450D01*
X-28882D01*
X-28945Y-28402D01*
X-28966Y-28392D01*
X-28985Y-28379D01*
X-29044Y-28354D01*
X-29069Y-28230D01*
X-26795Y-25955D01*
X-26740Y-25873D01*
X-26736Y-25856D01*
X-26726Y-25806D01*
X-26609Y-25758D01*
X-26607Y-25759D01*
X-26500Y-25780D01*
X-26448Y-25770D01*
X-26350Y-25851D01*
Y-25925D01*
X-26350Y-25925D01*
X-26350Y-25975D01*
X-26350D01*
Y-26825D01*
X-25350D01*
Y-26775D01*
X-24962D01*
Y-26400D01*
X-24900D01*
Y-26337D01*
X-24450D01*
Y-26327D01*
X-24328Y-26290D01*
X-24323Y-26298D01*
X-24232Y-26359D01*
X-24125Y-26380D01*
X-24018Y-26359D01*
X-23927Y-26298D01*
X-23866Y-26207D01*
X-23845Y-26100D01*
X-23866Y-25993D01*
X-23870Y-25986D01*
Y-24925D01*
X-23890Y-24827D01*
X-23908Y-24800D01*
X-23945Y-24745D01*
X-23955Y-24734D01*
X-23906Y-24617D01*
X-23509D01*
X-23472Y-24739D01*
D02*
G37*
G36*
X-33401Y-28465D02*
X-33211Y-28544D01*
X-33048Y-28669D01*
X-32923Y-28832D01*
X-32844Y-29021D01*
X-32818Y-29225D01*
X-34391D01*
X-34364Y-29021D01*
X-34286Y-28832D01*
X-34161Y-28669D01*
X-33998Y-28544D01*
X-33808Y-28465D01*
X-33604Y-28438D01*
X-33401Y-28465D01*
D02*
G37*
G36*
X-35475D02*
X-35285Y-28544D01*
X-35122Y-28669D01*
X-34997Y-28832D01*
X-34919Y-29021D01*
X-34892Y-29225D01*
X-36465D01*
X-36439Y-29021D01*
X-36360Y-28832D01*
X-36235Y-28669D01*
X-36072Y-28544D01*
X-35882Y-28465D01*
X-35679Y-28438D01*
X-35475Y-28465D01*
D02*
G37*
G36*
X-27800Y-8350D02*
X-27825D01*
Y-8350D01*
X-28540D01*
X-28645Y-8244D01*
Y-7950D01*
X-28275D01*
Y-6950D01*
X-29525D01*
Y-7950D01*
X-29155D01*
Y-8350D01*
X-29196Y-8400D01*
X-29538D01*
Y-8850D01*
X-29600D01*
Y-8913D01*
X-30125D01*
Y-9200D01*
X-31800D01*
Y-8150D01*
X-31800D01*
X-31725D01*
X-31710Y-8150D01*
X-31710Y-8150D01*
Y-8150D01*
X-31263D01*
Y-7700D01*
Y-7250D01*
X-31710D01*
X-31710Y-7250D01*
Y-7250D01*
X-31725Y-7250D01*
X-31800Y-7175D01*
Y-6691D01*
X-31678Y-6654D01*
X-31579Y-6804D01*
X-31405Y-6920D01*
X-31263Y-6948D01*
Y-6425D01*
Y-5902D01*
X-31405Y-5930D01*
X-31579Y-6047D01*
X-31678Y-6196D01*
X-31800Y-6159D01*
Y-5650D01*
X-31800D01*
X-31725D01*
X-31710Y-5650D01*
X-31710Y-5650D01*
Y-5650D01*
X-31263D01*
Y-5200D01*
Y-4750D01*
X-31710D01*
X-31710Y-4750D01*
Y-4750D01*
X-31725Y-4750D01*
X-31800Y-4675D01*
Y-2200D01*
X-27800D01*
Y-8350D01*
D02*
G37*
G36*
X-18175Y-18308D02*
Y-18312D01*
X-17800D01*
Y-18375D01*
X-17737D01*
Y-18825D01*
X-17425D01*
Y-18825D01*
X-17415D01*
X-17325Y-18915D01*
Y-19408D01*
X-18125Y-20208D01*
X-19499D01*
X-19548Y-20091D01*
X-18629Y-19171D01*
X-18629Y-19171D01*
X-18576Y-19093D01*
X-18558Y-19000D01*
Y-18525D01*
X-18292Y-18260D01*
X-18175Y-18308D01*
D02*
G37*
G36*
X-17325Y-22092D02*
Y-22483D01*
X-21711D01*
X-21779Y-22400D01*
X-21803Y-22277D01*
X-21873Y-22173D01*
X-21924Y-22139D01*
Y-22011D01*
X-21873Y-21977D01*
X-21803Y-21873D01*
X-21779Y-21750D01*
X-21711Y-21667D01*
X-21260D01*
X-21213Y-21698D01*
X-21100Y-21721D01*
X-20987Y-21698D01*
X-20940Y-21667D01*
X-20775D01*
Y-21725D01*
X-19775D01*
Y-21675D01*
X-19388D01*
Y-21300D01*
X-19325D01*
Y-21237D01*
X-18875D01*
Y-21042D01*
X-18375D01*
X-17325Y-22092D01*
D02*
G37*
G36*
X-41715Y-28465D02*
X-41525Y-28544D01*
X-41362Y-28669D01*
X-41237Y-28832D01*
X-41158Y-29021D01*
X-41132Y-29225D01*
X-42705D01*
X-42678Y-29021D01*
X-42600Y-28832D01*
X-42475Y-28669D01*
X-42312Y-28544D01*
X-42122Y-28465D01*
X-41918Y-28438D01*
X-41715Y-28465D01*
D02*
G37*
G36*
X-50065D02*
X-49875Y-28544D01*
X-49712Y-28669D01*
X-49587Y-28832D01*
X-49508Y-29021D01*
X-49482Y-29225D01*
X-51055D01*
X-51028Y-29021D01*
X-50950Y-28832D01*
X-50825Y-28669D01*
X-50662Y-28544D01*
X-50472Y-28465D01*
X-50268Y-28438D01*
X-50065Y-28465D01*
D02*
G37*
G36*
X-16793Y-28465D02*
X-16603Y-28544D01*
X-16440Y-28669D01*
X-16315Y-28832D01*
X-16237Y-29021D01*
X-16210Y-29225D01*
X-17783D01*
X-17757Y-29021D01*
X-17678Y-28832D01*
X-17553Y-28669D01*
X-17390Y-28544D01*
X-17200Y-28465D01*
X-16997Y-28438D01*
X-16793Y-28465D01*
D02*
G37*
G36*
X-18868D02*
X-18678Y-28544D01*
X-18515Y-28669D01*
X-18390Y-28832D01*
X-18312Y-29021D01*
X-18285Y-29225D01*
X-19858D01*
X-19832Y-29021D01*
X-19753Y-28832D01*
X-19628Y-28669D01*
X-19465Y-28544D01*
X-19275Y-28465D01*
X-19072Y-28438D01*
X-18868Y-28465D01*
D02*
G37*
G36*
X-43802Y-28465D02*
X-43613Y-28544D01*
X-43450Y-28669D01*
X-43325Y-28832D01*
X-43246Y-29021D01*
X-43219Y-29225D01*
X-44793D01*
X-44766Y-29021D01*
X-44687Y-28832D01*
X-44562Y-28669D01*
X-44399Y-28544D01*
X-44209Y-28465D01*
X-44006Y-28438D01*
X-43802Y-28465D01*
D02*
G37*
G36*
X-45890D02*
X-45700Y-28544D01*
X-45537Y-28669D01*
X-45412Y-28832D01*
X-45333Y-29021D01*
X-45307Y-29225D01*
X-46880D01*
X-46853Y-29021D01*
X-46775Y-28832D01*
X-46650Y-28669D01*
X-46487Y-28544D01*
X-46297Y-28465D01*
X-46093Y-28438D01*
X-45890Y-28465D01*
D02*
G37*
G36*
X-47977D02*
X-47788Y-28544D01*
X-47625Y-28669D01*
X-47500Y-28832D01*
X-47421Y-29021D01*
X-47394Y-29225D01*
X-48968D01*
X-48941Y-29021D01*
X-48862Y-28832D01*
X-48737Y-28669D01*
X-48574Y-28544D01*
X-48385Y-28465D01*
X-48181Y-28438D01*
X-47977Y-28465D01*
D02*
G37*
G36*
X-47421Y-29629D02*
X-47500Y-29818D01*
X-47625Y-29981D01*
X-47788Y-30106D01*
X-47977Y-30185D01*
X-48181Y-30212D01*
X-48385Y-30185D01*
X-48574Y-30106D01*
X-48737Y-29981D01*
X-48862Y-29818D01*
X-48941Y-29629D01*
X-48968Y-29425D01*
X-47394D01*
X-47421Y-29629D01*
D02*
G37*
G36*
X-34106Y-30248D02*
X-34085Y-30258D01*
X-34066Y-30271D01*
X-33876Y-30350D01*
X-33863Y-30352D01*
Y-32883D01*
X-33980Y-32932D01*
X-35427Y-31485D01*
Y-30354D01*
X-35407Y-30350D01*
X-35217Y-30271D01*
X-35198Y-30258D01*
X-35177Y-30248D01*
X-35114Y-30200D01*
X-34169D01*
X-34106Y-30248D01*
D02*
G37*
G36*
X-40349D02*
X-40328Y-30258D01*
X-40308Y-30271D01*
X-40119Y-30350D01*
X-40105Y-30352D01*
Y-30575D01*
X-40085Y-30673D01*
X-40030Y-30755D01*
X-39605Y-31180D01*
X-39523Y-31235D01*
X-39425Y-31255D01*
X-38281D01*
X-36730Y-32806D01*
Y-32984D01*
X-36851Y-33021D01*
X-36940Y-32890D01*
X-37105Y-32779D01*
X-37300Y-32740D01*
X-37495Y-32779D01*
X-37660Y-32890D01*
X-37771Y-33055D01*
X-37810Y-33250D01*
X-37771Y-33445D01*
X-37660Y-33610D01*
X-37555Y-33681D01*
Y-42355D01*
X-37535Y-42453D01*
X-37480Y-42536D01*
X-37426Y-42572D01*
X-37007Y-42991D01*
X-37031Y-43116D01*
X-37109Y-43148D01*
X-38096Y-42161D01*
X-38133Y-42107D01*
X-38195Y-42044D01*
Y-34731D01*
X-38090Y-34660D01*
X-37979Y-34495D01*
X-37940Y-34300D01*
X-37979Y-34105D01*
X-38090Y-33940D01*
X-38255Y-33829D01*
X-38450Y-33790D01*
X-38645Y-33829D01*
X-38810Y-33940D01*
X-38921Y-34105D01*
X-38960Y-34300D01*
X-38921Y-34495D01*
X-38810Y-34660D01*
X-38705Y-34731D01*
Y-42150D01*
X-38705Y-42150D01*
X-38705D01*
X-38685Y-42248D01*
X-38630Y-42330D01*
X-38493Y-42467D01*
X-38439Y-42504D01*
X-37334Y-43608D01*
Y-52739D01*
X-37452Y-52788D01*
X-37491Y-52743D01*
D01*
X-37552Y-52652D01*
X-37643Y-52591D01*
X-37750Y-52570D01*
X-37857Y-52591D01*
X-37948Y-52652D01*
X-38052D01*
X-38143Y-52591D01*
X-38250Y-52570D01*
X-38357Y-52591D01*
X-38448Y-52652D01*
X-38509Y-52743D01*
X-38530Y-52850D01*
X-38509Y-52957D01*
X-38448Y-53048D01*
X-38357Y-53109D01*
X-38350Y-53111D01*
X-38216Y-53245D01*
Y-59989D01*
X-38216Y-59989D01*
X-38216D01*
X-38196Y-60087D01*
X-38141Y-60170D01*
X-30142Y-68168D01*
Y-69114D01*
X-30267Y-69138D01*
X-30315Y-69021D01*
X-30467Y-68822D01*
X-30666Y-68670D01*
X-30897Y-68574D01*
X-31145Y-68542D01*
X-31393Y-68574D01*
X-31624Y-68670D01*
X-31823Y-68822D01*
X-31975Y-69021D01*
X-32022Y-69134D01*
X-32146Y-69109D01*
Y-66999D01*
X-32166Y-66901D01*
X-32221Y-66819D01*
X-35989Y-63050D01*
X-35991Y-63043D01*
X-36052Y-62952D01*
X-36143Y-62891D01*
X-36250Y-62870D01*
X-36357Y-62891D01*
X-36448Y-62952D01*
X-36552D01*
X-36552Y-62952D01*
X-36643Y-62891D01*
X-36750Y-62870D01*
X-36857Y-62891D01*
X-36948Y-62952D01*
X-37009Y-63043D01*
X-37030Y-63150D01*
X-37009Y-63257D01*
X-36992Y-63283D01*
Y-65285D01*
X-37014Y-65318D01*
X-37035Y-65425D01*
X-37014Y-65532D01*
X-36953Y-65623D01*
X-36862Y-65684D01*
X-36755Y-65705D01*
X-36647Y-65684D01*
X-36556Y-65623D01*
X-36496Y-65532D01*
X-36474Y-65425D01*
X-36496Y-65318D01*
X-36508Y-65299D01*
Y-63443D01*
X-36396Y-63383D01*
X-36357Y-63409D01*
X-36350Y-63410D01*
X-32656Y-67105D01*
Y-69177D01*
X-32780Y-69201D01*
X-32855Y-69021D01*
X-33007Y-68822D01*
X-33206Y-68670D01*
X-33437Y-68574D01*
X-33685Y-68542D01*
X-33933Y-68574D01*
X-34164Y-68670D01*
X-34363Y-68822D01*
X-34505Y-69008D01*
X-34625Y-68967D01*
Y-67871D01*
X-34645Y-67773D01*
X-34700Y-67691D01*
X-36103Y-66287D01*
X-36186Y-66232D01*
X-36283Y-66213D01*
X-37408D01*
X-37777Y-65843D01*
X-37750Y-65705D01*
X-37643Y-65684D01*
X-37552Y-65623D01*
X-37491Y-65532D01*
X-37470Y-65425D01*
X-37491Y-65318D01*
X-37508Y-65292D01*
Y-63283D01*
X-37491Y-63257D01*
X-37470Y-63150D01*
X-37491Y-63043D01*
X-37552Y-62952D01*
X-37643Y-62891D01*
X-37750Y-62870D01*
X-37857Y-62891D01*
X-37948Y-62952D01*
X-38009Y-63043D01*
X-38030Y-63150D01*
X-38009Y-63257D01*
X-37992Y-63283D01*
Y-65292D01*
X-38009Y-65318D01*
X-38030Y-65425D01*
X-38168Y-65452D01*
X-39056Y-64565D01*
Y-55950D01*
X-39072Y-55869D01*
X-39075Y-55853D01*
X-39130Y-55770D01*
X-41495Y-53405D01*
Y-52649D01*
X-41514Y-52551D01*
X-41570Y-52468D01*
X-42618Y-51420D01*
X-42701Y-51365D01*
X-42799Y-51345D01*
X-45611D01*
X-45618Y-51341D01*
X-45725Y-51320D01*
X-45832Y-51341D01*
X-45871Y-51367D01*
X-45983Y-51307D01*
Y-39775D01*
X-41323Y-35115D01*
X-41293Y-35109D01*
X-41202Y-35048D01*
X-41141Y-34957D01*
X-41120Y-34850D01*
X-41141Y-34743D01*
X-41145Y-34736D01*
Y-32979D01*
X-41025Y-32929D01*
X-41025Y-32929D01*
Y-32929D01*
X-41025Y-32929D01*
X-40873Y-33128D01*
X-40674Y-33280D01*
X-40443Y-33376D01*
X-40195Y-33408D01*
X-39947Y-33376D01*
X-39716Y-33280D01*
X-39517Y-33128D01*
X-39365Y-32929D01*
X-39269Y-32698D01*
X-39237Y-32450D01*
X-39269Y-32202D01*
X-39365Y-31971D01*
X-39517Y-31772D01*
X-39716Y-31620D01*
X-39947Y-31524D01*
X-40195Y-31492D01*
X-40443Y-31524D01*
X-40674Y-31620D01*
X-40873Y-31772D01*
X-41025Y-31971D01*
X-41145Y-31921D01*
Y-31425D01*
X-41165Y-31327D01*
X-41220Y-31245D01*
X-41667Y-30798D01*
Y-30354D01*
X-41646Y-30350D01*
X-41457Y-30271D01*
X-41437Y-30258D01*
X-41416Y-30248D01*
X-41354Y-30200D01*
X-40411D01*
X-40349Y-30248D01*
D02*
G37*
G36*
X-7575Y-26267D02*
Y-27000D01*
X-7220D01*
Y-27780D01*
X-7920D01*
Y-29680D01*
X-6020D01*
Y-27780D01*
X-6736D01*
Y-27000D01*
X-6425D01*
Y-27000D01*
X-6425D01*
X-6425Y-27000D01*
X-6375D01*
Y-27000D01*
X-5225D01*
Y-26742D01*
X-5033D01*
X-5007Y-26759D01*
X-4900Y-26780D01*
X-4793Y-26759D01*
X-4702Y-26698D01*
X-4641Y-26607D01*
X-4620Y-26500D01*
X-4641Y-26393D01*
X-4702Y-26302D01*
X-4793Y-26241D01*
X-4900Y-26220D01*
X-5007Y-26241D01*
X-5033Y-26258D01*
X-5225D01*
Y-26067D01*
X-4100D01*
X-2342Y-27825D01*
Y-30424D01*
X-2459Y-30473D01*
X-2954Y-29979D01*
X-3032Y-29926D01*
X-3125Y-29908D01*
X-8125D01*
X-12354Y-25679D01*
X-12420Y-25634D01*
X-12396Y-25510D01*
X-12393Y-25509D01*
X-12302Y-25448D01*
X-12241Y-25357D01*
X-12220Y-25250D01*
X-12241Y-25143D01*
X-12302Y-25052D01*
X-12393Y-24991D01*
X-12500Y-24970D01*
X-12607Y-24991D01*
X-12633Y-25008D01*
X-12825D01*
Y-24750D01*
X-13975D01*
D01*
D01*
X-13975Y-24750D01*
X-14025D01*
Y-24750D01*
X-15175D01*
Y-25008D01*
X-15432D01*
X-15780Y-24659D01*
X-15731Y-24542D01*
X-9300D01*
X-7575Y-26267D01*
D02*
G37*
G36*
X-24538Y-29630D02*
X-24617Y-29820D01*
X-24742Y-29983D01*
X-24905Y-30108D01*
X-25094Y-30186D01*
X-25298Y-30213D01*
X-25502Y-30186D01*
X-25691Y-30108D01*
X-25854Y-29983D01*
X-25979Y-29820D01*
X-26058Y-29630D01*
X-26085Y-29427D01*
X-24511D01*
X-24538Y-29630D01*
D02*
G37*
G36*
X-26611D02*
X-26689Y-29820D01*
X-26814Y-29983D01*
X-26977Y-30108D01*
X-27167Y-30186D01*
X-27371Y-30213D01*
X-27574Y-30186D01*
X-27764Y-30108D01*
X-27927Y-29983D01*
X-28052Y-29820D01*
X-28131Y-29630D01*
X-28157Y-29427D01*
X-26584D01*
X-26611Y-29630D01*
D02*
G37*
G36*
X-19574Y-30248D02*
X-19553Y-30258D01*
X-19533Y-30271D01*
X-19344Y-30350D01*
X-19330Y-30352D01*
Y-31094D01*
X-19455Y-31220D01*
X-19510Y-31302D01*
X-19530Y-31400D01*
Y-37645D01*
X-20636D01*
X-20643Y-37641D01*
X-20750Y-37620D01*
X-20857Y-37641D01*
X-20948Y-37702D01*
X-21009Y-37793D01*
X-21030Y-37900D01*
X-21009Y-38007D01*
X-20948Y-38098D01*
X-20857Y-38159D01*
X-20750Y-38180D01*
X-20643Y-38159D01*
X-20636Y-38155D01*
X-19389D01*
X-19382Y-38159D01*
X-19295Y-38176D01*
X-19258Y-38298D01*
X-20433Y-39472D01*
X-21013D01*
X-21019Y-39468D01*
X-21126Y-39447D01*
X-21233Y-39468D01*
X-21324Y-39529D01*
X-21385Y-39620D01*
X-21406Y-39727D01*
X-21385Y-39834D01*
X-21324Y-39925D01*
X-21233Y-39986D01*
X-21126Y-40007D01*
X-21019Y-39986D01*
X-21013Y-39982D01*
X-20508D01*
X-20460Y-40099D01*
X-28022Y-47661D01*
X-28077Y-47744D01*
X-28096Y-47841D01*
Y-57112D01*
X-28100Y-57118D01*
X-28121Y-57225D01*
X-28100Y-57332D01*
X-28039Y-57423D01*
X-27948Y-57484D01*
X-27841Y-57505D01*
X-27769Y-57491D01*
X-27671Y-57572D01*
Y-57611D01*
X-27675Y-57618D01*
X-27696Y-57725D01*
X-27675Y-57832D01*
X-27614Y-57923D01*
X-27523Y-57984D01*
X-27416Y-58005D01*
X-27309Y-57984D01*
X-27218Y-57923D01*
X-27157Y-57832D01*
X-27034Y-57857D01*
Y-64711D01*
X-27034Y-64711D01*
X-27034D01*
X-27014Y-64808D01*
X-26959Y-64891D01*
X-25068Y-66782D01*
Y-69100D01*
X-25192Y-69125D01*
X-25235Y-69021D01*
X-25387Y-68822D01*
X-25586Y-68670D01*
X-25817Y-68574D01*
X-26065Y-68542D01*
X-26313Y-68574D01*
X-26544Y-68670D01*
X-26549Y-68674D01*
X-27770Y-67453D01*
X-27763Y-67419D01*
X-27736Y-67328D01*
X-27638Y-67309D01*
X-27547Y-67248D01*
X-27487Y-67157D01*
X-27465Y-67050D01*
X-27487Y-66943D01*
X-27547Y-66852D01*
X-27638Y-66791D01*
X-27646Y-66789D01*
X-35851Y-58584D01*
X-35802Y-58467D01*
X-34958D01*
X-34932Y-58484D01*
X-34825Y-58505D01*
X-34718Y-58484D01*
X-34627Y-58423D01*
X-34566Y-58332D01*
X-34545Y-58225D01*
X-34566Y-58118D01*
X-34627Y-58027D01*
X-34718Y-57966D01*
X-34825Y-57945D01*
X-34932Y-57966D01*
X-34958Y-57983D01*
X-35839D01*
X-36850Y-56972D01*
Y-53186D01*
X-36752Y-53105D01*
X-36750Y-53105D01*
X-36643Y-53084D01*
X-36552Y-53023D01*
X-36491Y-52932D01*
X-36470Y-52825D01*
X-36491Y-52718D01*
X-36508Y-52692D01*
Y-42905D01*
X-36526Y-42813D01*
X-36579Y-42734D01*
X-37045Y-42268D01*
Y-33681D01*
X-36940Y-33610D01*
X-36851Y-33479D01*
X-36730Y-33516D01*
Y-42167D01*
X-36730Y-42167D01*
X-36730D01*
X-36710Y-42265D01*
X-36655Y-42347D01*
X-33822Y-45181D01*
X-33767Y-45217D01*
X-33739Y-45236D01*
X-33642Y-45255D01*
X-33164D01*
X-33157Y-45259D01*
X-33050Y-45281D01*
X-32943Y-45259D01*
X-32852Y-45199D01*
X-32791Y-45108D01*
X-32770Y-45000D01*
X-32791Y-44893D01*
X-32852Y-44802D01*
X-32877Y-44785D01*
Y-44658D01*
X-32852Y-44642D01*
X-32791Y-44551D01*
X-32770Y-44443D01*
X-32791Y-44336D01*
X-32852Y-44245D01*
X-32943Y-44184D01*
X-33050Y-44163D01*
X-33157Y-44184D01*
X-33164Y-44188D01*
X-33589D01*
X-35970Y-41807D01*
Y-32550D01*
X-35990Y-32452D01*
X-36045Y-32370D01*
X-37520Y-30894D01*
Y-30354D01*
X-37500Y-30350D01*
X-37310Y-30271D01*
X-37291Y-30258D01*
X-37270Y-30248D01*
X-37207Y-30200D01*
X-36243D01*
X-36181Y-30248D01*
X-36160Y-30258D01*
X-36140Y-30271D01*
X-35951Y-30350D01*
X-35937Y-30352D01*
Y-31590D01*
X-35917Y-31688D01*
X-35862Y-31771D01*
X-31731Y-35902D01*
Y-48464D01*
X-31735Y-48470D01*
X-31757Y-48577D01*
X-31735Y-48685D01*
X-31675Y-48776D01*
X-31584Y-48836D01*
X-31476Y-48858D01*
X-31381Y-48936D01*
Y-49499D01*
X-31381Y-49499D01*
X-31381D01*
X-31378Y-49514D01*
X-31380Y-49525D01*
X-31359Y-49632D01*
X-31298Y-49723D01*
X-31207Y-49784D01*
X-31100Y-49805D01*
X-30993Y-49784D01*
X-30902Y-49723D01*
X-30841Y-49632D01*
X-30820Y-49525D01*
X-30841Y-49418D01*
X-30841Y-49418D01*
X-30841Y-49418D01*
X-30840Y-49404D01*
X-30739Y-49328D01*
X-30725Y-49330D01*
X-30618Y-49309D01*
X-30527Y-49248D01*
X-30494Y-49199D01*
X-30372Y-49236D01*
Y-58821D01*
X-31521Y-59970D01*
X-31969D01*
X-32040Y-59865D01*
X-32205Y-59754D01*
X-32400Y-59715D01*
X-32595Y-59754D01*
X-32760Y-59865D01*
X-32871Y-60030D01*
X-32910Y-60225D01*
X-32871Y-60420D01*
X-32760Y-60585D01*
X-32595Y-60696D01*
X-32400Y-60735D01*
X-32205Y-60696D01*
X-32040Y-60585D01*
X-31969Y-60480D01*
X-31416D01*
X-31318Y-60460D01*
X-31235Y-60405D01*
X-29937Y-59107D01*
X-29882Y-59025D01*
X-29863Y-58927D01*
X-29863Y-58927D01*
X-29863Y-58927D01*
Y-58927D01*
Y-32391D01*
X-29270Y-31798D01*
X-29215Y-31715D01*
X-29195Y-31618D01*
Y-30354D01*
X-29175Y-30350D01*
X-28985Y-30271D01*
X-28966Y-30258D01*
X-28945Y-30248D01*
X-28882Y-30200D01*
X-27937D01*
X-27873Y-30249D01*
X-27852Y-30260D01*
X-27832Y-30273D01*
X-27643Y-30351D01*
X-27629Y-30354D01*
Y-31558D01*
X-29023Y-32952D01*
X-29078Y-33035D01*
X-29097Y-33133D01*
Y-62039D01*
X-30198Y-63140D01*
X-30205Y-63141D01*
X-30296Y-63202D01*
X-30357Y-63293D01*
X-30378Y-63400D01*
X-30357Y-63508D01*
X-30296Y-63599D01*
X-30205Y-63659D01*
X-30098Y-63681D01*
X-29991Y-63659D01*
X-29900Y-63599D01*
X-29839Y-63508D01*
Y-63508D01*
X-29822Y-63485D01*
D01*
X-29700Y-63522D01*
X-29686Y-63594D01*
X-29625Y-63685D01*
X-29534Y-63745D01*
X-29427Y-63767D01*
X-29320Y-63745D01*
X-29229Y-63685D01*
X-29168Y-63594D01*
X-29167Y-63586D01*
X-28412Y-62832D01*
X-28375Y-62777D01*
X-28357Y-62749D01*
X-28338Y-62652D01*
Y-34769D01*
X-25121Y-31552D01*
X-25066Y-31469D01*
X-25046Y-31372D01*
Y-30355D01*
X-25026Y-30351D01*
X-24836Y-30273D01*
X-24817Y-30260D01*
X-24796Y-30249D01*
X-24732Y-30200D01*
X-23787D01*
X-23723Y-30249D01*
X-23702Y-30260D01*
X-23682Y-30273D01*
X-23493Y-30351D01*
X-23479Y-30354D01*
Y-30426D01*
X-23459Y-30524D01*
X-23404Y-30606D01*
X-21780Y-32231D01*
Y-34675D01*
X-21760Y-34773D01*
X-21705Y-34855D01*
X-20211Y-36350D01*
X-20209Y-36357D01*
X-20148Y-36448D01*
X-20057Y-36509D01*
X-19950Y-36530D01*
X-19843Y-36509D01*
X-19752Y-36448D01*
X-19691Y-36357D01*
X-19670Y-36250D01*
X-19691Y-36143D01*
X-19752Y-36052D01*
X-19843Y-35991D01*
X-19850Y-35989D01*
X-20210Y-35630D01*
X-20197Y-35504D01*
X-20152Y-35473D01*
X-20091Y-35382D01*
X-20070Y-35275D01*
X-20091Y-35168D01*
X-20152Y-35077D01*
X-20243Y-35016D01*
X-20250Y-35014D01*
X-20895Y-34369D01*
Y-30354D01*
X-20875Y-30350D01*
X-20685Y-30271D01*
X-20666Y-30258D01*
X-20645Y-30248D01*
X-20582Y-30200D01*
X-19636D01*
X-19574Y-30248D01*
D02*
G37*
G36*
X-17499D02*
X-17478Y-30258D01*
X-17458Y-30271D01*
X-17269Y-30350D01*
X-17255Y-30352D01*
Y-36294D01*
X-18877Y-37917D01*
X-18999Y-37880D01*
X-19016Y-37793D01*
X-19020Y-37786D01*
Y-31506D01*
X-18895Y-31380D01*
X-18840Y-31298D01*
X-18836Y-31281D01*
X-18820Y-31200D01*
Y-30354D01*
X-18800Y-30350D01*
X-18610Y-30271D01*
X-18591Y-30258D01*
X-18570Y-30248D01*
X-18507Y-30200D01*
X-17561D01*
X-17499Y-30248D01*
D02*
G37*
G36*
X-32024D02*
X-32003Y-30258D01*
X-31983Y-30271D01*
X-31794Y-30350D01*
X-31780Y-30352D01*
Y-34164D01*
X-31780Y-34164D01*
X-31780D01*
X-31760Y-34262D01*
X-31705Y-34345D01*
X-30983Y-35067D01*
X-31008Y-35192D01*
X-31089Y-35225D01*
X-33353Y-32962D01*
Y-30354D01*
X-33332Y-30350D01*
X-33143Y-30271D01*
X-33123Y-30258D01*
X-33102Y-30248D01*
X-33040Y-30200D01*
X-32086D01*
X-32024Y-30248D01*
D02*
G37*
G36*
X-25800Y-30249D02*
X-25779Y-30260D01*
X-25760Y-30273D01*
X-25570Y-30351D01*
X-25556Y-30354D01*
Y-31266D01*
X-28470Y-34180D01*
X-28588Y-34132D01*
Y-33238D01*
X-27194Y-31844D01*
X-27139Y-31762D01*
X-27119Y-31664D01*
Y-30355D01*
X-27099Y-30351D01*
X-26909Y-30273D01*
X-26890Y-30260D01*
X-26869Y-30249D01*
X-26804Y-30200D01*
X-25864D01*
X-25800Y-30249D01*
D02*
G37*
G36*
X-29949Y-30248D02*
X-29928Y-30258D01*
X-29908Y-30271D01*
X-29719Y-30350D01*
X-29705Y-30352D01*
Y-31512D01*
X-30298Y-32105D01*
X-30353Y-32188D01*
X-30372Y-32285D01*
Y-34819D01*
X-30494Y-34856D01*
X-30500Y-34847D01*
X-30537Y-34792D01*
X-31270Y-34059D01*
Y-30354D01*
X-31250Y-30350D01*
X-31060Y-30271D01*
X-31041Y-30258D01*
X-31020Y-30248D01*
X-30957Y-30200D01*
X-30011D01*
X-29949Y-30248D01*
D02*
G37*
G36*
X-22461Y-29630D02*
X-22539Y-29820D01*
X-22664Y-29983D01*
X-22827Y-30108D01*
X-23017Y-30186D01*
X-23221Y-30213D01*
X-23424Y-30186D01*
X-23614Y-30108D01*
X-23777Y-29983D01*
X-23902Y-29820D01*
X-23981Y-29630D01*
X-24007Y-29427D01*
X-22434D01*
X-22461Y-29630D01*
D02*
G37*
G36*
X-20387Y-29629D02*
X-20465Y-29818D01*
X-20590Y-29981D01*
X-20753Y-30106D01*
X-20943Y-30185D01*
X-21147Y-30212D01*
X-21350Y-30185D01*
X-21540Y-30106D01*
X-21703Y-29981D01*
X-21828Y-29818D01*
X-21907Y-29629D01*
X-21933Y-29425D01*
X-20360D01*
X-20387Y-29629D01*
D02*
G37*
G36*
X-28687D02*
X-28765Y-29818D01*
X-28890Y-29981D01*
X-29053Y-30106D01*
X-29243Y-30185D01*
X-29447Y-30212D01*
X-29650Y-30185D01*
X-29840Y-30106D01*
X-30003Y-29981D01*
X-30128Y-29818D01*
X-30207Y-29629D01*
X-30233Y-29425D01*
X-28660D01*
X-28687Y-29629D01*
D02*
G37*
G36*
X-18312D02*
X-18390Y-29818D01*
X-18515Y-29981D01*
X-18678Y-30106D01*
X-18868Y-30185D01*
X-19072Y-30212D01*
X-19275Y-30185D01*
X-19465Y-30106D01*
X-19628Y-29981D01*
X-19753Y-29818D01*
X-19832Y-29629D01*
X-19858Y-29425D01*
X-18285D01*
X-18312Y-29629D01*
D02*
G37*
G36*
X-49508Y-29629D02*
X-49587Y-29818D01*
X-49712Y-29981D01*
X-49875Y-30106D01*
X-50065Y-30185D01*
X-50268Y-30212D01*
X-50472Y-30185D01*
X-50662Y-30106D01*
X-50825Y-29981D01*
X-50950Y-29818D01*
X-51028Y-29629D01*
X-51055Y-29425D01*
X-49482D01*
X-49508Y-29629D01*
D02*
G37*
G36*
X-16237Y-29629D02*
X-16315Y-29818D01*
X-16440Y-29981D01*
X-16603Y-30106D01*
X-16793Y-30185D01*
X-16997Y-30212D01*
X-17200Y-30185D01*
X-17390Y-30106D01*
X-17553Y-29981D01*
X-17678Y-29818D01*
X-17757Y-29629D01*
X-17783Y-29425D01*
X-16210D01*
X-16237Y-29629D01*
D02*
G37*
G36*
X-37012D02*
X-37090Y-29818D01*
X-37215Y-29981D01*
X-37378Y-30106D01*
X-37568Y-30185D01*
X-37772Y-30212D01*
X-37975Y-30185D01*
X-38165Y-30106D01*
X-38328Y-29981D01*
X-38453Y-29818D01*
X-38532Y-29629D01*
X-38558Y-29425D01*
X-36985D01*
X-37012Y-29629D01*
D02*
G37*
G36*
X-39087D02*
X-39165Y-29818D01*
X-39290Y-29981D01*
X-39453Y-30106D01*
X-39643Y-30185D01*
X-39847Y-30212D01*
X-40050Y-30185D01*
X-40240Y-30106D01*
X-40403Y-29981D01*
X-40528Y-29818D01*
X-40607Y-29629D01*
X-40633Y-29425D01*
X-39060D01*
X-39087Y-29629D01*
D02*
G37*
G36*
X-30762D02*
X-30840Y-29818D01*
X-30965Y-29981D01*
X-31128Y-30106D01*
X-31318Y-30185D01*
X-31522Y-30212D01*
X-31725Y-30185D01*
X-31915Y-30106D01*
X-32078Y-29981D01*
X-32203Y-29818D01*
X-32282Y-29629D01*
X-32308Y-29425D01*
X-30735D01*
X-30762Y-29629D01*
D02*
G37*
%LPC*%
G36*
X-28962Y-5613D02*
X-29475D01*
Y-6000D01*
X-28962D01*
Y-5613D01*
D02*
G37*
G36*
X-31138Y-5902D02*
Y-6363D01*
X-30677D01*
X-30705Y-6220D01*
X-30822Y-6047D01*
X-30995Y-5930D01*
X-31138Y-5902D01*
D02*
G37*
G36*
X-28325Y-5613D02*
X-28837D01*
Y-6000D01*
X-28325D01*
Y-5613D01*
D02*
G37*
G36*
X-34200Y-55395D02*
X-34307Y-55416D01*
X-34398Y-55477D01*
X-34459Y-55568D01*
X-34480Y-55675D01*
X-34459Y-55782D01*
X-34398Y-55873D01*
X-34307Y-55934D01*
X-34200Y-55955D01*
X-34093Y-55934D01*
X-34002Y-55873D01*
X-33941Y-55782D01*
X-33920Y-55675D01*
X-33941Y-55568D01*
X-34002Y-55477D01*
X-34093Y-55416D01*
X-34200Y-55395D01*
D02*
G37*
G36*
X-29663Y-8400D02*
X-30125D01*
Y-8788D01*
X-29663D01*
Y-8400D01*
D02*
G37*
G36*
X-30675Y-7762D02*
X-31138D01*
Y-8150D01*
X-30675D01*
Y-7762D01*
D02*
G37*
G36*
X-30677Y-6488D02*
X-31138D01*
Y-6948D01*
X-30995Y-6920D01*
X-30822Y-6804D01*
X-30705Y-6630D01*
X-30677Y-6488D01*
D02*
G37*
G36*
X-30675Y-7250D02*
X-31138D01*
Y-7637D01*
X-30675D01*
Y-7250D01*
D02*
G37*
G36*
X-28175Y-3513D02*
X-28713D01*
Y-4450D01*
X-28175D01*
Y-3513D01*
D02*
G37*
G36*
X-28837D02*
X-29375D01*
Y-4450D01*
X-28837D01*
Y-3513D01*
D02*
G37*
G36*
Y-2450D02*
X-29375D01*
Y-3388D01*
X-28837D01*
Y-2450D01*
D02*
G37*
G36*
X-28175D02*
X-28713D01*
Y-3388D01*
X-28175D01*
Y-2450D01*
D02*
G37*
G36*
X-28962Y-5100D02*
X-29475D01*
Y-5488D01*
X-28962D01*
Y-5100D01*
D02*
G37*
G36*
X-30675Y-5262D02*
X-31138D01*
Y-5650D01*
X-30675D01*
Y-5262D01*
D02*
G37*
G36*
Y-4750D02*
X-31138D01*
Y-5137D01*
X-30675D01*
Y-4750D01*
D02*
G37*
G36*
X-28325Y-5100D02*
X-28837D01*
Y-5488D01*
X-28325D01*
Y-5100D01*
D02*
G37*
G36*
X-17862Y-18438D02*
X-18175D01*
Y-18825D01*
X-17862D01*
Y-18438D01*
D02*
G37*
G36*
X-38025Y-48990D02*
X-38220Y-49029D01*
X-38385Y-49140D01*
X-38496Y-49305D01*
X-38535Y-49500D01*
X-38496Y-49695D01*
X-38385Y-49860D01*
X-38220Y-49971D01*
X-38025Y-50010D01*
X-37830Y-49971D01*
X-37665Y-49860D01*
X-37554Y-49695D01*
X-37515Y-49500D01*
X-37554Y-49305D01*
X-37665Y-49140D01*
X-37830Y-49029D01*
X-38025Y-48990D01*
D02*
G37*
G36*
X-41675Y-45615D02*
X-41870Y-45654D01*
X-42035Y-45765D01*
X-42146Y-45930D01*
X-42185Y-46125D01*
X-42146Y-46320D01*
X-42035Y-46485D01*
X-41870Y-46596D01*
X-41675Y-46635D01*
X-41480Y-46596D01*
X-41315Y-46485D01*
X-41204Y-46320D01*
X-41165Y-46125D01*
X-41204Y-45930D01*
X-41315Y-45765D01*
X-41480Y-45654D01*
X-41675Y-45615D01*
D02*
G37*
G36*
X-26600Y-81020D02*
X-26707Y-81041D01*
X-26798Y-81102D01*
X-26859Y-81193D01*
X-26880Y-81300D01*
X-26859Y-81407D01*
X-26798Y-81498D01*
X-26707Y-81559D01*
X-26600Y-81580D01*
X-26493Y-81559D01*
X-26402Y-81498D01*
X-26341Y-81407D01*
X-26320Y-81300D01*
X-26341Y-81193D01*
X-26402Y-81102D01*
X-26493Y-81041D01*
X-26600Y-81020D01*
D02*
G37*
G36*
X-4492Y-27755D02*
X-4685Y-27780D01*
X-4922Y-27878D01*
X-5125Y-28035D01*
X-5282Y-28238D01*
X-5380Y-28475D01*
X-5405Y-28667D01*
X-4492D01*
Y-27755D01*
D02*
G37*
G36*
X-3455Y-28792D02*
X-4367D01*
Y-29705D01*
X-4175Y-29680D01*
X-3938Y-29582D01*
X-3735Y-29425D01*
X-3578Y-29222D01*
X-3480Y-28985D01*
X-3455Y-28792D01*
D02*
G37*
G36*
X-4492D02*
X-5405D01*
X-5380Y-28985D01*
X-5282Y-29222D01*
X-5125Y-29425D01*
X-4922Y-29582D01*
X-4685Y-29680D01*
X-4492Y-29705D01*
Y-28792D01*
D02*
G37*
G36*
X-42650Y-43740D02*
X-42845Y-43779D01*
X-43010Y-43890D01*
X-43121Y-44055D01*
X-43160Y-44250D01*
X-43121Y-44445D01*
X-43010Y-44610D01*
X-42845Y-44721D01*
X-42650Y-44760D01*
X-42455Y-44721D01*
X-42290Y-44610D01*
X-42179Y-44445D01*
X-42140Y-44250D01*
X-42179Y-44055D01*
X-42290Y-43890D01*
X-42455Y-43779D01*
X-42650Y-43740D01*
D02*
G37*
G36*
X-27362Y-79595D02*
X-27470Y-79616D01*
X-27561Y-79677D01*
X-27622Y-79768D01*
X-27643Y-79875D01*
X-27622Y-79982D01*
X-27561Y-80073D01*
X-27470Y-80134D01*
X-27362Y-80155D01*
X-27255Y-80134D01*
X-27164Y-80073D01*
X-27103Y-79982D01*
X-27082Y-79875D01*
X-27103Y-79768D01*
X-27164Y-79677D01*
X-27255Y-79616D01*
X-27362Y-79595D01*
D02*
G37*
G36*
X-18875Y-21362D02*
X-19263D01*
Y-21675D01*
X-18875D01*
Y-21362D01*
D02*
G37*
G36*
X-7032Y-86175D02*
X-7225Y-86200D01*
X-7462Y-86298D01*
X-7665Y-86455D01*
X-7822Y-86658D01*
X-7920Y-86895D01*
X-7945Y-87088D01*
X-7032D01*
Y-86175D01*
D02*
G37*
G36*
Y-87213D02*
X-7945D01*
X-7920Y-87405D01*
X-7822Y-87642D01*
X-7665Y-87845D01*
X-7462Y-88002D01*
X-7225Y-88100D01*
X-7032Y-88125D01*
Y-87213D01*
D02*
G37*
G36*
X-40725Y-51820D02*
X-40832Y-51841D01*
X-40923Y-51902D01*
X-40984Y-51993D01*
X-41005Y-52100D01*
X-40984Y-52207D01*
X-40923Y-52298D01*
X-40832Y-52359D01*
X-40725Y-52380D01*
X-40618Y-52359D01*
X-40527Y-52298D01*
X-40466Y-52207D01*
X-40445Y-52100D01*
X-40466Y-51993D01*
X-40527Y-51902D01*
X-40618Y-51841D01*
X-40725Y-51820D01*
D02*
G37*
G36*
X-24450Y-26462D02*
X-24837D01*
Y-26775D01*
X-24450D01*
Y-26462D01*
D02*
G37*
G36*
X-4367Y-27755D02*
Y-28667D01*
X-3455D01*
X-3480Y-28475D01*
X-3578Y-28238D01*
X-3735Y-28035D01*
X-3938Y-27878D01*
X-4175Y-27780D01*
X-4367Y-27755D01*
D02*
G37*
G36*
X-38625Y-51670D02*
X-38732Y-51691D01*
X-38823Y-51752D01*
X-38884Y-51843D01*
X-38905Y-51950D01*
X-38884Y-52057D01*
X-38823Y-52148D01*
X-38732Y-52209D01*
X-38625Y-52230D01*
X-38518Y-52209D01*
X-38427Y-52148D01*
X-38366Y-52057D01*
X-38345Y-51950D01*
X-38366Y-51843D01*
X-38427Y-51752D01*
X-38518Y-51691D01*
X-38625Y-51670D01*
D02*
G37*
G36*
X-34200Y-61495D02*
X-34307Y-61516D01*
X-34398Y-61577D01*
X-34459Y-61668D01*
X-34480Y-61775D01*
X-34459Y-61882D01*
X-34398Y-61973D01*
X-34307Y-62034D01*
X-34200Y-62055D01*
X-34093Y-62034D01*
X-34002Y-61973D01*
X-33941Y-61882D01*
X-33920Y-61775D01*
X-33941Y-61668D01*
X-34002Y-61577D01*
X-34093Y-61516D01*
X-34200Y-61495D01*
D02*
G37*
%LPD*%
D13*
X-28500Y-25700D02*
D03*
X-19075Y-4150D02*
D03*
X-21200Y-4200D02*
D03*
X-18325Y-12300D02*
D03*
X-11875Y-18350D02*
D03*
X-2575Y-6650D02*
D03*
X-31200Y-6425D02*
D03*
X-4100Y-12000D02*
D03*
X-25025Y-14200D02*
D03*
X-17800Y-16525D02*
D03*
X-11900Y-20200D02*
D03*
X-27000Y-9750D02*
D03*
X-32125Y-17675D02*
D03*
X-21150Y-29825D02*
D03*
Y-28825D02*
D03*
X-23224Y-29827D02*
D03*
Y-28827D02*
D03*
X-37775Y-29825D02*
D03*
Y-28825D02*
D03*
X-17000Y-29825D02*
D03*
Y-28825D02*
D03*
X-39850Y-29825D02*
D03*
Y-28825D02*
D03*
X-25301Y-29827D02*
D03*
Y-28827D02*
D03*
X-31525Y-29825D02*
D03*
Y-28825D02*
D03*
X-35682Y-29825D02*
D03*
Y-28825D02*
D03*
X-33608Y-29825D02*
D03*
Y-28825D02*
D03*
X-29450Y-29825D02*
D03*
Y-28825D02*
D03*
X-27374Y-29827D02*
D03*
Y-28827D02*
D03*
X-41922Y-29825D02*
D03*
Y-28825D02*
D03*
X-48184Y-29825D02*
D03*
Y-28825D02*
D03*
X-46097Y-29825D02*
D03*
Y-28825D02*
D03*
X-50272Y-29825D02*
D03*
Y-28825D02*
D03*
X-44009Y-29825D02*
D03*
Y-28825D02*
D03*
X-12800Y-56775D02*
D03*
X-13800D02*
D03*
X-12800Y-58850D02*
D03*
X-13800D02*
D03*
X-19075Y-29825D02*
D03*
Y-28825D02*
D03*
X-2800Y-12075D02*
D03*
X-49150Y-61450D02*
D03*
Y-55600D02*
D03*
X-18050Y-25125D02*
D03*
X-19325D02*
D03*
X-20600D02*
D03*
X-21875D02*
D03*
X-23150D02*
D03*
X-32400Y-60225D02*
D03*
X-41630Y-66220D02*
D03*
X-46725Y-64725D02*
D03*
X-41675Y-46125D02*
D03*
X-38025Y-49500D02*
D03*
X-4500Y-5500D02*
D03*
X-7600Y-8800D02*
D03*
X-24050Y-84050D02*
D03*
Y-81950D02*
D03*
Y-79875D02*
D03*
X-6200Y-8800D02*
D03*
X-42650Y-44250D02*
D03*
X-47450D02*
D03*
X-13300Y-7500D02*
D03*
X-33125Y-12695D02*
D03*
X-16750Y-3825D02*
D03*
X-37300Y-33250D02*
D03*
X-38450Y-34300D02*
D03*
D14*
X-29750Y-25725D02*
D03*
Y-26925D02*
D03*
X-18050Y-27300D02*
D03*
Y-26100D02*
D03*
X-19325Y-27300D02*
D03*
Y-26100D02*
D03*
X-20600Y-27300D02*
D03*
Y-26100D02*
D03*
X-21875Y-27300D02*
D03*
Y-26100D02*
D03*
X-23150Y-27300D02*
D03*
Y-26100D02*
D03*
X-17100Y-11100D02*
D03*
Y-12300D02*
D03*
X-11800Y-14900D02*
D03*
Y-16100D02*
D03*
X-1200Y-8600D02*
D03*
Y-9800D02*
D03*
X-5200Y-9800D02*
D03*
Y-8600D02*
D03*
D15*
X-36100Y-16000D02*
D03*
X-34900D02*
D03*
X-14600Y-25250D02*
D03*
X-13400D02*
D03*
X-14600Y-26500D02*
D03*
X-13400D02*
D03*
X-28400Y-8850D02*
D03*
X-29600D02*
D03*
X-25800D02*
D03*
X-27000D02*
D03*
X-15150Y-8500D02*
D03*
X-16350D02*
D03*
X-32400Y-5200D02*
D03*
X-31200D02*
D03*
X-5800Y-23925D02*
D03*
X-7000D02*
D03*
X-5800Y-25200D02*
D03*
X-7000D02*
D03*
X-5800Y-26500D02*
D03*
X-7000D02*
D03*
X-5300Y-11100D02*
D03*
X-4100D02*
D03*
X-2800D02*
D03*
X-1600D02*
D03*
X-31200Y-7700D02*
D03*
X-32400D02*
D03*
X-34900Y-14850D02*
D03*
X-36100D02*
D03*
D17*
X-16900Y-18400D02*
D03*
Y-17400D02*
D03*
X-20300Y-18200D02*
D03*
Y-19200D02*
D03*
Y-17200D02*
D03*
Y-16200D02*
D03*
D18*
X-30875Y-22375D02*
D03*
Y-21425D02*
D03*
X-30000Y-22375D02*
D03*
Y-21425D02*
D03*
X-17800Y-18375D02*
D03*
Y-17425D02*
D03*
X-16900Y-20275D02*
D03*
Y-19325D02*
D03*
Y-21225D02*
D03*
Y-22175D02*
D03*
D23*
X-24900Y-26400D02*
D03*
X-25850D02*
D03*
X-24900Y-25500D02*
D03*
X-25850D02*
D03*
X-19325Y-21300D02*
D03*
X-20275D02*
D03*
X-22925Y-16000D02*
D03*
X-23875D02*
D03*
X-22925Y-15100D02*
D03*
X-23875D02*
D03*
X-25025Y-16000D02*
D03*
X-25975D02*
D03*
Y-15100D02*
D03*
X-25025D02*
D03*
X-32150Y-18900D02*
D03*
X-31200D02*
D03*
D24*
X-31375Y-20000D02*
D03*
X-32775D02*
D03*
D45*
X-15775Y-36350D02*
X-14590D01*
X-27416Y-47991D02*
X-15775Y-36350D01*
X-27416Y-57725D02*
Y-47991D01*
X-17000Y-36400D02*
Y-30015D01*
X-20327Y-39727D02*
X-17000Y-36400D01*
X-21126Y-39727D02*
X-20327D01*
X-19275Y-31400D02*
X-19075Y-31200D01*
X-19275Y-37900D02*
Y-31400D01*
X-19075Y-31200D02*
Y-29825D01*
X-20750Y-37900D02*
X-20750Y-37900D01*
X-19275D01*
X-15250Y-35250D02*
X-5530D01*
X-27841Y-47841D02*
X-15250Y-35250D01*
X-27841Y-57214D02*
Y-47841D01*
X-10525Y-37575D02*
X-9300Y-36350D01*
X-12975Y-37575D02*
X-10525D01*
X-14200Y-36350D02*
X-12975Y-37575D01*
X-14590Y-36350D02*
X-14200D01*
X-14444Y-58850D02*
X-13990D01*
X-16775Y-56519D02*
X-14444Y-58850D01*
X-16775Y-56519D02*
Y-55225D01*
X-14543Y-56775D02*
X-13990D01*
X-16593Y-54725D02*
X-14543Y-56775D01*
X-17200Y-54725D02*
X-16593D01*
X-24813Y-86453D02*
X-23630Y-87636D01*
X-24813Y-86453D02*
Y-66676D01*
X-26779Y-64711D02*
X-24813Y-66676D01*
X-26779Y-64711D02*
Y-56735D01*
X-25301Y-31372D02*
Y-30017D01*
X-28593Y-34663D02*
X-25301Y-31372D01*
X-28593Y-62652D02*
Y-34663D01*
X-28843Y-33133D02*
X-27374Y-31664D01*
X-28843Y-62145D02*
Y-33133D01*
X-30098Y-63400D02*
X-28843Y-62145D01*
X-29427Y-63486D02*
X-28593Y-62652D01*
X-27374Y-31664D02*
Y-30017D01*
X-30118Y-58927D02*
Y-32285D01*
X-31416Y-60225D02*
X-30118Y-58927D01*
X-32400Y-60225D02*
X-31416D01*
X-30118Y-32285D02*
X-29450Y-31618D01*
X-35682Y-31590D02*
X-31476Y-35796D01*
Y-48577D02*
Y-35796D01*
X-35682Y-31590D02*
Y-30015D01*
X-30717Y-49042D02*
Y-34972D01*
X-31525Y-34164D02*
X-30717Y-34972D01*
X-31525Y-34164D02*
Y-30015D01*
X-33608Y-33067D02*
X-31126Y-35549D01*
X-30725Y-49050D02*
X-30717Y-49042D01*
X-31126Y-49499D02*
X-31100Y-49525D01*
X-31126Y-49499D02*
Y-35549D01*
X-33608Y-33067D02*
Y-30015D01*
X-33642Y-45000D02*
X-33050D01*
X-36475Y-42167D02*
X-33642Y-45000D01*
X-33694Y-44443D02*
X-33050D01*
X-36225Y-41913D02*
X-33694Y-44443D01*
X-36225Y-41913D02*
Y-32550D01*
X-36475Y-42167D02*
Y-32700D01*
X-37750Y-52850D02*
X-37527Y-53074D01*
Y-57269D02*
Y-53074D01*
Y-57269D02*
X-27746Y-67050D01*
X-38250Y-52850D02*
X-37961Y-53139D01*
Y-59989D02*
Y-53139D01*
Y-59989D02*
X-29887Y-68063D01*
X-41750Y-53511D02*
Y-52649D01*
X-42799Y-51600D02*
X-41750Y-52649D01*
X-45725Y-51600D02*
X-42799D01*
X-41750Y-53511D02*
X-39311Y-55950D01*
X-34880Y-78898D02*
Y-67871D01*
X-36283Y-66468D02*
X-34880Y-67871D01*
X-37514Y-66468D02*
X-36283D01*
X-28730Y-87700D02*
Y-83639D01*
X-29887Y-82482D02*
X-28730Y-83639D01*
X-39311Y-64671D02*
X-37514Y-66468D01*
X-39311Y-64671D02*
Y-55950D01*
X-32401Y-84599D02*
Y-66999D01*
X-36250Y-63150D02*
X-32401Y-66999D01*
X-29887Y-82482D02*
Y-68063D01*
X-32401Y-84599D02*
X-29300Y-87700D01*
X-38450Y-42150D02*
X-38313Y-42287D01*
X-34880Y-78898D02*
X-33522Y-80256D01*
Y-85325D02*
Y-80256D01*
Y-85325D02*
X-30618Y-88229D01*
X-21110D01*
X-37775Y-31000D02*
X-36225Y-32550D01*
X-37775Y-31000D02*
Y-30015D01*
X-16850Y-79818D02*
X-14598Y-82070D01*
X-16850Y-79818D02*
Y-73000D01*
X-12150Y-56775D02*
X-11850Y-57075D01*
Y-58400D02*
Y-57075D01*
Y-58400D02*
X-10525Y-59725D01*
X-12610Y-58850D02*
X-11900D01*
X-10900Y-59850D01*
Y-80575D02*
Y-59850D01*
X-21750Y-45025D02*
X-18155Y-41430D01*
X-14598D01*
X-21775Y-44475D02*
X-17450Y-40150D01*
X-13338D01*
X-12058Y-41430D01*
X-21525Y-34675D02*
X-19950Y-36250D01*
X-21525Y-34675D02*
Y-32125D01*
X-21150Y-34475D02*
Y-30015D01*
Y-34475D02*
X-20350Y-35275D01*
X-23224Y-30426D02*
X-21525Y-32125D01*
X-39850Y-30575D02*
X-39425Y-31000D01*
X-39850Y-30575D02*
Y-30015D01*
X-23224Y-30426D02*
Y-30017D01*
X-16425Y-47800D02*
X-13348D01*
X-17200Y-48575D02*
X-16425Y-47800D01*
X-21725Y-48575D02*
X-17200D01*
X-21725Y-49525D02*
X-16175D01*
X-15400Y-50300D01*
X-13425D01*
X-21725Y-49050D02*
X-14598D01*
X-13100Y-18600D02*
Y-18350D01*
X-13975Y-19475D02*
X-13100Y-18600D01*
X-16750Y-19475D02*
X-13975D01*
X-16900Y-19325D02*
X-16750Y-19475D01*
X-9400Y-83150D02*
Y-59225D01*
X-13333Y-75725D02*
X-12058Y-74450D01*
X-16325Y-75725D02*
X-13333D01*
X-2475Y-58300D02*
Y-30800D01*
X-7000Y-62825D02*
X-2475Y-58300D01*
X-8650Y-59728D02*
Y-51575D01*
Y-82400D02*
Y-59728D01*
Y-51575D02*
X-7375Y-50300D01*
X-8650Y-82400D02*
X-7725Y-83325D01*
X-9025Y-58725D02*
Y-51097D01*
Y-82563D02*
Y-58725D01*
Y-51097D02*
X-6978Y-49050D01*
X-9025Y-82563D02*
X-6978Y-84610D01*
X-9400Y-59225D02*
Y-49875D01*
X-7350Y-47825D01*
X-5753D02*
X-4438Y-46510D01*
X-7350Y-47825D02*
X-5753D01*
X-9775Y-61225D02*
Y-45050D01*
Y-78050D02*
Y-61225D01*
Y-45050D02*
X-7350Y-42625D01*
X-10150Y-60800D02*
Y-44602D01*
Y-75925D02*
Y-60800D01*
Y-44602D02*
X-6978Y-41430D01*
X-13348Y-47800D02*
X-12058Y-46510D01*
X-12175Y-49050D02*
X-12058D01*
X-13425Y-50300D02*
X-12175Y-49050D01*
X-2800Y-11100D02*
X-2800Y-11100D01*
Y-12075D02*
Y-11100D01*
X-25301Y-28637D02*
Y-27926D01*
X-27374Y-28637D02*
Y-27874D01*
X-29450Y-28635D02*
Y-28250D01*
X-30625Y-26925D02*
X-29750D01*
X-31525Y-27825D02*
X-30625Y-26925D01*
X-31525Y-28635D02*
Y-27825D01*
X-34350Y-26725D02*
X-32700D01*
X-35682Y-28057D02*
X-34350Y-26725D01*
X-35682Y-28635D02*
Y-28057D01*
X-39850Y-28635D02*
Y-28225D01*
X-41922Y-28635D02*
Y-28072D01*
X-44009Y-28635D02*
Y-28259D01*
X-46097Y-28635D02*
Y-28047D01*
X-33608Y-28635D02*
Y-28022D01*
X-28311Y-22725D01*
X-32700Y-26725D02*
X-28375Y-22400D01*
X-27950D01*
X-32750Y-26250D02*
X-28580Y-22080D01*
X-7350Y-42625D02*
X-5633D01*
X-1750Y-88275D02*
Y-27625D01*
X-4725Y-24650D02*
X-1750Y-27625D01*
X-6275Y-24650D02*
X-4725D01*
X-6467Y-92992D02*
X-1750Y-88275D01*
X-24050Y-19150D02*
X-23725Y-18825D01*
X-25350Y-19150D02*
X-25025Y-18825D01*
X-25025Y-18175D02*
X-24700Y-18500D01*
X-25675Y-18175D02*
X-25350Y-18500D01*
X-31270Y-95532D02*
X-30000Y-94262D01*
Y-92300D01*
X-33810Y-95532D02*
X-32600Y-94322D01*
X-5633Y-42625D02*
X-4438Y-41430D01*
X-7000Y-23925D02*
X-6275Y-24650D01*
X-14400Y-7750D02*
Y-6325D01*
X-4100Y-11100D02*
X-3875Y-10875D01*
Y-9725D01*
X-3225Y-10675D02*
X-2800Y-11100D01*
X-3225Y-10675D02*
Y-9725D01*
X-2575Y-8425D02*
Y-7875D01*
Y-8425D02*
X-1200Y-9800D01*
X-16900Y-22175D02*
X-15425D01*
X-15150Y-8500D02*
X-14400Y-7750D01*
X-28400Y-8850D02*
X-27000D01*
X-28900Y-8350D02*
X-28400Y-8850D01*
X-28900Y-8350D02*
Y-7450D01*
X-25675Y-20775D02*
Y-20775D01*
X-24050Y-16175D02*
X-23875Y-16000D01*
Y-15100D01*
X-30875Y-21425D02*
X-30000D01*
X-23875Y-15100D02*
Y-14525D01*
X-32775Y-20575D02*
Y-20000D01*
X-14417Y-92992D02*
X-6467D01*
X-37675Y-96125D02*
Y-94207D01*
X-8850Y-86482D02*
X-6978Y-84610D01*
X-12610Y-56775D02*
X-12150D01*
X-5725Y-88350D02*
Y-85897D01*
X-4438Y-84610D01*
X-7725Y-83325D02*
X-5723D01*
X-4438Y-84610D01*
X-7375Y-50300D02*
X-5688D01*
X-4438Y-49050D01*
X-5200Y-8600D02*
X-3350D01*
X-3225Y-8475D01*
Y-7875D01*
X-16900Y-96275D02*
Y-93172D01*
X-16625Y-96389D02*
Y-93286D01*
X-16350Y-96503D02*
Y-93400D01*
X-36947Y-97475D02*
X-17322D01*
X-16350Y-96503D01*
X-37675Y-96125D02*
X-36600Y-97200D01*
X-17436D01*
X-16625Y-96389D01*
X-34957Y-96925D02*
X-17550D01*
X-16900Y-96275D01*
X-9350Y-91975D02*
X-5725Y-88350D01*
X-16350Y-93400D02*
X-14925Y-91975D01*
X-9350D01*
X-16625Y-93286D02*
X-15039Y-91700D01*
X-16900Y-93172D02*
X-15153Y-91425D01*
X-31270Y-92992D02*
X-29053Y-90775D01*
X-30000Y-92300D02*
X-28750Y-91050D01*
X-30750Y-89175D02*
X-22375D01*
X-15039Y-91700D02*
X-10900D01*
X-8850Y-89650D01*
Y-86482D01*
X-15153Y-91425D02*
X-11014D01*
X-9400Y-89811D01*
Y-83150D01*
X-28750Y-91050D02*
X-11028D01*
X-9775Y-89797D01*
Y-78050D01*
X-11142Y-90775D02*
X-10150Y-89783D01*
Y-75925D01*
X-11256Y-90500D02*
X-10525Y-89769D01*
X-11370Y-90225D02*
X-10900Y-89755D01*
Y-80575D01*
X-29053Y-90775D02*
X-11142D01*
X-33810Y-92992D02*
X-31043Y-90225D01*
X-11370D01*
X-32600Y-94322D02*
Y-92171D01*
X-30929Y-90500D01*
X-11256D01*
X-29450Y-28250D02*
X-26975Y-25775D01*
Y-24050D01*
X-24125Y-26100D02*
Y-24925D01*
X-25350Y-23700D02*
X-24125Y-24925D01*
X-21715Y-46510D02*
X-17035D01*
X-15750Y-45225D01*
X-10750D01*
Y-40198D01*
X-19075Y-28635D02*
Y-28275D01*
X-19325Y-28025D02*
X-19075Y-28275D01*
X-19325Y-28025D02*
Y-27300D01*
X-21150Y-28825D02*
Y-27850D01*
X-20600Y-27300D01*
X-23224Y-28827D02*
Y-28251D01*
X-23123Y-28150D01*
X-25301Y-27926D02*
X-24675Y-27300D01*
X-23150D01*
X-44009Y-31126D02*
Y-30015D01*
X-48184Y-30691D02*
Y-30015D01*
X-37300Y-42355D02*
Y-33250D01*
X-15400Y-22150D02*
Y-21000D01*
X-14600Y-20200D01*
X-11900D01*
X-38890Y-95532D02*
X-36947Y-97475D01*
X-36350Y-95532D02*
X-34957Y-96925D01*
X-38890Y-92992D02*
X-37675Y-94207D01*
X-10525Y-89769D02*
Y-59725D01*
X-12058Y-38890D02*
X-10750Y-40198D01*
X-48184Y-30691D02*
X-47765Y-31110D01*
X-41922Y-30903D02*
Y-30015D01*
Y-30903D02*
X-41400Y-31425D01*
X-46097Y-30722D02*
Y-30015D01*
X-18050Y-27300D02*
X-17600D01*
X-17000Y-27900D01*
Y-28825D02*
Y-27900D01*
X-23123Y-28150D02*
X-22725D01*
X-21875Y-27300D01*
X-31620Y-21270D02*
X-31125Y-20775D01*
X-50272Y-28635D02*
Y-28297D01*
X-50050Y-28075D01*
X-48575D01*
X-48184Y-28635D02*
Y-28084D01*
X-38450Y-42150D02*
Y-34300D01*
X-41400Y-34850D02*
Y-31425D01*
X-39850Y-28225D02*
X-39350Y-27725D01*
X-41922Y-28072D02*
X-41325Y-27475D01*
X-44009Y-28259D02*
X-42975Y-27225D01*
X-46097Y-28047D02*
X-45025Y-26975D01*
X-48184Y-28084D02*
X-46825Y-26725D01*
X-48575Y-28075D02*
X-46975Y-26475D01*
X-5530Y-35250D02*
X-4430Y-36350D01*
X-9300D02*
X-6970D01*
X-39425Y-31000D02*
X-38175D01*
X-36475Y-32700D01*
X-45275Y-32450D02*
X-44009Y-31184D01*
X-47765Y-31110D02*
X-46815D01*
X-46525Y-31400D01*
Y-33200D02*
Y-31400D01*
Y-33200D02*
X-45900Y-33825D01*
X-44110D01*
X-42735Y-32450D01*
X-49165Y-31100D02*
X-47815Y-32450D01*
X-49875Y-31100D02*
X-49165D01*
X-50272Y-30703D02*
X-49875Y-31100D01*
X-50272Y-30703D02*
Y-29825D01*
X-37775Y-28635D02*
Y-27800D01*
X-36225Y-26250D01*
X-32750D01*
X-46975Y-26475D02*
X-38575D01*
X-35675Y-23575D01*
X-34000D01*
X-38471Y-26725D02*
X-35796Y-24050D01*
X-34000D01*
X-38368Y-26975D02*
X-35918Y-24525D01*
X-34000D01*
X-38264Y-27225D02*
X-36039Y-25000D01*
X-34000D01*
X-38161Y-27475D02*
X-36161Y-25475D01*
X-34000D01*
X-38057Y-27725D02*
X-36257Y-25925D01*
X-46825Y-26725D02*
X-38471D01*
X-45025Y-26975D02*
X-38368D01*
X-42975Y-27225D02*
X-38264D01*
X-41325Y-27475D02*
X-38161D01*
X-39350Y-27725D02*
X-38057D01*
X-36257Y-25925D02*
X-32900D01*
X-31620Y-24645D01*
Y-21270D01*
X-46100Y-30725D02*
X-46097Y-30722D01*
X-29450Y-31618D02*
Y-30015D01*
D46*
X-46225Y-39675D02*
X-41400Y-34850D01*
X-46225Y-52005D02*
Y-39675D01*
X-38313Y-42287D02*
X-37092Y-43508D01*
Y-57072D02*
Y-43508D01*
Y-57072D02*
X-35939Y-58225D01*
X-36750Y-65432D02*
Y-63150D01*
X-32854Y-62711D02*
X-26065Y-69500D01*
X-34200Y-62711D02*
X-32854D01*
X-37750Y-65425D02*
Y-63150D01*
X-37300Y-42355D02*
X-36750Y-42905D01*
Y-52825D02*
Y-42905D01*
X-35939Y-58225D02*
X-34825D01*
X-45182Y-59725D02*
X-43520D01*
X-45200Y-60725D02*
X-43564D01*
X-43364Y-63789D02*
X-43150Y-63575D01*
X-43364Y-70241D02*
Y-63789D01*
Y-70241D02*
X-37392Y-76213D01*
X-45200Y-61725D02*
X-43790Y-63135D01*
Y-70560D02*
Y-63135D01*
Y-70560D02*
X-38133Y-76217D01*
Y-91209D02*
Y-76217D01*
Y-91209D02*
X-36350Y-92992D01*
X-37392Y-82533D02*
Y-76213D01*
Y-82533D02*
X-30750Y-89175D01*
X-39708Y-66017D02*
Y-56192D01*
Y-66017D02*
X-36225Y-69500D01*
X-31575Y-18525D02*
X-31200Y-18900D01*
X-31575Y-18525D02*
Y-18225D01*
X-32125Y-17675D02*
X-31575Y-18225D01*
X-38600Y-3500D02*
X-38568D01*
X-36800Y-4914D02*
Y-3300D01*
X-38600Y-1500D02*
X-36800Y-3300D01*
X-24375Y-22725D02*
X-24050Y-22400D01*
X-14600Y-25250D02*
X-14000Y-25850D01*
X-14600Y-28728D02*
X-14598Y-28730D01*
X-14600Y-28728D02*
Y-26500D01*
X-13400Y-25250D02*
X-12500D01*
X-25025Y-22725D02*
X-24700Y-23050D01*
X-28311Y-22725D02*
X-27725D01*
X-27603Y-22603D01*
X-29050Y-21750D02*
X-27950D01*
X-29350Y-22050D02*
X-29050Y-21750D01*
X-28580Y-22080D02*
X-27830D01*
X-27625Y-21875D02*
Y-21550D01*
X-27830Y-22080D02*
X-27625Y-21875D01*
X-27847Y-21425D02*
X-27647Y-21225D01*
X-27500Y-21425D02*
X-27075D01*
X-27625Y-21550D02*
X-27500Y-21425D01*
X-27647Y-21222D02*
X-27525Y-21100D01*
X-27647Y-21225D02*
Y-21222D01*
X-26953Y-20975D02*
X-26775Y-20798D01*
X-26953Y-21303D02*
Y-20975D01*
X-26975Y-20650D02*
Y-20302D01*
X-27100Y-20775D02*
X-26975Y-20650D01*
X-26775Y-20798D02*
X-26472D01*
X-26347Y-20347D02*
X-26125Y-20125D01*
X-26347Y-20673D02*
Y-20347D01*
X-26472Y-20798D02*
X-26347Y-20673D01*
X-27075Y-21425D02*
X-26953Y-21303D01*
X-26125Y-20125D02*
X-25675D01*
X-2100Y-59412D02*
Y-27725D01*
X-4000Y-25825D02*
X-2100Y-27725D01*
X-6375Y-25825D02*
X-4000D01*
X-25350Y-17850D02*
Y-16975D01*
X-25975Y-16350D02*
X-25350Y-16975D01*
X-25975Y-16350D02*
Y-16000D01*
X-23075Y-22075D02*
X-22750Y-21750D01*
X-26325Y-21425D02*
X-26000Y-21100D01*
X-5800Y-23925D02*
X-4900D01*
X-7375Y-23550D02*
X-7000Y-23925D01*
X-17000Y-15600D02*
X-16062Y-16538D01*
X-1250Y-8550D02*
X-1200Y-8600D01*
X-26500Y-25500D02*
X-25850D01*
X-24900D02*
Y-24900D01*
X-24050Y-18500D02*
Y-17850D01*
X-30875Y-22375D02*
X-30000D01*
X-41600Y-1500D02*
X-40500D01*
X-22750Y-23050D02*
X-22420Y-23380D01*
X-19325Y-21300D02*
X-18675D01*
X-20875Y-15600D02*
X-17000D01*
X-11800Y-16100D02*
X-11100D01*
X-11450Y-13350D02*
Y-12650D01*
X-13450Y-15950D02*
X-11950D01*
X-8200Y-24000D02*
X-7000Y-25200D01*
X-25025Y-20775D02*
X-24700Y-20450D01*
X-25350Y-21100D02*
X-25025Y-20775D01*
X-24700Y-21100D02*
X-24375Y-20775D01*
X-25675Y-20775D02*
X-25350Y-20450D01*
X-23400Y-19150D02*
X-23075Y-18825D01*
X-23075D01*
X-21400Y-17300D02*
X-20300Y-16200D01*
X-22100Y-17850D02*
X-21750Y-17500D01*
Y-16475D01*
X-20875Y-15600D01*
X-22750Y-17850D02*
X-22425Y-17525D01*
X-22425D01*
X-23725Y-22075D02*
X-23400Y-22400D01*
X-27625Y-18825D02*
X-27300Y-19150D01*
X-26975Y-19475D02*
X-26650Y-19800D01*
X-26975Y-18825D02*
X-26650Y-19150D01*
X-26975Y-18175D02*
X-26650Y-18500D01*
X-24050Y-17850D02*
Y-16175D01*
X-24700Y-17850D02*
Y-16325D01*
X-25025Y-16000D02*
X-24700Y-16325D01*
X-22425Y-17525D02*
Y-16500D01*
X-22925Y-16000D02*
X-22425Y-16500D01*
X-22925Y-16000D02*
Y-15100D01*
X-25025Y-16000D02*
Y-15100D01*
X-25975Y-16000D02*
Y-15100D01*
X-22750Y-21100D02*
Y-20450D01*
X-22100Y-21100D02*
X-21800Y-20800D01*
X-20400Y-21425D02*
X-20275Y-21300D01*
X-23400Y-19800D02*
X-23075Y-20125D01*
X-19925D02*
X-18800Y-19000D01*
Y-18425D01*
X-21475Y-19200D02*
X-20300D01*
X-18800Y-18425D02*
X-17800Y-17425D01*
X-16925D01*
X-16900Y-17400D01*
X-25675Y-23375D02*
X-25350Y-23050D01*
X-25850Y-26400D02*
Y-25500D01*
X-24900Y-26400D02*
Y-25500D01*
X-5800Y-26500D02*
X-4900D01*
X-5800Y-25200D02*
X-4900D01*
X-7000Y-26500D02*
X-6978Y-26522D01*
X-41600Y-3500D02*
X-40600Y-4500D01*
X-41600Y-7500D02*
X-40100Y-9000D01*
X-2575Y-9725D02*
Y-9025D01*
X-2800Y-8800D02*
X-2575Y-9025D01*
X-3875Y-7875D02*
Y-7100D01*
X-3875Y-7100D01*
X-1600Y-11100D02*
X-900D01*
X-18025Y-20450D02*
X-16900Y-19325D01*
X-18275Y-20800D02*
X-16900Y-22175D01*
Y-21225D02*
Y-20275D01*
X-16325D01*
X-16325Y-20275D01*
X-16900Y-21225D02*
X-16325D01*
X-17775Y-18400D02*
X-16900D01*
X-17800Y-18375D02*
X-17775Y-18400D01*
X-17800Y-19025D02*
Y-18375D01*
X-17125Y-8500D02*
X-16350D01*
X-7000Y-25200D02*
X-6375Y-25825D01*
X-23725Y-20125D02*
X-23400Y-20450D01*
X-22751Y-19174D02*
X-22448Y-19476D01*
X-21751D01*
X-21475Y-19200D01*
X-22100Y-20450D02*
X-18025D01*
X-21800Y-20800D02*
X-18275D01*
X-23075Y-20125D02*
X-19925D01*
X-22750Y-21100D02*
X-22425Y-21425D01*
X-22750Y-22400D02*
X-22425Y-22725D01*
X-24375Y-21425D02*
X-24050Y-21100D01*
X-32800Y-18900D02*
X-32150D01*
X-23400Y-18500D02*
X-23097Y-18198D01*
X-23625Y-17625D02*
X-23400Y-17850D01*
X-23625Y-17625D02*
Y-17225D01*
X-23097Y-18198D02*
Y-17228D01*
X-9200Y-24300D02*
X-7000Y-26500D01*
X-25675Y-20125D02*
X-25350Y-19800D01*
X-26325Y-21950D02*
Y-21425D01*
X-26776Y-22051D02*
X-26775Y-22052D01*
X-26427D02*
X-26325Y-21950D01*
X-26775Y-22052D02*
X-26427D01*
X-26975Y-22250D02*
X-26776Y-22051D01*
X-26975Y-24050D02*
Y-22250D01*
X-26650Y-22400D02*
X-26325Y-22725D01*
X-26650Y-23050D02*
X-26325Y-23375D01*
X-24050Y-20450D02*
X-23725Y-20775D01*
Y-21425D02*
X-23400Y-21100D01*
X-26975Y-20302D02*
X-26775Y-20103D01*
X-26525D01*
X-26222Y-19800D01*
X-26000D01*
X-27625Y-18175D02*
X-27300Y-18500D01*
X-26975Y-18175D02*
Y-17700D01*
X-29750Y-24850D02*
X-27950Y-23050D01*
X-27300Y-21950D02*
Y-21750D01*
X-27603Y-22603D02*
Y-22253D01*
X-27300Y-21950D01*
X-27525Y-21100D02*
X-27300D01*
X-27625Y-20125D02*
X-27300Y-20450D01*
X-30875Y-23000D02*
Y-22375D01*
X-23250Y-5675D02*
Y-5652D01*
X-19075Y-5375D02*
X-17850D01*
X-17600Y-5125D01*
X-11350D01*
X-10800Y-5675D01*
X-24900Y-26875D02*
Y-26400D01*
X-13400Y-26500D02*
X-12500D01*
X-3125Y-30150D02*
X-2475Y-30800D01*
X-14000Y-25850D02*
X-12525D01*
X-8225Y-30150D01*
X-3125D01*
X-22402Y-18175D02*
X-21875D01*
X-21400Y-17700D01*
Y-17300D01*
X-29750Y-25725D02*
Y-24850D01*
X-40600Y-4500D02*
X-37921D01*
X-38600Y-5500D02*
X-37257D01*
X-41600D02*
X-40700Y-6400D01*
X-36675D01*
X-22425Y-21425D02*
X-21100D01*
X-20400D01*
X-24050Y-23050D02*
X-23703Y-23397D01*
X-24375Y-24050D02*
Y-22725D01*
X-25675Y-25300D02*
Y-23375D01*
X-10500Y-11450D02*
X-10475Y-11425D01*
X-11450Y-11450D02*
X-10500D01*
X-16164Y-24300D02*
X-9200D01*
X-16145Y-24000D02*
X-8200D01*
X-16277Y-23550D02*
X-7375D01*
X-23703Y-23928D02*
Y-23397D01*
X-22425Y-22725D02*
X-17102D01*
X-16277Y-23550D01*
X-16765Y-23380D02*
X-16145Y-24000D01*
X-22420Y-23380D02*
X-16765D01*
X-16764Y-23700D02*
X-16164Y-24300D01*
X-22100Y-23700D02*
X-16764D01*
X-18050Y-26100D02*
Y-25125D01*
X-19325Y-26100D02*
Y-25125D01*
X-20600Y-26100D02*
Y-25125D01*
X-21875Y-26100D02*
Y-25125D01*
X-23150Y-26100D02*
Y-25125D01*
X-24375Y-24050D02*
X-24050Y-24375D01*
X-16725D01*
X-14600Y-26500D01*
X-23703Y-23928D02*
X-23505Y-24125D01*
X-16657D01*
X-15532Y-25250D01*
X-14600D01*
X-29725Y-25700D02*
X-28500D01*
X-29750Y-25725D02*
X-29725Y-25700D01*
X-19075Y-5375D02*
Y-4150D01*
X-21200Y-4200D02*
X-21175Y-6325D01*
X-18325Y-12300D02*
X-17100D01*
X-13100Y-18350D02*
X-11875D01*
X-2100Y-5500D02*
X-1250Y-6350D01*
Y-8550D02*
Y-6350D01*
X-2575Y-7875D02*
Y-6650D01*
X-4500Y-5500D02*
X-2100D01*
X-7600Y-9400D02*
Y-8800D01*
Y-9400D02*
X-5900Y-11100D01*
X-5300D01*
X-6200Y-8800D02*
X-5400D01*
X-5200Y-8600D01*
X-31200Y-6425D02*
Y-5200D01*
X-4100Y-12000D02*
Y-11100D01*
X-25025Y-15100D02*
Y-14200D01*
X-17800Y-17425D02*
Y-16525D01*
X-38600Y-7500D02*
X-36500D01*
X-33600Y-10400D01*
X-27000Y-9750D02*
Y-8850D01*
X-22100Y-19150D02*
X-21900D01*
X-20950Y-18200D01*
X-20300D01*
X-19600Y-18200D02*
X-19600Y-18200D01*
X-19700Y-18200D02*
X-19600D01*
X-22100Y-18500D02*
X-21775D01*
X-20675Y-17400D01*
X-20300Y-17200D02*
X-20100Y-17400D01*
X-19200D01*
X-19600Y-18200D02*
X-19600D01*
X-26325Y-24151D02*
Y-23375D01*
X-6978Y-64290D02*
X-2100Y-59412D01*
X-6978Y-28730D02*
Y-26522D01*
X-20300Y-18200D02*
X-19600D01*
X-20675Y-17400D02*
X-20100D01*
X-22751Y-18524D02*
X-22402Y-18175D01*
X-30000Y-21425D02*
X-27847D01*
X-26000Y-1500D02*
X-25000D01*
X-28750Y-17850D02*
X-27950D01*
X-30600Y-16000D02*
X-28750Y-17850D01*
X-34900Y-16000D02*
Y-14850D01*
X-28600Y-17475D02*
X-27200D01*
X-26975Y-17700D01*
X-36675Y-6400D02*
X-31700Y-11375D01*
X-30800Y-15275D02*
X-28600Y-17475D01*
X-30800Y-15275D02*
Y-10914D01*
X-37257Y-5500D02*
X-31475Y-11282D01*
X-37921Y-4500D02*
X-31250Y-11171D01*
X-38568Y-3500D02*
X-31025Y-11043D01*
X-36800Y-4914D02*
X-30800Y-10914D01*
X-40100Y-9000D02*
X-38300D01*
X-31925Y-15375D01*
X-31125Y-20775D02*
X-27100D01*
X-32150Y-17650D02*
X-32125Y-17675D01*
X-31375Y-20000D02*
Y-19075D01*
X-31200Y-18900D01*
X-31375Y-20125D02*
X-27625D01*
X-31925Y-16450D02*
Y-15375D01*
Y-16450D02*
X-28900Y-19475D01*
X-26975D01*
X-31700Y-16357D02*
X-28907Y-19150D01*
X-27950D01*
X-31475Y-16264D02*
Y-11282D01*
Y-16264D02*
X-28914Y-18825D01*
X-27625D01*
X-31250Y-16170D02*
X-28920Y-18500D01*
X-27950D01*
X-28927Y-18175D02*
X-27625D01*
X-31025Y-16077D02*
X-28927Y-18175D01*
X-31700Y-16357D02*
Y-11375D01*
X-31250Y-16170D02*
Y-11171D01*
X-31025Y-16077D02*
Y-11043D01*
X-34900Y-16000D02*
X-33050D01*
X-47725Y-54225D02*
X-45200D01*
X-49150Y-55650D02*
X-47725Y-54225D01*
X-45570Y-61225D02*
X-45200D01*
X-45795Y-61450D02*
X-45570Y-61225D01*
X-49150Y-61450D02*
X-45795D01*
X-43520Y-59725D02*
X-43285Y-59490D01*
Y-54945D01*
X-46225Y-52005D02*
X-43285Y-54945D01*
X-43564Y-60725D02*
X-42566Y-59726D01*
Y-53734D01*
X-44150Y-52150D02*
X-42566Y-53734D01*
X-43200Y-52700D02*
X-39708Y-56192D01*
X-43200Y-52700D02*
Y-52225D01*
D48*
X-14400Y-6325D02*
X-11650D01*
X-21175D02*
X-14400D01*
X-11650D02*
X-11225Y-6750D01*
X-24874Y-5675D02*
X-23274D01*
X-24900Y-5701D02*
X-24874Y-5675D01*
X-25201Y-5550D02*
X-25100Y-5652D01*
X-26500Y-5550D02*
X-25201D01*
X-27350Y-5850D02*
X-27050Y-5550D01*
X-26679D01*
X-27350Y-7150D02*
Y-5850D01*
Y-7150D02*
X-27050Y-7450D01*
X-26500D01*
X-17100Y-11100D02*
Y-10500D01*
X-15550D01*
X-6978Y-16030D02*
X-5700Y-14752D01*
X-15550Y-10500D02*
X-7600D01*
X-5700Y-12400D01*
Y-14752D02*
Y-12400D01*
X-32400Y-5200D02*
Y-4500D01*
X-33200Y-5200D02*
X-32400D01*
Y-5900D02*
Y-5200D01*
X-32400Y-7700D02*
Y-6900D01*
X-32400Y-6900D02*
X-32400Y-6900D01*
Y-8500D02*
Y-7700D01*
X-32400Y-8500D02*
X-32400Y-8500D01*
X-33300Y-7700D02*
X-32400D01*
X-21900Y-10500D02*
X-17100D01*
X-22975Y-9425D02*
X-21900Y-10500D01*
X-23250Y-5675D02*
X-22975Y-5950D01*
X-22950Y-7275D02*
X-19075D01*
X-22975Y-9425D02*
Y-5950D01*
D49*
X-13450Y-14050D02*
Y-11450D01*
X-15550Y-15000D02*
Y-12400D01*
X-15650Y-12300D02*
X-15550Y-12400D01*
X-17100Y-12300D02*
X-15650D01*
X-5200Y-9800D02*
X-4550D01*
X-4550Y-9800D01*
X-13450Y-14700D02*
X-13250Y-14900D01*
X-13450Y-14700D02*
Y-14050D01*
X-13250Y-14900D02*
X-11800D01*
X-33000Y-1500D02*
X-31800D01*
X-36925Y-16000D02*
X-36100D01*
X-36925Y-14850D02*
X-36100D01*
X-21150Y-29825D02*
Y-28925D01*
X-23224Y-29827D02*
Y-28927D01*
X-37775Y-29825D02*
Y-28925D01*
X-17000Y-29825D02*
Y-28925D01*
X-39850Y-29825D02*
Y-28925D01*
X-25301Y-29827D02*
Y-28927D01*
X-31525Y-29825D02*
Y-28925D01*
X-35682Y-29825D02*
Y-28925D01*
X-33608Y-29825D02*
Y-28925D01*
X-29450Y-29825D02*
Y-28925D01*
X-27374Y-29827D02*
Y-28927D01*
X-41922Y-29825D02*
Y-28925D01*
X-48184Y-29825D02*
Y-28925D01*
X-46097Y-29825D02*
Y-28925D01*
X-50272Y-29825D02*
Y-28925D01*
X-44009Y-29825D02*
Y-28925D01*
X-13700Y-56775D02*
X-12800D01*
X-13700Y-58850D02*
X-12800D01*
X-19075Y-29825D02*
Y-28925D01*
D62*
X-2350Y-2350D02*
D03*
X-57650D02*
D03*
X-2350Y-97650D02*
D03*
X-57650D02*
D03*
D63*
X-18570Y-93030D02*
D03*
D64*
X-41430Y-95570D02*
D03*
X-31270Y-93030D02*
D03*
Y-95570D02*
D03*
X-33810D02*
D03*
Y-93030D02*
D03*
X-36350Y-95570D02*
D03*
Y-93030D02*
D03*
X-38890Y-95570D02*
D03*
Y-93030D02*
D03*
X-41430D02*
D03*
X-28730D02*
D03*
X-26190D02*
D03*
Y-95570D02*
D03*
X-23650Y-93030D02*
D03*
Y-95570D02*
D03*
X-21110Y-93030D02*
D03*
Y-95570D02*
D03*
X-18570D02*
D03*
X-28730D02*
D03*
X-4430Y-87150D02*
D03*
X-6970Y-76990D02*
D03*
X-4430D02*
D03*
Y-79530D02*
D03*
X-6970D02*
D03*
X-4430Y-82070D02*
D03*
X-6970D02*
D03*
X-4430Y-84610D02*
D03*
X-6970D02*
D03*
Y-87150D02*
D03*
Y-74450D02*
D03*
Y-71910D02*
D03*
X-4430D02*
D03*
X-6970Y-69370D02*
D03*
X-4430D02*
D03*
X-6970Y-66830D02*
D03*
X-4430D02*
D03*
Y-64290D02*
D03*
Y-74450D02*
D03*
X-14590D02*
D03*
X-12050D02*
D03*
X-14590Y-71910D02*
D03*
X-12050D02*
D03*
X-14590Y-69370D02*
D03*
X-12050D02*
D03*
X-14590Y-66830D02*
D03*
X-12050D02*
D03*
Y-64290D02*
D03*
Y-76990D02*
D03*
Y-79530D02*
D03*
X-14590D02*
D03*
X-12050Y-82070D02*
D03*
X-14590D02*
D03*
X-12050Y-84610D02*
D03*
X-14590D02*
D03*
X-12050Y-87150D02*
D03*
X-14590D02*
D03*
Y-76990D02*
D03*
X-45275Y-32450D02*
D03*
X-42735D02*
D03*
X-40195D02*
D03*
X-47815D02*
D03*
X-50355D02*
D03*
X-31145Y-69500D02*
D03*
X-28605D02*
D03*
X-33685D02*
D03*
X-36225D02*
D03*
X-26065D02*
D03*
X-23525D02*
D03*
X-38730Y-10950D02*
D03*
X-41270D02*
D03*
X-4430Y-51590D02*
D03*
X-6970Y-41430D02*
D03*
X-4430D02*
D03*
Y-43970D02*
D03*
X-6970D02*
D03*
X-4430Y-46510D02*
D03*
X-6970D02*
D03*
X-4430Y-49050D02*
D03*
X-6970D02*
D03*
Y-51590D02*
D03*
Y-38890D02*
D03*
Y-36350D02*
D03*
X-4430D02*
D03*
X-6970Y-33810D02*
D03*
X-4430D02*
D03*
X-6970Y-31270D02*
D03*
X-4430D02*
D03*
Y-28730D02*
D03*
Y-38890D02*
D03*
X-14590Y-38890D02*
D03*
X-12050D02*
D03*
X-14590Y-36350D02*
D03*
X-12050D02*
D03*
X-14590Y-33810D02*
D03*
X-12050D02*
D03*
X-14590Y-31270D02*
D03*
X-12050D02*
D03*
Y-28730D02*
D03*
Y-41430D02*
D03*
Y-43970D02*
D03*
X-14590D02*
D03*
X-12050Y-46510D02*
D03*
X-14590D02*
D03*
X-12050Y-49050D02*
D03*
X-14590D02*
D03*
X-12050Y-51590D02*
D03*
X-14590D02*
D03*
Y-41430D02*
D03*
X-6970Y-16030D02*
D03*
X-4430D02*
D03*
Y-13490D02*
D03*
D65*
X-6970Y-64290D02*
D03*
X-14590D02*
D03*
X-6970Y-28730D02*
D03*
X-14590Y-28730D02*
D03*
X-6970Y-13490D02*
D03*
D66*
X-26000Y-1500D02*
D03*
X-41600D02*
D03*
X-38600D02*
D03*
X-41600Y-3500D02*
D03*
Y-5500D02*
D03*
X-38600D02*
D03*
X-41600Y-7500D02*
D03*
X-38600Y-3500D02*
D03*
Y-7500D02*
D03*
X-33000Y-1500D02*
D03*
X-29750Y-84625D02*
D03*
D67*
X-55245Y-71280D02*
D03*
X-52705Y-68740D02*
D03*
X-57785Y-73820D02*
D03*
X-52705D02*
D03*
X-57785Y-68740D02*
D03*
D68*
X-29471Y-67146D02*
D03*
X-58069Y-39745D02*
D03*
X-55894Y-39785D02*
D03*
X-53068D02*
D03*
X-53214Y-41085D02*
D03*
X-55124Y-40913D02*
D03*
X-57140Y-40939D02*
D03*
X-54305Y-66481D02*
D03*
X-54369Y-64643D02*
D03*
X-53301Y-63490D02*
D03*
X-51101Y-61118D02*
D03*
X-56441Y-63233D02*
D03*
X-56057Y-64729D02*
D03*
X-55334Y-62761D02*
D03*
X-54036Y-61564D02*
D03*
X-48402Y-59701D02*
D03*
X-48328Y-57812D02*
D03*
X-59250Y-40939D02*
D03*
X-50013Y-45200D02*
D03*
X-50095Y-43842D02*
D03*
X-50062Y-41106D02*
D03*
X-53122Y-42514D02*
D03*
X-54109Y-53442D02*
D03*
X-55647Y-51888D02*
D03*
X-57024Y-50329D02*
D03*
X-52523Y-54996D02*
D03*
X-56106Y-54078D02*
D03*
X-54448Y-55770D02*
D03*
X-57817Y-52390D02*
D03*
X-59250Y-53430D02*
D03*
Y-51930D02*
D03*
Y-50430D02*
D03*
Y-48930D02*
D03*
Y-47430D02*
D03*
Y-45930D02*
D03*
X-1080Y-4480D02*
D03*
Y-12480D02*
D03*
X-2080Y-14480D02*
D03*
X-1080Y-16480D02*
D03*
X-2080Y-18480D02*
D03*
X-1080Y-20480D02*
D03*
X-2080Y-22480D02*
D03*
X-1080Y-24480D02*
D03*
X-2080Y-26480D02*
D03*
X-1080Y-28480D02*
D03*
Y-32480D02*
D03*
Y-36480D02*
D03*
Y-40480D02*
D03*
Y-44480D02*
D03*
Y-48480D02*
D03*
Y-52480D02*
D03*
Y-56480D02*
D03*
Y-60480D02*
D03*
Y-64480D02*
D03*
Y-68480D02*
D03*
Y-72480D02*
D03*
Y-76480D02*
D03*
Y-80480D02*
D03*
Y-84480D02*
D03*
Y-88480D02*
D03*
X-2080Y-90480D02*
D03*
X-1080Y-92480D02*
D03*
X-2080Y-94480D02*
D03*
X-4080Y-6480D02*
D03*
X-3080Y-16480D02*
D03*
X-4080Y-18480D02*
D03*
X-3080Y-20480D02*
D03*
X-4080Y-22480D02*
D03*
X-3080Y-24480D02*
D03*
Y-28480D02*
D03*
Y-32480D02*
D03*
Y-36480D02*
D03*
X-4080Y-54480D02*
D03*
Y-62480D02*
D03*
X-3080Y-64480D02*
D03*
Y-68480D02*
D03*
Y-72480D02*
D03*
Y-76480D02*
D03*
Y-80480D02*
D03*
Y-84480D02*
D03*
Y-88480D02*
D03*
Y-92480D02*
D03*
X-4080Y-94480D02*
D03*
X-6080Y-6480D02*
D03*
Y-18480D02*
D03*
X-5080Y-20480D02*
D03*
X-6080Y-22480D02*
D03*
Y-54480D02*
D03*
X-5080Y-56480D02*
D03*
X-6080Y-58480D02*
D03*
Y-70480D02*
D03*
X-5080Y-88480D02*
D03*
X-6080Y-90480D02*
D03*
X-5080Y-92480D02*
D03*
X-6080Y-94480D02*
D03*
X-5080Y-96480D02*
D03*
X-6080Y-98480D02*
D03*
X-8080Y-6480D02*
D03*
Y-18480D02*
D03*
X-7080Y-20480D02*
D03*
X-8080Y-22480D02*
D03*
Y-26480D02*
D03*
Y-34480D02*
D03*
Y-54480D02*
D03*
X-7080Y-56480D02*
D03*
X-8080Y-58480D02*
D03*
Y-70480D02*
D03*
X-7080Y-88480D02*
D03*
X-8080Y-94480D02*
D03*
X-7080Y-96480D02*
D03*
X-8080Y-98480D02*
D03*
X-9080Y-8480D02*
D03*
X-10080Y-14480D02*
D03*
X-9080Y-16480D02*
D03*
X-10080Y-18480D02*
D03*
X-9080Y-20480D02*
D03*
X-10080Y-22480D02*
D03*
Y-26480D02*
D03*
X-9080Y-28480D02*
D03*
X-10080Y-34480D02*
D03*
X-9080Y-48480D02*
D03*
X-10080Y-94480D02*
D03*
X-9080Y-96480D02*
D03*
X-10080Y-98480D02*
D03*
X-11080Y-20480D02*
D03*
Y-52480D02*
D03*
X-12080Y-54480D02*
D03*
X-11080Y-56480D02*
D03*
X-12080Y-94480D02*
D03*
X-11080Y-96480D02*
D03*
X-12080Y-98480D02*
D03*
X-13080Y-52480D02*
D03*
X-14080Y-54480D02*
D03*
Y-62480D02*
D03*
X-13080Y-68480D02*
D03*
Y-88480D02*
D03*
X-14080Y-94480D02*
D03*
X-13080Y-96480D02*
D03*
X-14080Y-98480D02*
D03*
X-15080Y-16480D02*
D03*
X-16080Y-26480D02*
D03*
Y-34480D02*
D03*
Y-38480D02*
D03*
Y-42480D02*
D03*
Y-46480D02*
D03*
Y-50480D02*
D03*
Y-54480D02*
D03*
Y-62480D02*
D03*
Y-66480D02*
D03*
Y-70480D02*
D03*
Y-82480D02*
D03*
Y-86480D02*
D03*
X-15080Y-88480D02*
D03*
Y-96480D02*
D03*
X-16080Y-98480D02*
D03*
X-18080Y-34480D02*
D03*
Y-42480D02*
D03*
Y-50480D02*
D03*
Y-62480D02*
D03*
X-17080Y-64480D02*
D03*
X-18080Y-66480D02*
D03*
X-17080Y-68480D02*
D03*
X-18080Y-70480D02*
D03*
Y-74480D02*
D03*
Y-78480D02*
D03*
X-17080Y-80480D02*
D03*
X-18080Y-82480D02*
D03*
X-17080Y-84480D02*
D03*
X-18080Y-86480D02*
D03*
X-17080Y-88480D02*
D03*
X-18080Y-98480D02*
D03*
X-19080Y-8480D02*
D03*
X-20080Y-14480D02*
D03*
X-19080Y-40480D02*
D03*
Y-44480D02*
D03*
Y-52480D02*
D03*
Y-56480D02*
D03*
X-20080Y-62480D02*
D03*
X-19080Y-64480D02*
D03*
X-20080Y-66480D02*
D03*
X-19080Y-68480D02*
D03*
Y-72480D02*
D03*
X-20080Y-74480D02*
D03*
X-19080Y-76480D02*
D03*
X-20080Y-78480D02*
D03*
X-19080Y-80480D02*
D03*
X-20080Y-82480D02*
D03*
X-19080Y-84480D02*
D03*
X-20080Y-86480D02*
D03*
X-19080Y-88480D02*
D03*
X-20080Y-94480D02*
D03*
Y-98480D02*
D03*
X-22080Y-2480D02*
D03*
X-21080Y-12480D02*
D03*
X-22080Y-14480D02*
D03*
Y-30480D02*
D03*
X-21080Y-36480D02*
D03*
X-22080Y-38480D02*
D03*
Y-50480D02*
D03*
X-21080Y-56480D02*
D03*
X-22080Y-62480D02*
D03*
X-21080Y-64480D02*
D03*
X-22080Y-66480D02*
D03*
Y-70480D02*
D03*
X-21080Y-72480D02*
D03*
X-22080Y-74480D02*
D03*
X-21080Y-76480D02*
D03*
X-22080Y-78480D02*
D03*
X-21080Y-80480D02*
D03*
Y-84480D02*
D03*
X-22080Y-86480D02*
D03*
Y-98480D02*
D03*
X-23080Y-32480D02*
D03*
X-24080Y-34480D02*
D03*
X-23080Y-36480D02*
D03*
X-24080Y-38480D02*
D03*
X-23080Y-40480D02*
D03*
X-24080Y-42480D02*
D03*
Y-50480D02*
D03*
X-23080Y-56480D02*
D03*
X-24080Y-62480D02*
D03*
X-23080Y-64480D02*
D03*
Y-72480D02*
D03*
X-24080Y-74480D02*
D03*
X-23080Y-76480D02*
D03*
X-24080Y-78480D02*
D03*
Y-98480D02*
D03*
X-26080Y-10480D02*
D03*
X-25080Y-12480D02*
D03*
Y-32480D02*
D03*
X-26080Y-34480D02*
D03*
X-25080Y-40480D02*
D03*
X-26080Y-42480D02*
D03*
Y-50480D02*
D03*
X-25080Y-56480D02*
D03*
X-26080Y-62480D02*
D03*
X-25080Y-64480D02*
D03*
X-26080Y-74480D02*
D03*
Y-78480D02*
D03*
Y-86480D02*
D03*
X-25080Y-92480D02*
D03*
X-26080Y-98480D02*
D03*
X-28080Y-10480D02*
D03*
X-27080Y-12480D02*
D03*
X-28080Y-14480D02*
D03*
X-27080Y-36480D02*
D03*
Y-40480D02*
D03*
Y-72480D02*
D03*
X-28080Y-74480D02*
D03*
X-27080Y-76480D02*
D03*
X-28080Y-78480D02*
D03*
Y-86480D02*
D03*
Y-94480D02*
D03*
Y-98480D02*
D03*
X-30080Y-14480D02*
D03*
Y-30480D02*
D03*
X-29080Y-72480D02*
D03*
Y-76480D02*
D03*
X-30080Y-98480D02*
D03*
X-32080Y-42480D02*
D03*
Y-50480D02*
D03*
X-31080Y-72480D02*
D03*
Y-76480D02*
D03*
Y-80480D02*
D03*
X-32080Y-94480D02*
D03*
Y-98480D02*
D03*
X-34080Y-18480D02*
D03*
Y-22480D02*
D03*
Y-30480D02*
D03*
Y-34480D02*
D03*
X-33080Y-36480D02*
D03*
Y-40480D02*
D03*
X-34080Y-42480D02*
D03*
X-33080Y-48480D02*
D03*
X-34080Y-50480D02*
D03*
X-33080Y-72480D02*
D03*
X-34080Y-74480D02*
D03*
X-33080Y-76480D02*
D03*
X-34080Y-78480D02*
D03*
Y-90480D02*
D03*
Y-98480D02*
D03*
X-36080Y-2480D02*
D03*
X-35080Y-4480D02*
D03*
X-36080Y-10480D02*
D03*
X-35080Y-36480D02*
D03*
Y-40480D02*
D03*
Y-44480D02*
D03*
Y-48480D02*
D03*
X-36080Y-50480D02*
D03*
Y-74480D02*
D03*
Y-78480D02*
D03*
Y-82480D02*
D03*
Y-86480D02*
D03*
X-35080Y-88480D02*
D03*
X-36080Y-90480D02*
D03*
X-35080Y-92480D02*
D03*
X-36080Y-98480D02*
D03*
X-37080Y-8480D02*
D03*
Y-12480D02*
D03*
X-38080Y-14480D02*
D03*
Y-70480D02*
D03*
X-37080Y-72480D02*
D03*
X-38080Y-74480D02*
D03*
X-37080Y-84480D02*
D03*
Y-88480D02*
D03*
X-38080Y-98480D02*
D03*
X-40080Y-2480D02*
D03*
X-39080Y-12480D02*
D03*
X-40080Y-14480D02*
D03*
X-39080Y-16480D02*
D03*
X-40080Y-18480D02*
D03*
X-39080Y-20480D02*
D03*
X-40080Y-22480D02*
D03*
X-39080Y-24480D02*
D03*
X-40080Y-34480D02*
D03*
X-39080Y-36480D02*
D03*
Y-40480D02*
D03*
X-40080Y-42480D02*
D03*
X-39080Y-44480D02*
D03*
X-40080Y-66480D02*
D03*
X-39080Y-68480D02*
D03*
X-40080Y-70480D02*
D03*
X-39080Y-72480D02*
D03*
Y-76480D02*
D03*
X-40080Y-78480D02*
D03*
X-39080Y-80480D02*
D03*
X-40080Y-82480D02*
D03*
X-39080Y-84480D02*
D03*
X-40080Y-86480D02*
D03*
X-39080Y-88480D02*
D03*
X-40080Y-90480D02*
D03*
Y-94480D02*
D03*
Y-98480D02*
D03*
X-41080Y-12480D02*
D03*
X-42080Y-14480D02*
D03*
X-41080Y-16480D02*
D03*
X-42080Y-18480D02*
D03*
X-41080Y-20480D02*
D03*
X-42080Y-22480D02*
D03*
X-41080Y-24480D02*
D03*
X-42080Y-34480D02*
D03*
X-41080Y-36480D02*
D03*
Y-40480D02*
D03*
X-42080Y-42480D02*
D03*
X-41080Y-44480D02*
D03*
Y-68480D02*
D03*
X-42080Y-70480D02*
D03*
Y-74480D02*
D03*
X-41080Y-76480D02*
D03*
X-42080Y-78480D02*
D03*
X-41080Y-80480D02*
D03*
X-42080Y-82480D02*
D03*
X-41080Y-84480D02*
D03*
X-42080Y-86480D02*
D03*
X-41080Y-88480D02*
D03*
X-42080Y-90480D02*
D03*
Y-94480D02*
D03*
Y-98480D02*
D03*
X-44080Y-2480D02*
D03*
X-43080Y-4480D02*
D03*
X-44080Y-6480D02*
D03*
X-43080Y-8480D02*
D03*
X-44080Y-10480D02*
D03*
X-43080Y-12480D02*
D03*
X-44080Y-14480D02*
D03*
X-43080Y-16480D02*
D03*
X-44080Y-18480D02*
D03*
X-43080Y-20480D02*
D03*
X-44080Y-22480D02*
D03*
X-43080Y-24480D02*
D03*
Y-28480D02*
D03*
X-44080Y-34480D02*
D03*
Y-38480D02*
D03*
X-43080Y-40480D02*
D03*
Y-72480D02*
D03*
X-44080Y-74480D02*
D03*
X-43080Y-76480D02*
D03*
X-44080Y-78480D02*
D03*
X-43080Y-80480D02*
D03*
X-44080Y-82480D02*
D03*
X-43080Y-84480D02*
D03*
X-44080Y-86480D02*
D03*
X-43080Y-88480D02*
D03*
X-44080Y-90480D02*
D03*
X-43080Y-92480D02*
D03*
X-44080Y-94480D02*
D03*
X-43080Y-96480D02*
D03*
X-44080Y-98480D02*
D03*
X-46080Y-2480D02*
D03*
X-45080Y-4480D02*
D03*
X-46080Y-6480D02*
D03*
X-45080Y-8480D02*
D03*
X-46080Y-10480D02*
D03*
X-45080Y-12480D02*
D03*
X-46080Y-14480D02*
D03*
X-45080Y-16480D02*
D03*
X-46080Y-18480D02*
D03*
X-45080Y-20480D02*
D03*
X-46080Y-22480D02*
D03*
X-45080Y-24480D02*
D03*
Y-28480D02*
D03*
X-46080Y-34480D02*
D03*
Y-38480D02*
D03*
Y-62480D02*
D03*
X-45080Y-68480D02*
D03*
X-46080Y-70480D02*
D03*
X-45080Y-72480D02*
D03*
X-46080Y-74480D02*
D03*
X-45080Y-76480D02*
D03*
X-46080Y-78480D02*
D03*
X-45080Y-80480D02*
D03*
X-46080Y-82480D02*
D03*
X-45080Y-84480D02*
D03*
X-46080Y-86480D02*
D03*
X-45080Y-88480D02*
D03*
X-46080Y-90480D02*
D03*
X-45080Y-92480D02*
D03*
X-46080Y-94480D02*
D03*
X-45080Y-96480D02*
D03*
X-46080Y-98480D02*
D03*
X-48080Y-2480D02*
D03*
X-47080Y-4480D02*
D03*
X-48080Y-6480D02*
D03*
X-47080Y-8480D02*
D03*
X-48080Y-10480D02*
D03*
X-47080Y-12480D02*
D03*
X-48080Y-14480D02*
D03*
X-47080Y-16480D02*
D03*
X-48080Y-18480D02*
D03*
X-47080Y-20480D02*
D03*
X-48080Y-22480D02*
D03*
X-47080Y-24480D02*
D03*
X-48080Y-26480D02*
D03*
X-47080Y-28480D02*
D03*
Y-36480D02*
D03*
Y-40480D02*
D03*
Y-48480D02*
D03*
Y-52480D02*
D03*
Y-68480D02*
D03*
X-48080Y-70480D02*
D03*
X-47080Y-72480D02*
D03*
X-48080Y-74480D02*
D03*
X-47080Y-76480D02*
D03*
X-48080Y-78480D02*
D03*
X-47080Y-80480D02*
D03*
X-48080Y-82480D02*
D03*
X-47080Y-84480D02*
D03*
X-48080Y-86480D02*
D03*
X-47080Y-88480D02*
D03*
X-48080Y-90480D02*
D03*
X-47080Y-92480D02*
D03*
X-48080Y-94480D02*
D03*
X-47080Y-96480D02*
D03*
X-48080Y-98480D02*
D03*
X-50080Y-2480D02*
D03*
X-49080Y-4480D02*
D03*
X-50080Y-6480D02*
D03*
X-49080Y-8480D02*
D03*
X-50080Y-10480D02*
D03*
X-49080Y-12480D02*
D03*
X-50080Y-14480D02*
D03*
X-49080Y-16480D02*
D03*
X-50080Y-18480D02*
D03*
X-49080Y-20480D02*
D03*
X-50080Y-22480D02*
D03*
X-49080Y-24480D02*
D03*
X-50080Y-26480D02*
D03*
X-49080Y-32480D02*
D03*
X-50080Y-38480D02*
D03*
Y-42480D02*
D03*
Y-46480D02*
D03*
Y-50480D02*
D03*
X-49080Y-64480D02*
D03*
X-50080Y-66480D02*
D03*
X-49080Y-68480D02*
D03*
X-50080Y-70480D02*
D03*
X-49080Y-72480D02*
D03*
X-50080Y-74480D02*
D03*
X-49080Y-76480D02*
D03*
X-50080Y-78480D02*
D03*
X-49080Y-80480D02*
D03*
X-50080Y-82480D02*
D03*
X-49080Y-84480D02*
D03*
X-50080Y-86480D02*
D03*
X-49080Y-88480D02*
D03*
X-50080Y-90480D02*
D03*
X-49080Y-92480D02*
D03*
X-50080Y-94480D02*
D03*
X-49080Y-96480D02*
D03*
X-50080Y-98480D02*
D03*
X-52080Y-2480D02*
D03*
X-51080Y-4480D02*
D03*
X-52080Y-6480D02*
D03*
X-51080Y-8480D02*
D03*
X-52080Y-10480D02*
D03*
X-51080Y-12480D02*
D03*
X-52080Y-14480D02*
D03*
X-51080Y-16480D02*
D03*
X-52080Y-18480D02*
D03*
X-51080Y-20480D02*
D03*
X-52080Y-22480D02*
D03*
X-51080Y-24480D02*
D03*
X-52080Y-26480D02*
D03*
Y-30480D02*
D03*
Y-34480D02*
D03*
X-51080Y-36480D02*
D03*
X-52080Y-38480D02*
D03*
X-51080Y-40480D02*
D03*
X-52080Y-42480D02*
D03*
X-51080Y-44480D02*
D03*
X-52080Y-46480D02*
D03*
X-51080Y-48480D02*
D03*
X-52080Y-50480D02*
D03*
X-51080Y-52480D02*
D03*
Y-56480D02*
D03*
X-52080Y-62480D02*
D03*
X-51080Y-64480D02*
D03*
X-52080Y-66480D02*
D03*
X-51080Y-72480D02*
D03*
Y-76480D02*
D03*
X-52080Y-78480D02*
D03*
X-51080Y-80480D02*
D03*
X-52080Y-82480D02*
D03*
X-51080Y-84480D02*
D03*
X-52080Y-86480D02*
D03*
X-51080Y-88480D02*
D03*
X-52080Y-90480D02*
D03*
X-51080Y-92480D02*
D03*
X-52080Y-94480D02*
D03*
X-51080Y-96480D02*
D03*
X-52080Y-98480D02*
D03*
X-54080Y-2480D02*
D03*
X-53080Y-4480D02*
D03*
X-54080Y-6480D02*
D03*
X-53080Y-8480D02*
D03*
X-54080Y-10480D02*
D03*
X-53080Y-12480D02*
D03*
X-54080Y-14480D02*
D03*
X-53080Y-16480D02*
D03*
X-54080Y-18480D02*
D03*
X-53080Y-20480D02*
D03*
X-54080Y-22480D02*
D03*
X-53080Y-24480D02*
D03*
X-54080Y-26480D02*
D03*
X-53080Y-28480D02*
D03*
X-54080Y-30480D02*
D03*
X-53080Y-32480D02*
D03*
X-54080Y-34480D02*
D03*
X-53080Y-36480D02*
D03*
X-54080Y-38480D02*
D03*
X-53080Y-44480D02*
D03*
X-54080Y-46480D02*
D03*
X-53080Y-48480D02*
D03*
X-54080Y-50480D02*
D03*
X-53080Y-52480D02*
D03*
Y-64480D02*
D03*
Y-76480D02*
D03*
X-54080Y-78480D02*
D03*
X-53080Y-80480D02*
D03*
X-54080Y-82480D02*
D03*
X-53080Y-84480D02*
D03*
X-54080Y-86480D02*
D03*
X-53080Y-88480D02*
D03*
X-54080Y-90480D02*
D03*
X-53080Y-92480D02*
D03*
X-54080Y-94480D02*
D03*
X-53080Y-96480D02*
D03*
X-54080Y-98480D02*
D03*
X-55080Y-4480D02*
D03*
X-56080Y-6480D02*
D03*
X-55080Y-8480D02*
D03*
X-56080Y-10480D02*
D03*
X-55080Y-12480D02*
D03*
X-56080Y-14480D02*
D03*
X-55080Y-16480D02*
D03*
X-56080Y-18480D02*
D03*
X-55080Y-20480D02*
D03*
X-56080Y-22480D02*
D03*
X-55080Y-24480D02*
D03*
X-56080Y-26480D02*
D03*
X-55080Y-28480D02*
D03*
X-56080Y-30480D02*
D03*
X-55080Y-32480D02*
D03*
X-56080Y-34480D02*
D03*
X-55080Y-36480D02*
D03*
X-56080Y-38480D02*
D03*
Y-46480D02*
D03*
X-55080Y-48480D02*
D03*
X-56080Y-50480D02*
D03*
X-55080Y-56480D02*
D03*
X-56080Y-58480D02*
D03*
X-55080Y-60480D02*
D03*
X-56080Y-66480D02*
D03*
X-55080Y-76480D02*
D03*
X-56080Y-78480D02*
D03*
X-55080Y-80480D02*
D03*
X-56080Y-82480D02*
D03*
X-55080Y-84480D02*
D03*
X-56080Y-86480D02*
D03*
X-55080Y-88480D02*
D03*
X-56080Y-90480D02*
D03*
X-55080Y-92480D02*
D03*
X-56080Y-94480D02*
D03*
X-55080Y-96480D02*
D03*
X-58080Y-6480D02*
D03*
X-57080Y-8480D02*
D03*
X-58080Y-10480D02*
D03*
X-57080Y-12480D02*
D03*
X-58080Y-14480D02*
D03*
X-57080Y-16480D02*
D03*
X-58080Y-18480D02*
D03*
X-57080Y-20480D02*
D03*
X-58080Y-22480D02*
D03*
X-57080Y-24480D02*
D03*
X-58080Y-26480D02*
D03*
X-57080Y-28480D02*
D03*
X-58080Y-30480D02*
D03*
X-57080Y-32480D02*
D03*
X-58080Y-34480D02*
D03*
X-57080Y-36480D02*
D03*
X-58080Y-38480D02*
D03*
X-57080Y-48480D02*
D03*
X-58080Y-54480D02*
D03*
X-57080Y-56480D02*
D03*
X-58080Y-58480D02*
D03*
X-57080Y-60480D02*
D03*
X-58080Y-62480D02*
D03*
X-57080Y-64480D02*
D03*
X-58080Y-66480D02*
D03*
X-57080Y-76480D02*
D03*
X-58080Y-78480D02*
D03*
X-57080Y-80480D02*
D03*
X-58080Y-82480D02*
D03*
X-57080Y-84480D02*
D03*
X-58080Y-86480D02*
D03*
X-57080Y-88480D02*
D03*
X-58080Y-90480D02*
D03*
X-57080Y-92480D02*
D03*
X-58080Y-94480D02*
D03*
X-52585Y-60137D02*
D03*
X-52724Y-57327D02*
D03*
X-36580Y-87480D02*
D03*
X-56130Y-68754D02*
D03*
X-54346Y-68764D02*
D03*
X-51171Y-63371D02*
D03*
X-19080Y-62480D02*
D03*
X-13300Y-78225D02*
D03*
X-15750D02*
D03*
X-38957Y-47243D02*
D03*
X-42632Y-49543D02*
D03*
X-11225Y-6750D02*
D03*
X-32400Y-4500D02*
D03*
X-33200Y-5200D02*
D03*
X-32400Y-5900D02*
D03*
Y-6900D02*
D03*
Y-8500D02*
D03*
X-33300Y-7700D02*
D03*
X-41500Y-59475D02*
D03*
X-38500Y-56475D02*
D03*
Y-59475D02*
D03*
X-41500Y-56475D02*
D03*
X-52705Y-71915D02*
D03*
Y-70645D02*
D03*
X-54610Y-73820D02*
D03*
X-55880D02*
D03*
X-57785Y-71915D02*
D03*
Y-70645D02*
D03*
X-47500Y-60000D02*
D03*
X-52500Y-58725D02*
D03*
X-50900D02*
D03*
X-49080Y-27480D02*
D03*
X-44080D02*
D03*
X-37830Y-19980D02*
D03*
X-36580Y-17480D02*
D03*
X-34080D02*
D03*
X-24080Y-12480D02*
D03*
X-37830Y-24980D02*
D03*
Y-34980D02*
D03*
X-24080Y-37480D02*
D03*
X-9450Y-31350D02*
D03*
X-27188Y-32480D02*
D03*
X-29080D02*
D03*
X-32627Y-32564D02*
D03*
X-9911Y-5188D02*
D03*
X-21986Y-8694D02*
D03*
X-49953Y-63883D02*
D03*
X-48900Y-60525D02*
D03*
X-48587Y-56482D02*
D03*
X-51208Y-53985D02*
D03*
D69*
X-19275Y-37900D02*
D03*
X-57172Y-46743D02*
D03*
X-57190Y-49325D02*
D03*
X-24168Y-71562D02*
D03*
X-31476Y-48577D02*
D03*
X-33100Y-55652D02*
D03*
X-26779Y-56735D02*
D03*
X-40125Y-63775D02*
D03*
X-16850Y-73000D02*
D03*
X-22175Y-84050D02*
D03*
Y-81950D02*
D03*
Y-79875D02*
D03*
X-33975Y-83575D02*
D03*
X-34913Y-80537D02*
D03*
X-29250Y-79050D02*
D03*
X-31150Y-83175D02*
D03*
X-26600Y-83450D02*
D03*
Y-81300D02*
D03*
X-27362Y-79875D02*
D03*
X-29300Y-87700D02*
D03*
X-28730D02*
D03*
X-31700Y-71525D02*
D03*
X-21110Y-88229D02*
D03*
X-23630Y-87636D02*
D03*
X-33050Y-45000D02*
D03*
X-21750Y-45025D02*
D03*
X-33050Y-44443D02*
D03*
X-21775Y-44475D02*
D03*
X-21126Y-39727D02*
D03*
X-19950Y-36250D02*
D03*
X-20350Y-35275D02*
D03*
X-21715Y-46510D02*
D03*
X-21725Y-48575D02*
D03*
X-31100Y-49525D02*
D03*
X-21725D02*
D03*
X-30725Y-49050D02*
D03*
X-21725D02*
D03*
X-9400Y-83150D02*
D03*
X-16325Y-75725D02*
D03*
X-8650Y-59728D02*
D03*
X-9025Y-58725D02*
D03*
X-9400Y-59225D02*
D03*
X-9775Y-61225D02*
D03*
Y-78050D02*
D03*
X-10150Y-60800D02*
D03*
Y-75925D02*
D03*
X-10525Y-78475D02*
D03*
X-10900Y-80575D02*
D03*
X-12500Y-25250D02*
D03*
X-25025Y-22725D02*
D03*
X-23075Y-22075D02*
D03*
X-24125Y-26100D02*
D03*
X-27374Y-27874D02*
D03*
X-34000Y-25475D02*
D03*
Y-25000D02*
D03*
Y-24525D02*
D03*
Y-24050D02*
D03*
Y-23575D02*
D03*
X-29350Y-22050D02*
D03*
X-45075Y-58725D02*
D03*
Y-57225D02*
D03*
X-44445Y-66220D02*
D03*
X-46323Y-66773D02*
D03*
X-45200Y-61225D02*
D03*
Y-54225D02*
D03*
X-39250Y-52725D02*
D03*
X-23725Y-18825D02*
D03*
X-25025Y-18825D02*
D03*
X-25025Y-18175D02*
D03*
X-25675D02*
D03*
X-41950Y-51000D02*
D03*
X-40251Y-63053D02*
D03*
X-4900Y-23925D02*
D03*
X-25075Y-10675D02*
D03*
X-34125Y-2150D02*
D03*
X-10800Y-5675D02*
D03*
X-17225Y-7600D02*
D03*
X-17400Y-5650D02*
D03*
X-26500Y-25500D02*
D03*
X-40500Y-1500D02*
D03*
X-18675Y-21300D02*
D03*
X-11100Y-16100D02*
D03*
X-11450Y-12650D02*
D03*
X-25025Y-20775D02*
D03*
X-24375D02*
D03*
X-25675D02*
D03*
X-23075Y-18825D02*
D03*
X-22425Y-17525D02*
D03*
X-23725Y-22075D02*
D03*
X-26975Y-18825D02*
D03*
X-7600Y-1518D02*
D03*
X-4900Y-26500D02*
D03*
Y-25200D02*
D03*
X-2800Y-8800D02*
D03*
X-3875Y-7100D02*
D03*
X-900Y-11100D02*
D03*
X-4550Y-9800D02*
D03*
X-16325Y-20275D02*
D03*
Y-21225D02*
D03*
X-17800Y-19025D02*
D03*
X-17125Y-8500D02*
D03*
X-23725Y-20125D02*
D03*
X-23875Y-14525D02*
D03*
X-24375Y-21425D02*
D03*
X-25350Y-16975D02*
D03*
X-32800Y-18900D02*
D03*
X-23625Y-17225D02*
D03*
X-23097Y-17228D02*
D03*
X-26325Y-22725D02*
D03*
X-26324Y-24151D02*
D03*
X-23725Y-20775D02*
D03*
Y-21425D02*
D03*
X-30875Y-23000D02*
D03*
X-34200Y-55675D02*
D03*
X-41362Y-64875D02*
D03*
X-43200Y-52225D02*
D03*
X-45200Y-60725D02*
D03*
X-45200Y-61725D02*
D03*
X-37750Y-63150D02*
D03*
X-36750Y-63150D02*
D03*
X-19200Y-17400D02*
D03*
X-32775Y-20575D02*
D03*
X-24900Y-26875D02*
D03*
X-45182Y-59725D02*
D03*
X-45725Y-51600D02*
D03*
X-14417Y-92992D02*
D03*
X-36250Y-63150D02*
D03*
X-38625Y-51950D02*
D03*
X-38250Y-52850D02*
D03*
X-37750Y-65425D02*
D03*
X-44150Y-52150D02*
D03*
X-34200Y-62711D02*
D03*
X-36755Y-65425D02*
D03*
X-29427Y-63486D02*
D03*
X-30098Y-63400D02*
D03*
X-34825Y-58225D02*
D03*
X-36750Y-52825D02*
D03*
X-37750Y-52850D02*
D03*
X-34200Y-61775D02*
D03*
X-27746Y-67050D02*
D03*
X-27841Y-57225D02*
D03*
X-27416Y-57725D02*
D03*
X-16775Y-55225D02*
D03*
X-17200Y-54725D02*
D03*
X-45625Y-56575D02*
D03*
X-42375Y-52850D02*
D03*
X-46825Y-42300D02*
D03*
X-43375Y-42325D02*
D03*
X-12500Y-26500D02*
D03*
X-7000Y-62825D02*
D03*
X-40725Y-52100D02*
D03*
X-34875Y-55725D02*
D03*
X-43150Y-63575D02*
D03*
X-42600Y-63550D02*
D03*
X-22375Y-89175D02*
D03*
X-20750Y-37900D02*
D03*
X-24900Y-24900D02*
D03*
X-10475Y-11425D02*
D03*
X-10750Y-45225D02*
D03*
X-32398Y-61229D02*
D03*
X-33600Y-10400D02*
D03*
X-46850Y-56575D02*
D03*
X-46550Y-56200D02*
D03*
X-45975D02*
D03*
X-47100D02*
D03*
X-46200Y-57975D02*
D03*
Y-59600D02*
D03*
X-46875D02*
D03*
X-46525Y-59925D02*
D03*
X-46900Y-60250D02*
D03*
X-46250Y-56575D02*
D03*
X-19700Y-18200D02*
D03*
X-31800Y-1500D02*
D03*
X-25000D02*
D03*
X-30600Y-16000D02*
D03*
X-36925D02*
D03*
X-36925Y-14850D02*
D03*
X-41400Y-34850D02*
D03*
X-33050Y-16000D02*
D03*
X-46100Y-30725D02*
D03*
X-49014Y-54579D02*
D03*
X-50817Y-59385D02*
D03*
X-50807Y-59838D02*
D03*
X-50817Y-57539D02*
D03*
X-50797Y-58024D02*
D03*
X-52724Y-58086D02*
D03*
X-53126Y-58446D02*
D03*
X-53178Y-59075D02*
D03*
X-52694Y-59447D02*
D03*
X-49286Y-62557D02*
D03*
D70*
X-29350Y-21425D02*
D03*
X-16062Y-16538D02*
D03*
X-21100Y-21425D02*
D03*
X-25700Y-6500D02*
D03*
X-24900Y-8100D02*
D03*
X-24700Y-3500D02*
D03*
X-26900D02*
D03*
X-25800Y-4900D02*
D03*
X-26900Y-4300D02*
D03*
X-24700D02*
D03*
X-12000Y-9675D02*
D03*
D82*
X-11450Y-13350D02*
D03*
Y-11450D02*
D03*
X-9350Y-12400D02*
D03*
X-15550Y-12400D02*
D03*
Y-10500D02*
D03*
X-13450Y-11450D02*
D03*
Y-14050D02*
D03*
Y-15950D02*
D03*
X-15550Y-15000D02*
D03*
X-21175Y-6325D02*
D03*
X-19075Y-7275D02*
D03*
Y-5375D02*
D03*
D83*
X-28775Y-3450D02*
D03*
X-25825D02*
D03*
D84*
X-24900Y-7098D02*
D03*
Y-5701D02*
D03*
D85*
X-3875Y-7875D02*
D03*
X-3225D02*
D03*
X-2575D02*
D03*
Y-9725D02*
D03*
X-3225D02*
D03*
X-3875D02*
D03*
D86*
X-27950Y-17850D02*
D03*
X-27300D02*
D03*
X-26650D02*
D03*
X-26000D02*
D03*
X-25350D02*
D03*
X-24700D02*
D03*
X-24050D02*
D03*
X-23400D02*
D03*
X-22750D02*
D03*
X-22100D02*
D03*
X-27950Y-18500D02*
D03*
X-27300D02*
D03*
X-26650D02*
D03*
X-26000D02*
D03*
X-25350D02*
D03*
X-24700D02*
D03*
X-24050D02*
D03*
X-23400D02*
D03*
X-22750D02*
D03*
X-22100D02*
D03*
X-27950Y-19150D02*
D03*
X-27300D02*
D03*
X-26650D02*
D03*
X-26000D02*
D03*
X-25350D02*
D03*
X-24700D02*
D03*
X-24050D02*
D03*
X-23400D02*
D03*
X-22750D02*
D03*
X-27950Y-19800D02*
D03*
X-27300D02*
D03*
X-26650D02*
D03*
X-26000D02*
D03*
X-25350D02*
D03*
X-24700D02*
D03*
X-24050D02*
D03*
X-23400D02*
D03*
X-22750D02*
D03*
X-27950Y-20450D02*
D03*
X-27300D02*
D03*
X-26650D02*
D03*
X-26000D02*
D03*
X-25350D02*
D03*
X-24700D02*
D03*
X-24050D02*
D03*
X-23400D02*
D03*
X-22750D02*
D03*
X-27950Y-21750D02*
D03*
X-27300D02*
D03*
X-26650D02*
D03*
X-26000D02*
D03*
X-25350D02*
D03*
X-24700D02*
D03*
X-24050D02*
D03*
X-23400D02*
D03*
X-22750D02*
D03*
X-27950Y-22400D02*
D03*
X-27300D02*
D03*
X-26650D02*
D03*
X-26000D02*
D03*
X-25350D02*
D03*
X-24700D02*
D03*
X-24050D02*
D03*
X-23400D02*
D03*
X-22750D02*
D03*
X-27950Y-23050D02*
D03*
X-27300D02*
D03*
X-26650D02*
D03*
X-26000D02*
D03*
X-25350D02*
D03*
X-24700D02*
D03*
X-24050D02*
D03*
X-23400D02*
D03*
X-22750D02*
D03*
X-27950Y-23700D02*
D03*
X-27300D02*
D03*
X-26650D02*
D03*
X-26000D02*
D03*
X-25350D02*
D03*
X-24700D02*
D03*
X-24050D02*
D03*
X-23400D02*
D03*
X-22750D02*
D03*
X-27950Y-21100D02*
D03*
X-27300D02*
D03*
X-26650D02*
D03*
X-26000D02*
D03*
X-25350D02*
D03*
X-24700D02*
D03*
X-24050D02*
D03*
X-23400D02*
D03*
X-22750D02*
D03*
X-22100D02*
D03*
Y-19150D02*
D03*
Y-19800D02*
D03*
Y-20450D02*
D03*
Y-21750D02*
D03*
Y-22400D02*
D03*
Y-23050D02*
D03*
Y-23700D02*
D03*
D87*
X-26500Y-5550D02*
D03*
Y-6500D02*
D03*
Y-7450D02*
D03*
X-28900D02*
D03*
Y-5550D02*
D03*
D88*
X-13100Y-22150D02*
D03*
Y-18350D02*
D03*
X-15400D02*
D03*
Y-22150D02*
D03*
D89*
X-28900Y-5550D02*
Y-3575D01*
X-13450Y-11450D02*
X-11450D01*
X-8068Y-12400D02*
X-6978Y-13490D01*
X-9350Y-12400D02*
X-8068D01*
M02*
